<?xml version="1.0" encoding="utf-8"?>
<!-- Generator: Adobe Illustrator 16.0.0, SVG Export Plug-In . SVG Version: 6.00 Build 0)  -->
<!DOCTYPE svg PUBLIC "-//W3C//DTD SVG 1.1//EN" "http://www.w3.org/Graphics/SVG/1.1/DTD/svg11.dtd">
<svg version="1.1" id="图层_1" xmlns="http://www.w3.org/2000/svg" xmlns:xlink="http://www.w3.org/1999/xlink" x="0px" y="0px"
	 width="512px" height="512px" viewBox="0 0 512 512" enable-background="new 0 0 512 512" xml:space="preserve">
<g>
	<path fill-rule="evenodd" clip-rule="evenodd" fill="#231815" d="M451.5,512.5h-392c-33.1,0-60-26.9-60-60v-392
		c0-33.1,26.9-60,60-60h392c33.1,0,60,26.9,60,60v392C511.5,485.6,484.6,512.5,451.5,512.5z M473.1,98.9c0-33.1-26.9-60-60-60H97.9
		c-33.1,0-60,26.9-60,60v315.2c0,33.1,26.9,60,60,60h315.2c33.1,0,60-26.9,60-60V98.9z M389,445.5c-9.3,0-17.2-5.4-21.1-13.1
		l-0.7,0.3H367L329,332.5H178.6l-36.6,100.1h-0.3c-3.4,8.1-11.4,13.9-20.8,13.9c-12.4,0-22.5-10.1-22.5-22.5c0-2.6,0.5-5,1.2-7.3
		l-0.1,0L227.1,84.2h0.4c4-9.8,13.7-16.7,25-16.7c12.6,0,23.1,8.6,26.1,20.2L412,415l-0.5,0.2c0.7,2.2,1,4.4,1,6.8
		C412.5,435,402,445.5,389,445.5z M251.7,128.5l-57.7,159h118.3L251.7,128.5z"/>
</g>
</svg>
