<?xml version="1.0" encoding="utf-8"?>
<!-- Generator: Adobe Illustrator 16.0.0, SVG Export Plug-In . SVG Version: 6.00 Build 0)  -->
<!DOCTYPE svg PUBLIC "-//W3C//DTD SVG 1.1//EN" "http://www.w3.org/Graphics/SVG/1.1/DTD/svg11.dtd">
<svg version="1.1" id="图层_1" xmlns="http://www.w3.org/2000/svg" xmlns:xlink="http://www.w3.org/1999/xlink" x="0px" y="0px"
	 width="512px" height="512px" viewBox="0 0 512 512" enable-background="new 0 0 512 512" xml:space="preserve">
<g>
	<path fill-rule="evenodd" clip-rule="evenodd" fill="#231815" d="M451.5,512.5h-392c-33.1,0-60-26.9-60-60v-392
		c0-33.1,26.9-60,60-60h392c33.1,0,60,26.9,60,60v392C511.5,485.6,484.6,512.5,451.5,512.5z M412,415L278.6,87.7
		c-3-11.6-13.5-20.2-26.1-20.2c-11.3,0-20.9,6.9-25,16.7h-0.4L99.7,416.7l0.1,0c-0.8,2.3-1.2,4.8-1.2,7.3
		c0,12.4,10.1,22.5,22.5,22.5c9.4,0,17.4-5.7,20.8-13.9h0.3l36.6-100.1H329L367,432.6h0.2l0.7-0.3c3.8,7.8,11.8,13.1,21.1,13.1
		c13,0,23.5-10.5,23.5-23.5c0-2.4-0.4-4.7-1-6.8L412,415z M251.7,128.5l60.6,159H194L251.7,128.5z"/>
</g>
</svg>
