<?xml version="1.0" encoding="utf-8"?>
<!-- Generator: Adobe Illustrator 19.0.0, SVG Export Plug-In . SVG Version: 6.00 Build 0)  -->
<svg version="1.1" id="图层_1" xmlns="http://www.w3.org/2000/svg" xmlns:xlink="http://www.w3.org/1999/xlink" x="0px" y="0px"
	 width="1451.3px" height="1451.3px" viewBox="0 0 1451.3 1451.3" enable-background="new 0 0 1451.3 1451.3" xml:space="preserve">
<g id="XMLID_2_">
	<g id="XMLID_3_">
		<g id="XMLID_4_">
			<g id="XMLID_7_">
				<path id="XMLID_8_" d="M1361.8,1064.8c-34.8,75.6-51.3,109.3-95.9,176.2c-62.4,93.1-150.2,209.3-259.2,210.3
					c-96.7,0.7-121.5-61.9-252.9-61.4c-131.4,0.8-158.7,62.3-255.4,61.4c-108.9-0.8-192.2-105.7-254.5-198.9
					C69.5,991.7,51.2,685.8,158.7,523.1C235.1,407.6,355.6,340,469,340C584.5,340,657,402,752.4,402c92.6,0,148.9-62.3,282.4-62.3
					c100.9,0,207.7,54,283.9,147.3C1069.1,621.3,1109.7,971.1,1361.8,1064.8L1361.8,1064.8z"/>
			</g>
			<g id="XMLID_5_">
				<path id="XMLID_6_" d="M933.5,235.6C982,174.5,1018.9,88.3,1005.5,0c-79.2,5.3-171.9,54.8-225.9,119.3
					C730.5,177.9,690,264.5,705.8,349C792.2,351.8,881.6,301,933.5,235.6L933.5,235.6z"/>
			</g>
		</g>
	</g>
</g>
</svg>
