<?xml version="1.0" encoding="utf-8"?>
<!-- Generator: Adobe Illustrator 17.0.0, SVG Export Plug-In . SVG Version: 6.00 Build 0)  -->
<!DOCTYPE svg PUBLIC "-//W3C//DTD SVG 1.1//EN" "http://www.w3.org/Graphics/SVG/1.1/DTD/svg11.dtd">
<svg version="1.1" id="图层_1" xmlns="http://www.w3.org/2000/svg" xmlns:xlink="http://www.w3.org/1999/xlink" x="0px" y="0px"
	 width="512px" height="512px" viewBox="0 0 512 512" enable-background="new 0 0 512 512" xml:space="preserve">
<path d="M446.8,81.7l0.2-0.2l-7.2-7.1c-1.7-1.7-3.4-3.4-5.2-5.1l-6.8-6.7l-0.2,0.2C382.2,22.5,322.5-2,257-2C115.1-2,0,113.1,0,255
	s115.1,257,257,257c141.9,0,257-115.1,257-257C514,188.2,488.5,127.4,446.8,81.7z M450.7,369.2l-147.4-142l35.3-35.8
	c39.7,34.5,90.6,50.6,142.8,49C484.3,284.8,474,329.8,450.7,369.2z M476.8,207.3c-42.1,0.5-82.8-12.5-114.8-39.6l62.2-63.1
	C451.2,134.6,468.8,170.1,476.8,207.3z M405,85.7l-62,62.9c-26.8-31.7-39.9-72-39.6-113.6C340.1,42.6,375.1,59.5,405,85.7z
	 M270.1,30.5c-1.3,51.9,15,102.5,49.4,141.9l-35.6,36.1L196.1,124l-59.4-59C177.1,39.3,224,27.8,270.1,30.5z M98,96
	c5-5,10.1-9.7,15.5-14.1l151.4,145.9l-31,31.4C180,212.6,105.4,199.8,35,219.3C42.2,174.1,63.2,130.8,98,96z M32.1,255
	c62.6-21.3,130.2-12.5,178.3,27.9L89.8,405.3C51.4,362.6,32.1,308.8,32.1,255z M269.5,425.6c-1.1,18.4-4.7,36.6-10.5,54.2
	c-53.5,0.5-107.1-18.1-150-55.6l120.6-122.3C258,335.2,272.1,378.6,269.5,425.6z M294.8,476.7c4.3-16.1,7-32.5,8-49.2
	c3.2-56.8-14.4-109.3-49.6-149.3l31.3-31.7L435.4,392c-5.9,7.7-12.4,15-19.4,22C381.8,448.3,339.2,469.2,294.8,476.7z"/>
</svg>
