<?xml version="1.0" encoding="utf-8"?>
<!-- Generator: Adobe Illustrator 17.0.0, SVG Export Plug-In . SVG Version: 6.00 Build 0)  -->
<!DOCTYPE svg PUBLIC "-//W3C//DTD SVG 1.1//EN" "http://www.w3.org/Graphics/SVG/1.1/DTD/svg11.dtd">
<svg version="1.1" id="图层_1" xmlns="http://www.w3.org/2000/svg" xmlns:xlink="http://www.w3.org/1999/xlink" x="0px" y="0px"
	 width="512px" height="512px" viewBox="0 0 512 512" enable-background="new 0 0 512 512" xml:space="preserve">
<g>
	<path d="M403.3,96l26.4-26.3c-35.2-32.8-77.4-53.9-121.6-63.1c-0.3,49.5,15.9,97.2,49.2,134L403.3,96z"/>
	<path d="M351.5,187.2L308.4,229l163.9,162.7c28.8-46.1,41.5-99.3,38.1-151.7C452.5,241.8,396.1,224.4,351.5,187.2z"/>
	<path d="M378.9,160.8c35.7,28.5,80.2,42.1,126.2,41.5c-8.6-39.8-26.8-78-54.7-110.8L378.9,160.8z"/>
	<path d="M330.2,166.8c-41.5-45.3-61.3-104.5-59.8-165.3c-52.5-3.1-105.6,10-151.6,39.2l168.6,167.5L330.2,166.8z"/>
	<path d="M231,262.8l34.5-33.4L93.9,58.7c-6.6,5.4-12.9,11.1-19,17.2C35.3,115.4,11.5,164.7,3.3,216C84,193.6,169.6,208.7,231,262.8
		z"/>
	<path d="M84.2,446c49.1,44.5,111.4,66.5,173.5,66c6.6-20,10.8-40.6,11.9-61.6c2.9-53.4-13-102.6-45-140.3L84.2,446z"/>
	<path d="M286.5,250.2l-34.7,33.6c39.5,45.3,59.2,104.6,55.6,168.7c-1,18.9-4.1,37.6-9,55.9c50.4-8.5,98.8-32.2,137.7-71.2
		c6.5-6.4,12.5-13.2,18.1-20.1L286.5,250.2z"/>
	<path d="M203.7,289.2c-54.8-46.8-132.1-57-203.7-32.7c0,60.2,21.2,120.3,63.4,168.4L203.7,289.2z"/>
</g>
</svg>
