<?xml version="1.0" encoding="utf-8"?>
<!-- Generator: Adobe Illustrator 16.0.0, SVG Export Plug-In . SVG Version: 6.00 Build 0)  -->
<!DOCTYPE svg PUBLIC "-//W3C//DTD SVG 1.1//EN" "http://www.w3.org/Graphics/SVG/1.1/DTD/svg11.dtd">
<svg version="1.1" id="图层_2" xmlns="http://www.w3.org/2000/svg" xmlns:xlink="http://www.w3.org/1999/xlink" x="0px" y="0px"
	 width="512px" height="512px" viewBox="0 0 512 512" enable-background="new 0 0 512 512" xml:space="preserve">
<path fill-rule="evenodd" clip-rule="evenodd" fill="#231815" d="M493,336h-19v29c0,16.6-14,30-31.3,30H31.3C14,395,0,381.6,0,365
	V149c0-16.6,14-30,31.3-30h411.5c17.3,0,31.3,13.4,31.3,30v30h19c11,0,20,9,20,20v117C513,327,504,336,493,336z M442.7,176
	c0-13.8-11.7-25-26-25H57.3c-14.4,0-26,11.2-26,25v162c0,13.8,11.7,25,26,25h359.4c14.4,0,26-11.2,26-25V176z"/>
</svg>
