<?xml version="1.0" encoding="utf-8"?>
<!-- Generator: Adobe Illustrator 19.0.0, SVG Export Plug-In . SVG Version: 6.00 Build 0)  -->
<svg version="1.1" id="图层_1" xmlns="http://www.w3.org/2000/svg" xmlns:xlink="http://www.w3.org/1999/xlink" x="0px" y="0px"
	 width="1451.3px" height="1451.3px" viewBox="0 0 1451.3 1451.3" enable-background="new 0 0 1451.3 1451.3" xml:space="preserve">
<g id="XMLID_13_">
	<path id="XMLID_14_" d="M585.4,926.7c29.5-16.7,52-35.6,67.2-56.2c27-36.6,40.2-85.1,40.2-145.2c0-58.4-13.2-123.4-40.1-165.2
		c-44.4-68.5-120.2-120-227.1-120H2.2v1011.2H397c44.4,0,85.7-2,123.8-10.9c38.1-9,70.8-24.3,99-48.3c24.7-21.1,45.3-46.3,61.9-77
		c26.2-46.4,39.2-98.6,39.2-157.1c0-56.6-11.6-104.7-34.4-144.5C663.9,974.1,630.3,945.2,585.4,926.7z M181.9,642.4h185.5
		c42,0,76.7,4.6,103.7,14.7c31.1,14.9,47.1,44.8,47.1,90.7c0,41.5-12,63.2-35.8,79.6c-23.8,16.1-54.7,17.2-92.6,17.2h-208V642.4z
		 M445.2,1249.1H181.9v-202.2h263.4c44.5,0,88.6,49.7,88.6,101.1C533.9,1208.6,489.7,1249.1,445.2,1249.1z"/>
</g>
<path id="XMLID_10_" d="M1445.6,992.5c-7.4-56.2-24.5-112.3-50.5-155c-28.7-48.3-65.5-86.8-109.4-109.3
	c-44.3-22.3-94-35.2-149.1-35.2c-93.1,0-168.6,32.3-226.8,98.4c-58.2,66.2-87.4,161-87.4,285.1c0,132.2,32.3,227.8,96.9,286.4
	c64.4,58.8,138.8,88.1,223.3,88.1c102.1,0,181.7-18.7,238.6-88.4c36.4-43.7,57.1-113.4,61.4-113.4h-169.3
	c-9.8,0-21.5,21.3-34.2,33.3c-23.6,21.9-54.3,24.6-92,24.6c-35.5,0-66,0.7-91.4-17.3c-41.5-28.9-63.7-40.6-66.2-141.7h461.7
	C1451.9,1046.9,1450.1,1025.4,1445.6,992.5z M993.4,1046.9c6-101.1,56.6-172.1,143.2-172.1c86.5,0,139.5,71,142.3,172.1H993.4
	L993.4,1046.9z"/>
<path d="M957.1,490.6h359.4v101.2H957.1V490.6z"/>
</svg>
