<?xml version="1.0" encoding="utf-8"?>
<!-- Generator: Adobe Illustrator 16.0.0, SVG Export Plug-In . SVG Version: 6.00 Build 0)  -->
<!DOCTYPE svg PUBLIC "-//W3C//DTD SVG 1.1//EN" "http://www.w3.org/Graphics/SVG/1.1/DTD/svg11.dtd">
<svg version="1.1" id="图层_2" xmlns="http://www.w3.org/2000/svg" xmlns:xlink="http://www.w3.org/1999/xlink" x="0px" y="0px"
	 width="512px" height="512px" viewBox="0 0 512 512" enable-background="new 0 0 512 512" xml:space="preserve">
<path fill-rule="evenodd" clip-rule="evenodd" fill="#231815" d="M264.4,71.3l-0.4-0.8l1.2,1.3c2.3,1.4,4.3,3.4,5.6,5.7l130.2,137.8
	c4.2,2.9,6.9,7.7,6.9,13.2c0,8.8-7.2,16-16,16c-0.3,0-0.7,0-1-0.1h-51v183.1l-0.1,0.1c0,0.3,0,0.6,0,0.9c0,8.8-7.2,16-16,16
	c0,0,0,0,0,0H190c0,0,0,0,0,0s0,0,0,0h-1l-0.1-0.1c-8.3-0.6-14.8-7.4-14.9-15.9l-0.1-0.1V244.4h-48l-0.2-0.4
	c-1.2,0.3-2.4,0.5-3.7,0.5c-8.8,0-16-7.2-16-16c0-4.1,1.6-7.9,4.2-10.8l-0.2-0.4L245,74.4h0.4c2.9-3,7-4.9,11.5-4.9
	C259.7,69.5,262.1,70.2,264.4,71.3z"/>
</svg>
