<?xml version="1.0" encoding="utf-8"?>
<!-- Generator: Adobe Illustrator 16.0.0, SVG Export Plug-In . SVG Version: 6.00 Build 0)  -->
<!DOCTYPE svg PUBLIC "-//W3C//DTD SVG 1.1//EN" "http://www.w3.org/Graphics/SVG/1.1/DTD/svg11.dtd">
<svg version="1.1" id="图层_2" xmlns="http://www.w3.org/2000/svg" xmlns:xlink="http://www.w3.org/1999/xlink" x="0px" y="0px"
	 width="512px" height="512px" viewBox="0 0 512 512" enable-background="new 0 0 512 512" xml:space="preserve">
<path fill-rule="evenodd" clip-rule="evenodd" fill="#231815" d="M71.3,249.6l-0.8,0.4l1.3-1.2c1.4-2.3,3.4-4.3,5.7-5.6l137.8-130.2
	c2.9-4.2,7.7-6.9,13.2-6.9c8.8,0,16,7.2,16,16c0,0.3,0,0.7-0.1,1v51h183.1l0.1,0.1c0.3,0,0.6,0,0.9,0c8.8,0,16,7.2,16,16
	c0,0,0,0,0,0V324c0,0,0,0,0,0c0,0,0,0,0,0v1l-0.1,0.1c-0.6,8.3-7.4,14.8-15.9,14.9l-0.1,0.1H244.4v48l-0.4,0.2
	c0.3,1.2,0.5,2.4,0.5,3.7c0,8.8-7.2,16-16,16c-4.1,0-7.9-1.6-10.8-4.2l-0.4,0.2L74.4,269v-0.4c-3-2.9-4.9-7-4.9-11.5
	C69.5,254.3,70.2,251.9,71.3,249.6z"/>
</svg>
