<?xml version="1.0" encoding="utf-8"?>
<!-- Generator: Adobe Illustrator 16.0.0, SVG Export Plug-In . SVG Version: 6.00 Build 0)  -->
<!DOCTYPE svg PUBLIC "-//W3C//DTD SVG 1.1//EN" "http://www.w3.org/Graphics/SVG/1.1/DTD/svg11.dtd">
<svg version="1.1" id="图层_1" xmlns="http://www.w3.org/2000/svg" xmlns:xlink="http://www.w3.org/1999/xlink" x="0px" y="0px"
	 width="512px" height="512px" viewBox="0 0 512 512" enable-background="new 0 0 512 512" xml:space="preserve">
<g>
	<g>
		<g>
			<path id="SVGID_1_" d="M318.6,218.9c-8.3-20.5-24.4-25.5-24.4-25.5L490.3,0C509.8,2.4,511,21.9,511,21.9L318.6,218.9L318.6,218.9
				z M289.2,319.8l-96-96c60-47.5,99.1-11.2,99.1-11.2C341.7,257.4,289.2,319.8,289.2,319.8L289.2,319.8z M272.9,358.7
				c0,0-118.1-118-117.4-117.3c0.5-0.5,23.4-14.6,23.4-14.6l107.9,107.8L272.9,358.7L272.9,358.7z M236.7,510.1l0.5,1.5
				c-0.1,0-0.3-0.1-0.4-0.1c0,0.1,0,0.3,0,0.4c0,0-0.2-0.2-0.7-0.6c-24.3-5.4-30.9-24.1-31.9-27.4c-0.1-0.1-0.2-0.2-0.4-0.3l0.8-0.8
				c-4.6-7,3.9-35.4,3.9-35.4c-8.6,3.6-14.4,26-14.4,26l-0.3,1.2c-0.2-0.2-0.4-0.4-0.6-0.6c-1.3,0.1-2.9-0.1-4.7-0.4
				c-24.7-4.9-32.1-29-33.1-32.7l0.7-0.6h0.2c-0.1-0.1-0.2-0.2-0.3-0.3c-3.8-9.4,7.5-40.2,7.5-40.2c-8.8,7.1-19,28.9-19,28.9
				l-0.4,1.1c-31.3-8.7-49.2-42.3-54.9-54.9c24.3-14.7,43-38.2,43-38.2c-23.6,16.9-57.3,22.5-57.3,22.5l-0.1,0.1
				c-0.3-0.3-0.6-0.6-0.8-0.9c-1.5-0.3-3.1-0.8-5.1-1.5c-19.7-7.1-27.8-29.4-29.8-35.8l1.1-0.1c24.5-1.3,38.4-11.9,38.4-11.9
				c-30,6.8-46.1,3-46.1,3l-0.6,0.2c-19.1-7.9-26.8-30.1-28.5-35.7c-0.5-0.6-1-1.3-1.5-1.9c0.1,0.1,65,22.8,138.6-24.9l125.6,122.9
				C266.2,372.7,230.1,440.1,236.7,510.1L236.7,510.1z"/>
		</g>
	</g>
</g>
</svg>
