<?xml version="1.0" encoding="utf-8"?>
<!-- Generator: Adobe Illustrator 17.0.0, SVG Export Plug-In . SVG Version: 6.00 Build 0)  -->
<!DOCTYPE svg PUBLIC "-//W3C//DTD SVG 1.1//EN" "http://www.w3.org/Graphics/SVG/1.1/DTD/svg11.dtd">
<svg version="1.1" id="图层_1" xmlns="http://www.w3.org/2000/svg" xmlns:xlink="http://www.w3.org/1999/xlink" x="0px" y="0px"
	 width="512px" height="512px" viewBox="0 0 512 512" enable-background="new 0 0 512 512" xml:space="preserve">
<path d="M32.3,258h0.3l0.1,28c-0.2,1.4-0.3,2.8-0.3,4.3v129c0,17.8,14.4,32.3,32.3,32.3v32.3c0,17.8,14.4,32.3,32.3,32.3H129
	c17.8,0,32.3-14.4,32.3-32.3v-32.3h193.5v32.3c0,17.8,14.4,32.3,32.3,32.3h32.3c17.8,0,32.3-14.4,32.3-32.3v-32.3
	c17.8,0,32.3-14.4,32.3-32.3V258c17.8,0,32.3-14.4,32.3-32.3v-32.3c0-17.8-14.4-32.3-32.3-32.3V96.8C483.8,43.3,440.4,0,387,0H129
	C75.6,0,32.3,43.3,32.3,96.8V129l0.1,32.3h-0.1C14.4,161.3,0,175.7,0,193.5v32.3C0,243.6,14.4,258,32.3,258z M161.3,355.1
	c0,17.6-14.3,31.9-31.9,31.9H96.4c-17.6,0-31.9-14.3-31.9-31.9v-0.6c0-17.6,14.3-31.9,31.9-31.9h32.9c17.6,0,31.9,14.3,31.9,31.9
	V355.1z M451.5,355.1c0,17.6-14.3,31.9-31.9,31.9h-32.9c-17.6,0-31.9-14.3-31.9-31.9v-0.6c0-17.6,14.3-31.9,31.9-31.9h32.9
	c17.6,0,31.9,14.3,31.9,31.9V355.1z M64.5,96.8c0-35.6,28.9-64.5,64.5-64.5h258c35.6,0,64.5,28.9,64.5,64.5L451.2,258H64.5V96.8z"/>
</svg>
