<?xml version="1.0" encoding="utf-8"?>
<!-- Generator: Adobe Illustrator 17.0.0, SVG Export Plug-In . SVG Version: 6.00 Build 0)  -->
<!DOCTYPE svg PUBLIC "-//W3C//DTD SVG 1.1//EN" "http://www.w3.org/Graphics/SVG/1.1/DTD/svg11.dtd">
<svg version="1.1" id="图层_1" xmlns="http://www.w3.org/2000/svg" xmlns:xlink="http://www.w3.org/1999/xlink" x="0px" y="0px"
	 width="512px" height="512px" viewBox="0 0 512 512" enable-background="new 0 0 512 512" xml:space="preserve">
<g>
	<path d="M366.8,142.2c20.3,0,36.7-19.7,36.7-44.1S366.8,0,366.8,0s-36.7,73.7-36.7,98.1C330.1,122.5,346.6,142.2,366.8,142.2z"/>
	<path d="M146.7,142.2c20.3,0,36.7-19.7,36.7-44.1S146.7,0,146.7,0S110,73.7,110,98.1S126.5,142.2,146.7,142.2z"/>
	<path d="M256.8,142.2c20.3,0,36.7-19.7,36.7-44.1S256.8,0,256.8,0s-36.7,73.7-36.7,98.1C220.1,122.5,236.5,142.2,256.8,142.2z"/>
	<path d="M399.8,343.2c-10.4-7.9-25.1-12.4-40.3-12.4c-15.2,0-29.9,4.5-40.3,12.4c-16.9,12.8-39.1,19.9-62.5,19.9
		s-45.6-7.1-62.4-19.9c-10.4-7.9-25.1-12.4-40.3-12.4s-29.9,4.5-40.3,12.4c-16.9,12.8-39,19.9-62.4,19.9c-5,0-9.9-0.4-14.7-1v150
		h440.2V362c-4.8,0.6-9.7,1-14.7,1C438.8,363.1,416.7,356,399.8,343.2z"/>
	<path d="M238.4,218.5H165"/>
	<path d="M348.5,218.5h-73.4"/>
</g>
<path d="M476.9,218.5h-91.7h-0.4v-38c0-6.1-4.9-11-11-11h-14c-6.1,0-11,4.9-11,11v38h-74v-38c0-6.1-4.9-11-11-11h-14
	c-6.1,0-11,4.9-11,11v38h-74.3v-38c0-6.1-4.9-11-11-11h-14c-6.1,0-11,4.9-11,11v38h-0.2H36.7C16.4,218.5,0,235,0,255.2v73.4
	c3.2,2.4,6.6,4.4,10.2,6.3c1.1,0.6,2.3,1.1,3.5,1.6c2.5,1.2,5.1,2.2,7.8,3.1c1.4,0.5,2.8,1,4.2,1.4c3.4,1,6.8,1.8,10.3,2.3
	c0.3,0,0.5,0.1,0.8,0.2c4.8,0.8,9.7,1.2,14.7,1.2c18.6,0,37.2-5.4,51.3-16.1c14.2-10.7,32.8-16.1,51.4-16.1
	c18.6,0,37.2,5.4,51.4,16.1c14.2,10.7,32.8,16.1,51.4,16.1c18.6,0,37.2-5.4,51.4-16.1c14.2-10.7,32.8-16.1,51.4-16.1
	c18.6,0,37.2,5.4,51.4,16.1s32.8,16.1,51.3,16.1c4.9,0,9.8-0.4,14.7-1.2c0.2,0,0.3-0.1,0.5-0.1c3.6-0.6,7.1-1.4,10.5-2.4
	c1.5-0.4,2.9-1,4.3-1.5c2.6-0.9,5.1-1.9,7.6-3c1.2-0.6,2.4-1.1,3.6-1.7c3.5-1.9,7-3.9,10.1-6.3V255
	C513.6,235,497.2,218.5,476.9,218.5z"/>
</svg>
