<?xml version="1.0" encoding="utf-8"?>
<!-- Generator: Adobe Illustrator 17.0.0, SVG Export Plug-In . SVG Version: 6.00 Build 0)  -->
<!DOCTYPE svg PUBLIC "-//W3C//DTD SVG 1.1//EN" "http://www.w3.org/Graphics/SVG/1.1/DTD/svg11.dtd">
<svg version="1.1" id="图层_1" xmlns="http://www.w3.org/2000/svg" xmlns:xlink="http://www.w3.org/1999/xlink" x="0px" y="0px"
	 width="512px" height="512px" viewBox="0 0 512 512" enable-background="new 0 0 512 512" xml:space="preserve">
<path d="M447.9,193.6h-48v-16c0-2.4-0.3-4.7-0.8-7c10.4-12.5,16.8-29.2,16.8-47.5c0-24.7-22-75.3-35.1-103.2
	c-5.3-11.2-16.6-18.4-29-18.4c-12.4,0-23.7,7.2-29,18.4c-5.5,11.8-12.7,27.7-19,43.9c-6.4-16.2-13.5-32.1-19-43.9
	c-5.3-11.2-16.6-18.4-29-18.4c-12.4,0-23.7,7.2-29,18.4c-5.5,11.8-12.7,27.7-19,43.9c-6.4-16.2-13.5-32.1-19-43.9
	c-5.3-11.2-16.6-18.4-29-18.4c-12.4,0-23.7,7.2-29,18.4c-13.1,27.9-35.1,78.5-35.1,103.2c0,18.3,6.4,35,16.8,47.5
	c-0.5,2.2-0.8,4.6-0.8,7v16h-48c-35.3,0-64.1,28.7-64.1,64.1v64.1c0,10,4.7,19.5,12.7,25.5c5.9,4.5,12.4,8.3,19.4,11.3v123.3
	c0,17.7,14.3,32,32,32h384.4c17.7,0,32-14.3,32-32V358.6c7-3.1,13.5-6.8,19.3-11.3c8-6.1,12.7-15.5,12.7-25.5v-64.1
	C512,222.3,483.3,193.6,447.9,193.6z M351.8,33.4c0,0,28.9,61.7,28.9,80.9c0,19.2-12.9,34.7-28.9,34.7c-16,0-28.9-15.5-28.9-34.7
	C322.9,95.1,351.8,33.4,351.8,33.4z M367.9,177.6v32h-32v-32H367.9z M255.7,33.4c0,0,28.9,61.7,28.9,80.9
	c0,19.2-12.9,34.7-28.9,34.7c-16,0-28.9-15.5-28.9-34.7C226.8,95.1,255.7,33.4,255.7,33.4z M271.8,177.6v32h-32v-32H271.8z
	 M159.6,33.4c0,0,28.9,61.7,28.9,80.9c0,19.2-12.9,34.7-28.9,34.7c-16,0-28.9-15.5-28.9-34.7C130.7,95.1,159.6,33.4,159.6,33.4z
	 M175.7,177.6v32h-32v-32H175.7z M70,479.4V363.9c4.1,0.5,8.2,0.8,12.4,0.8c19.7,0,38.4-5.4,52.6-15.3c8.8-6.1,21.1-9.6,34-9.6
	c12.8,0,25.2,3.5,33.9,9.6c14.2,9.9,32.9,15.3,52.6,15.3c19.7,0,38.4-5.4,52.6-15.3c8.8-6.1,21.1-9.6,34-9.6
	c12.8,0,25.2,3.5,33.9,9.6c14.2,9.9,32.9,15.3,52.6,15.3c4.2,0,8.3-0.3,12.4-0.8v115.5H70z M480,321.7c-2.8,2.1-5.8,3.8-8.9,5.5
	c-1,0.5-2.1,1-3.1,1.5c-2.1,1-4.4,1.9-6.6,2.6c-1.3,0.4-2.5,0.9-3.8,1.3c-3,0.9-6.1,1.6-9.2,2.1c-0.2,0-0.3,0.1-0.5,0.1l0,0
	c-4.2,0.7-8.5,1-12.8,1c-16.2,0-32.5-4.7-44.8-14.1c-12.4-9.4-28.6-14.1-44.8-14.1c-16.2,0-32.5,4.7-44.9,14.1
	c-12.4,9.4-28.6,14.1-44.9,14.1c-16.2,0-32.5-4.7-44.8-14.1c-12.4-9.4-28.6-14.1-44.8-14.1c-16.2,0-32.5,4.7-44.9,14.1
	c-12.4,9.4-28.6,14.1-44.8,14.1c-4.3,0-8.6-0.4-12.8-1v0c-0.2,0-0.4-0.1-0.7-0.1c-3.1-0.5-6.1-1.2-9-2c-1.2-0.3-2.4-0.8-3.6-1.2
	c-2.3-0.8-4.6-1.7-6.8-2.7c-1-0.5-2-0.9-3-1.4c-3.1-1.6-6.1-3.4-8.9-5.5v-64.1c0-17.7,14.3-32,32-32h384.4c17.7,0,32,14.3,32,32
	V321.7z"/>
</svg>
