<?xml version="1.0" encoding="utf-8"?>
<!-- Generator: Adobe Illustrator 17.0.0, SVG Export Plug-In . SVG Version: 6.00 Build 0)  -->
<!DOCTYPE svg PUBLIC "-//W3C//DTD SVG 1.1//EN" "http://www.w3.org/Graphics/SVG/1.1/DTD/svg11.dtd">
<svg version="1.1" id="图层_1" xmlns="http://www.w3.org/2000/svg" xmlns:xlink="http://www.w3.org/1999/xlink" x="0px" y="0px"
	 width="512px" height="512px" viewBox="0 0 512 512" enable-background="new 0 0 512 512" xml:space="preserve">
<path d="M19.6,0h0.6h474c11,0,19.6,8.8,19.6,19.8v0.4v474.1c0,10.7-8.7,19.6-19.6,19.6h-0.6h-474C8.7,514,0,505,0,494.3v-0.6v-474
	C0,8.8,8.7,0,19.6,0L19.6,0z M268.8,35.7v209.4h205.4V35.7H268.8z M268.8,268.8L268.8,268.8v205.4h205.4V268.8H268.8L268.8,268.8z
	 M245,474.2L245,474.2V268.8H39.3v205.4L245,474.2L245,474.2z M245,245.1L245,245.1V35.7H39.3v209.4L245,245.1L245,245.1z"/>
<path d="M443.7,142.6c0,6.7-5.4,12.1-12.1,12.1H312.4c-6.7,0-12.1-5.4-12.1-12.1v-3.1c0-6.7,5.4-12.1,12.1-12.1h119.1
	c6.7,0,12.1,5.4,12.1,12.1v3.1H443.7z"/>
<path d="M443.7,345.6c0,6.7-5.4,12.1-12.1,12.1H312.4c-6.7,0-12.1-5.4-12.1-12.1v-3.1c0-6.7,5.4-12.1,12.1-12.1h119.1
	c6.7,0,12.1,5.4,12.1,12.1v3.1H443.7z"/>
<path d="M443.7,413.9c0,6.7-5.4,12.1-12.1,12.1H312.4c-6.7,0-12.1-5.4-12.1-12.1v-3.1c0-6.7,5.4-12.1,12.1-12.1h119.1
	c6.7,0,12.1,5.4,12.1,12.1v3.1H443.7z"/>
<path d="M212.6,139.5c0-6.7-5.4-12.1-12.1-12.1h-45.8v-46c0-6.7-5.4-12.1-12.1-12.1h-3.1c-6.7,0-12.1,5.4-12.1,12.1v46h-46
	c-6.7,0-12.1,5.4-12.1,12.1v3.1c0,6.7,5.4,12.1,12.1,12.1h46v45.8c0,6.7,5.4,12.1,12.1,12.1h3.1c6.7,0,12.1-5.4,12.1-12.1v-45.8
	h45.9c6.7,0,12.1-5.4,12.1-12.1L212.6,139.5z"/>
<path d="M192.2,412.3l-31.9-33l33-31.9c4.8-4.6,4.9-12.3,0.3-17.1l-2.2-2.2c-4.6-4.8-12.3-4.9-17.1-0.3l-33,31.9l-31.9-33
	c-4.6-4.8-12.3-4.9-17.1-0.3l-2.2,2.2c-4.8,4.6-4.9,12.3-0.3,17.1l31.9,33l-33,31.9c-4.8,4.6-4.9,12.3-0.3,17.1l2.2,2.2
	c4.6,4.8,12.3,4.9,17.1,0.3l33-31.9l31.9,33c4.6,4.8,12.3,4.9,17.1,0.3l2.2-2.2C196.7,424.8,196.9,417.1,192.2,412.3z"/>
</svg>
