<?xml version="1.0" encoding="utf-8"?>
<!-- Generator: Adobe Illustrator 16.0.0, SVG Export Plug-In . SVG Version: 6.00 Build 0)  -->
<!DOCTYPE svg PUBLIC "-//W3C//DTD SVG 1.1//EN" "http://www.w3.org/Graphics/SVG/1.1/DTD/svg11.dtd">
<svg version="1.1" id="图层_2" xmlns="http://www.w3.org/2000/svg" xmlns:xlink="http://www.w3.org/1999/xlink" x="0px" y="0px"
	 width="512px" height="512px" viewBox="0 0 512 512" enable-background="new 0 0 512 512" xml:space="preserve">
<path fill-rule="evenodd" clip-rule="evenodd" fill="#231815" d="M391.6,274.7C391.5,274.7,391.5,274.7,391.6,274.7L391.6,274.7
	l-270,0l0-0.1c-0.4,0-0.7,0.1-1.1,0.1c-8.8,0-15.9-7-15.9-15.5c0-4.7,2.2-8.9,5.6-11.8l-0.3-0.7l136-115l0.2,0
	c2.7-1.9,5.9-3.1,9.5-3.1c5.8,0,10.9,3,13.7,7.6l131.9,110.6c3.9,2.8,6.4,7.4,6.4,12.5C407.5,267.7,400.4,274.7,391.6,274.7z
	 M256.5,310.9c20.6,0,37.2,16.2,37.2,36.3c0,20-16.7,36.3-37.2,36.3s-37.2-16.2-37.2-36.3C219.3,327.2,236,310.9,256.5,310.9z"/>
</svg>
