<?xml version="1.0" encoding="utf-8"?>
<!-- Generator: Adobe Illustrator 16.0.0, SVG Export Plug-In . SVG Version: 6.00 Build 0)  -->
<!DOCTYPE svg PUBLIC "-//W3C//DTD SVG 1.1//EN" "http://www.w3.org/Graphics/SVG/1.1/DTD/svg11.dtd">
<svg version="1.1" id="图层_2" xmlns="http://www.w3.org/2000/svg" xmlns:xlink="http://www.w3.org/1999/xlink" x="0px" y="0px"
	 width="512px" height="512px" viewBox="0 0 512 512" enable-background="new 0 0 512 512" xml:space="preserve">
<path fill-rule="evenodd" clip-rule="evenodd" fill="#231815" d="M237.3,391.6C237.3,391.5,237.3,391.5,237.3,391.6L237.3,391.6
	l0-270l0.1,0c0-0.4-0.1-0.7-0.1-1.1c0-8.8,7-15.9,15.5-15.9c4.7,0,8.9,2.2,11.8,5.6l0.7-0.3l115,136l0,0.2c1.9,2.7,3.1,5.9,3.1,9.5
	c0,5.8-3,10.9-7.6,13.7L265.3,401.1c-2.8,3.9-7.4,6.4-12.5,6.4C244.3,407.5,237.3,400.4,237.3,391.6z M201.1,256.5
	c0,20.6-16.2,37.2-36.3,37.2c-20,0-36.3-16.7-36.3-37.2s16.2-37.2,36.3-37.2C184.8,219.3,201.1,236,201.1,256.5z"/>
</svg>
