<?xml version="1.0" encoding="utf-8"?>
<!-- Generator: Adobe Illustrator 16.0.0, SVG Export Plug-In . SVG Version: 6.00 Build 0)  -->
<!DOCTYPE svg PUBLIC "-//W3C//DTD SVG 1.1//EN" "http://www.w3.org/Graphics/SVG/1.1/DTD/svg11.dtd">
<svg version="1.1" id="图层_2" xmlns="http://www.w3.org/2000/svg" xmlns:xlink="http://www.w3.org/1999/xlink" x="0px" y="0px"
	 width="512px" height="512px" viewBox="0 0 512 512" enable-background="new 0 0 512 512" xml:space="preserve">
<path fill-rule="evenodd" clip-rule="evenodd" fill="#231815" d="M274.7,120.4C274.7,120.5,274.7,120.5,274.7,120.4L274.7,120.4
	l0,270l-0.1,0c0,0.4,0.1,0.7,0.1,1.1c0,8.8-7,15.9-15.5,15.9c-4.7,0-8.9-2.2-11.8-5.6l-0.7,0.3l-115-136l0-0.2
	c-1.9-2.7-3.1-5.9-3.1-9.5c0-5.8,3-10.9,7.6-13.7l110.6-131.9c2.8-3.9,7.4-6.4,12.5-6.4C267.7,104.5,274.7,111.6,274.7,120.4z
	 M310.9,255.5c0-20.6,16.2-37.2,36.3-37.2c20,0,36.3,16.7,36.3,37.2s-16.2,37.2-36.3,37.2C327.2,292.7,310.9,276,310.9,255.5z"/>
</svg>
