<?xml version="1.0" encoding="utf-8"?>
<!-- Generator: Adobe Illustrator 17.0.0, SVG Export Plug-In . SVG Version: 6.00 Build 0)  -->
<!DOCTYPE svg PUBLIC "-//W3C//DTD SVG 1.1//EN" "http://www.w3.org/Graphics/SVG/1.1/DTD/svg11.dtd">
<svg version="1.1" id="图层_1" xmlns="http://www.w3.org/2000/svg" xmlns:xlink="http://www.w3.org/1999/xlink" x="0px" y="0px"
	 width="512px" height="512px" viewBox="0 0 512 512" enable-background="new 0 0 512 512" xml:space="preserve">
<g>
	<path d="M497.6,146.9l10.9-65.8c-2.4-25-23.1-43.8-49-43.8h-152l-52-36.5L273,146.9H497.6z M363.7,65.8c11.2,0,20.2,8.7,20.2,19.5
		s-9.1,19.5-20.2,19.5c-11.2,0-20.2-8.7-20.2-19.5S352.5,65.8,363.7,65.8z"/>
	<path d="M401.5,183.4H260.4L76.9,347.8c-29.1-7.5-52.5-26.6-63.4-53.6l-0.1,0.9c-6.7-19-10.5-9.2-12.2-1.3
		c-0.7,4.5-1.1,9.3-1.1,14.1c0.2,41.9,29.5,77.2,69,87.9L127.4,512h201.2v-69.6l-59.1-0.5c1.5-5.5,1-7.5,1-13.5
		c-0.2-36.6-32.4-62.4-69.9-62.4c-0.1,0-0.3,0-0.4,0c-1.6,0,0.7-7.1,0.7-7v-11.2c39.9,0.1,73.8,21.7,84.7,57.3l80.2-37l54.1,144
		h91.3L401.5,183.4z"/>
</g>
</svg>
