<?xml version="1.0" encoding="utf-8"?>
<!-- Generator: Adobe Illustrator 17.0.0, SVG Export Plug-In . SVG Version: 6.00 Build 0)  -->
<!DOCTYPE svg PUBLIC "-//W3C//DTD SVG 1.1//EN" "http://www.w3.org/Graphics/SVG/1.1/DTD/svg11.dtd">
<svg version="1.1" id="图层_1" xmlns="http://www.w3.org/2000/svg" xmlns:xlink="http://www.w3.org/1999/xlink" x="0px" y="0px"
	 width="512px" height="512px" viewBox="0 0 512 512" enable-background="new 0 0 512 512" xml:space="preserve">
<path id="dog_2_" d="M254.9,34.1l45.4,31.9h132.6c22.6,0,40.7,16.4,42.8,38.2l-9.6,57.4h-196L254.9,34.1 M382.3,193.4l95.7,286.8
	h-79.7L351,354.5l-68,30.3c-9.5-31-39.1-49.9-73.9-50c0,0-3.9,17.9-2.6,17.9c0.1,0,0.2,0,0.4,0c32.8,0,60.8,22.6,61,54.5
	c0.1,5.2,0.5,6.9-0.8,11.8l51.6,0.4v60.8H143L92.1,378.8c-34.5-9.4-60.1-40.2-60.2-76.7c0-4.1,0.4-8.3,1-12.3c0.9-4,2.3-8.5,4.5-8.5
	c1.6,0,3.7,2.5,6.2,9.6l0.1-0.8c9.5,23.5,29.9,40.2,55.3,46.7l160.2-143.4H382.3 M254.9,2.2c-5.6,0-11.3,1.5-16.4,4.5
	c-10.8,6.5-16.8,18.6-15.3,31.1l15.2,127.4c0.1,1.1,0.3,2.2,0.6,3.3c-0.4,0.3-0.8,0.7-1.2,1L92.3,300c-8.8-5.2-15.4-12.7-19.1-21.9
	c-0.7-1.7-1.6-3.4-2.5-4.9c-9.2-19.4-22.9-23.7-33.3-23.7c-6.6,0-28.8,2.4-35.6,33.5c-0.2,0.7-0.3,1.4-0.4,2.1
	C0.4,291.2,0,296.9,0,302.3c0.2,44.7,28.1,85,69.4,102.3l45.1,89.8C119.9,505.2,131,512,143,512h175.6c17.6,0,31.9-14.3,31.9-31.9
	v-36.6l18,47.8c4.7,12.4,16.6,20.7,29.8,20.7h79.7c10.2,0,19.9-4.9,25.9-13.2c6-8.3,7.6-19,4.4-28.7l-92.3-276.7h50.3
	c15.6,0,28.9-11.3,31.4-26.6l9.6-57.4c0.5-2.7,0.6-5.5,0.3-8.3c-3.7-38.2-35.7-67-74.5-67H310.3L273.2,8
	C267.7,4.2,261.3,2.2,254.9,2.2L254.9,2.2z"/>
<path d="M367.9,107.3c0,10.8-9.1,19.5-20.2,19.5c-11.2,0-20.2-8.7-20.2-19.5s9.1-19.5,20.2-19.5C358.9,87.8,367.9,96.5,367.9,107.3z
	"/>
</svg>
