<?xml version="1.0" encoding="utf-8"?>
<!-- Generator: Adobe Illustrator 16.0.0, SVG Export Plug-In . SVG Version: 6.00 Build 0)  -->
<!DOCTYPE svg PUBLIC "-//W3C//DTD SVG 1.1//EN" "http://www.w3.org/Graphics/SVG/1.1/DTD/svg11.dtd">
<svg version="1.1" id="图层_2" xmlns="http://www.w3.org/2000/svg" xmlns:xlink="http://www.w3.org/1999/xlink" x="0px" y="0px"
	 width="512px" height="512px" viewBox="0 0 512 512" enable-background="new 0 0 512 512" xml:space="preserve">
<path fill-rule="evenodd" clip-rule="evenodd" fill="#231815" d="M512,61v392c0,33.1-26.9,60-60,60H60c-33.1,0-60-26.9-60-60V61
	C0,27.9,26.9,1,60,1h392C485.1,1,512,27.9,512,61z M251.6,69c-14.5,0-26.3,11.8-26.3,26.3v248.3l-83.6-83.4c-8.6-8.5-22.5-8.5-31,0
	l-3.1,3.1c-8.6,8.5-8.6,22.4,0,31l112.6,112.3c1.9,2.4,4.2,5.2,7,8.4c27.1,31,53.9,4.2,53.9,4.2l32.8-34.4l90.7-90.5
	c8.6-8.5,8.6-22.4,0-31l-3.1-3.1c-8.6-8.5-22.5-8.5-31,0l-88,87.8V95.3c0-14.5-11.8-26.3-26.3-26.3H251.6z"/>
</svg>
