<?xml version="1.0" encoding="utf-8"?>
<!-- Generator: Adobe Illustrator 17.0.0, SVG Export Plug-In . SVG Version: 6.00 Build 0)  -->
<!DOCTYPE svg PUBLIC "-//W3C//DTD SVG 1.1//EN" "http://www.w3.org/Graphics/SVG/1.1/DTD/svg11.dtd">
<svg version="1.1" id="图层_1" xmlns="http://www.w3.org/2000/svg" xmlns:xlink="http://www.w3.org/1999/xlink" x="0px" y="0px"
	 width="512px" height="512px" viewBox="0 0 512 512" enable-background="new 0 0 512 512" xml:space="preserve">
<path d="M435.1,60.4c-4.9-5.6-12-8.9-19.5-8.9h-342c-14.2,0-25.8,11.6-25.8,25.8V103l-32.7,0.5C6,104.2,0.2,112,0,121
	c0,0.3-0.2,2.6-0.1,2.9l0.1-0.4c0.3,9.4,7.6,19.7,17,20.5h186c0,0-18.4,40.4-30,41.3c0,0-85-0.3-157-0.3c-6.5,0-16.1,7.7-16.9,16.8
	c-0.2,2.1,0,8.5,0,8.5c0.4,9.5,6.4,18.9,15.9,19.7l167.5,0.4c-4.5,9.7-17,33.7-27.5,34.6H47l0.8,104.7c0,14.2,11.6,25.8,25.8,25.8
	H84c8-39.3,42.6-71.2,84.3-71.2s76.3,31.9,84.3,71.2h55.1c8-39.3,42.6-70.9,84.3-70.9s76.3,31.6,84.3,70.9h7.4
	c13.2,0,24.4-10,25.7-23.1C528.1,179.9,439,64.9,435.1,60.4z M339.8,206.4V103.2h62.9c10.5,15.3,29.3,50.2,42.9,103.2H339.8z"/>
<path d="M167.8,361.3c-28.6,0-51.4,23.1-51.4,51.6s22.8,51.6,51.4,51.6s51.8-23.1,51.8-51.6S196.4,361.3,167.8,361.3z"/>
<path d="M391.5,361.3c-28.6,0-51.4,23.1-51.4,51.6s22.8,51.6,51.4,51.6s51.8-23.1,51.8-51.6S420.1,361.3,391.5,361.3z"/>
</svg>
