<?xml version="1.0" encoding="utf-8"?>
<!-- Generator: Adobe Illustrator 16.0.0, SVG Export Plug-In . SVG Version: 6.00 Build 0)  -->
<!DOCTYPE svg PUBLIC "-//W3C//DTD SVG 1.1//EN" "http://www.w3.org/Graphics/SVG/1.1/DTD/svg11.dtd">
<svg version="1.1" id="图层_1" xmlns="http://www.w3.org/2000/svg" xmlns:xlink="http://www.w3.org/1999/xlink" x="0px" y="0px"
	 width="512px" height="512px" viewBox="0 0 512 512" enable-background="new 0 0 512 512" xml:space="preserve">
<g>
	<g>
		<g>
			<path id="SVGID_1_" d="M467.8,68.2L320,251.8v204.6c0,10.8-8.7,19.5-19.5,19.5h-1c-10.8,0-19.5-8.7-19.5-19.5v-211c0,0,0,0,0-0.1
				c-0.2-4.5,1.2-9.2,4.3-13L410.2,76H101.8l125.9,156.4c3.1,3.8,4.5,8.5,4.3,13c0,0,0,0,0,0.1v211c0,10.8-8.7,19.5-19.5,19.5h-1
				c-10.8,0-19.5-8.7-19.5-19.5V251.8L44.2,68.2c-6.8-8.4-5.4-20.7,3-27.4l0.8-0.6c4.3-3.4,9.6-4.8,14.6-4.1h386.8
				c5.1-0.6,10.3,0.7,14.6,4.1l0.8,0.6C473.2,47.5,474.5,59.8,467.8,68.2L467.8,68.2z"/>
		</g>
	</g>
</g>
</svg>
