<?xml version="1.0" encoding="utf-8"?>
<!-- Generator: Adobe Illustrator 16.0.0, SVG Export Plug-In . SVG Version: 6.00 Build 0)  -->
<!DOCTYPE svg PUBLIC "-//W3C//DTD SVG 1.1//EN" "http://www.w3.org/Graphics/SVG/1.1/DTD/svg11.dtd">
<svg version="1.1" id="图层_2" xmlns="http://www.w3.org/2000/svg" xmlns:xlink="http://www.w3.org/1999/xlink" x="0px" y="0px"
	 width="512px" height="512px" viewBox="0 0 512 512" enable-background="new 0 0 512 512" xml:space="preserve">
<path fill-rule="evenodd" clip-rule="evenodd" fill="#231815" d="M481.7,196.9v104c0,0-80.4,52-182.5,1.7c-102-50.3-189.2,0-189.2,0
	V191.8h0.3v-104c0,0,80.4-52,182.5-1.7c102,50.3,189.2,0,189.2,0v110.8H481.7z M88.1,69.8v409.9h113.4c1.9,0,3.5,1.6,3.5,3.5v2.2
	c0,1.9-1.6,3.5-3.5,3.5h-166c-1.9,0-3.5-1.6-3.5-3.5v-2.2c0-1.9,1.6-3.5,3.5-3.5h25.1V70.5c-6.9-4.4-11.5-12-11.5-20.8
	c0-13.6,11-24.6,24.6-24.6c13.6,0,24.6,11,24.6,24.6C98.5,58,94.4,65.3,88.1,69.8z"/>
</svg>
