<?xml version="1.0" encoding="utf-8"?>
<!-- Generator: Adobe Illustrator 16.0.0, SVG Export Plug-In . SVG Version: 6.00 Build 0)  -->
<!DOCTYPE svg PUBLIC "-//W3C//DTD SVG 1.1//EN" "http://www.w3.org/Graphics/SVG/1.1/DTD/svg11.dtd">
<svg version="1.1" id="图层_2" xmlns="http://www.w3.org/2000/svg" xmlns:xlink="http://www.w3.org/1999/xlink" x="0px" y="0px"
	 width="512px" height="512px" viewBox="0 0 512 512" enable-background="new 0 0 512 512" xml:space="preserve">
<path fill-rule="evenodd" clip-rule="evenodd" fill="#231815" d="M110.8,319.9l-0.3-245l371,122.4L110.8,319.9z M128.4,296.3
	l299.4-99L128.2,98.4L128.4,296.3z M88.6,69.8v409.9H202c1.9,0,3.5,1.6,3.5,3.5v2.2c0,1.9-1.6,3.5-3.5,3.5H36
	c-1.9,0-3.5-1.6-3.5-3.5v-2.2c0-1.9,1.6-3.5,3.5-3.5h25.1V70.5c-6.9-4.4-11.5-12-11.5-20.8c0-13.6,11-24.6,24.6-24.6
	c13.6,0,24.6,11,24.6,24.6C99,58,94.9,65.3,88.6,69.8z"/>
</svg>
