<?xml version="1.0" encoding="utf-8"?>
<!-- Generator: Adobe Illustrator 16.0.0, SVG Export Plug-In . SVG Version: 6.00 Build 0)  -->
<!DOCTYPE svg PUBLIC "-//W3C//DTD SVG 1.1//EN" "http://www.w3.org/Graphics/SVG/1.1/DTD/svg11.dtd">
<svg version="1.1" id="图层_2" xmlns="http://www.w3.org/2000/svg" xmlns:xlink="http://www.w3.org/1999/xlink" x="0px" y="0px"
	 width="512px" height="512px" viewBox="0 0 512 512" enable-background="new 0 0 512 512" xml:space="preserve">
<path fill-rule="evenodd" clip-rule="evenodd" fill="#231815" d="M477.6,49.6l-3.4,125.7c0.6,3.3-0.4,6.9-2.9,9.4
	c-4.1,4.1-10.9,4.1-15,0c-0.2-0.2-0.3-0.3-0.4-0.5l-23.9-23.9L346.2,246l-0.1,0c-0.1,0.1-0.3,0.3-0.4,0.4c-4.1,4.1-10.9,4.1-15,0
	c0,0,0,0,0,0l-62.9-62.9c0,0,0,0,0,0c0,0,0,0,0,0l-0.5-0.5l0,0c-3.6-4.2-3.5-10.5,0.4-14.4l0-0.1l86.2-86.2l-22.5-22.5l0.1-0.3
	c-0.7-0.4-1.4-0.9-2-1.5c-4.2-4.2-4.2-10.9,0-15c1.9-1.9,4.5-3,7-3.1l0.1-0.3l130.4-3.5l0.2,0.2c2.8-0.1,5.6,1,7.7,3.1
	c1.2,1.2,2.1,2.7,2.6,4.3l0.2-0.6l0,1.2C478.1,46,478,47.9,477.6,49.6z M246,346.1L246,346.1l-85.7,85.8l23.9,23.9
	c0.2,0.1,0.3,0.3,0.5,0.4c4.2,4.2,4.2,10.9,0,15c-2.6,2.6-6.1,3.5-9.4,2.9l-125.7,3.4c-1.7,0.5-3.6,0.5-5.3,0l-1.2,0l0.6-0.2
	c-1.6-0.5-3.1-1.3-4.3-2.6c-2.1-2.1-3.2-4.9-3.1-7.7l-0.2-0.2l3.5-130.4l0.3-0.1c0.1-2.5,1.1-5.1,3.1-7c4.1-4.1,10.9-4.1,15,0
	c0.6,0.6,1.1,1.3,1.5,2l0.3-0.1l22.5,22.5l86.2-86.2l0.1,0c4-3.9,10.3-4.1,14.4-0.4l0,0l0.5,0.5c0,0,0,0,0,0c0,0,0,0,0,0l62.9,62.9
	c0,0,0,0,0,0c4.2,4.2,4.2,10.9,0,15C246.3,345.9,246.2,346,246,346.1z M246.4,183.4l-62.9,62.9c0,0,0,0,0,0c0,0,0,0,0,0l-0.5,0.5
	l0,0c-4.2,3.6-10.5,3.5-14.4-0.4l-0.1,0l-86.2-86.2l-22.5,22.5l-0.3-0.1c-0.4,0.7-0.9,1.4-1.5,2c-4.2,4.2-10.9,4.2-15,0
	c-1.9-1.9-3-4.5-3.1-7l-0.3-0.1L36.1,47.2l0.2-0.2c-0.1-2.8,1-5.6,3.1-7.7c1.2-1.2,2.7-2.1,4.3-2.6l-0.6-0.2l1.2,0
	c1.7-0.4,3.6-0.4,5.3,0l125.7,3.4c3.3-0.6,6.9,0.4,9.4,2.9c4.1,4.1,4.1,10.9,0,15c-0.2,0.2-0.3,0.3-0.5,0.4l-23.9,23.9l85.7,85.7
	l0,0.1c0.1,0.1,0.3,0.3,0.4,0.4C250.6,172.5,250.6,179.3,246.4,183.4C246.4,183.4,246.4,183.4,246.4,183.4z M267.3,330.1l0.5-0.5
	c0,0,0,0,0,0s0,0,0,0l62.9-62.9c0,0,0,0,0,0c4.2-4.2,10.9-4.2,15,0c0.1,0.1,0.3,0.3,0.4,0.4l0.1,0l85.7,85.7l23.9-23.9
	c0.1-0.2,0.3-0.3,0.4-0.5c4.2-4.2,10.9-4.2,15,0c2.6,2.6,3.5,6.1,2.9,9.4l3.4,125.7c0.5,1.7,0.5,3.6,0,5.3l0,1.2l-0.2-0.6
	c-0.5,1.6-1.3,3.1-2.6,4.3c-2.1,2.1-4.9,3.2-7.7,3.1l-0.2,0.2l-130.4-3.5l-0.1-0.3c-2.5-0.1-5.1-1.1-7-3.1c-4.1-4.1-4.1-10.9,0-15
	c0.6-0.6,1.3-1.1,2-1.5l-0.1-0.3l22.5-22.5l-86.2-86.2l0-0.1C263.8,340.6,263.6,334.3,267.3,330.1L267.3,330.1z"/>
</svg>
