<?xml version="1.0" encoding="utf-8"?>
<!-- Generator: Adobe Illustrator 19.0.0, SVG Export Plug-In . SVG Version: 6.00 Build 0)  -->
<svg version="1.1" id="图层_1" xmlns="http://www.w3.org/2000/svg" xmlns:xlink="http://www.w3.org/1999/xlink" x="0px" y="0px"
	 width="1451.3px" height="1451.3px" viewBox="0 0 1451.3 1451.3" enable-background="new 0 0 1451.3 1451.3" xml:space="preserve">
<path d="M1211.8,290.3V96.8h-96.7v193.5H921.6V387h193.5v193.5h96.7V387h193.5v-96.7H1211.8z"/>
<path id="XMLID_9_" d="M893,0H545.4C499.2,0,449.3,6.5,396,19.1C342.2,32,291.5,60.3,243,104.7c-35.9,35.5-62.7,76-80.9,121.4
	c-17.7,44.8-26.8,89.3-26.8,133.8c0,36.8,5.9,73,18.6,109.8c12.1,35.5,30.4,68.1,54.1,96.2c23.1,27.2,52.9,49.9,87.7,66.9
	c34.6,17.4,75,26.1,120,26.1c8.6,0,17.6-0.6,26.8-0.6c9.1-1.3,18.1-1.5,26.8-2.8c-4.3,11.3-8.3,22.6-11.4,32.7
	c-3.6,11.1-5.2,24.8-5.2,41c0,29.7,5.4,53.8,16.1,73.7c10.5,19.9,22.2,38.2,34.5,56.2c-19.5,1.1-42,3.3-67.6,5.7
	c-26.1,2.4-53.8,6.9-82.9,13.2c-29.2,6.4-58.6,15-88.6,25.5c-29.6,11.3-57.4,25.6-83.5,43c-49.4,33.5-83.4,71.9-102,115.7
	c-18.5,43.9-27.9,82.3-27.9,116.4c0,35.7,7.5,69.5,22.1,101.9c14.7,32.6,37.1,61.6,67.5,86.7c30.4,25.3,68,46.5,114,61.2
	c45.4,15.2,98.4,22.9,159.2,22.9c72.2,0,136-10.6,191.6-31.7c55.6-20.7,102-48.4,139.2-81.7c37.1-33.3,65.5-72.2,84.4-115.3
	c19.4-43.1,28.8-87.1,28.8-132c0-32.5-3.9-62.3-11.8-87.9c-8-25.5-18.4-48.2-31.5-68c-12.5-20.6-28-39.7-45.3-57.5
	c-17.3-17.6-35.4-35.9-53.2-53.1l-60.6-53.8c-9.1-8.5-18.6-19.4-28.9-31.2c-10.3-12.3-15-29-15-51.1c0-21.2,4.6-39.2,15-53
	c10.3-13.6,20.8-27.7,31.8-40.5c18.3-14.9,35.6-31.2,52.7-48.2c16.9-17.1,31.9-36.4,45.4-56.9c13.8-21,24.4-45.2,32.3-71.9
	c8.1-27.1,11.4-58.2,11.4-93.6c0-35.5-4.3-66.7-13.5-95c-9-28.3-19.7-52.4-31.9-73.7c-12.1-21.1-25.2-23.2-38.7-38.3
	c-13.8-14.5-25.2-20-35.5-20h104.6L893,0z M643.1,1000.3c24.4,19,42.7,33.6,57.2,53c14.6,18.8,25.9,35.7,33,55
	c7.4,19.7,10.9,40.1,10.9,64.3c0,59.5-21.2,107.5-63,145.8c-42.2,38.7-104,58-184.8,58c-91.2,0-163.7-21.2-217-64.7
	c-53.7-43-80.5-98.8-80.5-167.7c0-34,6.3-62.4,18.1-85.2c11.9-23,25.4-42.3,41.1-57.8c15.9-14.8,31.8-27,48-34.8
	c16.6-7.9,29-14.4,38.1-17.7c18.2-7,36.6-12.2,55.7-17.1c19.3-4.1,45-12.3,62-12.3C534.5,919.2,558.7,934.3,643.1,1000.3z
	 M644.8,479.8c-4.2,26.9-16.2,51.1-35.6,72.2c-13.5,15.7-30.5,28.3-51.5,38.4c-20.4,9.8-41.5,15.4-62.9,15.4
	c-36.4,0-67.3-11.8-93.7-35.3c-26.4-24.2-48.5-52.5-66-87.1c-17.4-34.8-30.4-71.7-38.7-111.3c-8.8-39.2-12.9-75.2-12.9-106.3
	c0-25.6,2.7-51.1,7.8-75.1c5.1-24.2,14.8-46.4,29.4-66.7c13.4-19.1,31.2-34,52.5-45.6c21.2-11.7,43-17.6,65.5-17.6
	c35.2,0,65.8,12.1,92.2,35.4c26.3,23.6,48.8,53.3,66.4,88.9c18.3,35.3,31.7,73.7,40.7,114.7c9,41.2,13.5,78.2,13.5,113.2
	C651.5,430.1,649,452.8,644.8,479.8z"/>
</svg>
