<?xml version="1.0" encoding="utf-8"?>
<!-- Generator: Adobe Illustrator 17.0.0, SVG Export Plug-In . SVG Version: 6.00 Build 0)  -->
<!DOCTYPE svg PUBLIC "-//W3C//DTD SVG 1.1//EN" "http://www.w3.org/Graphics/SVG/1.1/DTD/svg11.dtd">
<svg version="1.1" id="图层_1" xmlns="http://www.w3.org/2000/svg" xmlns:xlink="http://www.w3.org/1999/xlink" x="0px" y="0px"
	 width="512px" height="512px" viewBox="0 0 512 512" enable-background="new 0 0 512 512" xml:space="preserve">
<path d="M290,467.8c-11.1,1.8-22.4,2.7-34,2.7c-118.3,0-214.5-96.2-214.5-214.5S137.7,41.5,256,41.5S470.5,137.7,470.5,256
	c0,14.4-1.4,28.4-4.1,42h40.7c2.3-13.8,3.4-27.8,3.4-42c0-68-26.5-131.9-74.5-180C387.9,28,324,1.5,256,1.5S124.1,28,76,76
	C28,124.1,1.5,188,1.5,256S28,387.9,76,436c48.1,48.1,112,74.5,180,74.5c11.5,0,22.8-0.8,34-2.3V467.8z"/>
<path d="M219.8,200.7c0,22.5-18.2,40.7-40.7,40.7s-40.7-18.2-40.7-40.7s18.2-40.7,40.7-40.7S219.8,178.2,219.8,200.7z"/>
<path d="M388.3,201.3c0,22.5-18.2,40.7-40.7,40.7s-40.7-18.2-40.7-40.7s18.2-40.7,40.7-40.7C370.1,160.7,388.3,178.9,388.3,201.3z"
	/>
<path d="M262.2,385.5c48.8,0,88.4-32.7,88.4-73H173.8C173.8,352.8,213.4,385.5,262.2,385.5z"/>
<path d="M511.9,439c0,1.2-1,2.3-2.4,2.3H349.5c-1.3,0-2.4-1-2.4-2.3v-33.5c0-1.2,1-2.3,2.4-2.3h160c1.3,0,2.4,1,2.4,2.3L511.9,439
	L511.9,439z"/>
<path d="M451.4,335c1.4,0,2.6,1.1,2.6,2.5V508c0,1.4-1.2,2.5-2.6,2.5h-37.8c-1.4,0-2.6-1.1-2.6-2.5V337.5c0-1.4,1.2-2.5,2.6-2.5
	H451.4z"/>
</svg>
