<?xml version="1.0" encoding="utf-8"?>
<!-- Generator: Adobe Illustrator 17.0.0, SVG Export Plug-In . SVG Version: 6.00 Build 0)  -->
<!DOCTYPE svg PUBLIC "-//W3C//DTD SVG 1.1//EN" "http://www.w3.org/Graphics/SVG/1.1/DTD/svg11.dtd">
<svg version="1.1" id="图层_1" xmlns="http://www.w3.org/2000/svg" xmlns:xlink="http://www.w3.org/1999/xlink" x="0px" y="0px"
	 width="512px" height="512px" viewBox="0 0 512 512" enable-background="new 0 0 512 512" xml:space="preserve">
<path d="M28.9,160.8V193c0,17.8,14.5,32.2,32.4,32.2h0.2l0.1,59.2c-0.2,1.9-0.3,3.6-0.3,5.1V386c0,17.8,14.5,32.2,32.4,32.2h324.4
	c17.9,0,32.4-14.4,32.4-32.2V225.2c17.9,0,32.4-14.4,32.4-32.2v-32.2c0-17.8-14.5-32.2-32.4-32.2V96.5c0-53.3-43.6-96.5-97.3-96.5
	H158.7c-53.7,0-97.3,43.2-97.3,96.5l0.1,32.2h-0.1C43.5,128.7,28.9,143.1,28.9,160.8z M385.7,353.9c-17.9,0-32.4-14.4-32.4-32.2
	c0-17.8,14.5-32.2,32.4-32.2s32.4,14.4,32.4,32.2C418.2,339.5,403.7,353.9,385.7,353.9z M93.8,128.7V96.5c0-35.5,29-64.3,64.9-64.3
	h194.6c35.8,0,64.9,28.8,64.9,64.3L418,225.2H93.8V128.7z M126.3,289.5c17.9,0,32.4,14.4,32.4,32.2c0,17.8-14.5,32.2-32.4,32.2
	s-32.4-14.4-32.4-32.2C93.8,303.9,108.3,289.5,126.3,289.5z"/>
<path d="M137.1,511.4c9.7,3.9,21.4,0.7,26.2-7l33.7-53.8h-43.7l-24.9,39.8C123.5,498.1,127.4,507.5,137.1,511.4L137.1,511.4z"/>
<path d="M316.1,450.6l33.2,53.7c4.8,7.7,16.3,10.8,25.8,7s13.4-13.2,8.6-20.9l-24.6-39.8L316.1,450.6L316.1,450.6z"/>
</svg>
