<?xml version="1.0" encoding="utf-8"?>
<!-- Generator: Adobe Illustrator 19.0.0, SVG Export Plug-In . SVG Version: 6.00 Build 0)  -->
<svg version="1.1" id="图层_1" xmlns="http://www.w3.org/2000/svg" xmlns:xlink="http://www.w3.org/1999/xlink" x="0px" y="0px"
	 width="1451.3px" height="1451.3px" viewBox="0 0 1451.3 1451.3" enable-background="new 0 0 1451.3 1451.3" xml:space="preserve">
<g id="XMLID_223_">
	<path id="XMLID_225_" d="M993.4,815.1L993.4,815.1h407.9c2.9-23.3,4.6-47,4.6-71c0-325.1-274.4-588.6-612.8-588.6
		c-338.5,0-612.9,263.5-612.9,588.6c0,325,274.4,588.6,612.9,588.6c274,0,506.1-172.7,584.4-411H996.3
		c-24.6,87.9-102.6,152.2-195.2,152.2c-112.3,0-203.3-94.6-203.3-211.2v-47.6L993.4,815.1L993.4,815.1z M597.7,642.1
		c0-116.6,91-211.2,203.3-211.2s203.3,94.6,203.3,211.2v37.4H597.7V642.1z"/>
	<path id="XMLID_224_" d="M1314.8,72.2c-15.6-30.4-64.8-71.2-165.3-70C945.8,4.7,616.2,194.9,410.8,472.8
		c-494.4,669.2-381.9,968.2-216.1,978c170,10,358.5-118.2,387.7-153.8l-16.5-5.9c0,0-108.1,83.4-258.8,108.8
		c-109.9,18.6-229.6-14-160-265.1C216.7,883.7,570.8,349.8,898,136.6s493.3-91.3,405.4,167.5l4.2-0.7
		C1307.4,303.3,1362.5,165.4,1314.8,72.2z"/>
</g>
</svg>
