<?xml version="1.0" encoding="utf-8"?>
<!-- Generator: Adobe Illustrator 16.0.0, SVG Export Plug-In . SVG Version: 6.00 Build 0)  -->
<!DOCTYPE svg PUBLIC "-//W3C//DTD SVG 1.1//EN" "http://www.w3.org/Graphics/SVG/1.1/DTD/svg11.dtd">
<svg version="1.1" id="图层_1" xmlns="http://www.w3.org/2000/svg" xmlns:xlink="http://www.w3.org/1999/xlink" x="0px" y="0px"
	 width="512px" height="512px" viewBox="0 0 512 512" enable-background="new 0 0 512 512" xml:space="preserve">
<g>
	<g>
		<g>
			<path id="SVGID_1_" d="M493.5,406h-1h-471h-1C9.7,406,1,397.3,1,386.5v-1v-259v-1C1,114.7,9.7,106,20.5,106h1h471h1
				c10.8,0,19.5,8.7,19.5,19.5v1v259v1C513,397.3,504.3,406,493.5,406L493.5,406z M473,146H41v220h432V146L473,146z M76.5,171h1
				c10.8,0,19.5,8.7,19.5,19.5v1c0,10.8-8.7,19.5-19.5,19.5h-1c-10.8,0-19.5-8.7-19.5-19.5v-1C57,179.7,65.7,171,76.5,171L76.5,171z
				 M76.5,241h21c10.8,0,19.5,8.7,19.5,19.5v1c0,10.8-8.7,19.5-19.5,19.5h-21c-10.8,0-19.5-8.7-19.5-19.5v-1
				C57,249.7,65.7,241,76.5,241L76.5,241z M76.5,306h41c10.8,0,19.5,8.7,19.5,19.5v1c0,10.8-8.7,19.5-19.5,19.5h-41
				c-10.8,0-19.5-8.7-19.5-19.5v-1C57,314.7,65.7,306,76.5,306L76.5,306z M117,191.5v-1c0-10.8,8.7-19.5,19.5-19.5h1
				c10.8,0,19.5,8.7,19.5,19.5v1c0,10.8-8.7,19.5-19.5,19.5h-1C125.7,211,117,202.3,117,191.5L117,191.5z M166.5,241h1
				c10.8,0,19.5,8.7,19.5,19.5v1c0,10.8-8.7,19.5-19.5,19.5h-1c-10.8,0-19.5-8.7-19.5-19.5v-1C147,249.7,155.7,241,166.5,241
				L166.5,241z M176.5,306h161c10.8,0,19.5,8.7,19.5,19.5v1c0,10.8-8.7,19.5-19.5,19.5h-161c-10.8,0-19.5-8.7-19.5-19.5v-1
				C157,314.7,165.7,306,176.5,306L176.5,306z M347.5,281h-1c-10.8,0-19.5-8.7-19.5-19.5v-1c0-10.8,8.7-19.5,19.5-19.5h1
				c10.8,0,19.5,8.7,19.5,19.5v1C367,272.3,358.3,281,347.5,281L347.5,281z M357,190.5c0-10.8,8.7-19.5,19.5-19.5h1
				c10.8,0,19.5,8.7,19.5,19.5v1c0,10.8-8.7,19.5-19.5,19.5h-1c-10.8,0-19.5-8.7-19.5-19.5V190.5L357,190.5z M395.5,306h41
				c10.8,0,19.5,8.7,19.5,19.5v1c0,10.8-8.7,19.5-19.5,19.5h-41c-10.8,0-19.5-8.7-19.5-19.5v-1C376,314.7,384.7,306,395.5,306
				L395.5,306z M437.5,211h-1c-10.8,0-19.5-8.7-19.5-19.5v-1c0-10.8,8.7-19.5,19.5-19.5h1c10.8,0,19.5,8.7,19.5,19.5v1
				C457,202.3,448.3,211,437.5,211L437.5,211z M456,260.5v1c0,10.8-8.7,19.5-19.5,19.5h-21c-10.8,0-19.5-8.7-19.5-19.5v-1
				c0-10.8,8.7-19.5,19.5-19.5h21C447.3,241,456,249.7,456,260.5L456,260.5z M317.5,211h-1c-10.8,0-19.5-8.7-19.5-19.5v-1
				c0-10.8,8.7-19.5,19.5-19.5h1c10.8,0,19.5,8.7,19.5,19.5v1C337,202.3,328.3,211,317.5,211L317.5,211z M307,261.5
				c0,10.8-8.7,19.5-19.5,19.5h-1c-10.8,0-19.5-8.7-19.5-19.5v-1c0-10.8,8.7-19.5,19.5-19.5h1c10.8,0,19.5,8.7,19.5,19.5V261.5
				L307,261.5z M257.5,211h-1c-10.8,0-19.5-8.7-19.5-19.5v-1c0-10.8,8.7-19.5,19.5-19.5h1c10.8,0,19.5,8.7,19.5,19.5v1
				C277,202.3,268.3,211,257.5,211L257.5,211z M247,261.5c0,10.8-8.7,19.5-19.5,19.5h-1c-10.8,0-19.5-8.7-19.5-19.5v-1
				c0-10.8,8.7-19.5,19.5-19.5h1c10.8,0,19.5,8.7,19.5,19.5V261.5L247,261.5z M197.5,211h-1c-10.8,0-19.5-8.7-19.5-19.5v-1
				c0-10.8,8.7-19.5,19.5-19.5h1c10.8,0,19.5,8.7,19.5,19.5v1C217,202.3,208.3,211,197.5,211L197.5,211z"/>
		</g>
	</g>
</g>
</svg>
