<?xml version="1.0" encoding="utf-8"?>
<!-- Generator: Adobe Illustrator 16.0.0, SVG Export Plug-In . SVG Version: 6.00 Build 0)  -->
<!DOCTYPE svg PUBLIC "-//W3C//DTD SVG 1.1//EN" "http://www.w3.org/Graphics/SVG/1.1/DTD/svg11.dtd">
<svg version="1.1" id="图层_2" xmlns="http://www.w3.org/2000/svg" xmlns:xlink="http://www.w3.org/1999/xlink" x="0px" y="0px"
	 width="512px" height="512px" viewBox="0 0 512 512" enable-background="new 0 0 512 512" xml:space="preserve">
<path fill-rule="evenodd" clip-rule="evenodd" fill="#231815" d="M452,513H60c-33.1,0-60-26.9-60-60V61C0,27.9,26.9,1,60,1h392
	c33.1,0,60,26.9,60,60v392C512,486.1,485.1,513,452,513z M444,252.6c0-14.5-11.8-26.3-26.3-26.3H169.4l83.4-83.6
	c8.5-8.6,8.5-22.5,0-31l-3.1-3.1c-8.5-8.6-22.4-8.6-31,0L106.4,221.1c-2.4,1.9-5.2,4.2-8.4,7c-31,27.1-4.2,53.9-4.2,53.9l34.4,32.8
	l90.5,90.7c8.5,8.6,22.4,8.6,31,0l3.1-3.1c8.5-8.6,8.5-22.5,0-31l-87.8-88h252.7c14.5,0,26.3-11.8,26.3-26.3V252.6z"/>
</svg>
