<?xml version="1.0" encoding="utf-8"?>
<!-- Generator: Adobe Illustrator 16.0.0, SVG Export Plug-In . SVG Version: 6.00 Build 0)  -->
<!DOCTYPE svg PUBLIC "-//W3C//DTD SVG 1.1//EN" "http://www.w3.org/Graphics/SVG/1.1/DTD/svg11.dtd">
<svg version="1.1" id="图层_2" xmlns="http://www.w3.org/2000/svg" xmlns:xlink="http://www.w3.org/1999/xlink" x="0px" y="0px"
	 width="512px" height="512px" viewBox="0 0 512 512" enable-background="new 0 0 512 512" xml:space="preserve">
<path fill-rule="evenodd" clip-rule="evenodd" fill="#231815" d="M421.5,347c24.6,0,44.5,19.9,44.5,44.5v1
	c0,24.6-19.9,44.5-44.5,44.5H156H90.5H86c-22.1,0-40-17.9-40-40v-4.5v-1v-134v-1v-134v-1V117c0-22.1,17.9-40,40-40h4.5H156h265.5
	c24.6,0,44.5,19.9,44.5,44.5v1c0,24.6-19.9,44.5-44.5,44.5H156v45h265.5c24.6,0,44.5,19.9,44.5,44.5v1c0,24.6-19.9,44.5-44.5,44.5
	H156v45H421.5z M418.5,427c19.1,0,34.5-15.4,34.5-34.5v-1c0-19.1-15.4-34.5-34.5-34.5H156v70H418.5z M418.5,157
	c19.1,0,34.5-15.4,34.5-34.5v-1c0-19.1-15.4-34.5-34.5-34.5H156v70H418.5z M418.5,292c19.1,0,34.5-15.4,34.5-34.5v-1
	c0-19.1-15.4-34.5-34.5-34.5H156v70H418.5z"/>
</svg>
