<?xml version="1.0" encoding="utf-8"?>
<!-- Generator: Adobe Illustrator 16.0.0, SVG Export Plug-In . SVG Version: 6.00 Build 0)  -->
<!DOCTYPE svg PUBLIC "-//W3C//DTD SVG 1.1//EN" "http://www.w3.org/Graphics/SVG/1.1/DTD/svg11.dtd">
<svg version="1.1" id="图层_2" xmlns="http://www.w3.org/2000/svg" xmlns:xlink="http://www.w3.org/1999/xlink" x="0px" y="0px"
	 width="512px" height="512px" viewBox="0 0 512 512" enable-background="new 0 0 512 512" xml:space="preserve">
<path fill-rule="evenodd" clip-rule="evenodd" fill="#231815" d="M421.5,436h-331C65.9,436,46,416.1,46,391.5v-1
	c0-24.6,19.9-44.5,44.5-44.5h331c24.6,0,44.5,19.9,44.5,44.5v1C466,416.1,446.1,436,421.5,436z M453,390.5
	c0-19.1-15.4-34.5-34.5-34.5h-325C74.4,356,59,371.4,59,390.5v1c0,19.1,15.4,34.5,34.5,34.5h325c19.1,0,34.5-15.4,34.5-34.5V390.5z
	 M421.5,301h-331C65.9,301,46,281.1,46,256.5v-1c0-24.6,19.9-44.5,44.5-44.5h331c24.6,0,44.5,19.9,44.5,44.5v1
	C466,281.1,446.1,301,421.5,301z M453,255.5c0-19.1-15.4-34.5-34.5-34.5h-325C74.4,221,59,236.4,59,255.5v1
	c0,19.1,15.4,34.5,34.5,34.5h325c19.1,0,34.5-15.4,34.5-34.5V255.5z M421.5,166h-331C65.9,166,46,146.1,46,121.5v-1
	C46,95.9,65.9,76,90.5,76h331c24.6,0,44.5,19.9,44.5,44.5v1C466,146.1,446.1,166,421.5,166z M453,120.5c0-19.1-15.4-34.5-34.5-34.5
	h-325C74.4,86,59,101.4,59,120.5v1c0,19.1,15.4,34.5,34.5,34.5h325c19.1,0,34.5-15.4,34.5-34.5V120.5z"/>
</svg>
