<?xml version="1.0" encoding="utf-8"?>
<!-- Generator: Adobe Illustrator 16.0.0, SVG Export Plug-In . SVG Version: 6.00 Build 0)  -->
<!DOCTYPE svg PUBLIC "-//W3C//DTD SVG 1.1//EN" "http://www.w3.org/Graphics/SVG/1.1/DTD/svg11.dtd">
<svg version="1.1" id="图层_2" xmlns="http://www.w3.org/2000/svg" xmlns:xlink="http://www.w3.org/1999/xlink" x="0px" y="0px"
	 width="512px" height="512px" viewBox="0 0 512 512" enable-background="new 0 0 512 512" xml:space="preserve">
<path fill-rule="evenodd" clip-rule="evenodd" fill="#231815" d="M418,429H96c-19.9,0-36-16.1-36-36v-1c0-19.9,16.1-36,36-36h322
	c19.9,0,36,16.1,36,36v1C454,412.9,437.9,429,418,429z M418,294H96c-19.9,0-36-16.1-36-36v-1c0-19.9,16.1-36,36-36h322
	c19.9,0,36,16.1,36,36v1C454,277.9,437.9,294,418,294z M418,158H96c-19.9,0-36-16.1-36-36v-1c0-19.9,16.1-36,36-36h322
	c19.9,0,36,16.1,36,36v1C454,141.9,437.9,158,418,158z"/>
</svg>
