<?xml version="1.0" encoding="utf-8"?>
<!-- Generator: Adobe Illustrator 16.0.0, SVG Export Plug-In . SVG Version: 6.00 Build 0)  -->
<!DOCTYPE svg PUBLIC "-//W3C//DTD SVG 1.1//EN" "http://www.w3.org/Graphics/SVG/1.1/DTD/svg11.dtd">
<svg version="1.1" id="图层_1" xmlns="http://www.w3.org/2000/svg" xmlns:xlink="http://www.w3.org/1999/xlink" x="0px" y="0px"
	 width="512px" height="512px" viewBox="0 0 512 512" enable-background="new 0 0 512 512" xml:space="preserve">
<path d="M284.7,34.7c0,15.1-12.3,27.4-27.4,27.4c-15.1,0-27.4-12.3-27.4-27.4c0-15.1,12.3-27.4,27.4-27.4
	C272.4,7.2,284.7,19.5,284.7,34.7z M257.2,452.4c-15.1,0-27.4,12.3-27.4,27.4c0,15.1,12.3,27.4,27.4,27.4
	c15.1,0,27.4-12.3,27.4-27.4C284.7,464.7,272.4,452.4,257.2,452.4z M62.1,257.2c0-15.1-12.3-27.4-27.4-27.4
	c-15.1,0-27.4,12.3-27.4,27.4c0,15.1,12.3,27.4,27.4,27.4C49.8,284.7,62.1,272.4,62.1,257.2z M479.8,229.8
	c-15.1,0-27.4,12.3-27.4,27.4c0,15.1,12.3,27.4,27.4,27.4s27.4-12.3,27.4-27.4C507.2,242.1,495,229.8,479.8,229.8z M50.8,344.8
	c-13.1,7.6-17.6,24.3-10,37.4c7.6,13.1,24.3,17.6,37.4,10c13.1-7.6,17.6-24.3,10-37.4C80.6,341.7,63.9,337.2,50.8,344.8z
	 M463.7,169.7c13.1-7.6,17.6-24.3,10-37.4c-7.6-13.1-24.3-17.6-37.5-10c-13.1,7.6-17.6,24.3-10,37.4
	C433.9,172.8,450.6,177.3,463.7,169.7z M159.6,426.3c-13.1-7.6-29.9-3.1-37.4,10c-7.6,13.1-3.1,29.9,10,37.4
	c13.1,7.6,29.9,3.1,37.4-10C177.2,450.6,172.8,433.8,159.6,426.3z M382.2,40.7c-13.1-7.6-29.9-3.1-37.4,10
	c-7.6,13.1-3.1,29.9,10,37.4c13.1,7.6,29.9,3.1,37.4-10C399.8,65.1,395.3,48.3,382.2,40.7z M78.2,122.2c-13.1-7.6-29.9-3.1-37.4,10
	c-7.6,13.1-3.1,29.9,10,37.4c13.1,7.6,29.9,3.1,37.4-10C95.8,146.5,91.3,129.8,78.2,122.2z M463.7,344.8c-13.1-7.6-29.9-3.1-37.4,10
	c-7.6,13.1-3.1,29.9,10,37.4c13.1,7.6,29.9,3.1,37.5-10C481.3,369.1,476.8,352.4,463.7,344.8z M132.2,40.7
	c-13.1,7.6-17.6,24.3-10,37.4c7.6,13.1,24.3,17.6,37.4,10c13.1-7.6,17.6-24.3,10-37.4C162.1,37.6,145.3,33.2,132.2,40.7z
	 M354.8,426.3c-13.1,7.6-17.6,24.3-10,37.4c7.6,13.1,24.3,17.6,37.4,10c13.1-7.6,17.6-24.3,10-37.4
	C384.7,423.2,367.9,418.7,354.8,426.3z"/>
</svg>
