<?xml version="1.0" encoding="utf-8"?>
<!-- Generator: Adobe Illustrator 16.0.0, SVG Export Plug-In . SVG Version: 6.00 Build 0)  -->
<!DOCTYPE svg PUBLIC "-//W3C//DTD SVG 1.1//EN" "http://www.w3.org/Graphics/SVG/1.1/DTD/svg11.dtd">
<svg version="1.1" id="图层_1" xmlns="http://www.w3.org/2000/svg" xmlns:xlink="http://www.w3.org/1999/xlink" x="0px" y="0px"
	 width="512px" height="512px" viewBox="0 0 512 512" enable-background="new 0 0 512 512" xml:space="preserve">
<path d="M427.1,254.3l42.4-42.4c46.9-46.9,46.9-122.8,0-169.7c-46.9-46.9-122.8-46.9-169.7,0l-42.4,42.4l-42.4-42.4
	C168.1-4.7,92.1-4.7,45.2,42.1C-1.6,89-1.6,165,45.2,211.9l42.4,42.4l-42.4,42.4c-46.9,46.9-46.9,122.8,0,169.7
	c46.9,46.9,122.8,46.9,169.7,0l42.4-42.4l42.4,42.4c46.9,46.9,122.8,46.9,169.7,0c46.9-46.9,46.9-122.8,0-169.7L427.1,254.3z
	 M257.4,379.3c-69,0-125-56-125-125c0-69,56-125,125-125c69,0,125,56,125,125C382.4,323.3,326.4,379.3,257.4,379.3z"/>
<path d="M357.4,254.3c0,55.2-44.8,100-100,100s-100-44.8-100-100c0-55.2,44.8-100,100-100S357.4,199.1,357.4,254.3z"/>
</svg>
