<?xml version="1.0" encoding="utf-8"?>
<!-- Generator: Adobe Illustrator 16.0.0, SVG Export Plug-In . SVG Version: 6.00 Build 0)  -->
<!DOCTYPE svg PUBLIC "-//W3C//DTD SVG 1.1//EN" "http://www.w3.org/Graphics/SVG/1.1/DTD/svg11.dtd">
<svg version="1.1" id="图层_1" xmlns="http://www.w3.org/2000/svg" xmlns:xlink="http://www.w3.org/1999/xlink" x="0px" y="0px"
	 width="512px" height="512px" viewBox="0 0 512 512" enable-background="new 0 0 512 512" xml:space="preserve">
<path d="M141,121c0,11-9,20-20,20H21c-11,0-20-9-20-20V21C1,10,10,1,21,1h100c11,0,20,9,20,20V121z M327,21c0-11-9-20-20-20H207
	c-11,0-20,9-20,20v100c0,11,9,20,20,20h100c11,0,20-9,20-20V21z M513,21c0-11-9-20-20-20H393c-11,0-20,9-20,20v100c0,11,9,20,20,20
	h100c11,0,20-9,20-20V21z M327,207c0-11-9-20-20-20H207c-11,0-20,9-20,20v100c0,11,9,20,20,20h100c11,0,20-9,20-20V207z M513,207
	c0-11-9-20-20-20H393c-11,0-20,9-20,20v100c0,11,9,20,20,20h100c11,0,20-9,20-20V207z M141,393c0-11-9-20-20-20H21c-11,0-20,9-20,20
	v100c0,11,9,20,20,20h100c11,0,20-9,20-20V393z M327,393c0-11-9-20-20-20H207c-11,0-20,9-20,20v100c0,11,9,20,20,20h100
	c11,0,20-9,20-20V393z M513,393c0-11-9-20-20-20H393c-11,0-20,9-20,20v100c0,11,9,20,20,20h100c11,0,20-9,20-20V393z"/>
</svg>
