<?xml version="1.0" encoding="utf-8"?>
<!-- Generator: Adobe Illustrator 16.0.0, SVG Export Plug-In . SVG Version: 6.00 Build 0)  -->
<!DOCTYPE svg PUBLIC "-//W3C//DTD SVG 1.1//EN" "http://www.w3.org/Graphics/SVG/1.1/DTD/svg11.dtd">
<svg version="1.1" id="图层_1" xmlns="http://www.w3.org/2000/svg" xmlns:xlink="http://www.w3.org/1999/xlink" x="0px" y="0px"
	 width="512px" height="512px" viewBox="0 0 512 512" enable-background="new 0 0 512 512" xml:space="preserve">
<path d="M221.1,438.1c1.3-5.9,9.6-9.1,18.9-8.1l0,0c9.3,0.9,16.9,5.6,17,11.6v59.8c0.1,5.9-11,10.9-24.9,9.6l0,0
	c-13.8-1.4-23.9-8.4-22.6-14.2L221.1,438.1z M134.1,468.3c-3.1,5.1,4,15.1,16.7,20.8l0,0c12.6,5.9,24.9,4.7,26.7-0.9l19.5-56.6
	c1.8-5.7-3.8-12.6-12.2-16.5l0,0c-8.5-3.8-17.4-3.6-20.5,1.5L134.1,468.3z M72.2,416.9c-4.6,3.8-1.1,15.6,9,25.1l0,0
	c10,9.6,21.9,12.5,25.5,7.8l36.8-47.2c3.6-4.8,0.5-13.2-6.2-19.6l0,0c-6.8-6.4-15.3-9.1-19.9-5.2L72.2,416.9z M30.2,348.1
	c-5.6,2.1-6.1,14.4,0.4,26.7l0,0c6.4,12.4,16.7,19,21.6,15.6l50.1-32.7c4.9-3.3,4.7-12.3,0.5-20.6l0,0c-4.3-8.2-11.5-13.5-17.1-11.4
	L30.2,348.1z M13,269.4c-5.9,0.2-10.3,11.6-8.3,25.4l0,0c2.1,13.8,9.6,23.4,15.4,21.9l58-14.5c5.8-1.6,8.6-10.1,7.2-19.3l0,0
	c-1.3-9.2-6.4-16.6-12.5-16.4L13,269.4z M22.3,189.4c-5.7-1.8-13.7,7.6-16.1,21.3l0,0c-2.6,13.7,1.5,25.3,7.5,25.6l59.6,5
	c6,0.4,11.3-6.8,13-15.9l0,0c1.6-9.1-0.8-17.8-6.5-19.5L22.3,189.4z M57.1,116.7c-4.8-3.5-15.4,2.7-22.2,14.9l0,0
	c-6.9,12.1-6.8,24.4-1.4,26.7l54.7,24.2c5.5,2.3,12.9-2.7,17.5-10.8l0,0c4.5-8.1,5.1-17.1,0.3-20.6L57.1,116.7z M113.6,59.4
	c-3.4-4.9-15.4-2.4-25.8,6.9l0,0C77.4,75.4,73.5,87,77.9,91l43.9,40.7c4.5,4,13.1,1.6,20.1-4.5l0,0c6.9-6.2,10.4-14.5,6.9-19.4
	L113.6,59.4z M185.7,23.4c-1.6-5.7-13.8-7.2-26.7-1.9l0,0c-12.8,5.4-20.4,15.1-17.5,20.2l28.3,52.7c2.9,5.3,11.9,5.8,20.4,2.2l0,0
	c8.6-3.5,14.5-10.3,12.8-16.1L185.7,23.4z M265.6,13c0.3-6-10.7-11.3-24.5-10.5l0,0C227.2,3.4,216.9,10.1,218,16l9.5,59.1
	c1,5.9,9.3,9.3,18.6,8.8l0,0c9.3-0.6,17.1-5.1,17.4-11L265.6,13z M344.5,29c2.2-5.5-6.4-14.3-19.9-17.9l0,0
	c-13.4-3.7-25.3-0.7-26.2,5.2l-10.1,59c-0.9,5.9,5.8,11.8,14.7,14.3l0,0c9,2.4,17.7,0.7,20-4.8L344.5,29z M414,70
	c3.9-4.5-1.5-15.5-12.9-23.4l0,0c-11.5-7.8-23.7-8.9-26.5-3.6l-28.8,52.4c-2.8,5.3,1.6,13.1,9.3,18.4l0,0c7.7,5.3,16.6,6.5,20.5,2
	L414,70z M466.3,131.1c5.1-3,3.6-15.1-4.7-26.3l0,0c-8.4-11.1-19.6-16-23.9-12l-44.3,40.3c-4.4,4.1-2.8,13,2.8,20.4l0,0
	c5.5,7.5,13.5,11.5,18.7,8.5L466.3,131.1z M495.9,206.1c5.8-1.1,8.4-13.1,4.2-26.4l0,0c-4.2-13.3-13.2-21.6-18.7-19.1l-55,23.7
	c-5.4,2.5-6.8,11.3-4,20.2l0,0c2.8,8.8,9,15.3,14.9,14.2L495.9,206.1z M499.5,286.5c5.9,0.8,12.2-9.7,12.5-23.6l0,0
	c0.4-13.9-5.5-24.6-11.4-24.1l-59.7,4.4c-5.9,0.5-10.1,8.5-10.3,17.8l0,0c-0.1,9.3,3.6,17.5,9.5,18.3L499.5,286.5z M476.8,363.9
	c5.3,2.7,14.6-5.2,19.5-18.3l0,0c4.8-13.1,2.8-25.2-3-26.6l-57.9-15.1c-5.9-1.4-12.4,4.7-15.5,13.5l0,0c-3.3,8.7-2.3,17.6,3.1,20.3
	L476.8,363.9z M430.1,429.5c4.1,4.2,15.5-0.2,24.4-10.9l0,0c8.8-10.8,10.9-22.8,5.8-26.1l-49.8-33.2c-5-3.2-13.2,0.5-19.1,7.7l0,0
	c-5.9,7.2-7.9,15.9-3.7,20.3L430.1,429.5z M364.7,476.5c2.5,5.4,14.8,4.9,26.6-2.4l0,0c11.8-7.3,17.7-18.1,14-22.8l-36.3-47.5
	c-3.7-4.7-12.6-3.8-20.6,1.1l0,0c-7.9,4.9-12.6,12.5-10.1,17.9L364.7,476.5z M287.4,499.5c0.6,6,12.4,9.5,25.9,6.4l0,0
	c13.6-3,22.7-11.3,20.7-17l-18.9-56.8c-2-5.6-10.7-7.7-19.7-5.7l0,0c-9,2.1-16,7.7-15.4,13.6L287.4,499.5z"/>
</svg>
