<?xml version="1.0" encoding="utf-8"?>
<!-- Generator: Adobe Illustrator 16.0.0, SVG Export Plug-In . SVG Version: 6.00 Build 0)  -->
<!DOCTYPE svg PUBLIC "-//W3C//DTD SVG 1.1//EN" "http://www.w3.org/Graphics/SVG/1.1/DTD/svg11.dtd">
<svg version="1.1" id="图层_1" xmlns="http://www.w3.org/2000/svg" xmlns:xlink="http://www.w3.org/1999/xlink" x="0px" y="0px"
	 width="512px" height="512px" viewBox="0 0 512 512" enable-background="new 0 0 512 512" xml:space="preserve">
<path d="M256,0C114.6,0,0,114.6,0,256s114.6,256,256,256s256-114.6,256-256S397.4,0,256,0z M256,456c-110.5,0-200-89.5-200-200
	S145.5,56,256,56s200,89.5,200,200S366.5,456,256,456z"/>
<path d="M282.2,265.9c0,0.1-0.1,0.2-0.1,0.4c-4.8,12.4-17.7,19.6-30.6,17.4c-0.1,0-0.1,0-0.2,0c-0.4-0.1-0.8-0.1-1.1-0.2
	c-0.2,0-0.3-0.1-0.5-0.1c-0.3-0.1-0.5-0.1-0.8-0.2c-0.2-0.1-0.5-0.1-0.7-0.2c-0.2,0-0.3-0.1-0.5-0.1l-118.3-37
	c-14.8-4.6-23-20.3-18.4-35.1c4.6-14.8,20.3-23,35.1-18.4l80.5,25.2l-3.1-84.3c-0.6-15.5,11.5-28.4,26.9-29
	c15.5-0.6,28.4,11.5,29,26.9l4.6,123.3c0.1,2,0,4.1-0.3,6.2c0,0.1,0,0.2-0.1,0.3c-0.1,0.3-0.1,0.7-0.2,1c0,0.2-0.1,0.4-0.1,0.5
	c-0.1,0.3-0.1,0.5-0.2,0.8c-0.1,0.2-0.1,0.5-0.2,0.7c0,0.2-0.1,0.3-0.1,0.5c0,0,0,0.1,0,0.1c-0.1,0.2-0.1,0.4-0.2,0.7
	C282.4,265.4,282.3,265.6,282.2,265.9z"/>
</svg>
