<?xml version="1.0" encoding="utf-8"?>
<!-- Generator: Adobe Illustrator 16.0.0, SVG Export Plug-In . SVG Version: 6.00 Build 0)  -->
<!DOCTYPE svg PUBLIC "-//W3C//DTD SVG 1.1//EN" "http://www.w3.org/Graphics/SVG/1.1/DTD/svg11.dtd">
<svg version="1.1" id="图层_2" xmlns="http://www.w3.org/2000/svg" xmlns:xlink="http://www.w3.org/1999/xlink" x="0px" y="0px"
	 width="512px" height="512px" viewBox="0 0 512 512" enable-background="new 0 0 512 512" xml:space="preserve">
<path fill-rule="evenodd" clip-rule="evenodd" fill="#231815" d="M481.7,264.4l0.8-0.4l-1.3,1.2c-1.4,2.3-3.4,4.3-5.7,5.6
	L337.7,401.1c-2.9,4.2-7.7,6.9-13.2,6.9c-8.8,0-16-7.2-16-16c0-0.3,0-0.7,0.1-1v-51H125.5l-0.1-0.1c-0.3,0-0.6,0-0.9,0
	c-8.8,0-16-7.2-16-16c0,0,0,0,0,0V190c0,0,0,0,0,0s0,0,0,0v-1l0.1-0.1c0.6-8.3,7.4-14.8,15.9-14.9l0.1-0.1h184.1v-48l0.4-0.2
	c-0.3-1.2-0.5-2.4-0.5-3.7c0-8.8,7.2-16,16-16c4.1,0,7.9,1.6,10.8,4.2l0.4-0.2l143,135.1v0.4c3,2.9,4.9,7,4.9,11.5
	C483.5,259.7,482.8,262.1,481.7,264.4z M254.5,99c0-16.6-13.4-30-30-30h-90h-45c-16.6,0-30,13.4-30,30v317c0,16.6,13.4,30,30,30h45
	h90c16.6,0,30-13.4,30-30v-51h29v84c0,16.6-13.4,30-30,30h-119h-70h-4c-16.6,0-30-13.4-30-30V65c0-16.6,13.4-30,30-30h4h70h119
	c16.6,0,30,13.4,30,30v85h-29V99z"/>
</svg>
