<?xml version="1.0" encoding="utf-8"?>
<!-- Generator: Adobe Illustrator 17.0.0, SVG Export Plug-In . SVG Version: 6.00 Build 0)  -->
<!DOCTYPE svg PUBLIC "-//W3C//DTD SVG 1.1//EN" "http://www.w3.org/Graphics/SVG/1.1/DTD/svg11.dtd">
<svg version="1.1" id="图层_1" xmlns="http://www.w3.org/2000/svg" xmlns:xlink="http://www.w3.org/1999/xlink" x="0px" y="0px"
	 width="512px" height="512px" viewBox="0 0 512 512" enable-background="new 0 0 512 512" xml:space="preserve">
<path id="award_x5F_medal_3_" d="M256,182.9c-90.9,0-164.6,73.7-164.6,164.6S165.1,512,256,512c90.9,0,164.6-73.7,164.6-164.6
	S346.9,182.9,256,182.9z M315.4,371.2l13.7,86L256,416.5l-73.2,40.6l13.7-86l-59.4-60.9l82.1-12.5l36.8-78.3l36.7,78.3l82.1,12.5
	L315.4,371.2z M0,0v73.1h512V0H0z M109.7,219.4h3.6c35.2-39.2,86-64,142.7-64c56.7,0,107.5,24.8,142.7,64h3.6l109.7-117H0
	L109.7,219.4z"/>
</svg>
