<?xml version="1.0" encoding="utf-8"?>
<!-- Generator: Adobe Illustrator 17.0.0, SVG Export Plug-In . SVG Version: 6.00 Build 0)  -->
<!DOCTYPE svg PUBLIC "-//W3C//DTD SVG 1.1//EN" "http://www.w3.org/Graphics/SVG/1.1/DTD/svg11.dtd">
<svg version="1.1" id="图层_1" xmlns="http://www.w3.org/2000/svg" xmlns:xlink="http://www.w3.org/1999/xlink" x="0px" y="0px"
	 width="512px" height="512px" viewBox="0 0 512 512" enable-background="new 0 0 512 512" xml:space="preserve">
<g>
	<path d="M205.2,356.7l-11.9,74.9l63.8-35.4l63.7,35.4l-12-74.9l51.8-53.1l-71.5-10.9l-32-68.2l-32,68.2l-71.6,10.9L205.2,356.7z"/>
	<path d="M503.6,134.4c5.2-5.7,8.4-13.2,8.4-21.5V33.2c0-17.6-14.2-31.9-31.8-31.9H34C16.4,1.4,2.1,15.6,2.1,33.2v31.9v47.8l0,0
		c0,7.5,2.6,14.9,7.6,20.7l95.6,111.5c0.3,0.4,0.7,0.8,1.1,1.2c-15.7,26.2-24.7,56.9-24.7,89.6c0,16.9,2.4,33.2,6.9,48.6
		C109.4,458.1,177.1,512,257.1,512s147.6-54,168.4-127.4c4.5-15.4,6.9-31.8,6.9-48.6c0-32.7-9-63.4-24.7-89.6
		c0.4-0.4,0.7-0.8,1.1-1.2L503.6,134.4z M34,30.5h446.2v50.8H34V30.5z M257.1,197c77.2,0,140,62.8,140,140s-62.8,140-140,140
		s-140-62.8-140-140S179.9,197,257.1,197z M387.7,220.8c-32.1-36-78.8-58.7-130.7-58.7s-98.6,22.7-130.7,58.7L34,112.9h446.2
		L387.7,220.8z"/>
</g>
</svg>
