<?xml version="1.0" encoding="utf-8"?>
<!-- Generator: Adobe Illustrator 16.0.0, SVG Export Plug-In . SVG Version: 6.00 Build 0)  -->
<!DOCTYPE svg PUBLIC "-//W3C//DTD SVG 1.1//EN" "http://www.w3.org/Graphics/SVG/1.1/DTD/svg11.dtd">
<svg version="1.1" id="图层_2" xmlns="http://www.w3.org/2000/svg" xmlns:xlink="http://www.w3.org/1999/xlink" x="0px" y="0px"
	 width="512px" height="512px" viewBox="0 0 512 512" enable-background="new 0 0 512 512" xml:space="preserve">
<g>
	<g>
		<path fill-rule="evenodd" clip-rule="evenodd" d="M256,211.6c-24.5,0-44.4,19.9-44.4,44.4c0,24.5,19.9,44.4,44.4,44.4
			s44.4-19.9,44.4-44.4C300.4,231.5,280.5,211.6,256,211.6z M256,153.3c24.5,0,44.4-19.9,44.4-44.4S280.5,64.5,256,64.5
			s-44.4,19.9-44.4,44.4S231.5,153.3,256,153.3z M256,358.7c-24.5,0-44.4,19.9-44.4,44.4c0,24.5,19.9,44.4,44.4,44.4
			s44.4-19.9,44.4-44.4C300.4,378.6,280.5,358.7,256,358.7z"/>
	</g>
</g>
</svg>
