<?xml version="1.0" encoding="utf-8"?>
<!-- Generator: Adobe Illustrator 16.0.0, SVG Export Plug-In . SVG Version: 6.00 Build 0)  -->
<!DOCTYPE svg PUBLIC "-//W3C//DTD SVG 1.1//EN" "http://www.w3.org/Graphics/SVG/1.1/DTD/svg11.dtd">
<svg version="1.1" id="图层_2" xmlns="http://www.w3.org/2000/svg" xmlns:xlink="http://www.w3.org/1999/xlink" x="0px" y="0px"
	 width="512px" height="512px" viewBox="0 0 512 512" enable-background="new 0 0 512 512" xml:space="preserve">
<path fill-rule="evenodd" clip-rule="evenodd" fill="#231815" d="M472.8,417.5h-432c-22.1,0-40-17.9-40-40v-241
	c0-22.1,17.9-40,40-40h432c22.1,0,40,17.9,40,40v241C512.8,399.6,494.8,417.5,472.8,417.5z M478.8,170.5c0-22.1-17.9-40-40-40h-363
	c-22.1,0-40,17.9-40,40v173c0,22.1,17.9,40,40,40h363c22.1,0,40-17.9,40-40V170.5z M372.8,296.5c-19.3,0-35-15.7-35-35
	s15.7-35,35-35s35,15.7,35,35S392.1,296.5,372.8,296.5z M256.8,296.5c-19.3,0-35-15.7-35-35s15.7-35,35-35s35,15.7,35,35
	S276.1,296.5,256.8,296.5z M140.8,296.5c-19.3,0-35-15.7-35-35s15.7-35,35-35s35,15.7,35,35S160.1,296.5,140.8,296.5z"/>
</svg>
