<?xml version="1.0" encoding="utf-8"?>
<!-- Generator: Adobe Illustrator 16.0.0, SVG Export Plug-In . SVG Version: 6.00 Build 0)  -->
<!DOCTYPE svg PUBLIC "-//W3C//DTD SVG 1.1//EN" "http://www.w3.org/Graphics/SVG/1.1/DTD/svg11.dtd">
<svg version="1.1" id="图层_2" xmlns="http://www.w3.org/2000/svg" xmlns:xlink="http://www.w3.org/1999/xlink" x="0px" y="0px"
	 width="512px" height="512px" viewBox="0 0 512 512" enable-background="new 0 0 512 512" xml:space="preserve">
<path fill-rule="evenodd" clip-rule="evenodd" fill="#231815" d="M257,513C115.8,513,1,398.2,1,257.1C1,115.9,115.8,1,257,1
	c141.2,0,256,114.9,256,256.1C513,398.2,398.2,513,257,513z M257,39C136.8,39,38.9,136.8,38.9,257.1c0,120.2,97.9,218.1,218.1,218.1
	c120.3,0,218.1-97.8,218.1-218.1C475.1,136.8,377.2,39,257,39z M373,292c-19.3,0-35-15.7-35-35s15.7-35,35-35s35,15.7,35,35
	S392.3,292,373,292z M257,292c-19.3,0-35-15.7-35-35s15.7-35,35-35s35,15.7,35,35S276.3,292,257,292z M141,292
	c-19.3,0-35-15.7-35-35s15.7-35,35-35s35,15.7,35,35S160.3,292,141,292z"/>
</svg>
