<?xml version="1.0" encoding="utf-8"?>
<!-- Generator: Adobe Illustrator 19.0.0, SVG Export Plug-In . SVG Version: 6.00 Build 0)  -->
<svg version="1.1" id="图层_1" xmlns="http://www.w3.org/2000/svg" xmlns:xlink="http://www.w3.org/1999/xlink" x="0px" y="0px"
	 viewBox="0 0 1451.3 1451.3" style="enable-background:new 0 0 1451.3 1451.3;" xml:space="preserve">
<g id="XMLID_19_">
	<g id="XMLID_20_">
		<g id="XMLID_29_">
			<path id="XMLID_15_" d="M1024.9,65.2C930.1,21.9,829.5,0,725.6,0c-86.5,0-171.5,16.6-253.2,47.4
				c19.1,17.4,527.8,480.2,552.5,502.7C1024.9,516.6,1024.9,75.5,1024.9,65.2L1024.9,65.2z"/>
		</g>
		<g id="XMLID_27_">
			<path id="XMLID_12_" d="M352,1348.2c0-28.4,0-591.7,0-625.2C327.8,745.1,60.6,988.6,52.3,996C110.4,1142.1,216.5,1266,352,1348.2
				L352,1348.2z"/>
		</g>
		<g id="XMLID_25_">
			<path id="XMLID_11_" d="M0,727.2C0,789.8,9.6,853,26.4,915.9c19.6-17.7,630.7-574,643.1-585.4C657.3,319.3,403.3,88.2,395.1,80.5
				C151.3,205.8,0,453.1,0,727.2L0,727.2z"/>
		</g>
		<g id="XMLID_23_">
			<path id="XMLID_9_" d="M428.4,1043.1c0,15.2,0,336.7,0,347.1c73.7,33.1,151,53.7,230.4,61.1h133.2
				c250.6-23.4,474.3-178.3,585.5-408.2C1351.2,1043.1,444,1043.1,428.4,1043.1L428.4,1043.1z"/>
		</g>
		<g id="XMLID_21_">
			<path id="XMLID_7_" d="M1101.4,106.6c0,29.1,0,844.4,0,860.1c14.9,0,297.2,0,308.8,0c27.1-77.7,41.2-158,41.2-239.4
				C1451.3,474.5,1317.2,238.5,1101.4,106.6L1101.4,106.6z"/>
		</g>
	</g>
</g>
</svg>
