<?xml version="1.0" encoding="utf-8"?>
<!-- Generator: Adobe Illustrator 17.0.0, SVG Export Plug-In . SVG Version: 6.00 Build 0)  -->
<!DOCTYPE svg PUBLIC "-//W3C//DTD SVG 1.1//EN" "http://www.w3.org/Graphics/SVG/1.1/DTD/svg11.dtd">
<svg version="1.1" id="图层_1" xmlns="http://www.w3.org/2000/svg" xmlns:xlink="http://www.w3.org/1999/xlink" x="0px" y="0px"
	 width="512px" height="512px" viewBox="0 0 512 512" enable-background="new 0 0 512 512" xml:space="preserve">
<path d="M499.6,309.2c-5.2-1.7-3.4-0.9-10.4-5.4c12.7-14.8,16.6-39.9,2.7-53.9c-14.6-14.7-38.3-14.7-52.9,0
	c-9.1,9.2-12.5,22-10.2,33.9c-40.8-114.3-174-107.4-199.3-108c-14.9,1.4-30.4,4-46.3,7.8c-18.8-19.8-46.5-30.2-80.7-30.2
	c-35.3,0-65.8,10.9-67.1,11.3c-4.6,1.7-8.1,5.6-9.1,10.5c-1.1,4.8,0.4,9.9,3.9,13.4c20,19.8,32.3,50.5,36.8,63.1
	c-9,16.3-16.4,32.2-19.1,42.2l-37,8.6c-6.3,1.6-10.8,7.4-10.8,14v74.9c0,7.8,6.2,14.2,13.9,14.4c44.2,1.1,79.3,12.9,92.4,32.2
	c13.9,20.4,5.4,50.4,5.3,50.6c-1.6,4.4-1,9.3,1.7,13.2c2.7,3.9,7,6.1,11.7,6.1h62.4c5.2,0,9.9-2.8,12.5-7.4l17.5-31.9
	c10,1.6,24.9,3.7,40.9,3.7c9.4,0,18.2-0.7,26.3-2.2l7.4,27.2c1.7,6.3,7.3,10.6,13.7,10.6h74c4.2,0,8.2-1.9,10.9-5.1
	c2.7-3.2,3.9-7.6,3.1-11.7c-0.1-0.4-6.2-42.6,6.4-77.8c23.5-24.9,35.9-54.2,36-85.2c10.1-2.6,18.5-5.3,25.4-7.9
	c10.9,5.7,17.5,16.9,36.5,17.8c0.2,0,0.5,0,0.7,0c7.5,0,13.8-6,14.2-13.7C513.6,316.4,507.1,311.6,499.6,309.2z M167.9,303.2
	c-15.8,0-28.5-12.4-28.5-27.7c0-15.3,12.8-27.7,28.5-27.7c15.8,0,28.5,12.4,28.5,27.7S183.6,303.2,167.9,303.2z M433.1,299.1
	c-0.5-2.4-1.2-4.9-1.8-7.3c1,2.3,2.3,4.6,3.8,6.7C434.5,298.8,433.8,298.9,433.1,299.1z M471.7,282.8
	C471.7,282.9,471.7,282.9,471.7,282.8c-0.1,0.1-0.2,0.2-0.2,0.2l0,0c-0.7,0.6-2.9,2.3-7.3,4.6c-2.4-2-3.7-3.4-4-3.8s-0.5-0.6-0.9-1
	c-3.5-3.5-3.5-9.2,0-12.7s9.1-3.5,12.5,0C475.2,273.7,475.2,279.3,471.7,282.8z"/>
<path d="M404.6,204.7c15.4-15.5,19-29.8,20.1-53.5c2.4-50.3-36-93.1-85.9-95.6c-49.9-2.4-92.3,36.4-94.7,86.7
	c-0.3,6.5-0.9,6.7,0.1,12.9C288,140.5,380.5,168,404.6,204.7z"/>
</svg>
