<?xml version="1.0" encoding="utf-8"?>
<!-- Generator: Adobe Illustrator 17.0.0, SVG Export Plug-In . SVG Version: 6.00 Build 0)  -->
<!DOCTYPE svg PUBLIC "-//W3C//DTD SVG 1.1//EN" "http://www.w3.org/Graphics/SVG/1.1/DTD/svg11.dtd">
<svg version="1.1" id="图层_1" xmlns="http://www.w3.org/2000/svg" xmlns:xlink="http://www.w3.org/1999/xlink" x="0px" y="0px"
	 width="512px" height="512px" viewBox="0 0 512 512" enable-background="new 0 0 512 512" xml:space="preserve">
<path d="M499.4,281.3c-4.3-4.1-4.7-6.1-6.9-9.4c12.7-15.5,12.1-39.1-1.8-53.9c-14.5-15.4-38.2-15.4-52.7,0c-9,9.6-12.5,23-10.3,35.5
	c-7.3-22.4-19.9-43.5-36.8-61.3c-2.9-3.1-6.2-6.2-9.9-9.5c14.3-17,22.4-39.1,22.4-62.3c0-51.6-39.6-93.6-88.3-93.6
	s-88.3,42-88.3,93.6c0,6.7,0.7,13.4,2,19.8c-14.9,1.5-30.4,4.2-46.1,8.1c-18.8-20.8-46.3-31.7-80.5-31.7c-35.2,0-65.6,11.4-67,11.8
	c-4.6,1.7-8,5.9-9.1,11c-1,5.1,0.4,10.3,4,14c20,20.8,32.3,52.9,36.8,66.1c-9,17.3-16.5,33.9-19.2,44.4l-36.9,9
	C4.5,274.9,0,281,0,287.9v78.5c0,8.2,6.2,14.9,13.8,15.1c44.1,1.2,79,13.5,92.3,33.7c13.9,21.3,5.4,52.9,5.3,53
	c-1.6,4.6-0.9,9.8,1.7,13.8c2.6,4,7,6.5,11.7,6.5h62.3c5.2,0,10-3,12.4-7.8l17.5-33.4c10,1.7,24.9,3.9,40.8,3.9
	c9.4,0,18.2-0.8,26.2-2.3l7.4,28.4c1.7,6.6,7.3,11.1,13.7,11.1h73.8c4.2,0,8.1-1.9,10.9-5.4c2.7-3.4,3.9-7.9,3.1-12.3
	c-0.1-0.4-6.2-44.6,6.4-81.4c23.4-26.1,35.8-56.9,36-89.3c10.1-2.7,18.5-5.6,25.4-8.3c10.9,5.9,18.5,18.7,37.4,19.7
	c0.2,0,0.5,0,0.7,0c7.5,0,12.8-6.2,13.2-14.3C512.3,288.8,504.3,286.2,499.4,281.3z M434.1,269.1c-0.6,0.2-1.3,0.4-2,0.5
	c-0.5-2.6-1.1-5.1-1.8-7.6C431.2,264.5,432.6,266.9,434.1,269.1z M315.2,57.2c33,0,59.8,28.4,59.8,63.4c0,17-6.4,33-17.6,44.9
	c-23.9-14.5-56.4-26-99.6-26.4c-1.7-5.9-2.5-12.2-2.5-18.4C255.4,85.6,282.2,57.2,315.2,57.2z M376.9,370.4
	c-1.3,1.5-2.4,3.2-3.1,5.2c-10.8,29.3-11.6,64.4-10.6,82.7h-47.2l-8.2-36.6c-1-4-3.6-7.3-7-9.3c-3.5-1.9-7.5-2.3-11.2-1
	c-8.7,3.1-19.4,4.6-31.8,4.6c-16.8,0-32.2-2.8-41.5-4.4c-1.9-0.3-3.6-0.6-4.8-0.9c-5.9-1-11.7,2-14.5,7.5l-18.3,40h-36.6
	c1.3-14.8,0-40.6-12.3-59.9c-17.1-26.6-54.3-42.9-101.3-46.4l-1.9-53.3l36.3-7.3c5.3-1.4,9.3-5.9,10.5-11.5
	c0.1-0.3,7.5-26.7,21.2-50.2c2.1-3.7,2.7-8.1,1.5-12.3c-0.5-1.7-10.3-36-30.6-65.9c10.2-2.3,23.2-4.3,36.8-4.3
	c29.4,0,50.9,9.3,64.1,27.6c3.5,4.8,9.3,6.9,14.8,5.4c26.3-7.1,51.4-10.8,74.5-10.8c110.1,0,151.1,79.9,151.1,130.3
	C406.8,324.9,396.5,349.5,376.9,370.4z M470.6,252.6L470.6,252.6c-0.1,0.1-0.2,0.1-0.2,0.2l0,0c-0.7,0.6-2.8,2.4-7.3,4.8
	c-2.3-2-3.7-3.6-4-4c-0.3-0.4-0.5-0.6-0.9-1.1c-3.5-3.7-3.5-9.6,0-13.2s9-3.7,12.5,0C474,243.1,474,249,470.6,252.6z"/>
<path d="M195.9,245c0,16-12.7,29-28.4,29l0,0c-15.7,0-28.4-12.9-28.4-29l0,0c0-16,12.7-29,28.4-29l0,0
	C183.1,216,195.9,228.9,195.9,245L195.9,245z"/>
</svg>
