<?xml version="1.0" encoding="utf-8"?>
<!-- Generator: Adobe Illustrator 16.0.0, SVG Export Plug-In . SVG Version: 6.00 Build 0)  -->
<!DOCTYPE svg PUBLIC "-//W3C//DTD SVG 1.1//EN" "http://www.w3.org/Graphics/SVG/1.1/DTD/svg11.dtd">
<svg version="1.1" id="图层_1" xmlns="http://www.w3.org/2000/svg" xmlns:xlink="http://www.w3.org/1999/xlink" x="0px" y="0px"
	 width="512px" height="512px" viewBox="0 0 512 512" enable-background="new 0 0 512 512" xml:space="preserve">
<g>
	<g>
		<g>
			<path id="SVGID_1_" d="M396,140.8c-0.1,0.5-0.1,1-0.2,1.5l0,0c-7.6,58.4-33.1,183.8-111.4,185.7l0,0H279v152
				c0,12.7-10.3,23-23,23h-1c-12.7,0-23-10.3-23-23V328h-3.4l0,0c-78.9-1.9-104.2-129.5-111.6-187.2c0.1-15.4,12.5-27.8,27.9-27.8
				c0.5,0,1,0,1.5,0l0,0H182V29.5c0-10.8,8.7-19.5,19.5-19.5h1c10.8,0,19.5,8.7,19.5,19.5V113h6.6h2.8h50.2h2.8h7.6V29.5
				c0-10.8,8.7-19.5,19.5-19.5h1c10.8,0,19.5,8.7,19.5,19.5V113h33.4v0.1c0.9-0.1,1.8-0.1,2.6-0.1C383.5,113,395.9,125.4,396,140.8
				L396,140.8L396,140.8z M336.9,143c-0.6,0-1.3,0-1.9,0.1V143h-58.4h-2h-36.2h-2h-59.2l0,0c-0.4,0-0.7,0-1.1,0
				c-11.1,0-20,9-20.1,20c5.3,41.6,23.5,133.6,80.4,134.9l0,0h40.2l0,0c56.4-1.4,74.8-91.8,80.3-133.8l0,0c0-0.4,0.1-0.7,0.1-1.1
				l0,0C356.9,152,348,143,336.9,143L336.9,143z M297.5,268h-81c-5.2,0-9.5-4.3-9.5-9.5v-1c0-5.2,4.3-9.5,9.5-9.5h81
				c5.2,0,9.5,4.3,9.5,9.5v1C307,263.7,302.7,268,297.5,268L297.5,268z"/>
		</g>
	</g>
</g>
</svg>
