<?xml version="1.0" encoding="utf-8"?>
<!-- Generator: Adobe Illustrator 16.0.0, SVG Export Plug-In . SVG Version: 6.00 Build 0)  -->
<!DOCTYPE svg PUBLIC "-//W3C//DTD SVG 1.1//EN" "http://www.w3.org/Graphics/SVG/1.1/DTD/svg11.dtd">
<svg version="1.1" id="图层_1" xmlns="http://www.w3.org/2000/svg" xmlns:xlink="http://www.w3.org/1999/xlink" x="0px" y="0px"
	 width="512px" height="512px" viewBox="0 0 512 512" enable-background="new 0 0 512 512" xml:space="preserve">
<g>
	<path fill-rule="evenodd" clip-rule="evenodd" fill="#231815" d="M453,513H61c-33.1,0-60-26.9-60-60V61C1,27.9,27.9,1,61,1h392
		c33.1,0,60,26.9,60,60v392C513,486.1,486.1,513,453,513z M474.6,99.4c0-33.1-26.9-60-60-60H99.4c-33.1,0-60,26.9-60,60v315.2
		c0,33.1,26.9,60,60,60h315.2c33.1,0,60-26.9,60-60V99.4z M400.1,429.8l-0.7,0.7c-9.7,8.6-24.6,7.7-33.2-2l-28.9-32.6
		c-5.8,3.5-11.8,6.7-18.2,9.5c-18.2,7.8-38.1,11.7-59.9,11.7c-22,0-42.1-3.9-60.3-11.6c-18.2-7.7-34-18.7-47.1-32.8
		c-13.2-14.1-23.5-31.2-30.8-51.1c-7.3-19.9-11-41.9-11-65.9c0-24.3,3.7-46.4,11.1-66.3c7.4-19.9,17.8-36.9,31.2-50.9
		c13.3-14.1,29.1-24.9,47.1-32.5c18.1-7.6,38-11.4,59.8-11.4c21.5,0,41.3,3.9,59.6,11.6c18.2,7.7,34,18.6,47.1,32.7
		c13.2,14.1,23.5,31,30.9,50.8c7.4,19.8,11.1,41.8,11.1,66c0,23.9-3.6,45.6-10.9,65.4c-5.9,16.1-13.9,30.4-23.8,42.9l28.9,32.6
		C410.7,406.3,409.9,421.2,400.1,429.8z M357.6,308.7c5.3-15.6,7.9-33.2,7.9-53c0-20.1-2.7-37.8-8.1-53.3
		c-5.4-15.5-12.8-28.6-22.2-39.3c-9.4-10.7-20.6-18.9-33.5-24.4c-13-5.5-27-8.3-42.2-8.3c-15.3,0-29.6,2.8-42.9,8.5
		s-24.6,13.9-34,24.6c-9.4,10.7-16.8,23.9-22.2,39.3c-5.4,15.5-8.1,33.1-8.1,52.8c0,19.7,2.6,37.4,7.8,53
		c5.2,15.6,12.6,28.7,22,39.6c9.5,10.8,20.7,19.1,33.6,24.9c12.9,5.8,27.2,8.6,42.6,8.6c15.5,0,29.8-2.9,42.9-8.6
		c3.7-1.6,7.2-3.5,10.7-5.5l-14.4-16.2c-8.6-9.7-7.7-24.6,2-33.2l0.7-0.7c9.7-8.6,24.6-7.7,33.2,2l12.4,14
		C350.7,326,354.5,317.8,357.6,308.7z"/>
</g>
</svg>
