<?xml version="1.0" encoding="utf-8"?>
<!-- Generator: Adobe Illustrator 16.0.0, SVG Export Plug-In . SVG Version: 6.00 Build 0)  -->
<!DOCTYPE svg PUBLIC "-//W3C//DTD SVG 1.1//EN" "http://www.w3.org/Graphics/SVG/1.1/DTD/svg11.dtd">
<svg version="1.1" id="图层_1" xmlns="http://www.w3.org/2000/svg" xmlns:xlink="http://www.w3.org/1999/xlink" x="0px" y="0px"
	 width="512px" height="512px" viewBox="0 0 512 512" enable-background="new 0 0 512 512" xml:space="preserve">
<path fill-rule="evenodd" clip-rule="evenodd" fill="#231815" d="M453,513H61c-33.1,0-60-26.9-60-60V61C1,27.9,27.9,1,61,1h392
	c33.1,0,60,26.9,60,60v392C513,486.1,486.1,513,453,513z M397.1,321.1c7.3-19.7,10.9-41.5,10.9-65.4c0-24.2-3.7-46.2-11.1-66
	c-7.4-19.8-17.7-36.8-30.9-50.8c-13.2-14.1-28.9-25-47.1-32.7c-18.2-7.7-38.1-11.6-59.6-11.6c-21.8,0-41.7,3.8-59.8,11.4
	c-18.1,7.6-33.8,18.4-47.1,32.5c-13.3,14.1-23.7,31-31.2,50.9c-7.4,19.9-11.1,42-11.1,66.3c0,24,3.7,46,11,65.9
	c7.3,19.9,17.6,36.9,30.8,51.1c13.2,14.1,28.9,25.1,47.1,32.8c18.2,7.7,38.3,11.6,60.3,11.6c21.8,0,41.8-3.9,59.9-11.7
	c6.4-2.7,12.4-5.9,18.2-9.5l28.9,32.6c8.6,9.7,23.5,10.6,33.2,2l0.7-0.7c9.7-8.6,10.6-23.5,2-33.2L373.2,364
	C383.2,351.5,391.1,337.2,397.1,321.1z M346.2,333.5l-12.4-14c-8.6-9.7-23.5-10.6-33.2-2l-0.7,0.7c-9.7,8.6-10.6,23.5-2,33.2
	l14.4,16.2c-3.4,2-7,3.9-10.7,5.5c-13.1,5.8-27.4,8.6-42.9,8.6c-15.5,0-29.7-2.9-42.6-8.6c-13-5.8-24.2-14.1-33.6-24.9
	c-9.5-10.8-16.8-24-22-39.6c-5.2-15.6-7.8-33.2-7.8-53c0-19.7,2.7-37.4,8.1-52.8c5.4-15.5,12.8-28.6,22.2-39.3
	c9.4-10.7,20.7-19,34-24.6s27.6-8.5,42.9-8.5c15.2,0,29.2,2.8,42.2,8.3c12.9,5.5,24.1,13.7,33.5,24.4c9.4,10.7,16.8,23.9,22.2,39.3
	c5.4,15.5,8.1,33.2,8.1,53.3c0,19.7-2.6,37.4-7.9,53C354.5,317.8,350.7,326,346.2,333.5z"/>
</svg>
