<?xml version="1.0" encoding="utf-8"?>
<!-- Generator: Adobe Illustrator 19.0.0, SVG Export Plug-In . SVG Version: 6.00 Build 0)  -->
<svg version="1.1" id="图层_1" xmlns="http://www.w3.org/2000/svg" xmlns:xlink="http://www.w3.org/1999/xlink" x="0px" y="0px"
	 width="1451.3px" height="1451.3px" viewBox="0 0 1451.3 1451.3" enable-background="new 0 0 1451.3 1451.3" xml:space="preserve">
<path d="M1383.8,978l-1.8-13.8l-2.2-14.3l-2-15.3l-3.6-14.3l-4-16.4l-4.2-16l-5.5-16.4l-5.2-15.7l-7.2-16l-6.8-17.2l-8.1-16.2
	l-9.7-17.5l-9.8-15.7l-10.2-17.5l-8.6-12l-10.9-14.1l-11.5-14l-5.4-6.7l-6.4-7.6l-9.5-9.5l-9.7-9.7l-15.8-16.4l-11.9-10.1l-4.2-3.6
	l2.3-8.4l1.9-11l1.3-6.1v-7.5v-9.1v-8.2l-2.2-9.6l-2.3-10.4l-3.1-10.7l-4.1-12l-5.3-12.5l-7.7-12.5v-8.8l-0.8-8.2l-1.1-11.2
	l-3.2-12.4l-3-13.7l-2.5-6.3l-2.7-5.8l-3.6-6.5l-3.8-4.8v-8.8V438v-12.3l-2.3-16l-2.3-18.5l-4-22.1l-5.5-23.1l-4.1-12.7l-4.1-13.9
	l-4.5-12.8l-5.4-13.9l-5.4-15.1l-6.3-14.2l-7-15.2l-8.9-15.1l-4.1-8.6l-4.4-7.1l-9.5-16l-9.8-16l-11.2-16.4l-12-16l-12.9-15.7
	l-13.5-16.2l-16.3-17.4l-10.5-10.6l-12.6-11.4l-12.8-10.1L966.4,62l-13.3-8.6L938,46.3l-15.9-8.9l-15.9-6l-15.8-6.3l-17.1-6.3
	l-17.2-4.8l-18-3.8l-18.2-3.4L802,4.1l-18-2.8L764.8,0h-18.2H731h-15.6h-18.2L678,1.2l-18,2.8l-17.9,2.8l-18.2,3.4l-18,3.8
	l-17.2,4.8l-17.1,6.3l-15.8,6.3l-15.9,6L524,46.3l-15.1,7.1L495.6,62l-13.9,9.7l-12.8,10.1l-12.6,11.4l-10.5,10.6l-16.3,17.4
	L416,137.5l-12.9,15.7l-12,16l-11.2,16.4l-9.8,16l-9.5,16l-4.4,7.1l-4.1,8.6l-8.9,15.1l-7,15.2l-6.3,14.2l-5.4,15.1l-5.4,13.9
	l-4.5,12.8l-4.1,13.9l-4.1,12.7l-5.5,23.1l-4,22.1l-2.3,18.5l-2.3,16V438v9.9v8.8l-3.8,4.8l-3.6,6.5l-2.7,5.8l-2.5,6.3l-3,13.7
	l-3.2,12.4l-1.1,11.2l-0.8,8.2v8.8l-7.7,12.5l-5.3,12.5l-4.1,12l-3,10.7l-2.4,10.4l-2.2,9.6v8.2v9.1v7.5l1.3,6.1l1.9,11l2.3,8.4
	l-4.2,3.6l-11.9,10.1l-15.8,16.4l-9.7,9.7l-9.4,9.5l-6.5,7.6l-5.4,6.7l-11.5,14L167.1,744l-8.6,12l-10.2,17.5l-9.8,15.7l-9.7,17.5
	l-8.1,16.2l-6.8,17.2l-7.2,16l-5.2,15.7L96,888.1l-4.2,16l-4,16.4l-3.6,14.3l-2,15.3L80,964.3L78.2,978l-1.2,26.9v25v11.2l1.2,11
	l2.9,18.7l1.1,8.2l2,8.4l2.5,8l2.2,5.7l3.7,10.3l2.8,2.1l1.7,4.3l2.2,1.1h1.3h0.9l9.5-1.1l9.7-2.8l8.1-3.6l8.6-6.3l7.7-5.9l7.1-7.5
	l7.6-8l6.5-8.2l6.1-9.3l5.6-8.3l5.2-6.9l3.3-8.1l6.4-13.1l2-5.4l1.1-3.2l0.5-3.6l1.5-3l1.2-0.6l2.2-1.3h1.3l0.6,1.3h1l1.2,0.6
	l3.5,17.9l3.9,14.5l5.2,15.1l5.2,13.6l4.4,13.6l6.8,11.9l4.9,12.4l5.6,11.4l6.5,9.9l4.8,9.5l13,17.7l11.4,15.8l10.8,12.2l10.9,10.9
	l9.3,8.7l13.9,14l5.6,3l1.8,3v1.4l-1.3,1.4h-0.5l-2.8,1l-10.4,0.9l-9.7,1.5l-8.2,1.2l-8.6,2.2l-7.3,2.6l-7.5,2.5l-6.4,3.8l-5.2,3.6
	l-6.5,2.4l-4.1,3.8l-4.4,3l-4.7,4.3l-6,8.4l-2.2,3.8l-2.7,3.4l-3.8,8.9l-2,7.3l-2.5,7.3l-0.5,6.5v8.5v3.6l-1.1,6v6.2l-1.3,6v5.4
	l1.3,5.9l1.1,5.2l3,10.1l2,4.8l2.7,4.8l2.9,4.7l3.1,4.1l4.3,4.8l3.2,3.8l9.4,8l9.6,6.7l10.8,6.1l11.8,5.4l12.4,5.9l13.7,3.6
	l13.8,5.2l14.8,3.4l14.9,2.6l15.1,2.6l15.8,2.5l31.1,3.6l32.1,0.7h29.5h13.9h13.3l13.9-0.7l12-1.5l11.4-1.1l10.8-1l17.3-3.8
	l12.4-3.9l11.9-3.4l21.9-10.3l9.9-4.3l9.4-5.4l15.6-9.9l14.1-8l10.4-7.6l7.7-8l11.8,1.5l9.3,1.1l18.2,1.5h4.1h4.1l18.2-1.5l9.3-1.1
	l11.8-1.5l7.7,8l10.4,7.6l14.1,8l15.6,9.9l9.4,5.4l9.9,4.3l21.9,10.3l11.9,3.4l12.4,3.9l17.3,3.8l10.8,1l11.4,1.1l12,1.5l13.9,0.7
	h13.3h13.9h29.5l32.1-0.7l31.1-3.6l15.8-2.5l15.1-2.6l14.9-2.6l14.8-3.4l13.8-5.2l13.7-3.6l12.4-5.9l11.8-5.4l10.8-6.1l9.6-6.7
	l9.4-8l3.3-3.8l4.2-4.8l3.1-4.1l2.9-4.7l2.7-4.8l2-4.8l3-10.1l1.1-5.2l1.3-5.9v-5.4l-1.3-6v-6.2l-1.1-6v-3.6v-8.5l-0.5-6.5l-2.5-7.3
	l-2-7.3l-3.8-8.9l-2.7-3.4l-2.2-3.8l-6-8.4l-4.7-4.3l-4.4-3l-4.1-3.8l-6.5-2.4l-5.2-3.6l-6.4-3.8l-7.5-2.5l-7.3-2.6l-8.6-2.2
	l-8.2-1.2l-9.7-1.5l-10.4-0.9l-2.7-1h-0.6l-1.3-1.4v-1.4l1.9-3l5.5-3l13.9-14l9.3-8.7l10.9-10.9l10.8-12.2l11.4-15.8l13-17.7
	l4.9-9.5l6.4-9.9l5.6-11.4l4.9-12.4l6.8-11.9l4.4-13.6l5.2-13.6l5.2-15.1l3.9-14.5l3.5-17.9l1.2-0.6h1l0.6-1.3h1.4l2.1,1.3l1.2,0.6
	l1.5,3l0.5,3.6l1.1,3.2l2,5.4l6.4,13.1l3.3,8.1l5.2,6.9l5.6,8.3l6.1,9.3l6.5,8.2l7.6,8l7.1,7.5l7.7,5.9l8.6,6.3l8.1,3.6l9.7,2.8
	l9.5,1.1h0.9h1.3l2.2-1.1l1.7-4.3l2.8-2.1l3.7-10.3l2.2-5.7l2.5-8l2-8.4l1.1-8.2l2.9-18.7l1.2-11v-11.2v-25L1383.8,978z"/>
</svg>
