<?xml version="1.0" encoding="utf-8"?>
<!-- Generator: Adobe Illustrator 19.0.0, SVG Export Plug-In . SVG Version: 6.00 Build 0)  -->
<svg version="1.1" id="图层_1" xmlns="http://www.w3.org/2000/svg" xmlns:xlink="http://www.w3.org/1999/xlink" x="0px" y="0px"
	 width="1451.3px" height="1451.3px" viewBox="0 0 1451.3 1451.3" enable-background="new 0 0 1451.3 1451.3" xml:space="preserve">
<path fill="#231815" d="M1451.3,542.6L949.9,551L725.7,0L501.4,542.8L0,542.6l362.8,364l-85.7,544.8L725.7,1147l448.5,304.4
	l-85.7-544.8L1451.3,542.6z M1058.8,628.7L676.3,975.1c-3.8,3.4-2.8,7.1,2.2,8.2l361.9,78.3c23.9,5.2,23.5,9.4-1,9.4H396
	c-7.4,0-8.7-3.8-3-8.5l443.7-361.7c4.5-3.6,3.5-7.4-2.2-8.4l-364.9-62.5c-30.3-5.2-30-9.5,0.8-9.5h585.2
	C1062.4,620.4,1063.8,624.1,1058.8,628.7z"/>
</svg>
