<?xml version="1.0" encoding="utf-8"?>
<!-- Generator: Adobe Illustrator 17.0.0, SVG Export Plug-In . SVG Version: 6.00 Build 0)  -->
<!DOCTYPE svg PUBLIC "-//W3C//DTD SVG 1.1//EN" "http://www.w3.org/Graphics/SVG/1.1/DTD/svg11.dtd">
<svg version="1.1" id="图层_1" xmlns="http://www.w3.org/2000/svg" xmlns:xlink="http://www.w3.org/1999/xlink" x="0px" y="0px"
	 width="512px" height="512px" viewBox="0 0 512 512" enable-background="new 0 0 512 512" xml:space="preserve">
<path d="M290,467.8c-11.1,1.8-22.4,2.7-34,2.7c-118.3,0-214.5-96.2-214.5-214.5S137.7,41.5,256,41.5S470.5,137.7,470.5,256
	c0,14.4-1.4,28.4-4.1,42h40.7c2.3-13.8,3.4-27.8,3.4-42c0-68-26.5-131.9-74.5-180C387.9,28,324,1.5,256,1.5S124.1,28,76,76
	C28,124.1,1.5,188,1.5,256S28,387.9,76,436c48.1,48.1,112,74.5,180,74.5c11.5,0,22.8-0.8,34-2.3V467.8z"/>
<path d="M181.7,237.5c37.3-16.6,54.5-59.2,38.5-95l-135,60.2C101.2,238.5,144.4,254.1,181.7,237.5z"/>
<path d="M339.8,237.5c-37.3-16.6-54.5-59.2-38.5-95l135,60.2C420.2,238.5,377,254.1,339.8,237.5z"/>
<path d="M193.6,351c0,20.6-16.9,37.2-37.8,37.2S118,371.5,118,351s37.8-73.8,37.8-73.8S193.6,330.4,193.6,351z"/>
<path d="M454.1,422.9l53.8-50.9c1-1,1.1-2.5,0.1-3.6l-32.8-34.7c-1-1-2.5-1.1-3.6-0.1l-55.8,52.7l-55.6-52.9c-1-1-2.6-0.9-3.6,0.1
	l-32.9,34.6c-1,1-0.9,2.6,0.1,3.6l53.6,51l-53.8,50.9c-1,1-1.1,2.5-0.1,3.6l32.8,34.7c1,1,2.5,1.1,3.6,0.1l55.8-52.7l55.6,52.9
	c1,1,2.6,0.9,3.6-0.1l32.9-34.6c1-1,0.9-2.6-0.1-3.6L454.1,422.9z"/>
</svg>
