<?xml version="1.0" encoding="utf-8"?>
<!-- Generator: Adobe Illustrator 16.0.0, SVG Export Plug-In . SVG Version: 6.00 Build 0)  -->
<!DOCTYPE svg PUBLIC "-//W3C//DTD SVG 1.1//EN" "http://www.w3.org/Graphics/SVG/1.1/DTD/svg11.dtd">
<svg version="1.1" id="图层_2" xmlns="http://www.w3.org/2000/svg" xmlns:xlink="http://www.w3.org/1999/xlink" x="0px" y="0px"
	 width="512px" height="512px" viewBox="0 0 512 512" enable-background="new 0 0 512 512" xml:space="preserve">
<path fill-rule="evenodd" clip-rule="evenodd" fill="#231815" d="M496.5,100.3L496.5,100.3L404.9,192l24,24l-0.1,0.3
	c0.7,0.5,1.4,1,2.1,1.6c4.4,4.4,4.4,11.6,0,15.9c-2.1,2.1-4.7,3.1-7.4,3.3l-0.1,0.3l-138.6,3.7l-0.2-0.2c-3,0.1-5.9-1-8.2-3.3
	c-1.3-1.3-2.2-2.9-2.8-4.6l-0.2,0.6l0-1.2c-0.5-1.9-0.5-3.8,0-5.7l3.6-133.6c-0.6-3.5,0.4-7.3,3.1-10c4.4-4.4,11.5-4.4,15.9,0
	c0.2,0.2,0.3,0.3,0.5,0.5l25.4,25.4L413.1,18l0.1,0c0.1-0.2,0.3-0.3,0.4-0.5c4.4-4.4,11.5-4.4,15.9,0c0,0,0,0,0,0l66.9,66.9
	c0,0,0,0,0,0c0,0,0,0,0,0L497,85l0,0.1C500.8,89.4,500.7,96.1,496.5,100.3z M237.1,423.5c-0.1,2.7-1.2,5.4-3.3,7.4
	c-4.4,4.4-11.5,4.4-15.9,0c-0.6-0.6-1.2-1.3-1.6-2.1l-0.3,0.1l-24-24l-91.6,91.6l-0.1,0c-4.2,4.2-10.9,4.3-15.3,0.5l-0.1,0l-0.5-0.5
	c0,0,0,0,0,0c0,0,0,0,0,0l-66.9-66.9c0,0,0,0,0,0c-4.4-4.4-4.4-11.6,0-15.9c0.2-0.2,0.3-0.3,0.5-0.4l0-0.1l91.1-91.1l-25.4-25.4
	c-0.2-0.2-0.4-0.3-0.5-0.5c-4.4-4.4-4.4-11.6,0-15.9c2.7-2.7,6.5-3.7,10-3.1l133.6-3.6c1.8-0.5,3.8-0.5,5.7,0l1.2,0l-0.6,0.2
	c1.7,0.5,3.3,1.4,4.6,2.8c2.3,2.3,3.4,5.2,3.3,8.2l0.2,0.2l-3.7,138.6L237.1,423.5z"/>
</svg>
