<?xml version="1.0" encoding="utf-8"?>
<!-- Generator: Adobe Illustrator 16.0.0, SVG Export Plug-In . SVG Version: 6.00 Build 0)  -->
<!DOCTYPE svg PUBLIC "-//W3C//DTD SVG 1.1//EN" "http://www.w3.org/Graphics/SVG/1.1/DTD/svg11.dtd">
<svg version="1.1" id="图层_2" xmlns="http://www.w3.org/2000/svg" xmlns:xlink="http://www.w3.org/1999/xlink" x="0px" y="0px"
	 width="512px" height="512px" viewBox="0 0 512 512" enable-background="new 0 0 512 512" xml:space="preserve">
<path fill-rule="evenodd" clip-rule="evenodd" fill="#231815" d="M60,1h392c33.1,0,60,26.9,60,60v392c0,33.1-26.9,60-60,60H60
	c-33.1,0-60-26.9-60-60V61C0,27.9,26.9,1,60,1z M68,261.4c0,14.5,11.8,26.3,26.3,26.3h248.3l-83.4,83.6c-8.5,8.6-8.5,22.5,0,31
	l3.1,3.1c8.5,8.6,22.4,8.6,31,0l112.3-112.6c2.4-1.9,5.2-4.2,8.4-7c31-27.1,4.2-53.9,4.2-53.9l-34.4-32.8l-90.5-90.7
	c-8.5-8.6-22.4-8.6-31,0l-3.1,3.1c-8.5,8.6-8.5,22.5,0,31l87.8,88H94.3C79.8,230.7,68,242.5,68,257V261.4z"/>
</svg>
