<?xml version="1.0" encoding="utf-8"?>
<!-- Generator: Adobe Illustrator 17.0.0, SVG Export Plug-In . SVG Version: 6.00 Build 0)  -->
<!DOCTYPE svg PUBLIC "-//W3C//DTD SVG 1.1//EN" "http://www.w3.org/Graphics/SVG/1.1/DTD/svg11.dtd">
<svg version="1.1" id="图层_1" xmlns="http://www.w3.org/2000/svg" xmlns:xlink="http://www.w3.org/1999/xlink" x="0px" y="0px"
	 width="512px" height="512px" viewBox="0 0 512 512" enable-background="new 0 0 512 512" xml:space="preserve">
<path d="M510.1,196.4c0.4-3.3,0.1-6.7-0.6-10L467.6,18.9H42L1.1,186.4c-0.7,3.3-1,6.6-0.6,10c1.5,13.7,8.2,25.9,18.4,35.1
	c11.5,10.4,27.5,16.9,45.1,16.9s33.6-6.5,45.1-16.9c11.5-10.4,18.7-24.9,18.7-40.8c0,31.9,28.6,57.7,63.8,57.7s63.8-25.8,63.8-57.7
	c0,31.9,28.6,57.7,63.8,57.7s63.8-25.8,63.8-57.7c0,15.9,7.1,30.4,18.7,40.8c11.5,10.4,27.5,16.9,45.1,16.9s33.6-6.5,45.1-16.9
	C501.9,222.3,508.7,210.1,510.1,196.4L510.1,196.4z"/>
<path d="M439.6,512c21.5,0,39-16.4,39-36.6V297.3c-10,3.3-20.7,5.1-31.9,5.1c-24.5,0-46.8-19-63.8-33.2
	c-16.9,14.3-39.3,33.2-63.8,33.2s-46.8-19-63.8-33.2c-16.9,14.3-39.3,33.2-63.8,33.2s-46.8-19-63.8-33.2
	c-16.9,14.3-39.3,33.2-63.8,33.2c-11.2,0-21.9-1.8-31.9-5.1v178.1c0,20.2,17.5,36.6,39,36.6h120.5V348.4h127.6V512H439.6z"/>
</svg>
