<?xml version="1.0" encoding="utf-8"?>
<!-- Generator: Adobe Illustrator 17.0.0, SVG Export Plug-In . SVG Version: 6.00 Build 0)  -->
<!DOCTYPE svg PUBLIC "-//W3C//DTD SVG 1.1//EN" "http://www.w3.org/Graphics/SVG/1.1/DTD/svg11.dtd">
<svg version="1.1" id="图层_1" xmlns="http://www.w3.org/2000/svg" xmlns:xlink="http://www.w3.org/1999/xlink" x="0px" y="0px"
	 width="512px" height="512px" viewBox="0 0 512 512" enable-background="new 0 0 512 512" xml:space="preserve">
<path d="M281.8,442c-26.7,23.3-61.6,37.4-99.8,37.4c-83.8,0-152-68.2-152-152c0-80.6,63-146.7,142.3-151.7
	c6.2-10.7,13.4-20.7,21.6-29.9c-3.9-0.3-7.9-0.4-11.9-0.4C81.6,145.4,0,227,0,327.4c0,100.4,81.6,182,182,182
	c54.1,0,102.7-23.7,136.1-61.3C305.6,447.3,293.5,445.2,281.8,442z"/>
<path d="M330.8,192.8c0,17.9-14.5,32.3-32.3,32.3s-32.3-14.5-32.3-32.3s14.5-32.3,32.3-32.3S330.8,175,330.8,192.8z"/>
<path d="M441.4,234.1c0,17.9-14.5,32.3-32.3,32.3s-32.3-14.5-32.3-32.3s14.5-32.3,32.3-32.3S441.4,216.3,441.4,234.1z"/>
<path d="M126.1,286c0,15.5-12.5,28-28,28s-28-12.5-28-28c0-15.5,12.5-28,28-28S126.1,270.6,126.1,286z"/>
<path d="M293.9,372.9c48,18.7,101-2.4,118.4-47.2L238.6,258C221.2,302.8,246,354.2,293.9,372.9z"/>
<path d="M331,84.5c-100.4,0-182,81.6-182,182c0,30.3,7.5,58.9,20.6,84.1l-71,8.9c6,47.6,52.2,81.1,103.3,74.7
	c12.9-1.6,24.9-5.7,35.5-11.5c27.3,16.4,59.3,25.9,93.5,25.9c100.4,0,182-81.6,182-182S431.4,84.5,331,84.5z M331,418.5
	c-83.8,0-152-68.2-152-152s68.2-152,152-152s152,68.2,152,152S414.8,418.5,331,418.5z"/>
<path d="M507.8,39.6L464.4,4.5c-1.3-1.1-2.8-1.8-4.4-2.2c-4.1-2.1-9.1-1.6-12.8,1.6l-41.9,37c-4.7,4.2-5.2,11.4-1,16.1
	c4.2,4.7,11.4,5.2,16.1,1l18.2-16.1c2,6.1,7.2,22.6,7.2,29.1c0,9.1-7.9,37.1-7.9,37.1c0,8.2,5.6,14.8,12.5,14.8h10.5
	c6.9,0,12.5-6.6,12.5-14.8c0,0,5.6-25.2,5.6-34.2c0-6.9-4-26.5-5.2-32.5l19.8,16c4.9,4,12.1,3.2,16-1.7
	C513.4,50.8,512.7,43.6,507.8,39.6z"/>
<path d="M42.3,65.7L72,10.1c0.9-1.7,2.1-3.1,3.6-4c3.2-3.8,8.5-5,13.4-2.5l56.5,28.9c6.4,3.3,9.6,11.5,7.3,18.4
	c-2.3,6.9-9.4,9.9-15.7,6.6L112.5,45c0.4,7.8,1.7,28.8,4.2,36.3c3.6,10.6,22.5,40.5,22.5,40.5c3.2,9.5,0.2,19.1-6.6,21.5l-10.6,3.6
	c-6.9,2.3-15.1-3.5-18.3-13c0,0-15.5-27.5-19.1-37.9c-2.7-8-6.4-32.3-7.5-39.6L63.7,81.5c-3.3,6.3-10.8,7.8-16.7,3.5
	C41,80.6,39,72,42.3,65.7z"/>
</svg>
