<?xml version="1.0" encoding="utf-8"?>
<!-- Generator: Adobe Illustrator 16.0.0, SVG Export Plug-In . SVG Version: 6.00 Build 0)  -->
<!DOCTYPE svg PUBLIC "-//W3C//DTD SVG 1.1//EN" "http://www.w3.org/Graphics/SVG/1.1/DTD/svg11.dtd">
<svg version="1.1" id="图层_2" xmlns="http://www.w3.org/2000/svg" xmlns:xlink="http://www.w3.org/1999/xlink" x="0px" y="0px"
	 width="512px" height="512px" viewBox="0 0 512 512" enable-background="new 0 0 512 512" xml:space="preserve">
<path fill-rule="evenodd" clip-rule="evenodd" fill="#231815" d="M257,483C132.2,483,31,381.8,31,257S132.2,31,257,31
	s226,101.2,226,226S381.8,483,257,483z M257,63.8C150.3,63.8,63.8,150.3,63.8,257S150.3,450.2,257,450.2S450.2,363.7,450.2,257
	S363.7,63.8,257,63.8z M257,418c-88.9,0-161-72.1-161-161S168.1,96,257,96s161,72.1,161,161S345.9,418,257,418z M257,128.2
	c-71.1,0-128.8,57.7-128.8,128.8c0,71.1,57.7,128.8,128.8,128.8c71.1,0,128.8-57.7,128.8-128.8C385.8,185.9,328.1,128.2,257,128.2z
	 M257,353.8c-53.5,0-96.8-43.3-96.8-96.8c0-53.5,43.3-96.8,96.8-96.8c53.5,0,96.8,43.3,96.8,96.8C353.8,310.5,310.5,353.8,257,353.8
	z M257,192.5c-35.6,0-64.5,28.9-64.5,64.5s28.9,64.5,64.5,64.5s64.5-28.9,64.5-64.5S292.6,192.5,257,192.5z M256.4,286.9
	c-16.2,0-29.3-13.1-29.3-29.3s13.1-29.3,29.3-29.3s29.3,13.1,29.3,29.3S272.6,286.9,256.4,286.9z"/>
</svg>
