<?xml version="1.0" encoding="utf-8"?>
<!-- Generator: Adobe Illustrator 17.0.0, SVG Export Plug-In . SVG Version: 6.00 Build 0)  -->
<!DOCTYPE svg PUBLIC "-//W3C//DTD SVG 1.1//EN" "http://www.w3.org/Graphics/SVG/1.1/DTD/svg11.dtd">
<svg version="1.1" id="图层_1" xmlns="http://www.w3.org/2000/svg" xmlns:xlink="http://www.w3.org/1999/xlink" x="0px" y="0px"
	 width="512px" height="512px" viewBox="0 0 512 512" enable-background="new 0 0 512 512" xml:space="preserve">
<path d="M482.8,179.3h-32.5c0-53.1-43.2-96.2-96.5-96.2h-55.3c0-0.4,0.1-0.7,0.1-1.1V60c0-7.2-5.8-13-13-13h-59c-7.2,0-13,5.8-13,13
	v22c0,0.4,0,0.7,0.1,1.1h-52.7c-53.3,0-96.5,43.1-96.5,96.2H31.8C14.3,179.3,0,193.5,0,211.1v0.6c0,17.5,14.3,31.8,31.8,31.8h0.3
	v128.3c0,17.7,14.4,32.1,32.2,32.1v32.1c0,17.7,14.4,32.1,32.2,32.1h32.2c17.8,0,32.2-14.4,32.2-32.1v-32.1h193v32.1
	c0,17.7,14.4,32.1,32.2,32.1h32.2c17.8,0,32.2-14.4,32.2-32.1v-32.1c17.8,0,32.2-14.4,32.2-32.1V243.5h0.3
	c17.6,0,31.8-14.2,31.8-31.8v-0.6C514.6,193.5,500.3,179.3,482.8,179.3z M128.7,307.9c0,17.5-14.3,31.8-31.8,31.8h-0.6
	c-17.6,0-31.8-14.2-31.8-31.8v-0.6c0-17.5,14.3-31.8,31.8-31.8h0.6c17.6,0,31.8,14.2,31.8,31.8V307.9z M353.8,307.9
	c0,17.5-14.3,31.8-31.8,31.8H192.7c-17.6,0-31.8-14.2-31.8-31.8v-0.6c0-17.5,14.3-31.8,31.8-31.8h129.3c17.6,0,31.8,14.2,31.8,31.8
	V307.9z M96.5,211.4v-32.1c0-35.4,28.8-64.2,64.3-64.2h193c35.5,0,64.3,28.7,64.3,64.2l-0.2,32.1H96.5z M450.3,307.9
	c0,17.5-14.3,31.8-31.8,31.8h-0.6c-17.6,0-31.8-14.2-31.8-31.8v-0.6c0-17.5,14.3-31.8,31.8-31.8h0.6c17.6,0,31.8,14.2,31.8,31.8
	V307.9z"/>
</svg>
