<?xml version="1.0" encoding="utf-8"?>
<!-- Generator: Adobe Illustrator 17.0.0, SVG Export Plug-In . SVG Version: 6.00 Build 0)  -->
<!DOCTYPE svg PUBLIC "-//W3C//DTD SVG 1.1//EN" "http://www.w3.org/Graphics/SVG/1.1/DTD/svg11.dtd">
<svg version="1.1" id="图层_1" xmlns="http://www.w3.org/2000/svg" xmlns:xlink="http://www.w3.org/1999/xlink" x="0px" y="0px"
	 width="512px" height="512px" viewBox="0 0 512 512" enable-background="new 0 0 512 512" xml:space="preserve">
<g>
	<path d="M24.4,511.8L1.6,478.9c6.8-4.7,67.3-46.4,88.7-55.9c21.8-9.7,64.9-11.1,91.6-11v-31.1c-14.1-5.4-35.3-16.8-58.8-40.3
		c-23.2-23.2-41.1-56.3-50.5-93.3c-10.2-40.2-9.9-82.6,1-122.4C94.4,48.4,180.4,0.9,248.1,0.6C302,0.4,348.5,18.9,382.6,53.9
		c29,29.8,47.2,70.9,49.9,112.6c6.2,94.4-28.1,149.7-58.1,179.4c-20.2,20-41.1,31.4-54.7,37.3l-0.2,63.3l-40-0.1l0.2-92.6l14.7-3.8
		c1.4-0.4,28.1-8.5,53-33.9c34-34.7,49.1-84.1,45-147c-4.1-62-50.8-128.5-143.8-128.5c-0.2,0-0.5,0-0.7,0
		c-53.3,0.2-120.6,38.3-136,94.8c-20.3,74.3,6.1,143.8,39.2,176.9c28.4,28.4,51.7,35.2,53.9,35.7l17.1,4l-0.5,13.9v87.5l-20.8-0.9
		c-29.9-1.3-78.9,0.1-94.5,7C93.1,465.6,49,494.8,24.4,511.8z"/>
</g>
<path d="M512,445.4c0,1.2-1,2.1-2.3,2.1h-149c-1.2,0-2.3-1-2.3-2.1v-31.2c0-1.2,1-2.1,2.3-2.1h149.1c1.2,0,2.3,1,2.3,2.1L512,445.4
	L512,445.4z"/>
<path d="M455.6,348.5c1.3,0,2.4,1.1,2.4,2.4v158.8c0,1.3-1.1,2.4-2.4,2.4h-35.2c-1.3,0-2.4-1.1-2.4-2.4V350.9c0-1.3,1.1-2.4,2.4-2.4
	H455.6z"/>
</svg>
