<?xml version="1.0" encoding="utf-8"?>
<!-- Generator: Adobe Illustrator 16.0.0, SVG Export Plug-In . SVG Version: 6.00 Build 0)  -->
<!DOCTYPE svg PUBLIC "-//W3C//DTD SVG 1.1//EN" "http://www.w3.org/Graphics/SVG/1.1/DTD/svg11.dtd">
<svg version="1.1" id="图层_1" xmlns="http://www.w3.org/2000/svg" xmlns:xlink="http://www.w3.org/1999/xlink" x="0px" y="0px"
	 width="512px" height="512px" viewBox="0 0 512 512" enable-background="new 0 0 512 512" xml:space="preserve">
<g>
	<g>
		<g>
			<path id="SVGID_1_" d="M512.4,237l-0.1,0.9l-22.1,238.3l-0.1,0.9c-0.6,6.9-6.8,12-13.7,11.4l-0.9-0.1l-25.9-2.4l0,0l-22-2
				c0.8-13.9-9.5-26.1-23.5-27.4c-14-1.3-26.4,8.8-28.2,22.6l-3.5-0.3l-63-5.8l0,0l-2.6-0.2c0.8-13.9-9.5-26.1-23.5-27.4
				s-26.4,8.8-28.2,22.6l-3.5-0.3l0,0l-62.9-5.8l0,0l-2.6-0.2c0.8-13.9-9.5-26.1-23.5-27.4c-14-1.3-26.4,8.8-28.2,22.6l-21.1-2l0,0
				l-25.9-2.4l-0.9-0.1c-6.9-0.6-12-6.8-11.3-13.7l0.1-0.9l4.9-52.7l26.6-5.8l-4.5,48.4l13.4,1.2c0.9,0.1,1.7,0.3,2.5,0.5
				c10.4-14.3,27.9-22.9,46.8-21.2c18.8,1.7,34.3,13.3,42,29.1l32.1,3c10.4-14.2,27.8-22.7,46.6-20.9c18.8,1.7,34.3,13.3,42,29.1
				l32.1,3c10.5-14.2,27.8-22.7,46.6-20.9c19,1.8,34.6,13.5,42.2,29.6c1.1-0.2,2.2-0.3,3.4-0.2l13.4,1.2L485.2,248l-6-0.6l-5.4-26.6
				h0.4l0,0l25.9,2.4l0.9,0.1C507.9,224,513,230.1,512.4,237L512.4,237z M440,190l16.1,79.8h0.1v0.2l0.2,0.9
				c1.3,6.8-3.1,13.4-9.9,14.8l-0.8,0.2l-25.5,5l0,0l-21.7,4.3c-3.1-13.6-16.5-22.4-30.3-19.7s-22.9,15.9-20.6,29.7l-3.4,0.7l0,0
				l-62,12.2l0,0l-2.6,0.5c-3.1-13.6-16.5-22.4-30.3-19.7c-13.8,2.7-22.9,15.9-20.6,29.7l-3.4,0.7l0,0l-62,12.2l0,0l-2.6,0.5
				c-3.1-13.6-16.5-22.4-30.3-19.7c-9.4,1.8-16.7,8.6-19.6,17.1l-1.1,11.7L71.6,359l-8.4,1.6l-0.8,0.2c-6.8,1.3-13.4-3.1-14.7-9.9
				l-0.2-0.9l-46-234.8l-0.2-0.9c-1.3-6.8,3.1-13.4,9.9-14.8l0.9-0.2l25.5-5l0,0l20.8-4.1c3.1,13.6,16.5,22.4,30.3,19.7
				c13.8-2.7,22.9-15.9,20.6-29.7l2.6-0.5l62-12.2l0,0l3.4-0.7c3.1,13.6,16.5,22.4,30.3,19.7c13.8-2.7,22.9-15.9,20.6-29.7l2.6-0.5
				l62-12.2l0,0l3.4-0.7c3.1,13.6,16.5,22.4,30.3,19.7c13.8-2.7,22.9-15.9,20.6-29.7l21.7-4.3l0,0l25.5-5l0.8-0.2
				c6.8-1.3,13.4,3.1,14.7,9.9l0.2,0.9l30.3,154.7L440,190L440,190z"/>
		</g>
	</g>
</g>
</svg>
