<?xml version="1.0" encoding="utf-8"?>
<!-- Generator: Adobe Illustrator 16.0.0, SVG Export Plug-In . SVG Version: 6.00 Build 0)  -->
<!DOCTYPE svg PUBLIC "-//W3C//DTD SVG 1.1//EN" "http://www.w3.org/Graphics/SVG/1.1/DTD/svg11.dtd">
<svg version="1.1" id="图层_1" xmlns="http://www.w3.org/2000/svg" xmlns:xlink="http://www.w3.org/1999/xlink" x="0px" y="0px"
	 width="512px" height="512px" viewBox="0 0 512 512" enable-background="new 0 0 512 512" xml:space="preserve">
<g>
	<g>
		<g>
			<path id="SVGID_1_" d="M496.6,419h-1.1h-31.9l0,0h-27.2c-0.6-17.2-14.6-30.9-31.9-30.9s-31.3,13.7-31.9,30.9h-4.3l0,0h-77.7l0,0
				h-3.2c-0.6-17.2-14.6-30.9-31.9-30.9s-31.3,13.7-31.9,30.9h-4.3l0,0h-77.7l0,0h-3.2c-0.6-17.2-14.6-30.9-31.9-30.9
				S75.2,401.8,74.6,419H48.4l0,0H16.5h-1.1C6.9,419,0,412.1,0,403.6v-1.1v-294v-1.1C0,98.9,6.9,92,15.4,92h1.1h31.9l0,0h26.1
				c0.6,17.2,14.6,30.9,31.9,30.9c17.3,0,31.3-13.7,31.9-30.9h3.2l0,0h77.7l0,0h4.3c0.6,17.2,14.6,30.9,31.9,30.9
				c17.3,0,31.3-13.7,31.9-30.9h3.2l0,0h77.7l0,0h4.3c0.6,17.2,14.6,30.9,31.9,30.9c17.3,0,31.3-13.7,31.9-30.9h27.2l0,0h31.9h1.1
				c8.5,0,15.4,6.9,15.4,15.4v1.1v294v1.1C512,412.1,505.1,419,496.6,419L496.6,419z M459.5,123.4c-11.1,18.8-31.6,31.5-55,31.5
				c-23.2,0-43.5-12.4-54.7-30.9h-39.7c-11.2,18.5-31.5,30.9-54.7,30.9s-43.5-12.4-54.7-30.9H161c-11.2,18.5-31.5,30.9-54.7,30.9
				c-23.3,0-43.7-12.5-54.9-31.2c-1,0.2-2.1,0.3-3.2,0.3H31.9v263h16.5c1.1,0,2.1,0.1,3.2,0.3c11.1-18.7,31.5-31.2,54.9-31.2
				c23.2,0,43.5,12.4,54.7,30.9h39.7c11.2-18.5,31.5-30.9,54.7-30.9c23.2,0,43.5,12.4,54.7,30.9H350c11.2-18.5,31.5-30.9,54.7-30.9
				c23.4,0,43.9,12.6,55,31.5c1.3-0.4,2.7-0.6,4.1-0.6h16.5V124h-16.5C462.2,124,460.8,123.7,459.5,123.4L459.5,123.4z"/>
		</g>
	</g>
</g>
</svg>
