<?xml version="1.0" encoding="utf-8"?>
<!-- Generator: Adobe Illustrator 16.0.0, SVG Export Plug-In . SVG Version: 6.00 Build 0)  -->
<!DOCTYPE svg PUBLIC "-//W3C//DTD SVG 1.1//EN" "http://www.w3.org/Graphics/SVG/1.1/DTD/svg11.dtd">
<svg version="1.1" id="图层_1" xmlns="http://www.w3.org/2000/svg" xmlns:xlink="http://www.w3.org/1999/xlink" x="0px" y="0px"
	 width="512px" height="512px" viewBox="0 0 512 512" enable-background="new 0 0 512 512" xml:space="preserve">
<g>
	<g>
		<g>
			<path id="SVGID_1_" d="M497.6,419h-1.1h-31.9l0,0h-27.2c-0.6-17.2-14.6-30.9-31.9-30.9s-31.3,13.7-31.9,30.9h-4.3l0,0h-77.7l0,0
				h-3.2c-0.6-17.2-14.6-30.9-31.9-30.9s-31.3,13.7-31.9,30.9h-4.3l0,0h-77.7l0,0h-3.2c-0.6-17.2-14.6-30.9-31.9-30.9
				S76.2,401.8,75.6,419H49.4l0,0H17.5h-1.1C7.9,419,1,412.1,1,403.6v-1.1v-294v-1.1C1,98.9,7.9,92,16.4,92h1.1h31.9l0,0h26.1
				c0.6,17.2,14.6,30.9,31.9,30.9c17.3,0,31.3-13.7,31.9-30.9h3.2l0,0h77.7l0,0h4.3c0.6,17.2,14.6,30.9,31.9,30.9
				c17.3,0,31.3-13.7,31.9-30.9h3.2l0,0h77.7l0,0h4.3c0.6,17.2,14.6,30.9,31.9,30.9c17.3,0,31.3-13.7,31.9-30.9h27.2l0,0h31.9h1.1
				c8.5,0,15.4,6.9,15.4,15.4v1.1v294v1.1C513,412.1,506.1,419,497.6,419L497.6,419z"/>
		</g>
	</g>
</g>
</svg>
