<?xml version="1.0" encoding="utf-8"?>
<!-- Generator: Adobe Illustrator 16.0.0, SVG Export Plug-In . SVG Version: 6.00 Build 0)  -->
<!DOCTYPE svg PUBLIC "-//W3C//DTD SVG 1.1//EN" "http://www.w3.org/Graphics/SVG/1.1/DTD/svg11.dtd">
<svg version="1.1" id="图层_2" xmlns="http://www.w3.org/2000/svg" xmlns:xlink="http://www.w3.org/1999/xlink" x="0px" y="0px"
	 width="512px" height="512px" viewBox="0 0 512 512" enable-background="new 0 0 512 512" xml:space="preserve">
<path fill-rule="evenodd" clip-rule="evenodd" fill="#231815" d="M474.5,462c0,14.4-11.6,26-26,26c-4.5,0-8.8-1.2-12.5-3.2l-0.4,0.2
	h-0.2l-168-131.6l-1.1,0c-2.5-1.7-5.6-2.7-8.9-2.7c-4.3,0-8.1,1.6-10.9,4.2L78.7,484.9l-0.5-0.3c-3.8,2.1-8.1,3.3-12.7,3.3
	c-14.4,0-26-11.6-26-26c0-0.7,0.1-1.4,0.1-2c-0.1-0.7-0.1-1.3-0.1-2V51c0-14.9,13.4-27,30-27h375c16.6,0,30,12.1,30,27v407
	c0,0.7,0,1.3-0.1,2C474.4,460.7,474.5,461.3,474.5,462z M442.5,388.8V383V73.9c0-11.5-11.4-20.9-25.5-20.9H98
	c-14.1,0-25.5,9.4-25.5,20.9v314.9c0,0.5,0,1,0.1,1.5c0,0.5-0.1,1-0.1,1.6c0,1.7,0.2,3.3,0.7,4.8l-0.6,0.4v28.8
	c0,0,4.4,15,20.9,11.1l4.4-3.1l-5.3,3.1l136.1-111c0,0,26.8-15,53.9,2l135.1,104.5l7.8,5.5c0,0,11.9,3.6,17-8V388.8z"/>
</svg>
