<?xml version="1.0" encoding="utf-8"?>
<!-- Generator: Adobe Illustrator 17.0.0, SVG Export Plug-In . SVG Version: 6.00 Build 0)  -->
<!DOCTYPE svg PUBLIC "-//W3C//DTD SVG 1.1//EN" "http://www.w3.org/Graphics/SVG/1.1/DTD/svg11.dtd">
<svg version="1.1" id="图层_1" xmlns="http://www.w3.org/2000/svg" xmlns:xlink="http://www.w3.org/1999/xlink" x="0px" y="0px"
	 width="512px" height="512px" viewBox="0 0 512 512" enable-background="new 0 0 512 512" xml:space="preserve">
<path d="M254.2,3.5C113.8,3.5,0,117.4,0,257.8S113.8,512,254.2,512s254.2-113.8,254.2-254.2S394.6,3.5,254.2,3.5z M150.4,370.9
	c0,5.2-4.9,9.4-11,9.4h-25.7c-6.1,0-11-4.2-11-9.4V189.4c0-5.2,4.9-9.4,11-9.4h25.7c6.1,0,11,4.2,11,9.4V370.9z M404.3,214.3h-60.4
	c-2.1,0-3.9,8.2-3.9,12.2s1.7,13.2,3.9,13.2h60.4v28.5h-60.4c-2.1,0-3.9,9.1-3.9,12.9s1.7,12.9,3.9,12.9h60.4v28.5h-60.4
	c-2.1,0-3.9,7.1-3.9,10.9c0,3.8,1.7,14.9,3.9,14.9h60.4v15.2c0,9.3-7.8,16.8-17.5,16.8H201.1c-9.7,0-17.5-7.5-17.5-16.8V196.7
	c0-9.3,7.8-16.8,17.5-16.8h6.6c0,0,19.6-27.8,29.3-40c5.6-7,29.9-45.7,38.1-53.5c3.8-3.6,14-4.7,18.8-1.6
	c16.2,10.4,21.1,40,17.5,50.2c-5.4,15.3-25.1,44.8-25.1,44.8h100.4c9.7,0,17.5,7.5,17.5,16.8V214.3z"/>
</svg>
