<?xml version="1.0" encoding="utf-8"?>
<!-- Generator: Adobe Illustrator 19.0.0, SVG Export Plug-In . SVG Version: 6.00 Build 0)  -->
<svg version="1.1" id="图层_1" xmlns="http://www.w3.org/2000/svg" xmlns:xlink="http://www.w3.org/1999/xlink" x="0px" y="0px"
	 width="1451.3px" height="1451.3px" viewBox="0 0 1451.3 1451.3" enable-background="new 0 0 1451.3 1451.3" xml:space="preserve">
<g id="XMLID_4_">
	<path id="XMLID_1_" d="M1092,1088.7H733.4c-99.1,0-180.8-81.3-180.8-181.5l0.4-80.8c0.1-3.3,0.9-6.6,0.9-9.9h448.6
		c99,0,179.4-81.2,179.4-181.5c0-100.1-80.4-181.5-179.4-181.5H553.9V181.5C553.9,81.2,473.6,0,374.6,0
		c-99.1,0-179.5,81.2-179.5,181.5V635v181.5v158.7c0,275.3,221,476.2,493.4,476.2H1092c99,0,179.4-81.3,179.4-181.5
		C1271.4,1169.9,1191,1088.7,1092,1088.7z"/>
</g>
</svg>
