<?xml version="1.0" encoding="utf-8"?>
<!-- Generator: Adobe Illustrator 19.0.0, SVG Export Plug-In . SVG Version: 6.00 Build 0)  -->
<svg version="1.1" id="图层_1" xmlns="http://www.w3.org/2000/svg" xmlns:xlink="http://www.w3.org/1999/xlink" x="0px" y="0px"
	 width="1451.3px" height="1451.3px" viewBox="0 0 1451.3 1451.3" enable-background="new 0 0 1451.3 1451.3" xml:space="preserve">
<g id="XMLID_5_">
	<g id="XMLID_6_">
		<path id="XMLID_7_" d="M1451.3,319.1c-53.7,26.2-110.7,43.1-171.2,51C1341.7,330,1389,266.7,1411.4,191
			c-57.7,37-121.5,63.3-189.5,78.9c-54.2-63.3-131.8-102.8-217.2-102.8C840.3,167.1,707,312.1,707,491.5c0,25.1,2.6,50,7.5,73.5
			c-247-13-466.6-142.5-613.7-338.3c-25.3,47.7-39.9,103.3-39.9,163c0,112.2,52.4,211.9,132.5,269.3c-48.9-1.9-94.8-15.8-134.9-40.3
			c0,1.3,0,3,0,4.5C58.4,779.9,161,910.7,297.2,941c-25,7.3-51.3,10.7-78.7,10.7c-19.1,0-37.3-1.3-55.7-5.8
			c37.7,129.3,147.7,223.2,278,225.1c-101.9,87.3-230.2,138.6-369.8,138.6c-24.1,0-47.9-1.4-71.1-4.5
			c131.7,92.4,287.9,146.3,456.4,146.3c547.6,0,847.2-494.2,847.2-922.5c0-13.6-0.3-27.5-1-41.4C1361,441.1,1411.5,384,1451.3,319.1
			z"/>
	</g>
</g>
</svg>
