<?xml version="1.0" encoding="utf-8"?>
<!-- Generator: Adobe Illustrator 16.0.0, SVG Export Plug-In . SVG Version: 6.00 Build 0)  -->
<!DOCTYPE svg PUBLIC "-//W3C//DTD SVG 1.1//EN" "http://www.w3.org/Graphics/SVG/1.1/DTD/svg11.dtd">
<svg version="1.1" id="图层_2" xmlns="http://www.w3.org/2000/svg" xmlns:xlink="http://www.w3.org/1999/xlink" x="0px" y="0px"
	 width="512px" height="512px" viewBox="0 0 512 512" enable-background="new 0 0 512 512" xml:space="preserve">
<path fill-rule="evenodd" clip-rule="evenodd" fill="#231815" d="M0,453V61C0,27.9,26.9,1,60,1h392c33.1,0,60,26.9,60,60v392
	c0,33.1-26.9,60-60,60H60C26.9,513,0,486.1,0,453z M260.4,445c14.5,0,26.3-11.8,26.3-26.3V170.4l83.6,83.4c8.6,8.5,22.5,8.5,31,0
	l3.1-3.1c8.6-8.5,8.6-22.4,0-31L291.9,107.4c-1.9-2.4-4.2-5.2-7-8.4c-27.1-31-53.9-4.2-53.9-4.2l-32.8,34.4l-90.7,90.5
	c-8.6,8.5-8.6,22.4,0,31l3.1,3.1c8.6,8.5,22.5,8.5,31,0l88-87.8v252.7c0,14.5,11.8,26.3,26.3,26.3H260.4z"/>
</svg>
