<?xml version="1.0" encoding="utf-8"?>
<!-- Generator: Adobe Illustrator 18.0.0, SVG Export Plug-In . SVG Version: 6.00 Build 0)  -->
<!DOCTYPE svg PUBLIC "-//W3C//DTD SVG 1.1//EN" "http://www.w3.org/Graphics/SVG/1.1/DTD/svg11.dtd">
<svg version="1.1" id="图层_1" xmlns="http://www.w3.org/2000/svg" xmlns:xlink="http://www.w3.org/1999/xlink" x="0px" y="0px"
	 width="512px" height="512px" viewBox="0 0 512 512" enable-background="new 0 0 512 512" xml:space="preserve">
<g>
	<path d="M151.5,178c0.1,1.1,0.3,2.3,0.5,3.5V178h22l73.8,123.2l0.2-0.4v0.4l16.1,25.8L361,181h95.6c5.4,1,27.3,0.3,46.2,6.7
		C472.9,79.5,373.7,0,256,0C141.8,0,45.1,74.8,12.1,178H151.5z"/>
	<path d="M452,294c-37.6-24-61.3-15.7-75.7,6.4L352,337.6l-23.3,36.7L258.4,485l-8.2-15.1L108.9,216H3.1c-2,13-3.1,26.4-3.1,40
		c0,141.4,114.6,256,256,256c98.6,0,184.2-55.8,227-137.5C483.7,358.5,482.7,313.6,452,294z"/>
</g>
</svg>
