<?xml version="1.0" encoding="utf-8"?>
<!-- Generator: Adobe Illustrator 17.0.0, SVG Export Plug-In . SVG Version: 6.00 Build 0)  -->
<!DOCTYPE svg PUBLIC "-//W3C//DTD SVG 1.1//EN" "http://www.w3.org/Graphics/SVG/1.1/DTD/svg11.dtd">
<svg version="1.1" id="图层_1" xmlns="http://www.w3.org/2000/svg" xmlns:xlink="http://www.w3.org/1999/xlink" x="0px" y="0px"
	 width="512px" height="512px" viewBox="0 0 512 512" enable-background="new 0 0 512 512" xml:space="preserve">
<g>
	<path d="M511.7,59.9C511.7,59.8,511.7,59.8,511.7,59.9l0-6.5c0-14-11.4-25.4-25.4-25.4H25.8c-14,0-25.4,11.4-25.4,25.4v60.2v2.9
		v294.4v4.9V474c0,14,11.4,25.4,25.4,25.4h460.4c14,0,25.4-11.4,25.4-25.4v-58.2v-4.9V128.8c0,0,0,0,0,0L511.7,59.9L511.7,59.9z
		 M188.6,400.7V466h-74.2v-65.3H188.6z M293.2,400.7V466H219v-65.3H293.2z M323.5,400.7h74.2V466h-74.2V400.7z M30.8,368V162.7
		h450.6V368H30.8z M323.5,127.7V63.4h74.2v64.2H323.5z M293.2,127.7H219V63.4h74.2V127.7z M188.6,127.7h-74.2V63.4h74.2V127.7z
		 M481.4,127.7h-53.3V63.4h53.3L481.4,127.7L481.4,127.7z M84,63.4v64.2H30.8c0,0,0-63.7,0-63.7C30.8,64,84,63.4,84,63.4z
		 M30.8,400.7H84V466H30.8V400.7z M428.1,466v-65.3h53.3V466H428.1z"/>
	<path d="M220.1,192.8c-12.4,0-22.5,10.9-22.5,24.2v86.2c0,13.4,10.1,24.2,22.5,24.2c3.5,0,89-45.1,89-45.1
		c7.7-4.1,18.6-12.3,12.4-21.7C316.5,253,223.6,192.8,220.1,192.8z"/>
</g>
<path fill="#D19FAD" d="M-14.3,87.9L-14.3,87.9"/>
</svg>
