<?xml version="1.0" encoding="utf-8"?>
<!-- Generator: Adobe Illustrator 17.0.0, SVG Export Plug-In . SVG Version: 6.00 Build 0)  -->
<!DOCTYPE svg PUBLIC "-//W3C//DTD SVG 1.1//EN" "http://www.w3.org/Graphics/SVG/1.1/DTD/svg11.dtd">
<svg version="1.1" id="图层_1" xmlns="http://www.w3.org/2000/svg" xmlns:xlink="http://www.w3.org/1999/xlink" x="0px" y="0px"
	 width="512px" height="512px" viewBox="0 0 512 512" enable-background="new 0 0 512 512" xml:space="preserve">
<path d="M508.701,70.447V64.06c0-13.862-11.277-25.139-25.14-25.139H28.435c-13.862,0-25.139,11.277-25.139,25.139v59.554v2.847
	V417.46v4.86v57.54c0,13.862,11.277,25.14,25.139,25.14h455.126c13.862,0,25.14-11.277,25.14-25.14v-57.54v-4.86V138.653
	c0-0.013,0.002-0.026,0.002-0.039V70.486C508.703,70.473,508.701,70.46,508.701,70.447z M219.326,81.921h73.348V130.6h-73.348
	V81.921z M85.976,464.001H33.297v-49.68h52.679V464.001z M85.976,130.6H33.299V83.524c0-0.016-0.002-0.032-0.002-0.048v-1.555
	h52.678V130.6z M189.326,464.001h-73.35v-49.68h73.35V464.001z M189.326,130.6h-73.35V81.921h73.35V130.6z M292.673,464.001h-73.348
	v-49.68h73.348V464.001z M304.062,293.894c0,0-84.596,44.621-88.009,44.621c-12.242,0-22.202-10.738-22.202-23.938v-85.234
	c0-13.199,9.959-23.938,22.201-23.938c3.414,0,95.22,59.499,100.282,67.088C322.49,281.72,311.632,289.815,304.062,293.894z
	 M396.023,464.001h-73.35v-49.68h73.35V464.001z M396.023,130.6h-73.35V81.921h73.35V130.6z M478.701,464h-52.679v-49.68h52.679V464
	z M478.701,130.6h-52.679V81.921h52.679V130.6z"/>
</svg>
