<?xml version="1.0" encoding="utf-8"?>
<!-- Generator: Adobe Illustrator 17.0.0, SVG Export Plug-In . SVG Version: 6.00 Build 0)  -->
<!DOCTYPE svg PUBLIC "-//W3C//DTD SVG 1.1//EN" "http://www.w3.org/Graphics/SVG/1.1/DTD/svg11.dtd">
<svg version="1.1" id="图层_1" xmlns="http://www.w3.org/2000/svg" xmlns:xlink="http://www.w3.org/1999/xlink" x="0px" y="0px"
	 width="512px" height="512px" viewBox="0 0 512 512" enable-background="new 0 0 512 512" xml:space="preserve">
<path d="M506.4,250.7c0-140.4-113.8-254.2-254.2-254.2S-2,110.3-2,250.7S111.8,505,252.2,505S506.4,391.1,506.4,250.7z M148.4,319.1
	c0,5.2-4.9,9.4-11,9.4h-25.7c-6.1,0-11-4.2-11-9.4V137.6c0-5.2,4.9-9.4,11-9.4h25.7c6.1,0,11,4.2,11,9.4V319.1z M402.2,294.2v17.7
	c0,9.3-7.8,16.8-17.5,16.8H284.3c0,0,19.7,29.5,25.1,44.8c3.6,10.2-1.3,39.8-17.5,50.2c-4.8,3.1-15,2-18.8-1.6
	c-8.2-7.8-32.5-46.5-38.1-53.5c-9.7-12.2-29.3-40-29.3-40h-6.6c-9.7,0-17.5-7.5-17.5-16.8V145c0-9.3,7.8-16.8,17.5-16.8h185.7
	c9.7,0,17.5,7.5,17.5,16.8v15.2h-60.4c-2.2,0-3.9,11.1-3.9,14.9s1.8,10.9,3.9,10.9h60.4v28.5h-60.4c-2.2,0-3.9,9.1-3.9,12.9
	s1.8,12.9,3.9,12.9h60.4v28.5h-60.4c-2.2,0-3.9,9.2-3.9,13.2s1.8,12.2,3.9,12.2h60.4H402.2z"/>
</svg>
