<?xml version="1.0" encoding="utf-8"?>
<!-- Generator: Adobe Illustrator 16.0.0, SVG Export Plug-In . SVG Version: 6.00 Build 0)  -->
<!DOCTYPE svg PUBLIC "-//W3C//DTD SVG 1.1//EN" "http://www.w3.org/Graphics/SVG/1.1/DTD/svg11.dtd">
<svg version="1.1" id="图层_2" xmlns="http://www.w3.org/2000/svg" xmlns:xlink="http://www.w3.org/1999/xlink" x="0px" y="0px"
	 width="512px" height="512px" viewBox="0 0 512 512" enable-background="new 0 0 512 512" xml:space="preserve">
<path fill-rule="evenodd" clip-rule="evenodd" fill="#231815" d="M250.8,81.5C158,82.7,74.1,119.8,12,179.3l35.3,36.9
	c53.1-50.9,124.8-82.6,204.2-83.6c83.5-1.1,159.4,32,214.6,86.3l36-36.3C437.5,119,348.5,80.3,250.8,81.5z M252.1,182.7
	C186,183.6,126.1,210,81.9,252.4l34.7,36.2c35.4-34,83.2-55.1,136.1-55.8c55.5-0.7,106,21.2,142.8,57.2l35.3-35.6
	C384.8,209.3,321.6,181.8,252.1,182.7z M253.4,282.6c-39.8,0.5-75.8,16.4-102.4,42l34.7,36.3c17.8-17.1,41.8-27.7,68.3-28.1
	c27.6-0.4,52.7,10.5,71.1,28.2l35.4-35.7C332.9,298.4,295,282,253.4,282.6z M253.8,386.7c-12.1,0.2-23,5.1-31.1,12.9l31.5,33
	l32.3-32.6C278.1,391.6,266.5,386.5,253.8,386.7z"/>
</svg>
