<?xml version="1.0" encoding="utf-8"?>
<!-- Generator: Adobe Illustrator 19.0.0, SVG Export Plug-In . SVG Version: 6.00 Build 0)  -->
<svg version="1.1" id="图层_1" xmlns="http://www.w3.org/2000/svg" xmlns:xlink="http://www.w3.org/1999/xlink" x="0px" y="0px"
	 width="1451.3px" height="1451.3px" viewBox="0 0 1451.3 1451.3" enable-background="new 0 0 1451.3 1451.3" xml:space="preserve">
<g id="XMLID_2_">
	<g id="XMLID_3_">
		<g id="XMLID_4_">
			<g id="XMLID_11_">
				<path id="XMLID_12_" d="M919.5,215.3c0,0,96.8,83.7,204.4,94.3c225.8,22.6,327.4-59.6,327.4-59.6l-123.2,499.7
					c0,0-145.2,95.5-361.1,46.9c-119-26.9-170-82.3-170-82.3L919.5,215.3z"/>
			</g>
			<g id="XMLID_9_">
				<path id="XMLID_10_" d="M778.4,854.4c0,0,96.8,83.5,204.4,94.3c225.8,22.5,327.5-59.8,327.5-59.8l-123.4,499.6
					c0,0-145.2,95.6-361.1,47.1c-118.9-26.8-169.9-82.5-169.9-82.5L778.4,854.4z"/>
			</g>
			<g id="XMLID_7_">
				<path id="XMLID_8_" d="M531.8,1339.3c0,0-96.9-83.5-204.4-94.2C101.7,1222.6,0,1304.9,0,1304.9l123.3-499.7
					c0,0,145.2-95.8,361.1-47.2c118.9,26.8,170,82.3,170,82.3L531.8,1339.3z"/>
			</g>
			<g id="XMLID_5_">
				<path id="XMLID_6_" d="M680.5,697.2c0,0-96.9-83.5-204.5-94.2c-225.8-22.5-327.4,59.6-327.4,59.6l123.3-499.5
					c0,0,145.2-95.8,361.1-47c119,26.9,170,82.5,170,82.5L680.5,697.2z"/>
			</g>
		</g>
	</g>
</g>
</svg>
