<?xml version="1.0" encoding="utf-8"?>
<!-- Generator: Adobe Illustrator 17.0.0, SVG Export Plug-In . SVG Version: 6.00 Build 0)  -->
<!DOCTYPE svg PUBLIC "-//W3C//DTD SVG 1.1//EN" "http://www.w3.org/Graphics/SVG/1.1/DTD/svg11.dtd">
<svg version="1.1" id="图层_1" xmlns="http://www.w3.org/2000/svg" xmlns:xlink="http://www.w3.org/1999/xlink" x="0px" y="0px"
	 width="512px" height="512px" viewBox="0 0 512 512" enable-background="new 0 0 512 512" xml:space="preserve">
<path d="M290,467.8c-11.1,1.8-22.4,2.7-34,2.7c-118.3,0-214.5-96.2-214.5-214.5S137.7,41.5,256,41.5S470.5,137.7,470.5,256
	c0,14.4-1.4,28.4-4.1,42h40.7c2.3-13.8,3.4-27.8,3.4-42c0-68-26.5-131.9-74.5-180C387.9,28,324,1.5,256,1.5S124.1,28,76,76
	C28,124.1,1.5,188,1.5,256S28,387.9,76,436c48.1,48.1,112,74.5,180,74.5c11.5,0,22.8-0.8,34-2.3V467.8z"/>
<path d="M261.3,400c59.5,0,107.8-46.1,107.8-103H153.5C153.5,353.9,201.7,400,261.3,400z"/>
<path d="M455.7,387.7c-16.1,10.5-20,35.9-20,35.9s-3.9-25.4-20-35.9c-26.5-17.3-75.5,3.8-48.3,58.3c20.2,40.4,57.9,64.5,68.3,64.5
	s48.1-24.1,68.3-64.5C531.3,391.4,482.2,370.3,455.7,387.7z"/>
<path d="M222.6,182.4c-17.8-15.2-35.5-30.3-53.3-45.5c-8.3-7.1-20.1-8.2-28.3,0c-7.3,7.3-8.3,21.2,0,28.3
	c12.2,10.4,24.5,20.9,36.7,31.3c-12.2,10.4-24.5,20.9-36.7,31.3c-8.3,7.1-7.2,21,0,28.3c8.2,8.2,20,7.1,28.3,0
	c17.8-15.1,35.5-30.3,53.3-45.4C230.5,204,230.5,189.1,222.6,182.4z"/>
<path d="M382.9,228.9c-12.4-10.6-24.9-21.2-37.3-31.8c12.4-10.6,24.9-21.2,37.3-31.8c8.3-7.1,7.3-21,0-28.3c-8.2-8.2-20-7.1-28.3,0
	c-18,15.3-35.9,30.7-53.9,46c-7.8,6.7-7.8,21.6,0,28.3c18,15.3,35.9,30.6,53.9,45.9c8.3,7.1,20.1,8.2,28.3,0
	C390.2,249.9,391.2,235.9,382.9,228.9z"/>
</svg>
