<?xml version="1.0" encoding="utf-8"?>
<!-- Generator: Adobe Illustrator 17.0.0, SVG Export Plug-In . SVG Version: 6.00 Build 0)  -->
<!DOCTYPE svg PUBLIC "-//W3C//DTD SVG 1.1//EN" "http://www.w3.org/Graphics/SVG/1.1/DTD/svg11.dtd">
<svg version="1.1" id="图层_1" xmlns="http://www.w3.org/2000/svg" xmlns:xlink="http://www.w3.org/1999/xlink" x="0px" y="0px"
	 width="512px" height="512px" viewBox="0 0 512 512" enable-background="new 0 0 512 512" xml:space="preserve">
<g>
	<path d="M256.8,516c-68.5,0-132.9-26.7-181.4-75.1C27,392.4,0.3,328,0.3,259.5S27,126.6,75.4,78.1C123.9,29.7,188.3,3,256.8,3
		s132.9,26.7,181.4,75.1c48.4,48.4,75.1,112.9,75.1,181.4s-26.7,132.9-75.1,181.4S325.3,516,256.8,516z M256.8,43
		C137.4,43,40.3,140.1,40.3,259.5S137.4,476,256.8,476s216.5-97.1,216.5-216.5S376.2,43,256.8,43z"/>
</g>
<path d="M302.8,186.6c-27.6,17.6-43.2,40.1-43.2,40.1S244,204,216.4,186.4c-45.4-29-124.7,6-73.7,96.2
	c34.5,67.6,116.9,107.9,116.9,107.9S337,352.3,377,289.7C432.3,191.7,348.2,157.6,302.8,186.6z"/>
</svg>
