<?xml version="1.0" encoding="utf-8"?>
<!-- Generator: Adobe Illustrator 17.0.0, SVG Export Plug-In . SVG Version: 6.00 Build 0)  -->
<!DOCTYPE svg PUBLIC "-//W3C//DTD SVG 1.1//EN" "http://www.w3.org/Graphics/SVG/1.1/DTD/svg11.dtd">
<svg version="1.1" id="图层_1" xmlns="http://www.w3.org/2000/svg" xmlns:xlink="http://www.w3.org/1999/xlink" x="0px" y="0px"
	 width="512px" height="512px" viewBox="0 0 512 512" enable-background="new 0 0 512 512" xml:space="preserve">
<path d="M480,96h-32V32c0-17.7-14.3-32-32-32H32C14.3,0,0,14.3,0,32v128c0,17.7,14.3,32,32,32h384c17.7,0,32-14.3,32-32v-32h32v96
	H256c-17.7,0-32,14.3-32,32v64c-17.7,0-32,14.3-32,32v128c0,17.7,14.3,32,32,32h32c17.7,0,32-14.3,32-32V352c0-17.7-14.3-32-32-32
	v-64h224c17.7,0,32-14.3,32-32v-96C512,110.3,497.7,96,480,96z M395.9,67H58.6c-4.2,0-7.6-7.8-7.6-17.5s3.4-17.5,7.6-17.5h337.3
	c4.2,0,7.6,7.8,7.6,17.5S400.2,67,395.9,67z"/>
</svg>
