<?xml version="1.0" encoding="utf-8"?>
<!-- Generator: Adobe Illustrator 17.0.0, SVG Export Plug-In . SVG Version: 6.00 Build 0)  -->
<!DOCTYPE svg PUBLIC "-//W3C//DTD SVG 1.1//EN" "http://www.w3.org/Graphics/SVG/1.1/DTD/svg11.dtd">
<svg version="1.1" id="图层_1" xmlns="http://www.w3.org/2000/svg" xmlns:xlink="http://www.w3.org/1999/xlink" x="0px" y="0px"
	 width="512px" height="512px" viewBox="0 0 512 512" enable-background="new 0 0 512 512" xml:space="preserve">
<path d="M480,96h-32V32c0-17.7-14.3-32-32-32H32C14.3,0,0,14.3,0,32v128c0,17.7,14.3,32,32,32h384c17.7,0,32-14.3,32-32v-32h32v96
	H256c-17.7,0-32,14.3-32,32v64c-17.7,0-32,14.3-32,32v128c0,17.7,14.3,32,32,32h32c17.7,0,32-14.3,32-32V352c0-17.7-14.3-32-32-32
	v-64h224c17.7,0,32-14.3,32-32v-96C512,110.3,497.7,96,480,96z M416,134.5c0,14.1-11.8,25.5-26.4,25.5H58.4
	C43.8,160,32,148.6,32,134.5V53.5C32,39.4,43.8,28,58.4,28h0.2h331h6.3c1.2,0,2.2,0.6,3.2,1.7C409,33.4,416,42.6,416,53.5V134.5z
	 M263.9,369.6v96.9c0,10.3-7,18.6-15.6,18.6h-15.6c-8.6,0-15.6-8.3-15.6-18.6v-96.9c0-10.3,7-18.6,15.6-18.6h15.6
	C256.9,351,263.9,359.3,263.9,369.6z"/>
<path d="M384,70.3c0,5.1-3.6,9.3-8.1,9.3H72.1c-4.5,0-8.1-4.1-8.1-9.3l0,0c0-5.1,3.6-9.3,8.1-9.3h303.8C380.4,61,384,65.1,384,70.3
	L384,70.3z"/>
</svg>
