<?xml version="1.0" encoding="utf-8"?>
<!-- Generator: Adobe Illustrator 16.0.0, SVG Export Plug-In . SVG Version: 6.00 Build 0)  -->
<!DOCTYPE svg PUBLIC "-//W3C//DTD SVG 1.1//EN" "http://www.w3.org/Graphics/SVG/1.1/DTD/svg11.dtd">
<svg version="1.1" id="图层_1" xmlns="http://www.w3.org/2000/svg" xmlns:xlink="http://www.w3.org/1999/xlink" x="0px" y="0px"
	 width="512px" height="512px" viewBox="0 0 512 512" enable-background="new 0 0 512 512" xml:space="preserve">
<path d="M387.8-0.2v66.1v139.6V234c0,61.9-59,112-131.8,112s-131.8-50.2-131.8-112v-28.5V65.9V-0.2H62.2v118.8v78.5v41.2
	C62.2,329.3,149,403,256,403c107,0,193.8-73.7,193.8-164.7v-41.2v-78.5V-0.2H387.8z"/>
<path d="M512,498.2c0,9.3-9,16.8-20,16.8H20c-11,0-20-7.5-20-16.8v-24.4c0-9.3,9-16.8,20-16.8h472c11,0,20,7.5,20,16.8V498.2z"/>
</svg>
