<?xml version="1.0" encoding="utf-8"?>
<!-- Generator: Adobe Illustrator 18.0.0, SVG Export Plug-In . SVG Version: 6.00 Build 0)  -->
<!DOCTYPE svg PUBLIC "-//W3C//DTD SVG 1.1//EN" "http://www.w3.org/Graphics/SVG/1.1/DTD/svg11.dtd">
<svg version="1.1" id="图层_1" xmlns="http://www.w3.org/2000/svg" xmlns:xlink="http://www.w3.org/1999/xlink" x="0px" y="0px"
	 width="512px" height="512px" viewBox="0 0 512 512" enable-background="new 0 0 512 512" xml:space="preserve">
<path d="M256,0C114.6,0,0,114.6,0,256s114.6,256,256,256s256-114.6,256-256S397.4,0,256,0z M145.7,227c-19.3,0-35-15.7-35-35
	s15.7-35,35-35c19.3,0,35,15.7,35,35S165,227,145.7,227z M326.4,389.4c-16.2-21.1-41.7-34.7-70.4-34.7c-28.7,0-54.1,13.6-70.4,34.7
	h-14.8c10.8-36.8,44.8-63.7,85.1-63.7c40.3,0,74.3,26.9,85.1,63.7H326.4z M377.7,227c-19.3,0-35-15.7-35-35s15.7-35,35-35
	c19.3,0,35,15.7,35,35S397,227,377.7,227z"/>
</svg>
