<?xml version="1.0" encoding="utf-8"?>
<!-- Generator: Adobe Illustrator 18.0.0, SVG Export Plug-In . SVG Version: 6.00 Build 0)  -->
<!DOCTYPE svg PUBLIC "-//W3C//DTD SVG 1.1//EN" "http://www.w3.org/Graphics/SVG/1.1/DTD/svg11.dtd">
<svg version="1.1" id="图层_1" xmlns="http://www.w3.org/2000/svg" xmlns:xlink="http://www.w3.org/1999/xlink" x="0px" y="0px"
	 width="512px" height="512px" viewBox="0 0 512 512" enable-background="new 0 0 512 512" xml:space="preserve">
<g>
	<path d="M256,0C114.6,0,0,114.6,0,256s114.6,256,256,256s256-114.6,256-256S397.4,0,256,0z M256,460.5
		c-112.9,0-204.5-91.6-204.5-204.5S143.1,51.5,256,51.5S460.5,143.1,460.5,256S368.9,460.5,256,460.5z"/>
	<path d="M353.1,160c-19.3,0-35,12.7-35,32s15.7,35,35,35s35-15.7,35-35S372.4,160,353.1,160z"/>
	<path d="M163.7,160c-19.3,0-35,12.7-35,32s15.7,35,35,35s35-15.7,35-35S183.1,160,163.7,160z"/>
</g>
<path d="M326.4,389.4c-16.2-21.1-41.7-34.7-70.4-34.7c-28.7,0-54.1,13.6-70.4,34.7h-14.8c10.8-36.8,44.8-63.7,85.1-63.7
	c40.3,0,74.3,26.9,85.1,63.7H326.4z"/>
</svg>
