<?xml version="1.0" encoding="utf-8"?>
<!-- Generator: Adobe Illustrator 18.0.0, SVG Export Plug-In . SVG Version: 6.00 Build 0)  -->
<!DOCTYPE svg PUBLIC "-//W3C//DTD SVG 1.1//EN" "http://www.w3.org/Graphics/SVG/1.1/DTD/svg11.dtd">
<svg version="1.1" id="图层_1" xmlns="http://www.w3.org/2000/svg" xmlns:xlink="http://www.w3.org/1999/xlink" x="0px" y="0px"
	 width="512px" height="512px" viewBox="0 0 512 512" enable-background="new 0 0 512 512" xml:space="preserve">
<g>
	<path d="M256,0C114.6,0,0,114.6,0,256s114.6,256,256,256s256-114.6,256-256S397.4,0,256,0z M256,460.5
		c-112.9,0-204.5-91.6-204.5-204.5S143.1,51.5,256,51.5S460.5,143.1,460.5,256S368.9,460.5,256,460.5z"/>
	<path d="M353.1,160c-19.3,0-35,12.7-35,32s15.7,35,35,35s35-15.7,35-35S372.4,160,353.1,160z"/>
	<path d="M163.7,160c-19.3,0-35,12.7-35,32s15.7,35,35,35s35-15.7,35-35S183.1,160,163.7,160z"/>
	<g>
		<path d="M342.8,345.5c0-0.1,0-0.2,0.1-0.3c-29-13.2-58-20.1-89.9-21.2c0,0,0,0,0,0c-0.2,0-0.3,0-0.5,0c-0.2,0-0.3,0-0.5,0
			c0,0,0,0,0,0c-31.9,1.1-60.8,8-89.9,21.2c0,0.1,0,0.2,0.1,0.3c-8.3,5.2-12.7,14.6-12.7,24.3c0,12.8,8.6,26.8,22.4,26.9
			c0.8,0,1.7-0.1,2.5-0.2c0,0,0,0,0,0c0,0,0,0,0.1,0c3-0.4,5.8-1.5,8.4-3.2c23-7.6,46.2-12.4,69.6-12.4c23.5,0,46.6,4.8,69.6,12.4
			c2.5,1.7,5.4,2.8,8.4,3.2c0,0,0,0,0.1,0c0,0,0,0,0,0c0.8,0.1,1.6,0.2,2.5,0.2c13.8-0.1,22.4-14.1,22.4-26.9
			C355.5,360.1,351.1,350.7,342.8,345.5z"/>
	</g>
</g>
</svg>
