<?xml version="1.0" encoding="utf-8"?>
<!-- Generator: Adobe Illustrator 16.0.0, SVG Export Plug-In . SVG Version: 6.00 Build 0)  -->
<!DOCTYPE svg PUBLIC "-//W3C//DTD SVG 1.1//EN" "http://www.w3.org/Graphics/SVG/1.1/DTD/svg11.dtd">
<svg version="1.1" id="图层_1" xmlns="http://www.w3.org/2000/svg" xmlns:xlink="http://www.w3.org/1999/xlink" x="0px" y="0px"
	 width="512px" height="512px" viewBox="0 0 512 512" enable-background="new 0 0 512 512" xml:space="preserve">
<path d="M465,99.6c0-3.3,2.7-6,6-6h29c3.3,0,6,2.7,6,6v327c0,3.3-2.7,6-6,6h-29c-3.3,0-6-2.7-6-6V99.6z"/>
<path d="M6,99.6c0-3.3,2.7-6,6-6h29c3.3,0,6,2.7,6,6v327c0,3.3-2.7,6-6,6H12c-3.3,0-6-2.7-6-6V99.6z"/>
<path d="M0,16C0,7.2,7.2,0,16,0h18c8.8,0,16,7.2,16,16v480c0,8.8-7.2,16-16,16H16c-8.8,0-16-7.2-16-16V16z"/>
<path d="M462,16c0-8.8,7.2-16,16-16h18c8.8,0,16,7.2,16,16v480c0,8.8-7.2,16-16,16h-18c-8.8,0-16-7.2-16-16V16z"/>
<path d="M416,346c0,8.8-7.2,16-16,16H112c-8.8,0-16-7.2-16-16v-18c0-8.8,7.2-16,16-16h288c8.8,0,16,7.2,16,16V346z"/>
<path d="M416,496c0,8.8-7.2,16-16,16H112c-8.8,0-16-7.2-16-16v-18c0-8.8,7.2-16,16-16h288c8.8,0,16,7.2,16,16V496z"/>
<path d="M220.2,74.4h-17.7h-17.7h-16V0l-80,103.9l80,95v-74.4h16h17.7h17.7c8.8,0,16-7.2,16-16v-18
	C236.2,81.6,229.1,74.4,220.2,74.4z"/>
<path d="M423.1,103.8l-80-103.1v73.7h-16h-13.9h-21.5c-8.8,0-16,7.2-16,16v18c0,8.8,7.2,16,16,16h21.5h13.9h16v73.7L423.1,103.8z"/>
</svg>
