<?xml version="1.0" encoding="utf-8"?>
<!-- Generator: Adobe Illustrator 17.0.0, SVG Export Plug-In . SVG Version: 6.00 Build 0)  -->
<!DOCTYPE svg PUBLIC "-//W3C//DTD SVG 1.1//EN" "http://www.w3.org/Graphics/SVG/1.1/DTD/svg11.dtd">
<svg version="1.1" id="图层_1" xmlns="http://www.w3.org/2000/svg" xmlns:xlink="http://www.w3.org/1999/xlink" x="0px" y="0px"
	 width="512px" height="512px" viewBox="0 0 512 512" enable-background="new 0 0 512 512" xml:space="preserve">
<path d="M32,361.993h32v-192H32c-17.7,0-32,14.3-32,32v128C0,347.693,14.3,361.993,32,361.993z"/>
<path d="M480,169.993h-32v192h32c17.7,0,32-14.3,32-32v-128C512,184.293,497.7,169.993,480,169.993z"/>
<path d="M384,105.993h-32v128H160v-128h-32c-17.7,0-32,14.3-32,32v256c0,17.7,14.3,32,32,32h32v-128h192v128h32
	c17.7,0,32-14.3,32-32v-256C416,120.293,401.7,105.993,384,105.993z"/>
</svg>
