<?xml version="1.0" encoding="utf-8"?>
<!-- Generator: Adobe Illustrator 18.0.0, SVG Export Plug-In . SVG Version: 6.00 Build 0)  -->
<!DOCTYPE svg PUBLIC "-//W3C//DTD SVG 1.1//EN" "http://www.w3.org/Graphics/SVG/1.1/DTD/svg11.dtd">
<svg version="1.1" id="图层_1" xmlns="http://www.w3.org/2000/svg" xmlns:xlink="http://www.w3.org/1999/xlink" x="0px" y="0px"
	 width="512px" height="512px" viewBox="0 0 512 512" enable-background="new 0 0 512 512" xml:space="preserve">
<path d="M397.9,153.9c-11.3-55.1-61.1-99.6-116.2-99.6c-46.4,0-86.1,36.3-104.4,78.3c-7.6-1.9-15.5-2.3-23.7-3.2
	C95.7,123,41.7,176,41.7,236.2c0,3.1,0.6,6,0.9,9c-30.7,15.1-42.6,50.2-42.6,88.6c0,52.7,40.1,95.4,89.6,95.4H384
	c70.7,0,128-61,128-136.2C512.1,221.3,471,161.7,397.9,153.9z M385,392.3L91,393c-35.3,0-58.7-19.1-58.7-56.7
	c0-26.3,7.8-53,30.4-64.2l16.2-8c0,0-1.4-31.4-1.4-31.9c5.6-46.7,29.1-71.1,71.5-71.1c5.4,0,15.6,1.6,22.2,3.2l26.3,4.7l11.1-24.9
	c14.7-33.7,38.3-50.4,72.9-50.4c41.8,0,72.8,22.9,81.7,66.3l3.5,23.5l32.8,4.1c54.3,18.8,80,40.3,80,98.5
	C479.7,349.7,438.3,392.3,385,392.3z"/>
</svg>
