<?xml version="1.0" encoding="utf-8"?>
<!-- Generator: Adobe Illustrator 18.0.0, SVG Export Plug-In . SVG Version: 6.00 Build 0)  -->
<!DOCTYPE svg PUBLIC "-//W3C//DTD SVG 1.1//EN" "http://www.w3.org/Graphics/SVG/1.1/DTD/svg11.dtd">
<svg version="1.1" id="图层_1" xmlns="http://www.w3.org/2000/svg" xmlns:xlink="http://www.w3.org/1999/xlink" x="0px" y="0px"
	 width="512px" height="512px" viewBox="0 0 512 512" enable-background="new 0 0 512 512" xml:space="preserve">
<path d="M402.8,123.2C391.5,68.1,336.3,18.7,281.2,18.7c-46.4,0-88.9,40.1-107.2,82.1c-7.6-1.9-17.5-1.4-25.7-1.4
	c-31.1,0-60.5,16.7-79.3,40C39.7,175.9,44.5,215,44.7,218C14,233.1-0.5,270.3-0.5,308.7c0,52.7,40.1,108.3,89.6,108.3H134v-40H89.1
	c-41.5-5-54.6-41.7-55.1-54.8c-2.9-71.9,52.7-82.7,52.7-82.7s-8.3-12.1-8.4-34.3c6.5-46.3,20.1-62.4,63.7-70.9
	c5.3-1,22.2-2.2,28.8-0.5l20.4,5.1l8.8-20.2c14.7-33.7,46.5-55.5,81.1-55.5c41.8,0,78.6,31.5,87.5,75l4,19.8l19,1.6
	c52.9,4.4,85.1,54,85.1,110.1c0,52.4-27.7,95-72.7,105.1v40.1c61-12.7,107.5-79.3,107.5-147.1C511.5,196.2,468.7,128.8,402.8,123.2z
	"/>
<path d="M218.6,352.1c3,3.6,8.3,3.7,11.9,0.7l28.5-21.4v151.4c0,4.3,6,9.8,15,10.6c9-0.8,15-6.3,15-10.6V331.4l28.3,21.4
	c3.6,3,8.8,2.9,11.8-0.7c3-3.6,12.5-7.8-1.1-21.4l-50.7-42.1c-1-0.8-1.6-1.4-3.6-1.7c-2,0.3-2.4,0.9-3.4,1.7l-50.5,42.1
	C206.2,344.3,215.7,348.6,218.6,352.1z"/>
</svg>
