<?xml version="1.0" encoding="utf-8"?>
<!-- Generator: Adobe Illustrator 18.0.0, SVG Export Plug-In . SVG Version: 6.00 Build 0)  -->
<!DOCTYPE svg PUBLIC "-//W3C//DTD SVG 1.1//EN" "http://www.w3.org/Graphics/SVG/1.1/DTD/svg11.dtd">
<svg version="1.1" id="图层_1" xmlns="http://www.w3.org/2000/svg" xmlns:xlink="http://www.w3.org/1999/xlink" x="0px" y="0px"
	 width="512px" height="512px" viewBox="0 0 512 512" enable-background="new 0 0 512 512" xml:space="preserve">
<path d="M402.8,123.2C391.5,68.1,336.3,18.7,281.2,18.7c-46.4,0-88.9,40.1-107.2,82.1c-7.6-1.9-17.5-1.4-25.7-1.4
	c-31.1,0-60.5,16.7-79.3,40C39.7,175.9,44.5,215,44.7,218C14,233.1-0.5,270.3-0.5,308.7c0,52.7,40.1,108.3,89.6,108.3H134v-40H89.1
	c-41.5-5-54.6-41.7-55.1-54.8c-2.9-71.9,52.7-82.7,52.7-82.7s-8.3-12.1-8.4-34.3c6.5-46.3,20.1-62.4,63.7-70.9
	c5.3-1,22.2-2.2,28.8-0.5l20.4,5.1l8.8-20.2c14.7-33.7,46.5-55.5,81.1-55.5c41.8,0,78.6,31.5,87.5,75l4,19.8l19,1.6
	c52.9,4.4,85.1,54,85.1,110.1c0,52.4-27.7,95-72.7,105.1v40.1c61-12.7,107.5-79.3,107.5-147.1C511.5,196.2,468.7,128.8,402.8,123.2z
	"/>
<path d="M367.9,229.3l-59.7-6c-0.2,0-0.4,0-0.6,0c-0.1,0-0.3,0-0.4,0c-0.2,0-0.4,0-0.6,0c-0.1,0-0.3,0-0.4,0c-0.2,0-0.4,0.1-0.6,0.1
	c-0.1,0-0.2,0-0.4,0.1h0c0,0,0,0,0,0c-0.1,0-0.3,0.1-0.4,0.1c-1.7,0.4-3.3,1.3-4.5,2.5c-0.1,0.1-0.1,0.1-0.2,0.2
	c-0.1,0.1,0,0.2-0.1,0.2c-1.5,1.5-2.2,3.6-2.6,5.8c0,0,0,0,0,0c0,0-0.1,0-0.1,0c0,0.2-0.1,0.4-0.1,0.6c0,0.1,0,0.2,0,0.3
	c0,0.2,0,0.4,0,0.6c0,0.1,0,0.2,0,0.4c0,0.2,0.1,0.4,0.1,0.6c0,0.1,0,0.2,0.1,0.4l11.6,58.9c1.1,5.4,6.3,8.9,11.7,7.9l0,0
	c5.4-1.1,8.9-6.3,7.9-11.7l-5.2-26.5c10.6,10.5,18.3,24.4,21,40.2c7.2,40.8-20.1,79.7-60.9,86.8s-79.7-20.1-86.8-60.9
	c-3.3-18.8,0.7-37.2,10-52.2c1.3-1.3,2.4-2.9,3.1-4.8c2.6-6.9-0.7-14.3-7.3-16.8c-4.7-1.8-9.8-0.5-13.4,3l-0.1-0.1
	c0,0,0,0.1-0.1,0.2c-1.1,1.1-2,2.4-2.7,4c-13,20.3-18.7,45.4-14.2,71c9.5,54.4,61.4,90.7,115.8,81.2c54.4-9.5,90.8-61.4,81.2-115.8
	c-3.6-20.8-13.5-38.9-27.2-52.9l24.1,2.4c5.5,0.5,10.4-3.5,10.9-9l0,0C377.4,234.8,373.3,229.8,367.9,229.3z"/>
</svg>
