<?xml version="1.0" encoding="utf-8"?>
<!-- Generator: Adobe Illustrator 18.0.0, SVG Export Plug-In . SVG Version: 6.00 Build 0)  -->
<!DOCTYPE svg PUBLIC "-//W3C//DTD SVG 1.1//EN" "http://www.w3.org/Graphics/SVG/1.1/DTD/svg11.dtd">
<svg version="1.1" id="图层_1" xmlns="http://www.w3.org/2000/svg" xmlns:xlink="http://www.w3.org/1999/xlink" x="0px" y="0px"
	 width="512px" height="512px" viewBox="0 0 512 512" enable-background="new 0 0 512 512" xml:space="preserve">
<g>
	<path d="M402.8,123.2C391.5,68.1,336.3,18.7,281.2,18.7c-46.4,0-88.9,40.1-107.2,82.1c-7.6-1.9-17.5-1.4-25.7-1.4
		c-31.1,0-60.5,16.7-79.3,40C39.7,175.9,44.5,215,44.7,218C14,233.1-0.5,270.3-0.5,308.7c0,52.7,40.1,108.3,89.6,108.3H134v-40H89.1
		c-41.5-5-54.6-41.7-55.1-54.8c-2.9-71.9,52.7-82.7,52.7-82.7s-8.3-12.1-8.4-34.3c6.5-46.3,20.1-62.4,63.7-70.9
		c5.3-1,22.2-2.2,28.8-0.5l20.4,5.1l8.8-20.2c14.7-33.7,46.5-55.5,81.1-55.5c41.8,0,78.6,31.5,87.5,75l4,19.8l19,1.6
		c52.9,4.4,85.1,54,85.1,110.1c0,52.4-27.7,95-72.7,105.1v40.1c61-12.7,107.5-79.3,107.5-147.1C511.5,196.2,468.7,128.8,402.8,123.2
		z"/>
	<path d="M358.2,294H286v-71.7c0-8.6-6.9-15.7-15.5-15.7s-15.5,7.1-15.5,15.7V294h-71.8c-8.6,0-15.7,7.4-15.7,16s7.1,16,15.7,16H255
		v71.4c0,8.6,6.9,15.7,15.5,15.7S286,406,286,397.4V326h72.2c8.6,0,15.8-7.3,15.8-15.9v-0.2C374,301.2,366.9,294,358.2,294z"/>
</g>
</svg>
