<?xml version="1.0" encoding="utf-8"?>
<!-- Generator: Adobe Illustrator 19.0.0, SVG Export Plug-In . SVG Version: 6.00 Build 0)  -->
<svg version="1.1" id="图层_1" xmlns="http://www.w3.org/2000/svg" xmlns:xlink="http://www.w3.org/1999/xlink" x="0px" y="0px"
	 width="1451.3px" height="1451.3px" viewBox="0 0 1451.3 1451.3" enable-background="new 0 0 1451.3 1451.3" xml:space="preserve">
<g>
	<path id="XMLID_3_" d="M589.4,306.2V0C248.7,61.8,2,359.7,2,719.6c0,136,35,262.6,98.3,371.6C425.8,917.5,589.4,656,589.4,306.2z"
		/>
	<path id="XMLID_1_" d="M1355.1,1091.2c63.2-109,98.3-235.6,98.3-371.6c0-359.9-246.7-657.8-587.5-719.5v306.2
		C865.8,656,1029.5,917.5,1355.1,1091.2z"/>
	<path id="XMLID_2_" d="M732.7,702.3c-94.5,232.1-266.2,418.9-494,554.8C367,1377.4,538.3,1451.4,727,1451.4
		c183.5,0,350.2-70.2,477.4-184.5C986.3,1137.7,837.3,947.5,732.7,702.3z"/>
</g>
</svg>
