<?xml version="1.0" encoding="utf-8"?>
<!-- Generator: Adobe Illustrator 16.0.0, SVG Export Plug-In . SVG Version: 6.00 Build 0)  -->
<!DOCTYPE svg PUBLIC "-//W3C//DTD SVG 1.1//EN" "http://www.w3.org/Graphics/SVG/1.1/DTD/svg11.dtd">
<svg version="1.1" id="图层_1" xmlns="http://www.w3.org/2000/svg" xmlns:xlink="http://www.w3.org/1999/xlink" x="0px" y="0px"
	 width="512px" height="512px" viewBox="0 0 512 512" enable-background="new 0 0 512 512" xml:space="preserve">
<path d="M364.7,14.7c0-7.7-5.8-14-12.9-14h-1.1h-28.4h-85h-85H124h-1c-7.1,0-12.9,6.3-12.9,14c0,2.5,0.6,4.8,1.7,6.9l0,0
	c16.6,39,38.4,70.9,66.9,93h0.1c0.7,0.6,1.5,1.3,2.3,1.8c5.3,4.7,11.8,8.6,19.1,11.7c2.7,1.5,5.9,2.5,9.5,2.5h0.1l0,0h2.2h22.8h2.7
	h2.7H263h2.2l0,0h0.1c3.5,0,6.8-0.9,9.5-2.5c7.3-3.1,13.8-7,19.1-11.7c0.8-0.6,1.6-1.2,2.3-1.8h0.1c28.5-22.1,50.3-54,66.9-93l0,0
	C364.1,19.5,364.7,17.2,364.7,14.7z"/>
<path d="M462.4,466.9c-16.5-172.6-109.5-304.8-221.9-304.8c-1.1,0-2.1,0-3.2,0.1c-1.1,0-2.1-0.1-3.2-0.1
	c-112.3,0-205.4,132.2-221.9,304.8c-0.2,1.8-0.4,3.5-0.4,5.4c0,21.2,17.1,38.3,38.3,38.3c1.5,0,2.9-0.1,4.3-0.2v0.2h91.3h91.5h91.5
	H420v-0.2c1.4,0.2,2.9,0.2,4.3,0.2c21.2,0,38.3-17.2,38.3-38.3C462.8,470.4,462.7,468.7,462.4,466.9z M320.6,260.7l-64.1,96.8
	c-0.8,1.1-1.2,2.5-1.2,3.9c0,0.3-0.1,0.5,0,0.8v82.7c0,8.1-7.8,14.8-17.8,15.8c0,0,0,0-0.1,0c0,0,0,0-0.1,0
	c-10-1-17.8-7.7-17.8-15.8v-82.7c0-0.3,0-0.5,0-0.8c0-1.5-0.4-2.8-1.2-3.9l-64.1-96.8c-4.9-7.4-2.2-17,6.1-21.3s19-1.9,23.9,5.5
	l47.9,72.3c1.5,1.3,3.5,1.9,5.4,1.9c1.9,0.1,3.8-0.6,5.4-1.9l47.9-72.3c4.9-7.4,15.6-9.9,23.9-5.5S325.5,253.3,320.6,260.7z"/>
</svg>
