<?xml version="1.0" encoding="utf-8"?>
<!-- Generator: Adobe Illustrator 18.0.0, SVG Export Plug-In . SVG Version: 6.00 Build 0)  -->
<!DOCTYPE svg PUBLIC "-//W3C//DTD SVG 1.1//EN" "http://www.w3.org/Graphics/SVG/1.1/DTD/svg11.dtd">
<svg version="1.1" id="图层_1" xmlns="http://www.w3.org/2000/svg" xmlns:xlink="http://www.w3.org/1999/xlink" x="0px" y="0px"
	 width="512px" height="512px" viewBox="0 0 512 512" enable-background="new 0 0 512 512" xml:space="preserve">
<g>
	<path d="M256,275c-5.2,0-9.5,4.2-9.5,9.5v161.2c0,31.1-23.9,47.4-47.4,47.4c-23.6,0-47.4-16.3-47.4-47.4v-19c0-5.2-4.2-9.5-9.5-9.5
		c-5.2,0-9.5,4.2-9.5,9.5v19c0,43.1,34.2,66.4,66.4,66.4c32.2,0,66.4-23.3,66.4-66.4V284.4C265.5,279.2,261.2,275,256,275z"/>
	<path d="M511.7,286.3C506.1,172.1,420,56.7,265.5,52.2V9.5c0-5.2-4.2-9.5-9.5-9.5c-5.2,0-9.5,4.2-9.5,9.5v42.7
		C92,56.7,5.9,172.1,0.3,286.3c-1.6,8.7,3.1,17.6,11.6,21c9.8,3.9,20.8-0.8,24.6-10.6c0.1-0.3,14-33.7,55.3-33.7
		c40.6,0,54.8,32.4,55.3,33.7c2.7,6.6,8.9,11.1,16,11.8c7.1,0.7,14-2.9,17.8-8.9c0.9-1.5,23.4-36.5,75-36.5
		c51.6,0,74.1,35,74.9,36.4c3.7,6.1,10.6,9.6,17.6,9.1c7.1-0.5,13.4-5,16.2-11.6c0.6-1.4,14.8-33.8,55.4-33.8
		c40.6,0,54.8,32.4,55.3,33.7c3,7.4,10.1,11.9,17.6,11.9c2.3,0,4.7-0.4,7-1.4C508.6,303.9,513.3,295,511.7,286.3z M420.1,225.2
		c-37.7,0-61.5,17.6-75.1,33.4c-16.9-15.4-45.9-33.4-89-33.4c-43.1,0-72.1,18-89,33.4c-13.6-15.7-37.4-33.4-75.1-33.4
		c-18,0-32.7,4.1-44.7,10C76,139.6,167.6,89.9,256,89.9c88.4,0,180,49.7,208.8,145.3C452.8,229.2,438.1,225.2,420.1,225.2z"/>
</g>
</svg>
