<?xml version="1.0" encoding="utf-8"?>
<!-- Generator: Adobe Illustrator 18.0.0, SVG Export Plug-In . SVG Version: 6.00 Build 0)  -->
<!DOCTYPE svg PUBLIC "-//W3C//DTD SVG 1.1//EN" "http://www.w3.org/Graphics/SVG/1.1/DTD/svg11.dtd">
<svg version="1.1" id="图层_1" xmlns="http://www.w3.org/2000/svg" xmlns:xlink="http://www.w3.org/1999/xlink" x="0px" y="0px"
	 width="512px" height="512px" viewBox="0 0 512 512" enable-background="new 0 0 512 512" xml:space="preserve">
<g>
	<path d="M256,0C114.6,0,0,114.6,0,256s114.6,256,256,256s256-114.6,256-256S397.4,0,256,0z M256,460.5
		c-112.9,0-204.5-91.6-204.5-204.5S143.1,51.5,256,51.5S460.5,143.1,460.5,256S368.9,460.5,256,460.5z"/>
</g>
<path d="M326.4,389.4c-16.2-21.1-41.7-34.7-70.4-34.7c-28.7,0-54.1,13.6-70.4,34.7h-14.8c10.8-36.8,44.8-63.7,85.1-63.7
	c40.3,0,74.3,26.9,85.1,63.7H326.4z"/>
<path d="M192.2,200.8c-9.3,12-23.8,19.8-40.2,19.8c-16.4,0-30.9-7.8-40.2-19.8h-8.4c6.2,21,25.6,36.4,48.6,36.4
	c23,0,42.4-15.4,48.6-36.4H192.2z"/>
<path d="M408.2,200.8c-9.3,12-23.8,19.8-40.2,19.8c-16.4,0-30.9-7.8-40.2-19.8h-8.4c6.2,21,25.6,36.4,48.6,36.4
	c23,0,42.4-15.4,48.6-36.4H408.2z"/>
</svg>
