<?xml version="1.0" encoding="utf-8"?>
<!-- Generator: Adobe Illustrator 18.0.0, SVG Export Plug-In . SVG Version: 6.00 Build 0)  -->
<!DOCTYPE svg PUBLIC "-//W3C//DTD SVG 1.1//EN" "http://www.w3.org/Graphics/SVG/1.1/DTD/svg11.dtd">
<svg version="1.1" id="图层_1" xmlns="http://www.w3.org/2000/svg" xmlns:xlink="http://www.w3.org/1999/xlink" x="0px" y="0px"
	 width="512px" height="512px" viewBox="0 0 512 512" enable-background="new 0 0 512 512" xml:space="preserve">
<path d="M455.9,68.2H242.3c-3.5-0.3-14.7-8.5-20.6-23.1C212.2,21.5,190-2.4,166.2-2.4H57C25.6-2.4,0,24.7,0,58.1v393.4
	C0,484.9,25.6,512,57,512h399c31.4,0,57-27.1,57-60.5V128.7C512.9,95.3,487.4,68.2,455.9,68.2z M57,37.9h109.1
	c3.5,0.3,14.8,8.5,20.6,23.1c9.5,23.6,31.6,47.5,55.5,47.5h213.7c10.5,0,19,9.1,19,20.2v30.3H38V58.1C38,47,46.5,37.9,57,37.9z
	 M455.9,471.7H57c-10.5,0-19-9.1-19-20.2V179.1h436.9v272.4C474.9,462.6,466.4,471.7,455.9,471.7z"/>
<path d="M384,275c0-8.8-7.2-16-16-16H170c-8.8,0-16,7.2-16,16v14c0,8.8,7.2,16,16,16h198c8.8,0,16-7.2,16-16V275z"/>
</svg>
