<?xml version="1.0" encoding="utf-8"?>
<!-- Generator: Adobe Illustrator 18.0.0, SVG Export Plug-In . SVG Version: 6.00 Build 0)  -->
<!DOCTYPE svg PUBLIC "-//W3C//DTD SVG 1.1//EN" "http://www.w3.org/Graphics/SVG/1.1/DTD/svg11.dtd">
<svg version="1.1" id="图层_1" xmlns="http://www.w3.org/2000/svg" xmlns:xlink="http://www.w3.org/1999/xlink" x="0px" y="0px"
	 width="512px" height="512px" viewBox="0 0 512 512" enable-background="new 0 0 512 512" xml:space="preserve">
<g>
	<path d="M511,111.8C511,81,486,56,455.2,56H54.8C24,56-1,81-1,111.8v288.4C-1,431,24,456,54.8,456h400.4c30.8,0,55.8-25,55.8-55.8
		V111.8z M474,400.2c0,10.3-8.5,18.8-18.8,18.8h-400C45,419,37,410.4,37,400.2V111.8C37,101.6,45,93,55.3,93h400
		c10.3,0,18.8,8.6,18.8,18.8V400.2z"/>
	<path d="M449.8,104.9L301.1,239.4c-8.2-16.5-25.2-27.9-44.9-27.9c-18.1,0-34,9.6-42.7,24.1L62.1,104.8c-3.9-3.3-9.7-2.9-13.1,1
		c-3.4,3.9-2.9,9.8,1,13.1l156.8,135.5c-0.3,2.3-0.5,4.7-0.5,7.2c0,27.6,22.4,50,50,50s50-22.4,50-50c0-0.5,0-1.1,0-1.6l156-141.2
		c3.8-3.4,4.1-9.3,0.7-13.1C459.4,101.8,453.6,101.5,449.8,104.9z"/>
</g>
</svg>
