<?xml version="1.0" encoding="utf-8"?>
<!-- Generator: Adobe Illustrator 18.0.0, SVG Export Plug-In . SVG Version: 6.00 Build 0)  -->
<!DOCTYPE svg PUBLIC "-//W3C//DTD SVG 1.1//EN" "http://www.w3.org/Graphics/SVG/1.1/DTD/svg11.dtd">
<svg version="1.1" id="图层_1" xmlns="http://www.w3.org/2000/svg" xmlns:xlink="http://www.w3.org/1999/xlink" x="0px" y="0px"
	 viewBox="0 0 512 512" enable-background="new 0 0 512 512" xml:space="preserve">
<g>
	<path fill="#231815" d="M255.8,0C114.5,0-0.2,114.6-0.2,256s114.6,256,256,256s256-114.6,256-256S397.2,0,255.8,0z M255.7,473.5
		c-120.2,0-217.6-97.4-217.6-217.6S135.5,38.3,255.7,38.3s217.6,97.4,217.6,217.6S375.9,473.5,255.7,473.5z"/>
</g>
<path fill="#231815" d="M368,214c0-38.7-31.3-70-70-70h-85c-38.7,0-70,31.3-70,70v85c0,38.7,31.3,70,70,70h85c38.7,0,70-31.3,70-70
	V214z M333,299c0,19.3-15.7,35-35,35h-85c-19.3,0-35-15.7-35-35v-85c0-19.3,15.7-35,35-35h85c19.3,0,35,15.7,35,35V299z"/>
</svg>
