<?xml version="1.0" encoding="utf-8"?>
<!-- Generator: Adobe Illustrator 18.0.0, SVG Export Plug-In . SVG Version: 6.00 Build 0)  -->
<!DOCTYPE svg PUBLIC "-//W3C//DTD SVG 1.1//EN" "http://www.w3.org/Graphics/SVG/1.1/DTD/svg11.dtd">
<svg version="1.1" id="图层_1" xmlns="http://www.w3.org/2000/svg" xmlns:xlink="http://www.w3.org/1999/xlink" x="0px" y="0px"
	 width="512px" height="512px" viewBox="0 0 512 512" enable-background="new 0 0 512 512" xml:space="preserve">
<g>
	<path fill="#231815" d="M255.8,505.3c-66.6,0-129.3-26-176.4-73.1C32.3,385.1,6.3,322.5,6.3,255.8s26-129.3,73.1-176.4
		C126.5,32.3,189.2,6.3,255.8,6.3c66.6,0,129.3,26,176.4,73.1c47.1,47.1,73.1,109.8,73.1,176.4s-26,129.3-73.1,176.4
		C385.1,479.4,322.5,505.3,255.8,505.3z M255.7,42.7c-117.4,0-213,95.6-213,213s95.6,213,213,213c117.4,0,213-95.6,213-213
		S373.2,42.7,255.7,42.7z"/>
	<path fill="#231815" d="M255.8,6.8c33.6,0,66.2,6.6,96.9,19.6c29.7,12.5,56.3,30.5,79.1,53.4c22.9,22.9,40.8,49.5,53.4,79.1
		c13,30.7,19.6,63.3,19.6,96.9s-6.6,66.2-19.6,96.9c-12.5,29.7-30.5,56.3-53.4,79.1c-22.9,22.9-49.5,40.8-79.1,53.4
		c-30.7,13-63.3,19.6-96.9,19.6s-66.2-6.6-96.9-19.6c-29.7-12.5-56.3-30.5-79.1-53.4c-22.9-22.9-40.8-49.5-53.4-79.1
		c-13-30.7-19.6-63.3-19.6-96.9s6.6-66.2,19.6-96.9c12.5-29.7,30.5-56.3,53.4-79.1s49.5-40.8,79.1-53.4
		C189.6,13.4,222.2,6.8,255.8,6.8 M255.7,469.2c117.7,0,213.5-95.8,213.5-213.5S373.4,42.2,255.7,42.2S42.2,138,42.2,255.7
		S138,469.2,255.7,469.2 M255.8,5.8c-138.1,0-250,111.9-250,250s111.9,250,250,250s250-111.9,250-250S393.9,5.8,255.8,5.8L255.8,5.8
		z M255.7,468.2c-117.4,0-212.5-95.1-212.5-212.5S138.3,43.2,255.7,43.2s212.5,95.1,212.5,212.5S373.1,468.2,255.7,468.2
		L255.7,468.2z"/>
</g>
<g>
	<path fill="#231815" d="M342,302c0,22.1-17.9,40-40,40H202c-22.1,0-40-17.9-40-40V202c0-22.1,17.9-40,40-40h100
		c22.1,0,40,17.9,40,40V302z"/>
</g>
</svg>
