<?xml version="1.0" encoding="utf-8"?>
<!-- Generator: Adobe Illustrator 18.0.0, SVG Export Plug-In . SVG Version: 6.00 Build 0)  -->
<!DOCTYPE svg PUBLIC "-//W3C//DTD SVG 1.1//EN" "http://www.w3.org/Graphics/SVG/1.1/DTD/svg11.dtd">
<svg version="1.1" id="图层_1" xmlns="http://www.w3.org/2000/svg" xmlns:xlink="http://www.w3.org/1999/xlink" x="0px" y="0px"
	 width="512px" height="512px" viewBox="0 0 512 512" enable-background="new 0 0 512 512" xml:space="preserve">
<g>
	<path d="M199.2,63.8C90.2,63.8,0.9,138.8,0,231c-0.5,56.8,21.1,97.6,69.9,132.3c-0.2,12.7-7,32.3-34.7,58.7l-2,1.9
		c-4.4,4.4-5.5,11-3,16.6c2.4,5.2,7.6,8.6,13.3,8.6c0.4,0,0.8,0,1.2,0c59.7-4.7,120.3-50.6,125.5-54.4l3.1,0.5
		c10.8,1.9,20.1,3.5,25.9,3.5h0c109.8,0,199.2-75.1,199.2-167.4S309,63.8,199.2,63.8z M199,369.1c-3.4,0-15.8-2.2-20.5-3l-4.4-0.8
		c-11.2-1.9-20.5,4.8-21.9,5.9c-0.4,0.3-31.1,24-68,38.2c11.7-18.4,16.7-36.4,14.8-53.6c-0.1-1.2-0.4-2.4-0.8-3.5
		c-0.5-1.4-1.8-4.8-8-10.6c-0.5-0.5-1.1-0.9-1.7-1.3c-41.8-29.1-59.5-61.8-59-109.1c0.7-76.2,76.9-138.1,169.8-138.1
		c93.6,0,169.8,61.9,169.8,138S292.8,369.1,199,369.1z"/>
	<path d="M504.1,395.6c-20.2-8.5-35.5-24.2-46-38.2c28.8-18.9,47.2-47.3,47.2-79.1c0-48.7-26.6-89.5-84.5-100.3
		c4.4,17.5,6.5,36,6.8,55.3c1.6,83.3-45,111.1-80.7,145.1c7,0.9,19.6,3,26.9,3c7,0,13.9-0.4,20.6-1.3c14.4,8.5,36.2,18.2,68.6,26.6
		C491.6,414.2,527.1,405.3,504.1,395.6z"/>
</g>
</svg>
