<?xml version="1.0" encoding="utf-8"?>
<!-- Generator: Adobe Illustrator 18.0.0, SVG Export Plug-In . SVG Version: 6.00 Build 0)  -->
<!DOCTYPE svg PUBLIC "-//W3C//DTD SVG 1.1//EN" "http://www.w3.org/Graphics/SVG/1.1/DTD/svg11.dtd">
<svg version="1.1" id="图层_1" xmlns="http://www.w3.org/2000/svg" xmlns:xlink="http://www.w3.org/1999/xlink" x="0px" y="0px"
	 width="512px" height="512px" viewBox="0 0 512 512" enable-background="new 0 0 512 512" xml:space="preserve">
<path d="M475,132H318.3c24.4-10,50.9-23.2,68.4-40.8c15.1-15.1,19.2-36.9,10.9-57.1c-8.3-20-26.8-32.9-47.1-32.9
	c-12.9,0-32.7,5.1-53.7,29.6c-19.9,23.2-32,48.9-39.4,69.7c-6-15-15-32.1-28.4-47.8c-17.1-19.9-33.3-24.1-43.9-24.1
	c-16.9,0-32.2,10.7-39,27.2c-6.9,16.7-3.5,34.8,9,47.3c11.9,11.9,28.8,21.8,45.6,28.8H38c-21,0-38,17.1-38,38v76
	c0,10.5,8.5,19,19,19h9v209c0,21,17.5,38,38.5,38H456c21,0,38-17,38-38V265c10,0,19-8.5,19-19v-76C513,149.1,495.9,132,475,132z
	 M311.2,43.2c12.9-15,26.5-23,39.3-23c12.6,0,24.2,8.3,29.5,21.2c5.4,13.1,2.9,26.8-6.7,36.4c-26.5,26.5-79,43.6-104.4,50.7
	C273.7,109.1,285.4,73.3,311.2,43.2z M168.4,89.8c-7.1-7.1-8.9-17-4.9-26.6c3.9-9.4,12.3-15.5,21.5-15.5c9.5,0,19.7,6,29.5,17.5
	c18.7,21.8,27.9,47.5,32.2,63.2C225.8,122.3,188,109.3,168.4,89.8z M38,227v-57h209v57H38z M456,474H354h-88h-19h-52H66V265h129h52
	h19h88h102V474z M475,227H266v-57h209V227z"/>
<path d="M264.5,280.6c-43.5,0-79.1,29.9-79.5,66.7c-0.2,22.6,8.4,38.9,27.9,52.8c-0.1,5.1-2.8,12.9-13.8,23.4l-0.8,0.8
	c-1.7,1.7-2.2,4.4-1.2,6.6c1,2.1,3,3.4,5.3,3.4c0.2,0,0.3,0,0.5,0c23.8-1.9,48-20.2,50.1-21.7l1.2,0.1c4.3,0.8,8,1.3,10.3,1.3h0
	c43.8,0,79.5-29.9,79.5-66.7S308.3,280.6,264.5,280.6z M224.6,399.2c0.1,0,0.1,0.1,0.2,0.1l-0.2,0.3
	C224.6,399.5,224.6,399.3,224.6,399.2z"/>
</svg>
