<?xml version="1.0" encoding="utf-8"?>
<!-- Generator: Adobe Illustrator 18.0.0, SVG Export Plug-In . SVG Version: 6.00 Build 0)  -->
<!DOCTYPE svg PUBLIC "-//W3C//DTD SVG 1.1//EN" "http://www.w3.org/Graphics/SVG/1.1/DTD/svg11.dtd">
<svg version="1.1" id="图层_1" xmlns="http://www.w3.org/2000/svg" xmlns:xlink="http://www.w3.org/1999/xlink" x="0px" y="0px"
	 width="512px" height="512px" viewBox="0 0 512 512" enable-background="new 0 0 512 512" xml:space="preserve">
<g>
	<path d="M457.3,256l51.9-50.2c3.8-3.7,3.8-9.7,0-13.4c-3.8-3.7-10-3.7-13.9,0l-51.9,50.2l-51.9-50.2c-3.8-3.7-10-3.7-13.9,0
		c-3.8,3.7-3.8,9.7,0,13.4l51.9,50.2l-51.9,50.2c-3.8,3.7-3.8,9.7,0,13.4c1.9,1.9,4.4,2.8,6.9,2.8c2.5,0,5-0.9,6.9-2.8l51.9-50.2
		l51.9,50.2c1.9,1.9,4.4,2.8,6.9,2.8c2.5,0,5-0.9,6.9-2.8c3.8-3.7,3.8-9.7,0-13.4L457.3,256z"/>
	<path d="M340.9,36.3c-9.5-5-20.8-3.9-31,3.2l-151,103.3c-6,4.1-12.9,6.9-15.3,7.5h-8.9H57.7C25.9,150.2,0,176.1,0,207.9v96.2
		c0,31.8,25.9,57.7,57.7,57.7h76.9h8.9c2.5,0.6,9.4,3.4,15.4,7.5l151,103.3c6,4.1,12.5,6.2,18.6,6.2c4.3,0,8.5-1,12.4-3.1
		c9.5-5,14.9-15,14.9-27.4V63.7C355.8,51.3,350.4,41.3,340.9,36.3z M317.3,431.1l-136.7-93.6c-4-2.7-10.3-6.4-17.1-9.4V256
		c0-5.3-4.3-9.6-9.6-9.6c-5.3,0-9.6,4.3-9.6,9.6v67.3h-9.6H57.7c-10.6,0-19.2-8.6-19.2-19.2v-96.2c0-10.6,8.6-19.2,19.2-19.2h76.9
		h9.6v9.6c0,5.3,4.3,9.6,9.6,9.6c5.3,0,9.6-4.3,9.6-9.6v-14.5c6.8-2.9,13.1-6.6,17.1-9.4l136.7-93.5V431.1z"/>
</g>
</svg>
