<?xml version="1.0" encoding="utf-8"?>
<!-- Generator: Adobe Illustrator 18.0.0, SVG Export Plug-In . SVG Version: 6.00 Build 0)  -->
<!DOCTYPE svg PUBLIC "-//W3C//DTD SVG 1.1//EN" "http://www.w3.org/Graphics/SVG/1.1/DTD/svg11.dtd">
<svg version="1.1" id="图层_1" xmlns="http://www.w3.org/2000/svg" xmlns:xlink="http://www.w3.org/1999/xlink" x="0px" y="0px"
	 width="512px" height="512px" viewBox="0 0 512 512" enable-background="new 0 0 512 512" xml:space="preserve">
<path d="M392.2,334c-26.1,0-49.5,11.2-65.8,29.1l-121.1-80.9c2.5-8.3,3.9-17.1,3.9-26.2c0-10.6-1.9-20.8-5.3-30.3l98.1-75.3
	c16.2,17.5,39.4,28.4,65.2,28.4c49.2,0,89-39.8,89-89c0-49.2-39.8-89-89-89c-49.2,0-89,39.8-89,89c0,8.9,1.3,17.5,3.7,25.6
	l-99.9,76.7c-16-15.5-37.8-25.1-61.9-25.1c-49.2,0-89,39.8-89,89c0,49.2,39.8,89,89,89c25.6,0,48.7-10.8,65-28.2L306.8,398
	c-2.3,7.9-3.6,16.3-3.6,25c0,49.2,39.8,89,89,89c49.2,0,89-39.8,89-89C481.2,373.8,441.4,334,392.2,334z M367.2,26.8
	c34.8,0,63,28.2,63,63c0,34.8-28.2,63-63,63s-63-28.2-63-63C304.2,55,332.4,26.8,367.2,26.8z M120.2,319c-34.8,0-63-28.2-63-63
	c0-34.8,28.2-63,63-63s63,28.2,63,63C183.2,290.8,155,319,120.2,319z M392.2,486c-34.8,0-63-28.2-63-63c0-34.8,28.2-63,63-63
	s63,28.2,63,63C455.2,457.8,427,486,392.2,486z"/>
</svg>
