<?xml version="1.0" encoding="utf-8"?>
<!-- Generator: Adobe Illustrator 18.0.0, SVG Export Plug-In . SVG Version: 6.00 Build 0)  -->
<!DOCTYPE svg PUBLIC "-//W3C//DTD SVG 1.1//EN" "http://www.w3.org/Graphics/SVG/1.1/DTD/svg11.dtd">
<svg version="1.1" id="图层_1" xmlns="http://www.w3.org/2000/svg" xmlns:xlink="http://www.w3.org/1999/xlink" x="0px" y="0px"
	 width="512px" height="512px" viewBox="0 0 512 512" enable-background="new 0 0 512 512" xml:space="preserve">
<g>
	<path fill="#424242" d="M453.7,48.4H325.5v-4.7c0-23.5-22.1-42.6-49.3-42.6h-39.5c-27.2,0-49.3,19.1-49.3,42.6v4.7H59.2
		C26.5,48.4,0,73.8,0,105.2v47.3c0,10.5,8.8,18.9,19.7,18.9h22.7l31.4,286c3.3,30.1,31.7,54.6,63.2,54.6h238.8
		c31.5,0,59.9-24.5,63.2-54.6l31.4-286h22.7c10.9,0,19.7-8.5,19.7-18.9v-47.3C512.9,73.8,486.3,48.4,453.7,48.4z M207.1,43.7
		c0-13,13.3-23.7,29.6-23.7h39.5c16.3,0,29.6,10.6,29.6,23.7v4.7h-98.6V43.7z M473.4,133.5h-19.7H108.5c-5.5,0-9.9,4.2-9.9,9.5
		s4.4,9.5,9.9,9.5h324.3l-33,301c-1.2,11-12.4,20.7-24,20.7H137c-11.6,0-22.8-9.7-24-20.7l-33.2-303c-1.1-9.7-9.8-16.9-19.7-16.8
		c-0.3,0-0.7-0.1-1-0.1H39.5v-28.4c0-10.4,8.9-18.9,19.7-18.9h394.5c10.9,0,19.7,8.5,19.7,18.9V133.5z"/>
	<path fill="#424242" d="M167.7,445.8c5.5,0,9.9-4.2,9.9-9.5V199.8c0-5.2-4.4-9.5-9.9-9.5c-5.5,0-9.9,4.2-9.9,9.5v236.5
		C157.8,441.5,162.2,445.8,167.7,445.8z"/>
	<path fill="#424242" d="M256.4,445.8c5.5,0,9.9-4.2,9.9-9.5V199.8c0-5.2-4.4-9.5-9.9-9.5c-5.5,0-9.9,4.2-9.9,9.5v236.5
		C246.6,441.5,251,445.8,256.4,445.8z"/>
	<path fill="#424242" d="M345.2,445.8c5.5,0,9.9-4.2,9.9-9.5V199.8c0-5.2-4.4-9.5-9.9-9.5c-5.5,0-9.9,4.2-9.9,9.5v236.5
		C335.3,441.5,339.7,445.8,345.2,445.8z"/>
</g>
</svg>
