<?xml version="1.0" encoding="utf-8"?>
<!-- Generator: Adobe Illustrator 18.0.0, SVG Export Plug-In . SVG Version: 6.00 Build 0)  -->
<!DOCTYPE svg PUBLIC "-//W3C//DTD SVG 1.1//EN" "http://www.w3.org/Graphics/SVG/1.1/DTD/svg11.dtd">
<svg version="1.1" id="图层_1" xmlns="http://www.w3.org/2000/svg" xmlns:xlink="http://www.w3.org/1999/xlink" x="0px" y="0px"
	 viewBox="0 0 512 512" enable-background="new 0 0 512 512" xml:space="preserve">
<path fill="#231815" d="M469,167.4L272.6,3.2c-2.2-1.8-4.9-2.7-7.5-2.7c-2.7,0-5.3,0.8-7.5,2.7L61.1,167.4
	c-4.9,4.1-5.5,11.3-1.4,16.1c4.1,4.9,11.3,5.5,16.1,1.4L265.1,26.8L454.3,185c4.9,4.1,12.1,3.4,16.1-1.4h0
	C474.5,178.7,473.9,171.5,469,167.4z"/>
<path fill="#231815" d="M273.2,49.6l-8.4-5.7l-8.9,5.7L82,198.4l2,64.7c0,9.8,10.7,17.9,23.1,17.9h321.5c12.4,0,21.5-8.1,21.5-17.9
	l-2-60.8L273.2,49.6z M302,146.9c0,15.3-15.7,27.7-35,27.7l0,0c-19.3,0-35-12.4-35-27.7v-24.5c0-15.3,15.7-27.7,35-27.7l0,0
	c19.3,0,35,12.4,35,27.7V146.9z"/>
<path fill="#231815" d="M428.2,364H107.1C94.7,364,84,374.1,84,386.5V488c0,12.4,10.7,24,23.1,24H223V411h80v101h125.2
	c12.4,0,21.8-11.5,21.8-24V386.5C450,374.1,440.7,364,428.2,364z"/>
<path fill="#231815" d="M459.8,290H73.5l-36.9,63h467.5L459.8,290z M79.5,334l15-25h345.7l18,25H79.5z"/>
</svg>
