<?xml version="1.0" encoding="utf-8"?>
<!-- Generator: Adobe Illustrator 18.0.0, SVG Export Plug-In . SVG Version: 6.00 Build 0)  -->
<!DOCTYPE svg PUBLIC "-//W3C//DTD SVG 1.1//EN" "http://www.w3.org/Graphics/SVG/1.1/DTD/svg11.dtd">
<svg version="1.1" id="图层_1" xmlns="http://www.w3.org/2000/svg" xmlns:xlink="http://www.w3.org/1999/xlink" x="0px" y="0px"
	 width="512px" height="512px" viewBox="0 0 512 512" enable-background="new 0 0 512 512" xml:space="preserve">
<path d="M487.5,23.9c-28.6-30.9-82-35.6-129,15.2l-222.6,241c-44,47.7-18.8,84.5-10,94.6c8.7,10,20.1,15.4,33,15.6
	c20.7,0.5,44.7-12.9,67.4-37.5l98.9-107.7c0,0,13.8-12.2,13.8-20.2c0-8-4.2-11.1-14-18c-11.6-8.1-20.1,1.6-22.3,4.7l-0.3-0.3
	L199.2,323.7c-17.5,18.9-32.1,25.4-39.7,25.4c-3,0-4.4-1-5.7-2.5c-4-4.6-12.2-14.1,9.1-37.1l222.6-241c29.2-31.6,59.9-31.6,75-15.2
	c16,17.4,24.4,49-4.9,80.7L166.3,447c-14.1,15.3-33,23.7-53.1,23.7c-20.1,0-39-8.4-53.1-23.7c-14.1-15.3-21.9-35.7-21.9-57.5
	S46,347.2,60.1,332l173-187.3c0,0,8.9-7.6,8.9-15.6s-4.2-11.1-14-18c-13.6-9.5-23,5.6-23,5.6l-172,186.2C11.7,325.8,0,356.6,0,389.5
	c0,32.8,11.7,63.6,33.1,86.7c21.3,23.1,49.8,35.8,80.1,35.8c30.3,0,58.8-12.7,80.1-35.8l289.2-313.1
	C526.4,115.7,518.2,57.2,487.5,23.9z"/>
</svg>
