<?xml version="1.0" encoding="utf-8"?>
<!-- Generator: Adobe Illustrator 18.0.0, SVG Export Plug-In . SVG Version: 6.00 Build 0)  -->
<!DOCTYPE svg PUBLIC "-//W3C//DTD SVG 1.1//EN" "http://www.w3.org/Graphics/SVG/1.1/DTD/svg11.dtd">
<svg version="1.1" id="图层_1" xmlns="http://www.w3.org/2000/svg" xmlns:xlink="http://www.w3.org/1999/xlink" x="0px" y="0px"
	 width="512px" height="512px" viewBox="0 0 512 512" enable-background="new 0 0 512 512" xml:space="preserve">
<g>
	<path d="M255.7,0.8C114.8,0.8,0.2,115.4,0.2,256.3s114.7,255.6,255.6,255.6s255.6-114.7,255.6-255.6S396.7,0.8,255.7,0.8z
		 M255.7,474C135.7,474,38,376.4,38,256.3S135.7,38.6,255.7,38.6s217.7,97.7,217.7,217.7S375.8,474,255.7,474z"/>
	<path d="M399.5,134.5c-7.2-5.5-17.7-4.2-23.3,2.9L216.9,342.2l-85.1-59c-7.5-5.2-17.9-3.3-23.1,4.1c-5.2,7.4-3.3,17.7,4.1,22.9
		c0,0,95.9,67.2,97,68c5.3,4.1,12.3,4.4,17.9,1.5c2.5-1.2,6.5-5.4,6.5-5.4c0.5-0.7,168.3-216.7,168.3-216.7
		C408.1,150.4,406.8,140,399.5,134.5z"/>
</g>
</svg>
