<?xml version="1.0" encoding="utf-8"?>
<!-- Generator: Adobe Illustrator 18.0.0, SVG Export Plug-In . SVG Version: 6.00 Build 0)  -->
<!DOCTYPE svg PUBLIC "-//W3C//DTD SVG 1.1//EN" "http://www.w3.org/Graphics/SVG/1.1/DTD/svg11.dtd">
<svg version="1.1" id="图层_1" xmlns="http://www.w3.org/2000/svg" xmlns:xlink="http://www.w3.org/1999/xlink" x="0px" y="0px"
	 width="512px" height="512px" viewBox="0 0 512 512" enable-background="new 0 0 512 512" xml:space="preserve">
<path d="M500.4,48.5c-12.3-9.4-30.1-7.2-39.6,5L189.6,402L44.8,301.6c-12.7-8.8-30.4-5.7-39.3,6.9l0,0c-8.9,12.6-5.7,30.2,7,39
	c0,0,163.2,114.3,165,115.7h0c9,6.9,21,7.5,30.5,2.5c4.3-2,11-9.2,11-9.2c0.8-1.2,286.4-368.8,286.4-368.8
	C515,75.6,512.7,57.9,500.4,48.5z"/>
</svg>
