<?xml version="1.0" encoding="utf-8"?>
<!-- Generator: Adobe Illustrator 18.0.0, SVG Export Plug-In . SVG Version: 6.00 Build 0)  -->
<!DOCTYPE svg PUBLIC "-//W3C//DTD SVG 1.1//EN" "http://www.w3.org/Graphics/SVG/1.1/DTD/svg11.dtd">
<svg version="1.1" id="图层_1" xmlns="http://www.w3.org/2000/svg" xmlns:xlink="http://www.w3.org/1999/xlink" x="0px" y="0px"
	 width="512px" height="512px" viewBox="0 0 512 512" enable-background="new 0 0 512 512" xml:space="preserve">
<path d="M513,113c0-31.4-25.6-57-57-57h-94.9l-10.8-18.9l-1.6-2.9C340,18.5,329.3-1,304-1h-95c-26.5,0-37.9,21.9-46.2,38l-10.8,19
	H57C25.6,56,0,81.6,0,113v123.5c0,16.8,7.4,33.4,19,46V455c0,31.4,25.6,57,57,57h361c31.4,0,57-25.6,57-57V282.5
	c11.6-12.6,19-29.2,19-46V113z M179.6,45.7C188.6,28.5,195,18,209,18h95c13.4,0,19.1,9.2,28,25.4l7.2,12.6H173.8L179.6,45.7z
	 M38,113c0-10.5,8.5-19,19-19h399c10.5,0,19,8.5,19,19v123.5c0,12.2-10.8,26.2-22.6,29.3l0,0l-138.9,36.9v-9.1
	c0-15.5-12.7-28.3-28.5-28.5h-57.1c-15.7,0.2-28.4,13-28.4,28.5v9.2l-139-36.6l0.1-0.3C48.8,262.7,38,248.7,38,236.5V113z
	 M294.5,293.5V341c0,6.5-5.8,14.6-11.4,16.1c-17.4,4.3-35.9,4.3-53.1,0c-5.7-1.5-11.5-9.6-11.5-16.1v-47.5c0-5.1,4.4-9.4,9.5-9.5
	h56.9C290.1,284.1,294.5,288.4,294.5,293.5z M437,474H76c-10.5,0-19-8.5-19-19V284.8l140.1,36.8c0.8,0.2,1.6,0.3,2.4,0.3v19
	c0,15.3,11.6,30.8,25.8,34.5c10.2,2.5,20.7,3.8,31.2,3.8c10.5,0,21-1.3,31.3-3.8c14.2-3.7,25.7-19.2,25.7-34.5v-19
	c0.8,0,1.6-0.1,2.4-0.3L456,284.5V455C456,465.5,447.5,474,437,474z"/>
</svg>
