<?xml version="1.0" encoding="utf-8"?>
<!-- Generator: Adobe Illustrator 16.0.0, SVG Export Plug-In . SVG Version: 6.00 Build 0)  -->
<!DOCTYPE svg PUBLIC "-//W3C//DTD SVG 1.1//EN" "http://www.w3.org/Graphics/SVG/1.1/DTD/svg11.dtd">
<svg version="1.1" id="图层_1" xmlns="http://www.w3.org/2000/svg" xmlns:xlink="http://www.w3.org/1999/xlink" x="0px" y="0px"
	 width="512px" height="512px" viewBox="0 0 512 512" enable-background="new 0 0 512 512" xml:space="preserve">
<path d="M197.9,79.7c-2.2,2.7-3.5,6.2-3.5,10c0,8.8,7.1,15.9,15.9,15.9c0,0,0,0,0,0c-0.1,0-0.2,0-0.3,0l0,0l43.8,0.1v346.7V490v1
	c0,9,7.3,16.3,16.3,16.3s16.3-7.3,16.3-16.3v-1v-37.5V105.7h43.2l0-0.1c0.1,0,0.1,0,0.2,0c8.8,0,15.9-7.1,15.9-15.9
	c0-4.5-1.7-8.7-4.8-11.6l-0.1-0.1l-49-54.6l-8.4-10.8l-0.2-0.1c-2.9-4.2-7.7-6.8-13.2-6.8c-5.5,0-10.5,2.8-13.3,7l-8.4,10.8
	l-47.4,52.8l0,0l0,0l-2.1,2.3l0,0L197.9,79.7L197.9,79.7z M285.8,21.6c0-0.5,0-1-0.1-1.5C285.8,20.6,285.8,21.1,285.8,21.6
	c0,7.7-5.5,14.1-12.7,15.6C280.4,35.7,285.8,29.3,285.8,21.6z M200.8,76.9L200.8,76.9C200.8,76.9,200.8,76.9,200.8,76.9L200.8,76.9z
	"/>
</svg>
