<?xml version="1.0" encoding="utf-8"?>
<!-- Generator: Adobe Illustrator 18.0.0, SVG Export Plug-In . SVG Version: 6.00 Build 0)  -->
<!DOCTYPE svg PUBLIC "-//W3C//DTD SVG 1.1//EN" "http://www.w3.org/Graphics/SVG/1.1/DTD/svg11.dtd">
<svg version="1.1" id="图层_1" xmlns="http://www.w3.org/2000/svg" xmlns:xlink="http://www.w3.org/1999/xlink" x="0px" y="0px"
	 width="512px" height="512px" viewBox="0 0 512 512" enable-background="new 0 0 512 512" xml:space="preserve">
<g>
	<path d="M418.6,244.2L296.1,121.6l-26.7,26.7l90.4,90.4H113.1c-10.4,0-18.9,8.4-18.9,18.9c0,10.4,8.4,18.9,18.9,18.9h246.7
		l-90.4,90.4l26.7,26.7l122.5-122.5C426,263.5,426,251.5,418.6,244.2z"/>
	<path d="M256.7-1.5C115.1-1.5,0,113.7,0,255.2s115.1,256.7,256.7,256.7s256.7-115.1,256.7-256.7S398.2-1.5,256.7-1.5z M256.7,473.8
		C136.1,473.8,38,375.8,38,255.2S136.1,36.5,256.7,36.5s218.6,98.1,218.6,218.6S377.2,473.8,256.7,473.8z"/>
</g>
</svg>
