<?xml version="1.0" encoding="utf-8"?>
<!-- Generator: Adobe Illustrator 16.0.0, SVG Export Plug-In . SVG Version: 6.00 Build 0)  -->
<!DOCTYPE svg PUBLIC "-//W3C//DTD SVG 1.1//EN" "http://www.w3.org/Graphics/SVG/1.1/DTD/svg11.dtd">
<svg version="1.1" id="图层_1" xmlns="http://www.w3.org/2000/svg" xmlns:xlink="http://www.w3.org/1999/xlink" x="0px" y="0px"
	 width="512px" height="512px" viewBox="0 0 512 512" enable-background="new 0 0 512 512" xml:space="preserve">
<g>
	<path d="M240.8,5.3c-3.1-4.5-9.3-5.7-13.9-2.6c-4.5,3.1-5.7,9.3-2.6,13.8c15.6,22.9,7.5,33.8-0.2,44.2c-11.8,16-23.1,31.3,0.5,62.5
		c3.3,4.4,9.6,5.3,14,1.9c4.4-3.3,5.3-9.6,1.9-14C226,92,233,82.5,240.2,72.6C252,56.6,264.3,39.9,240.8,5.3L240.8,5.3z"/>
	<path d="M162.8,35.5c-3.1-4.5-9.3-5.7-13.8-2.6c-4.5,3.1-5.7,9.3-2.6,13.8c12.4,18.2,6,26.9-0.1,35.2
		c-10.2,13.9-20.1,27.2,0.4,54.3c3.3,4.4,9.6,5.3,14,1.9c4.4-3.3,5.3-9.6,2-14c-11.5-15.2-6-22.7-0.2-30.5
		C172.5,79.9,183.2,65.5,162.8,35.5L162.8,35.5z"/>
	<path d="M318.8,50.4c-3.1-4.5-9.3-5.7-13.8-2.6c-4.5,3.1-5.7,9.3-2.6,13.8c12.4,18.2,6,26.9-0.1,35.2
		c-10.2,13.9-20.1,27.2,0.4,54.3c3.3,4.4,9.6,5.3,14,1.9c4.4-3.3,5.3-9.6,2-14c-11.5-15.2-6-22.7-0.2-30.5
		C328.5,94.7,339.2,80.3,318.8,50.4L318.8,50.4z"/>
</g>
<path fill-rule="evenodd" clip-rule="evenodd" d="M493.1,240.9c-3.8-9.9-10.3-18.2-19.9-23.7c-10.8-6.2-26.5-8.7-45.2-5.4
	c0.2-4.6,0.7-8.8,0-16.1c-117.3,0-323.7,0-390.7,0c-5.7,62,42.2,184.3,115.9,225.1h158.9c20.3-11.2,39.1-29.9,55.4-51.9
	c9-0.7,19.5-2.4,30.2-4.8c17.8-4.1,36.9-10.5,51.3-19.1c26.9-15.8,44.3-46.4,47.3-73.6h0C497.5,260.5,496.5,250,493.1,240.9z
	 M471.5,268.6L471.5,268.6c-2.2,20.3-15.2,43.1-35.1,54.8c-12.1,7.1-28.6,12.6-44.2,16.2c-2.1,0.5-4.1,0.9-6.1,1.3
	c21.3-35.8,36.2-75,41.2-103.3c15.4-3.9,26.3-2.9,33.5,1.2c4.2,2.4,7.2,6.2,8.9,10.9C471.7,255.1,472.2,261.6,471.5,268.6z"/>
<path fill-rule="evenodd" clip-rule="evenodd" d="M453.6,485.2c0,15.7-12.8,28.3-28.5,28.3H41.5c-15.8,0-28.5-12.7-28.5-28.3l0,0
	c0-15.7,12.8-28.4,28.5-28.4H425C440.8,456.8,453.6,469.5,453.6,485.2L453.6,485.2z"/>
</svg>
