<?xml version="1.0" encoding="utf-8"?>
<!-- Generator: Adobe Illustrator 18.0.0, SVG Export Plug-In . SVG Version: 6.00 Build 0)  -->
<!DOCTYPE svg PUBLIC "-//W3C//DTD SVG 1.1//EN" "http://www.w3.org/Graphics/SVG/1.1/DTD/svg11.dtd">
<svg version="1.1" id="图层_1" xmlns="http://www.w3.org/2000/svg" xmlns:xlink="http://www.w3.org/1999/xlink" x="0px" y="0px"
	 width="512px" height="512px" viewBox="0 0 512 512" enable-background="new 0 0 512 512" xml:space="preserve">
<g>
	<path d="M256,0C114.8,0,0,114.8,0,256s114.8,256,256,256c141.2,0,256-114.8,256-256S397.2,0,256,0z M256,474.1
		c-120.2,0-218.1-97.8-218.1-218.1S135.8,37.9,256,37.9c120.2,0,218.1,97.8,218.1,218.1S376.2,474.1,256,474.1z"/>
	<path d="M315.3,256c0-32.7-26.6-59.3-59.3-59.3c-32.7,0-59.3,26.6-59.3,59.3s26.6,59.3,59.3,59.3
		C288.7,315.3,315.3,288.7,315.3,256z M256,296.3c-22.2,0-40.3-18.1-40.3-40.3s18.1-40.3,40.3-40.3c22.2,0,40.3,18.1,40.3,40.3
		S278.2,296.3,256,296.3z"/>
	<path d="M202.5,94.3c5-1.6,7.7-7,6-12c-1.6-5-7-7.7-12-6C134.9,96.7,87.1,148.5,71.9,211.6c-1.2,5.1,1.9,10.2,7,11.4
		c0.7,0.2,1.5,0.3,2.2,0.3c4.3,0,8.2-2.9,9.2-7.3C104,159.3,147,112.7,202.5,94.3z"/>
	<path d="M432.4,292.5c-5-1.3-10.3,1.7-11.6,6.8c-16,61.6-64.5,108.7-126.5,122.9c-5.1,1.2-8.3,6.3-7.1,11.4c1,4.4,4.9,7.4,9.2,7.4
		c0.7,0,1.4-0.1,2.1-0.2c68.9-15.8,122.8-68.2,140.6-136.6C440.5,299,437.5,293.8,432.4,292.5z"/>
	<path d="M226.2,133.4c-1.6-5-7-7.7-11.9-6.1c-45.2,14.6-79.8,52.5-90.3,98.9c-1.2,5.1,2.1,10.2,7.2,11.3c0.7,0.2,1.4,0.2,2.1,0.2
		c4.3,0,8.2-3,9.2-7.4c9-39.8,38.8-72.4,77.7-85C225.1,143.7,227.8,138.4,226.2,133.4z"/>
	<path d="M387.3,289c1.3-5.1-1.8-10.2-6.9-11.5c-5.1-1.3-10.2,1.8-11.5,6.9c-10.6,42.4-43.6,75-86.1,85c-5.1,1.2-8.3,6.3-7.1,11.4
		c1,4.4,4.9,7.3,9.2,7.3c0.7,0,1.5-0.1,2.2-0.3C336.6,376.2,375,338.3,387.3,289z"/>
</g>
</svg>
