<?xml version="1.0" encoding="utf-8"?>
<!-- Generator: Adobe Illustrator 16.0.0, SVG Export Plug-In . SVG Version: 6.00 Build 0)  -->
<!DOCTYPE svg PUBLIC "-//W3C//DTD SVG 1.1//EN" "http://www.w3.org/Graphics/SVG/1.1/DTD/svg11.dtd">
<svg version="1.1" id="图层_1" xmlns="http://www.w3.org/2000/svg" xmlns:xlink="http://www.w3.org/1999/xlink" x="0px" y="0px"
	 width="512px" height="512px" viewBox="0 0 512 512" enable-background="new 0 0 512 512" xml:space="preserve">
<path fill-rule="evenodd" clip-rule="evenodd" d="M178.4,512h120c11.1,0,20.2-9.1,20.2-20.2V262.8c0-56-49.7-84.1-49.7-116.7v-106
	h-61.1v104.1c0,36.2-49.7,62.5-49.7,118.6v228.9C158.2,502.9,167.3,512,178.4,512L178.4,512z"/>
<path fill-rule="evenodd" clip-rule="evenodd" d="M277.9,16.8c0,4-2.7,7.2-5.9,7.2h-67.2c-3.3,0-5.9-3.2-5.9-7.2V7.2
	c0-4,2.7-7.2,5.9-7.2H272c3.3,0,5.9,3.2,5.9,7.2V16.8z"/>
</svg>
