<?xml version="1.0" encoding="utf-8"?>
<!-- Generator: Adobe Illustrator 16.0.0, SVG Export Plug-In . SVG Version: 6.00 Build 0)  -->
<!DOCTYPE svg PUBLIC "-//W3C//DTD SVG 1.1//EN" "http://www.w3.org/Graphics/SVG/1.1/DTD/svg11.dtd">
<svg version="1.1" id="图层_1" xmlns="http://www.w3.org/2000/svg" xmlns:xlink="http://www.w3.org/1999/xlink" x="0px" y="0px"
	 width="512px" height="512px" viewBox="0 0 512 512" enable-background="new 0 0 512 512" xml:space="preserve">
<path fill-rule="evenodd" clip-rule="evenodd" d="M178.6,512H300c11.2,0,20.5-9.2,20.5-20.5V259.9c0-56.7-50.3-85.1-50.3-118.1V34.5
	h-61.8v105.3c0,36.6-50.3,63.3-50.3,120v231.7C158.2,502.8,167.4,512,178.6,512L178.6,512z"/>
<path fill="#FFFFFF" d="M298.3,416.8c0,4.1-3.3,7.4-7.3,7.4H187.6c-4,0-7.3-3.3-7.3-7.4v-53.5c0-4.1,3.3-7.4,7.3-7.4H291
	c4,0,7.3,3.3,7.3,7.4V416.8z"/>
<path fill-rule="evenodd" clip-rule="evenodd" d="M279.3,14c0,3.3-2.7,6-6,6h-68c-3.3,0-6-2.7-6-6V6c0-3.3,2.7-6,6-6h68
	c3.3,0,6,2.7,6,6V14z"/>
</svg>
