<?xml version="1.0" encoding="utf-8"?>
<!-- Generator: Adobe Illustrator 18.0.0, SVG Export Plug-In . SVG Version: 6.00 Build 0)  -->
<!DOCTYPE svg PUBLIC "-//W3C//DTD SVG 1.1//EN" "http://www.w3.org/Graphics/SVG/1.1/DTD/svg11.dtd">
<svg version="1.1" id="图层_1" xmlns="http://www.w3.org/2000/svg" xmlns:xlink="http://www.w3.org/1999/xlink" x="0px" y="0px"
	 width="512px" height="512px" viewBox="0 0 512 512" enable-background="new 0 0 512 512" xml:space="preserve">
<g>
	<path d="M515,355h-1V65.5C514,28.6,483.4-2,446.5-2H122.8H78.1H67C30-2,0,28.6,0,65.5V445c0,36.9,30,67,67,67h379.5
		c36.9,0,67.5-30,67.5-67v-45h1V355z M469,445c0,12.3-10.2,22-22.5,22H67c-12.3,0-22-9.7-22-22V65.5C45,53.2,54.7,43,67,43h11.2
		h44.6h323.7c12.3,0,22.5,10.2,22.5,22.5V445z"/>
	<path d="M359.9,207.9c33.1,0,60.1-27,60.1-60.1s-27-60.1-60.1-60.1c-33.1,0-60.1,27-60.1,60.1S326.7,207.9,359.9,207.9z
		 M359.9,111.7c19.9,0,36.1,16.2,36.1,36.1s-16.2,36.1-36.1,36.1c-19.9,0-36.1-16.2-36.1-36.1S340,111.7,359.9,111.7z"/>
	<path d="M385.9,310.8c-14.5-12.7-37.4-12.9-52.2-0.6l-45.2,37.7l-83.4-83.4c-13.8-13.8-36.9-14.4-51.4-1.3L51.3,355.2
		c-4.9,4.4-5.3,12-0.9,17c4.4,4.9,12,5.3,17,0.9L169.7,281c5.1-4.6,13.5-4.4,18.3,0.5l151.3,151.3c2.3,2.3,5.4,3.5,8.5,3.5
		c3.1,0,6.2-1.2,8.5-3.5c4.7-4.7,4.7-12.3,0-17l-50.8-50.8l43.5-36.3c5.6-4.7,15.4-4.6,21,0.2l78.1,68.3c2.3,2,5.1,3,7.9,3
		c3.3,0,6.7-1.4,9-4.1c4.4-5,3.9-12.6-1.1-17L385.9,310.8z"/>
</g>
</svg>
