<?xml version="1.0" encoding="utf-8"?>
<!-- Generator: Adobe Illustrator 18.0.0, SVG Export Plug-In . SVG Version: 6.00 Build 0)  -->
<!DOCTYPE svg PUBLIC "-//W3C//DTD SVG 1.1//EN" "http://www.w3.org/Graphics/SVG/1.1/DTD/svg11.dtd">
<svg version="1.1" id="图层_1" xmlns="http://www.w3.org/2000/svg" xmlns:xlink="http://www.w3.org/1999/xlink" x="0px" y="0px"
	 width="512px" height="512px" viewBox="0 0 512 512" enable-background="new 0 0 512 512" xml:space="preserve">
<g>
	<path d="M476.8,3.2c-12.9-5.7-28.2-4.4-42,3.6L230.2,125.6c-8.1,4.7-17.5,8-20.8,8.6h-12H93.2C50.1,134.2,15,164,15,200.6v110.6
		c0,36.6,35.1,66.3,78.2,66.3h104.2h12c3.3,0.6,12.7,3.9,20.8,8.6l204.5,118.8c8.2,4.8,16.9,7.2,25.3,7.2c5.8,0,11.5-1.2,16.8-3.5
		c12.9-5.8,20.2-17.2,20.2-31.5V34.7C497,20.4,489.6,9,476.8,3.2z M444.9,457.2L259.7,349.6c-5.4-3.1-13.9-7.4-23.2-10.8v-83
		c0-6.1-5.8-11.1-13-11.1c-7.2,0-13,5-13,11.1v77.4h-13H93.2c-14.4,0-26.1-9.9-26.1-22.1V200.6c0-12.2,11.7-22.1,26.1-22.1h104.2h13
		v11.1c0,6.1,5.8,11.1,13,11.1c7.2,0,13-5,13-11.1v-16.7c9.3-3.4,17.8-7.6,23.2-10.8L444.9,54.5V457.2z"/>
</g>
</svg>
