<?xml version="1.0" encoding="utf-8"?>
<!-- Generator: Adobe Illustrator 18.0.0, SVG Export Plug-In . SVG Version: 6.00 Build 0)  -->
<!DOCTYPE svg PUBLIC "-//W3C//DTD SVG 1.1//EN" "http://www.w3.org/Graphics/SVG/1.1/DTD/svg11.dtd">
<svg version="1.1" id="图层_1" xmlns="http://www.w3.org/2000/svg" xmlns:xlink="http://www.w3.org/1999/xlink" x="0px" y="0px"
	 width="512px" height="512px" viewBox="0 0 512 512" enable-background="new 0 0 512 512" xml:space="preserve">
<g>
	<path d="M454.5,0.7H123.1c-31.3,0-56.8,25.5-56.8,56.8v18.9h-9.5C25.5,76.5,0,102,0,133.3v321.9C0,486.5,25.5,512,56.8,512h321.9
		c31.3,0,56.8-25.5,56.8-56.8v-37.9h23.7c28.7,0,52.1-25.5,52.1-56.8v-303C511.3,26.2,485.8,0.7,454.5,0.7z M397.7,455.2
		c0,10.4-8.5,18.9-18.9,18.9H56.8c-10.4,0-18.9-8.5-18.9-18.9V133.3c0-10.4,8.5-18.9,18.9-18.9h9.5h37.9h274.6
		c10.4,0,18.9,8.5,18.9,18.9V455.2z M473.4,360.5c0,10.1-6.6,18.9-14.2,18.9h-23.7V133.3c0-31.3-25.5-56.8-56.8-56.8H104.1V57.5
		c0-10.4,8.5-18.9,18.9-18.9h331.4c10.4,0,18.9,8.5,18.9,18.9V360.5z"/>
	<path d="M293.5,256.4c26.1,0,47.3-21.2,47.3-47.3s-21.2-47.3-47.3-47.3c-26.1,0-47.3,21.2-47.3,47.3S267.4,256.4,293.5,256.4z
		 M293.5,180.6c15.7,0,28.4,12.7,28.4,28.4s-12.7,28.4-28.4,28.4c-15.7,0-28.4-12.7-28.4-28.4S277.8,180.6,293.5,180.6z"/>
	<path d="M314,337.4c-11.4-10-29.5-10.2-41.1-0.5l-35.6,29.7l-65.7-65.7c-10.9-10.9-29-11.4-40.5-1.1l-80.6,72.5
		c-3.9,3.5-4.2,9.5-0.7,13.4c3.5,3.9,9.5,4.2,13.4,0.7l80.6-72.5c4-3.6,10.6-3.4,14.4,0.4l119.2,119.2c1.8,1.8,4.3,2.8,6.7,2.8
		c2.4,0,4.8-0.9,6.7-2.8c3.7-3.7,3.7-9.7,0-13.4l-40-40l34.3-28.6c4.4-3.7,12.2-3.6,16.5,0.2l61.5,53.8c1.8,1.6,4,2.3,6.2,2.3
		c2.6,0,5.3-1.1,7.1-3.2c3.4-3.9,3-9.9-0.9-13.4L314,337.4z"/>
</g>
</svg>
