<?xml version="1.0" encoding="utf-8"?>
<!-- Generator: Adobe Illustrator 18.0.0, SVG Export Plug-In . SVG Version: 6.00 Build 0)  -->
<!DOCTYPE svg PUBLIC "-//W3C//DTD SVG 1.1//EN" "http://www.w3.org/Graphics/SVG/1.1/DTD/svg11.dtd">
<svg version="1.1" id="图层_1" xmlns="http://www.w3.org/2000/svg" xmlns:xlink="http://www.w3.org/1999/xlink" x="0px" y="0px"
	 width="512px" height="512px" viewBox="0 0 512 512" enable-background="new 0 0 512 512" xml:space="preserve">
<path d="M256,1.3C115.2,1.3,0.7,115.9,0.7,256.7S115.2,512,256,512s255.3-114.5,255.3-255.3S396.8,1.3,256,1.3z M256,474.2
	c-119.9,0-217.5-97.6-217.5-217.5S136.1,39.2,256,39.2c119.9,0,217.5,97.6,217.5,217.5S375.9,474.2,256,474.2z"/>
<path d="M390,197.7c-18.2,0-33.7,11.3-40,27.3H180c-6.3-16-21.8-27.3-40-27.3c-23.7,0-43,19.3-43,43c0,23.7,19.3,43,43,43
	c18.4,0,34-11.5,40.2-27.7h169.6c6.2,16.2,21.8,27.7,40.2,27.7c23.7,0,43-19.3,43-43C433,217,413.7,197.7,390,197.7z"/>
</svg>
