<?xml version="1.0" encoding="utf-8"?>
<!-- Generator: Adobe Illustrator 16.0.0, SVG Export Plug-In . SVG Version: 6.00 Build 0)  -->
<!DOCTYPE svg PUBLIC "-//W3C//DTD SVG 1.1//EN" "http://www.w3.org/Graphics/SVG/1.1/DTD/svg11.dtd">
<svg version="1.1" id="图层_1" xmlns="http://www.w3.org/2000/svg" xmlns:xlink="http://www.w3.org/1999/xlink" x="0px" y="0px"
	 width="512px" height="512px" viewBox="0 0 512 512" enable-background="new 0 0 512 512" xml:space="preserve">
<path d="M419,193.3c-97.3-1.1-195.8-1.1-293.1,0c0.5,19.5,0,39.3,0.1,57.6c9-0.1,12.9,0.1,20.6,0.8c5.6,66.7,12.6,260.3,37.9,260.7
	c54.3,1,121.5,1,175.8,0c25.4-0.4,32.3-194.1,37.9-260.7c7.7-0.7,11.7-1,20.6-0.8C419,232.6,418.5,212.8,419,193.3z M365.6,393.2
	c0,6.4-5.2,11.6-11.5,11.6H190.9c-6.4,0-11.5-5.2-11.5-11.6v-84.5c0-6.4,5.2-11.6,11.5-11.6h163.2c6.4,0,11.5,5.2,11.5,11.6V393.2z"
	/>
<path d="M377.5,124.1c-13.5-0.3-30.9-0.6-44.4-0.8c-4.7-9.7-9.4-19.4-14-29.1c-31.9,6.2-44.4,14.5-73.4,29.1
	c-8.3,0.2-17.1,0.4-26,0.6l-29-124l-18.6,4.8L200,124.2c-12,0.3-20.6,0.5-31.7,0.8c-4.1,11.9-8.3,33.9-12.4,45.8
	c75.3,0,159.1,0.4,234.4,0.4C386.1,159,381.6,136.3,377.5,124.1z"/>
</svg>
