<?xml version="1.0" encoding="utf-8"?>
<!-- Generator: Adobe Illustrator 18.0.0, SVG Export Plug-In . SVG Version: 6.00 Build 0)  -->
<!DOCTYPE svg PUBLIC "-//W3C//DTD SVG 1.1//EN" "http://www.w3.org/Graphics/SVG/1.1/DTD/svg11.dtd">
<svg version="1.1" id="图层_1" xmlns="http://www.w3.org/2000/svg" xmlns:xlink="http://www.w3.org/1999/xlink" x="0px" y="0px"
	 width="512px" height="512px" viewBox="0 0 512 512" enable-background="new 0 0 512 512" xml:space="preserve">
<g>
	<path d="M163.5,247.2L129,274.5l109.7,86.8c4.8,3.8,11,5.6,17.2,5.6c6.2,0,12.5-1.9,17.2-5.6l109.7-86.8l-34.5-27.3L280.4,301V19.8
		c0-10.6-10.9-19.3-24.4-19.3c-13.5,0-24.4,8.6-24.4,19.3v281.3L163.5,247.2z"/>
	<path d="M475.4,164.4H353.5c-6.7,0-12.2,4.3-12.2,9.6c0,5.3,5.5,9.6,12.2,9.6h121.9c6.7,0,12.2,4.3,12.2,9.6v289.2
		c0,5.3-5.5,9.6-12.2,9.6H36.6c-6.7,0-12.2-4.3-12.2-9.6V193.3c0-5.3,5.5-9.6,12.2-9.6h121.9c6.7,0,12.2-4.3,12.2-9.6
		c0-5.3-5.5-9.6-12.2-9.6H36.6c-20.2,0-36.6,13-36.6,28.9v289.2c0,15.9,16.4,28.9,36.6,28.9h438.9c20.2,0,36.6-13,36.6-28.9V193.3
		C512,177.4,495.6,164.4,475.4,164.4z"/>
</g>
</svg>
