<?xml version="1.0" encoding="utf-8"?>
<!-- Generator: Adobe Illustrator 18.0.0, SVG Export Plug-In . SVG Version: 6.00 Build 0)  -->
<!DOCTYPE svg PUBLIC "-//W3C//DTD SVG 1.1//EN" "http://www.w3.org/Graphics/SVG/1.1/DTD/svg11.dtd">
<svg version="1.1" id="图层_1" xmlns="http://www.w3.org/2000/svg" xmlns:xlink="http://www.w3.org/1999/xlink" x="0px" y="0px"
	 width="512px" height="512px" viewBox="0 0 512 512" enable-background="new 0 0 512 512" xml:space="preserve">
<g>
	<path d="M501.9,469.8L280.2,8.5c-6.8-6.8-16-9.5-24.9-8.4c-8.9-1.1-18.1,1.7-24.9,8.5L8.7,469.7C-4.6,488.7-2.9,501,8.7,512h246.6
		h246.6C513.6,501,515.3,488.7,501.9,469.8z M438.3,473h-183h-183c-8.7-8-9.9-17.3,0-31.4L236.9,85.3c5-5,11.9-25,18.4-24.3
		c6.6-0.8,13.4,19.3,18.4,24.3l164.6,356.3C448.3,455.6,447,465,438.3,473z"/>
	<path d="M255.8,199.9c-21.1,0-38.2,15.3-38.2,21.8c0,0.1,0,0.3,0,0.3h0l23.7,146h12.2h2.4h13l25.2-146h0c0,0,0-0.2,0-0.4
		C294.1,215.1,277,199.9,255.8,199.9z"/>
	<path d="M255.8,390.8c-18,0-32.6,14.6-32.6,32.6c0,18,14.6,32.6,32.6,32.6c18,0,31.7-14.6,31.7-32.6
		C287.5,405.4,273.8,390.8,255.8,390.8z"/>
</g>
</svg>
