<?xml version="1.0" encoding="utf-8"?>
<!-- Generator: Adobe Illustrator 18.0.0, SVG Export Plug-In . SVG Version: 6.00 Build 0)  -->
<!DOCTYPE svg PUBLIC "-//W3C//DTD SVG 1.1//EN" "http://www.w3.org/Graphics/SVG/1.1/DTD/svg11.dtd">
<svg version="1.1" id="图层_1" xmlns="http://www.w3.org/2000/svg" xmlns:xlink="http://www.w3.org/1999/xlink" x="0px" y="0px"
	 width="512px" height="512px" viewBox="0 0 512 512" enable-background="new 0 0 512 512" xml:space="preserve">
<g>
	<path d="M330.3,220.7c0-36.8-29.9-66.8-66.8-66.8c-36.8,0-66.8,29.9-66.8,66.8s29.9,66.8,66.8,66.8
		C300.3,287.5,330.3,257.5,330.3,220.7z M263.5,266.1c-25,0-45.4-20.4-45.4-45.4s20.4-45.4,45.4-45.4c25,0,45.4,20.4,45.4,45.4
		S288.5,266.1,263.5,266.1z"/>
	<path d="M428.6,272c-54.7,125.5-155.1,229.2-159.3,233.5c-3.7,3.7-8.6,5.8-13.9,5.8c0,0,0,0-0.1,0c-5.2,0-10.3-2.2-13.9-6
		c-4.2-4.4-103-108-157.5-232.8c-12.3-25.8-18.6-53.2-18.6-81.3C65.3,86.8,150.9,1.8,256,1.8c105.1,0,190.7,85,190.7,189.6
		C446.7,219.9,440.5,247.3,428.6,272z M256,40.5c-83.8,0-151.9,67.7-151.9,150.8c0,22.3,5,44.1,15.1,65.2
		c40.1,91.9,107.4,173.9,136.3,206.8c29.2-32.8,97.5-114.8,137.9-207.4c9.6-20.1,14.5-41.9,14.5-64.6
		C407.9,108.2,339.8,40.5,256,40.5z"/>
</g>
</svg>
