<?xml version="1.0" encoding="utf-8"?>
<!-- Generator: Adobe Illustrator 18.0.0, SVG Export Plug-In . SVG Version: 6.00 Build 0)  -->
<!DOCTYPE svg PUBLIC "-//W3C//DTD SVG 1.1//EN" "http://www.w3.org/Graphics/SVG/1.1/DTD/svg11.dtd">
<svg version="1.1" id="图层_1" xmlns="http://www.w3.org/2000/svg" xmlns:xlink="http://www.w3.org/1999/xlink" x="0px" y="0px"
	 width="512px" height="512px" viewBox="0 0 512 512" enable-background="new 0 0 512 512" xml:space="preserve">
<g>
	<path d="M425.5,182.9h-9.8v-47.4C415.7,55.9,344.2,0,259.6,0S103.5,55.9,103.5,135.5v47.4h-9.8c-32.3,0-58.5,26.1-58.5,58.3v213.6
		c0,32.1,26.3,58.3,58.5,58.3h331.7c32.3,0,58.5-26.1,58.5-58.3V241.1C484,209,457.7,182.9,425.5,182.9z M284.3,360.3v47.9
		c0,15.8-12.8,28.6-28.7,28.6c-15.8,0-28.7-12.8-28.7-28.6v-47.9c-12-9-19.2-23.1-19.2-38c0-26.3,21.5-47.7,47.9-47.7
		c26.5,0,48,21.4,47.9,47.7C303.5,337.3,296.2,351.3,284.3,360.3z M376.7,182.9H142.5v-47.4C142.5,77,196.1,35,259.6,35
		s117.1,42,117.1,100.5V182.9z"/>
</g>
</svg>
