<?xml version="1.0" encoding="utf-8"?>
<!-- Generator: Adobe Illustrator 18.0.0, SVG Export Plug-In . SVG Version: 6.00 Build 0)  -->
<!DOCTYPE svg PUBLIC "-//W3C//DTD SVG 1.1//EN" "http://www.w3.org/Graphics/SVG/1.1/DTD/svg11.dtd">
<svg version="1.1" id="图层_1" xmlns="http://www.w3.org/2000/svg" xmlns:xlink="http://www.w3.org/1999/xlink" x="0px" y="0px"
	 width="512px" height="512px" viewBox="0 0 512 512" enable-background="new 0 0 512 512" xml:space="preserve">
<path d="M502.6,112.4c-12.2-34-35.7-60.6-66-74.9c-20.4-9.6-43.3-14.7-66.2-14.7c-46.8,0-90.5,20.8-114.7,53.8
	c-24.3-32.7-67.8-53.2-114.2-53.2c-22.9,0-45.8,5.1-66.2,14.7C44.8,52.3,21.4,78.9,9.1,113c-14,39-11.8,84.6,5.8,121.9
	c38.9,82.3,220.4,241.7,228.1,248.4c3.6,3.1,8,4.7,12.5,4.7c4.5,0,8.9-1.6,12.5-4.7c7.7-6.8,189.6-166.8,228.6-249.1
	C514.3,196.9,516.5,151.4,502.6,112.4z"/>
</svg>
