<?xml version="1.0" encoding="utf-8"?>
<!-- Generator: Adobe Illustrator 18.0.0, SVG Export Plug-In . SVG Version: 6.00 Build 0)  -->
<!DOCTYPE svg PUBLIC "-//W3C//DTD SVG 1.1//EN" "http://www.w3.org/Graphics/SVG/1.1/DTD/svg11.dtd">
<svg version="1.1" id="图层_1" xmlns="http://www.w3.org/2000/svg" xmlns:xlink="http://www.w3.org/1999/xlink" x="0px" y="0px"
	 width="512px" height="512px" viewBox="0 0 512 512" enable-background="new 0 0 512 512" xml:space="preserve">
<path d="M428.8,183l-286.3-0.1v-47.4C142.5,77,196.1,35,259.6,35c36.3,0,69.3,13.7,90.9,36.4c3.3,5.6,9.4,9.4,16.4,9.4
	c10.5,0,19.1-8.5,19.1-19.1c0-4.5-1.6-8.6-4.2-11.9c0,0,0,0,0,0c-0.7-0.8-1.4-1.6-2.2-2.3C350.7,17.8,307.3,0,259.6,0
	C175,0,103.5,55.9,103.5,135.5v47.4h-9.8c-32.3,0-58.5,26.1-58.5,58.3v213.6c0,32.1,26.3,58.3,58.5,58.3h331.7
	c32.3,0,58.5-26.1,58.5-58.3V241.1C484,210.1,459.5,184.7,428.8,183z M284.3,360.3v47.9c0,15.8-12.8,28.6-28.7,28.6
	c-15.8,0-28.7-12.8-28.7-28.6v-47.9c-12-9-19.2-23.1-19.2-38c0-26.3,21.5-47.7,47.9-47.7c26.5,0,48,21.4,47.9,47.7
	C303.5,337.3,296.2,351.3,284.3,360.3z"/>
</svg>
