<?xml version="1.0" encoding="utf-8"?>
<!-- Generator: Adobe Illustrator 18.0.0, SVG Export Plug-In . SVG Version: 6.00 Build 0)  -->
<!DOCTYPE svg PUBLIC "-//W3C//DTD SVG 1.1//EN" "http://www.w3.org/Graphics/SVG/1.1/DTD/svg11.dtd">
<svg version="1.1" id="图层_1" xmlns="http://www.w3.org/2000/svg" xmlns:xlink="http://www.w3.org/1999/xlink" x="0px" y="0px"
	 width="512px" height="512px" viewBox="0 0 512 512" enable-background="new 0 0 512 512" xml:space="preserve">
<g>
	<path d="M505.5,442.9l-4.3-14c-12-39.5-113.5-93.7-133.5-103c0,0-9.6,6.6-40.2,26.6l-71,37.6l-100-61.5
		c-10,4.1-131.5,54.3-144.8,103.5C9.4,440.6,2,464.8,2,464.8c-0.6,1.9-0.9,3.8-0.9,5.8c0,27.4,19.4,41.3,57.6,41.3h395.1
		c17.2,0,57.6,0,57.6-40C511.4,461.9,510.3,458.3,505.5,442.9z"/>
	<path d="M256,325.9c76.7,0,140.8-69.1,140.8-160.4S334.7,0.1,258,0.1S119.2,74.2,119.2,165.5S179.3,325.9,256,325.9z"/>
</g>
</svg>
