<?xml version="1.0" encoding="utf-8"?>
<!-- Generator: Adobe Illustrator 18.0.0, SVG Export Plug-In . SVG Version: 6.00 Build 0)  -->
<!DOCTYPE svg PUBLIC "-//W3C//DTD SVG 1.1//EN" "http://www.w3.org/Graphics/SVG/1.1/DTD/svg11.dtd">
<svg version="1.1" id="图层_1" xmlns="http://www.w3.org/2000/svg" xmlns:xlink="http://www.w3.org/1999/xlink" x="0px" y="0px"
	 width="512px" height="512px" viewBox="0 0 512 512" enable-background="new 0 0 512 512" xml:space="preserve">
<g>
	<path d="M40.7,238.1l-23.1,23.1C7.5,271.4,1.3,284.5,0.2,298.1c-1.2,14.6,3.7,28.6,13.5,38.4l162,162c8.7,8.7,20.6,13.5,33.4,13.5
		c14.6,0,29.3-6.2,40.2-17.1l25.8-25.8L40.7,238.1z"/>
	<path d="M495.2,21.2C479.6,4,456.9-4.5,431.6-2L297.3,11.3c-18.8,1.9-41.7,12-53.4,23.7L69,209.9l234.4,230.9l172.2-172.2
		c12.2-12.2,22.6-33.6,24.2-49.7l13.7-138.9C515.7,57.5,509.2,36.7,495.2,21.2z M394,165.9c-26.7,0-48.4-21.7-48.4-48.4
		c0-26.7,21.7-48.4,48.4-48.4c26.7,0,48.4,21.7,48.4,48.4C442.4,144.2,420.7,165.9,394,165.9z"/>
</g>
</svg>
