<?xml version="1.0" encoding="utf-8"?>
<!-- Generator: Adobe Illustrator 18.0.0, SVG Export Plug-In . SVG Version: 6.00 Build 0)  -->
<!DOCTYPE svg PUBLIC "-//W3C//DTD SVG 1.1//EN" "http://www.w3.org/Graphics/SVG/1.1/DTD/svg11.dtd">
<svg version="1.1" id="图层_1" xmlns="http://www.w3.org/2000/svg" xmlns:xlink="http://www.w3.org/1999/xlink" x="0px" y="0px"
	 width="512px" height="512px" viewBox="0 0 512 512" enable-background="new 0 0 512 512" xml:space="preserve">
<path d="M436.9,177.7l-20,0v-42.2C417,55.9,345.5,0,260.9,0c-47.7,0-91.1,17.8-120,47.5c-0.8,0.7-1.5,1.5-2.2,2.3c0,0,0,0,0,0
	c-2.6,3.3-4.2,7.4-4.2,11.9c0,10.5,8.5,19.1,19.1,19.1c7,0,13.1-3.8,16.4-9.4C191.6,48.7,224.6,35,260.9,35
	C324.4,35,378,77,378,135.5v42.2l-202.8-0.1v0h-81C62.4,178.8,37,204.9,37,236.8v217c0,32.6,26.7,59.2,59.4,59.2h337
	c32.8,0,59.4-26.5,59.4-59.2V236.7C493,205.2,468.1,179.4,436.9,177.7z M290.1,357.8v48.7c0,16.1-13,29.1-29.2,29.1
	c-16.1,0-29.2-13-29.2-29.1v-48.7c-12.2-9.1-19.5-23.5-19.5-38.6c0-26.7,21.8-48.5,48.7-48.5c26.9,0,48.8,21.7,48.7,48.5
	C309.6,334.5,302.2,348.7,290.1,357.8z"/>
</svg>
