<?xml version="1.0" encoding="utf-8"?>
<!-- Generator: Adobe Illustrator 18.0.0, SVG Export Plug-In . SVG Version: 6.00 Build 0)  -->
<!DOCTYPE svg PUBLIC "-//W3C//DTD SVG 1.1//EN" "http://www.w3.org/Graphics/SVG/1.1/DTD/svg11.dtd">
<svg version="1.1" id="图层_1" xmlns="http://www.w3.org/2000/svg" xmlns:xlink="http://www.w3.org/1999/xlink" x="0px" y="0px"
	 width="512px" height="512px" viewBox="0 0 512 512" enable-background="new 0 0 512 512" xml:space="preserve">
<path fill-rule="evenodd" clip-rule="evenodd" d="M255.3,1.3C114.5,1.3,0,115.9,0,256.7S114.5,512,255.3,512
	s255.3-114.5,255.3-255.3S396.1,1.3,255.3,1.3z M220.2,391.7c-3.8,3.6-10,6-16.9,6c-11.7,0-21.2-6.5-21.3-14.7c0,0,0,0,0,0l0,0
	l-1.7-249.5l0.1,0c0-0.3-0.1-0.7-0.1-1c-0.1-8.1,9.4-14.8,21.1-14.8c6.4,0,12.2,2,16.1,5.1l1-0.3c0,0,161.8,130.8,161.8,134.1
	C380.3,262,220.2,391.7,220.2,391.7z"/>
</svg>
