<?xml version="1.0" encoding="utf-8"?>
<!-- Generator: Adobe Illustrator 18.0.0, SVG Export Plug-In . SVG Version: 6.00 Build 0)  -->
<!DOCTYPE svg PUBLIC "-//W3C//DTD SVG 1.1//EN" "http://www.w3.org/Graphics/SVG/1.1/DTD/svg11.dtd">
<svg version="1.1" id="图层_1" xmlns="http://www.w3.org/2000/svg" xmlns:xlink="http://www.w3.org/1999/xlink" x="0px" y="0px"
	 width="512px" height="512px" viewBox="0 0 512 512" enable-background="new 0 0 512 512" xml:space="preserve">
<path d="M511.8,196.2c-1.6-4.8-7.4-16.2-25.6-17.8l-70.4-6.2l-67.2-5.9c-3.4-0.3-9.1-5.5-10.4-8.6L281.5,23.6
	c-7.2-17-19.8-18.9-24.9-18.9c-5.1,0-17.7,1.8-24.9,18.9l-56.8,135.1c-1.3,3.1-7.1,7.3-10.4,7.6L98,172.2l-71.2,6.3
	c-18.2,1.6-23.9,13-25.6,17.8c-1.6,4.8-4,17.3,9.4,29.7L114,320.8c2.7,2.4,4.8,9.5,4,13L84.5,476.6c-3,12.7,0.8,20.8,4.4,25.4
	c7.9,9.9,22.5,11.9,35.8,3.8l125.4-75.9c0.8-0.5,3.1-1.3,6.4-1.3s5.6,0.8,6.4,1.3l125.4,75.9c5.7,3.4,11.4,5.2,16.9,5.2
	c7.5,0,14.4-3.3,18.9-9c3.7-4.6,7.4-12.8,4.4-25.5L395,333.8c-0.8-3.5,1.3-10.6,4-13l103.4-94.9C515.8,213.5,513.5,201,511.8,196.2z
	"/>
</svg>
