<?xml version="1.0" encoding="utf-8"?>
<!-- Generator: Adobe Illustrator 18.0.0, SVG Export Plug-In . SVG Version: 6.00 Build 0)  -->
<!DOCTYPE svg PUBLIC "-//W3C//DTD SVG 1.1//EN" "http://www.w3.org/Graphics/SVG/1.1/DTD/svg11.dtd">
<svg version="1.1" id="图层_1" xmlns="http://www.w3.org/2000/svg" xmlns:xlink="http://www.w3.org/1999/xlink" x="0px" y="0px"
	 width="512px" height="512px" viewBox="0 0 512 512" enable-background="new 0 0 512 512" xml:space="preserve">
<g>
	<path d="M246.1,474.2l21.4-12.8l10.6-8.2c7.8,9.7,22.6,11,33.3,2.9c10.9-8.3,13.5-23.2,5.8-33.4l-66.9,38.7l-51.5-19.4L246.1,474.2
		z"/>
	<path d="M512.7,257.2c0,0-33.5,25-81.5-13.7c-7.2-5.8-36.6-26.6-60.9-45.8L267.2,84.5c6-3,9.9-7.6,9.9-12.9
		c0-5.7-4.5-10.7-11.3-13.6c2.7-2,4.4-4.7,4.4-7.6c0-4.1-3.3-7.7-8.3-9.8c3.1-1.8,5.3-4.3,5.3-7.2c0-4.1-4.1-7.5-9.1-9V5.2
		c0-3.1-2.5-5.6-5.5-5.6S247,2.2,247,5.2v19.3c-6,1.4-9.6,4.9-9.6,9c0,2.9,1.9,5.4,5,7.2c-5,2.1-8.3,5.7-8.3,9.8
		c0,2.9,1.7,5.5,4.3,7.6c-6.8,2.9-11.3,7.9-11.3,13.6c0,5.2,3.9,9.9,9.8,12.9L133.8,202h0c-25.1,22-44.4,34.4-53.3,41.5
		C32.5,282.2-1,257.2-1,257.2s6.3,38.5,47.1,44.6l0,0.2h0.1c2.5,0,5,0.5,7.9,0.6c10.4,0.4,24.9,0.6,38.9,0.9v123.8
		c10,48.4,55.3,84.7,103.6,84.7h119.7c48.3,0,89.3-36.4,99.7-84.7l3-98.2v-25.8c15-0.2,29.6-0.3,38.7-0.7c2.6-0.1,4.8-0.6,7.2-0.6
		h0.2l0-0.2C506.3,295.8,512.7,257.2,512.7,257.2z M115.2,272c-33.2,0-40.3,0-40.3,0s39.5-10.1,70.1-34.8
		c5.7-4.6,17.9-12.2,33.9-26.2h0l65.1-75v136H115.2z M390,325.1l-3.2,86.4c-8.2,42.6-41.5,74.5-79.7,74.5h-94.7
		c-38.2,0-73.3-31.7-81.4-74.4V302h259V325.1z M397.9,272H264V136l65.5,71.8c15.5,12.3,34.2,25.5,38.8,29.2
		c30.6,24.6,76.6,35,76.6,35S423.4,272,397.9,272z"/>
	<path d="M333.3,411.1c0,0,0.1,0,0.1,0c0,0,0.1,0,0.1,0c16.5,0,29.8-18.4,29.8-41c0-2.2-0.1-4.3-0.4-6.3l20.8-18.6l-22.8,9
		c-4.4-14.4-14.6-24.6-26.5-25.1c0,0-0.1,0-0.1,0c-0.3,0-0.5,0-0.8,0c0,0-0.1,0-0.1,0c0,0,0.1,0,0,0c-16.3,0-29.4,18.3-29.4,41
		c0,0,0-0.1,0-0.1h-0.2h-0.1C303.8,393,316.9,411.1,333.3,411.1z"/>
	<path d="M176.3,411.1c0,0,0.1,0,0.1,0c0,0,0.1,0,0.1,0c16.5,0,29.8-18.4,29.8-41c0-2.2-0.1-4.3-0.4-6.3l20.8-18.6l-22.8,9
		c-4.4-14.4-14.6-24.6-26.5-25.1c0,0-0.1,0-0.1,0c-0.3,0-0.5,0-0.8,0c0,0-0.1,0-0.1,0c0,0,0.1,0,0,0c-16.3,0-29.4,18.3-29.4,41
		c0,0,0-0.1,0-0.1h-0.2h-0.1C146.8,393,159.9,411.1,176.3,411.1z"/>
</g>
</svg>
