<?xml version="1.0" encoding="utf-8"?>
<!-- Generator: Adobe Illustrator 16.0.0, SVG Export Plug-In . SVG Version: 6.00 Build 0)  -->
<!DOCTYPE svg PUBLIC "-//W3C//DTD SVG 1.1//EN" "http://www.w3.org/Graphics/SVG/1.1/DTD/svg11.dtd">
<svg version="1.1" id="图层_1" xmlns="http://www.w3.org/2000/svg" xmlns:xlink="http://www.w3.org/1999/xlink" x="0px" y="0px"
	 width="512px" height="512px" viewBox="0 0 512 512" enable-background="new 0 0 512 512" xml:space="preserve">
<path d="M416,34c0,8.8-7.2,16-16,16H112c-8.8,0-16-7.2-16-16V16c0-8.8,7.2-16,16-16h288c8.8,0,16,7.2,16,16V34z M512,170.3
	c0-8.8-7.2-16-16-16H16c-8.8,0-16,7.2-16,16v18c0,8.8,7.2,16,16,16h480c8.8,0,16-7.2,16-16V170.3z M416,324.7c0-8.8-7.2-16-16-16
	H112c-8.8,0-16,7.2-16,16v18c0,8.8,7.2,16,16,16h288c8.8,0,16-7.2,16-16V324.7z M512,479c0-8.8-7.2-16-16-16H16c-8.8,0-16,7.2-16,16
	v18c0,8.8,7.2,16,16,16h480c8.8,0,16-7.2,16-16V479z"/>
</svg>
