<?xml version="1.0" encoding="utf-8"?>
<!-- Generator: Adobe Illustrator 18.0.0, SVG Export Plug-In . SVG Version: 6.00 Build 0)  -->
<!DOCTYPE svg PUBLIC "-//W3C//DTD SVG 1.1//EN" "http://www.w3.org/Graphics/SVG/1.1/DTD/svg11.dtd">
<svg version="1.1" id="图层_1" xmlns="http://www.w3.org/2000/svg" xmlns:xlink="http://www.w3.org/1999/xlink" x="0px" y="0px"
	 width="512px" height="512px" viewBox="0 0 512 512" enable-background="new 0 0 512 512" xml:space="preserve">
<g>
	<path d="M150.8,379.7h173.3V342l-127.8,0l174.4-174.4c7.4-7.4,7.4-19.3,0-26.7c-7.4-7.4-19.3-7.4-26.7,0L169.7,315.3l0-127.8H132
		v173.3C132,371.2,140.4,379.7,150.8,379.7z"/>
	<path d="M256.7-1.5c141.5,0,256.7,115.1,256.7,256.7S398.2,511.9,256.7,511.9S0,396.7,0,255.2S115.1-1.5,256.7-1.5z M256.7,473.8
		c120.6,0,218.6-98.1,218.6-218.6S377.2,36.5,256.7,36.5C136.1,36.5,38,134.6,38,255.2S136.1,473.8,256.7,473.8z"/>
</g>
</svg>
