<?xml version="1.0" encoding="utf-8"?>
<!-- Generator: Adobe Illustrator 16.0.0, SVG Export Plug-In . SVG Version: 6.00 Build 0)  -->
<!DOCTYPE svg PUBLIC "-//W3C//DTD SVG 1.1//EN" "http://www.w3.org/Graphics/SVG/1.1/DTD/svg11.dtd">
<svg version="1.1" id="图层_1" xmlns="http://www.w3.org/2000/svg" xmlns:xlink="http://www.w3.org/1999/xlink" x="0px" y="0px"
	 width="512px" height="512px" viewBox="0 0 512 512" enable-background="new 0 0 512 512" xml:space="preserve">
<path d="M320,34c0,8.8-7.2,16-16,16H16C7.2,50,0,42.8,0,34V16C0,7.2,7.2,0,16,0h288c8.8,0,16,7.2,16,16V34z M513,170.3
	c0-8.8-7.2-16-16-16H17c-8.8,0-16,7.2-16,16v18c0,8.8,7.2,16,16,16h480c8.8,0,16-7.2,16-16V170.3z M321,324.7c0-8.8-7.2-16-16-16H17
	c-8.8,0-16,7.2-16,16v18c0,8.8,7.2,16,16,16h288c8.8,0,16-7.2,16-16V324.7z M513,479c0-8.8-7.2-16-16-16H17c-8.8,0-16,7.2-16,16v18
	c0,8.8,7.2,16,16,16h480c8.8,0,16-7.2,16-16V479z"/>
</svg>
