<?xml version="1.0" encoding="utf-8"?>
<!-- Generator: Adobe Illustrator 18.0.0, SVG Export Plug-In . SVG Version: 6.00 Build 0)  -->
<!DOCTYPE svg PUBLIC "-//W3C//DTD SVG 1.1//EN" "http://www.w3.org/Graphics/SVG/1.1/DTD/svg11.dtd">
<svg version="1.1" id="图层_1" xmlns="http://www.w3.org/2000/svg" xmlns:xlink="http://www.w3.org/1999/xlink" x="0px" y="0px"
	 viewBox="0 0 512 512" enable-background="new 0 0 512 512" xml:space="preserve">
<path fill="#231815" d="M507.5,262.4L265.2,59.8c-2.7-2.3-6-3.3-9.3-3.3c-3.3,0-6.6,1-9.3,3.3L4.2,262.4c-6,5-6.8,13.9-1.8,19.9
	c5,6,18.6,14,24.6,9l228.9-188.7L485,295c6,5,19.3-6.7,24.3-12.6h0C514.3,276.4,513.5,267.4,507.5,262.4z"/>
<path fill="#231815" d="M479.5,86h-84c-6.9,0-12.5-5.6-12.5-12.5v0c0-6.9,5.6-12.5,12.5-12.5h84c6.9,0,12.5,5.6,12.5,12.5v0
	C492,80.4,486.4,86,479.5,86z"/>
<path fill="#231815" d="M462.4,98h-48.9c-16.2,0-30.6,12.4-30.6,28.6V140l93.6,79.4c8.5-5.2,14.4-14.5,14.4-25.2v-67.5
	C491,110.4,478.7,98,462.4,98z"/>
<path fill="#231815" d="M266.4,150.6l-10.6-8.8l-11.3,8.8L32,326.9V484c0,15.3,13.6,28,28.9,28h396.6c15.3,0,27.5-12.7,27.5-28
	V332.9L266.4,150.6z"/>
</svg>
