<?xml version="1.0" encoding="utf-8"?>
<!-- Generator: Adobe Illustrator 18.0.0, SVG Export Plug-In . SVG Version: 6.00 Build 0)  -->
<!DOCTYPE svg PUBLIC "-//W3C//DTD SVG 1.1//EN" "http://www.w3.org/Graphics/SVG/1.1/DTD/svg11.dtd">
<svg version="1.1" id="图层_1" xmlns="http://www.w3.org/2000/svg" xmlns:xlink="http://www.w3.org/1999/xlink" x="0px" y="0px"
	 width="512px" height="512px" viewBox="0 0 512 512" enable-background="new 0 0 512 512" xml:space="preserve">
<g>
	<path d="M431.2,0H80.8C36.3,0,0,25.5,0,56.9v398.2C0,486.5,36.3,512,80.8,512h350.3c44.6,0,80.8-25.5,80.8-56.9V56.9
		C512,25.5,475.7,0,431.2,0z M53.9,94.8h404.2v284.4H53.9V94.8z M80.8,37.9h350.3c14.9,0,26.9,8.5,26.9,19v19H53.9v-19
		C53.9,46.4,66,37.9,80.8,37.9z M431.2,474.1H80.8c-14.9,0-26.9-8.5-26.9-19v-56.9h404.2v56.9C458.1,465.6,446,474.1,431.2,474.1z"
		/>
	<path d="M282.9,426.7h-53.9c-7.4,0-13.5,4.2-13.5,9.5c0,5.2,6,9.5,13.5,9.5h53.9c7.4,0,13.5-4.2,13.5-9.5
		C296.4,430.9,290.4,426.7,282.9,426.7z"/>
</g>
</svg>
