<?xml version="1.0" encoding="utf-8"?>
<!-- Generator: Adobe Illustrator 18.0.0, SVG Export Plug-In . SVG Version: 6.00 Build 0)  -->
<!DOCTYPE svg PUBLIC "-//W3C//DTD SVG 1.1//EN" "http://www.w3.org/Graphics/SVG/1.1/DTD/svg11.dtd">
<svg version="1.1" id="图层_1" xmlns="http://www.w3.org/2000/svg" xmlns:xlink="http://www.w3.org/1999/xlink" x="0px" y="0px"
	 width="512px" height="512px" viewBox="0 0 512 512" enable-background="new 0 0 512 512" xml:space="preserve">
<g>
	<path d="M324.8,141.5c0-37.9-30.8-68.7-68.8-68.7c-37.9,0-68.7,30.8-68.7,68.7c0,37.9,30.8,68.8,68.7,68.8
		C293.9,210.2,324.8,179.4,324.8,141.5z M256,191.2c-27.4,0-49.7-22.3-49.7-49.8s22.3-49.7,49.7-49.7s49.8,22.3,49.8,49.7
		S283.4,191.2,256,191.2z"/>
	<path d="M512.3,488l-57-209c-1.6-6-6.1-10.9-12-12.9l-73.5-25.8c6.1-11.6,11.8-23.4,17.1-35.4c9.4-19.6,14.1-40.4,14.1-61.8
		C400.9,63.6,335.9-1,256-1c-79.9,0-144.9,64.6-144.9,144.1c0,21.7,4.7,42.5,13.8,61.5c5.4,12.3,11.3,24.4,17.5,36.2l-72.6,25.3
		c-5.9,2.1-10.4,6.9-12.1,12.9l-57,209c-2,7.2,0.5,14.9,6.3,19.7c5.8,4.7,13.8,5.7,20.5,2.3l105.8-52.9l115.2,53.2
		c5,2.3,10.9,2.3,15.9,0l115.2-53.2L485.5,510c2.7,1.3,5.6,2,8.5,2c4.3,0,8.6-1.5,12.1-4.3C511.8,502.9,514.3,495.2,512.3,488z
		 M130.1,143.1C130.1,74.1,186.6,18,256,18c69.4,0,125.9,56.1,125.9,125.1c0,18.5-4.1,36.6-12.4,53.9
		c-34.2,78.3-92.9,152.5-113.1,176.9c-20.5-24.3-80-98.6-114.3-177.2C134.1,180,130.1,161.9,130.1,143.1z M388.5,419
		c-5.2-2.6-11.2-2.7-16.5-0.3l-115.5,53.3L141,418.7c-5.2-2.4-11.3-2.3-16.5,0.3l-76,38l43.2-158.3l69.8-24.3
		c40.4,66.8,85.4,117.6,87.9,120.4c1.8,2,4.4,3.2,7.1,3.2c2.7,0.1,5.3-1.2,7.1-3.2c2.5-2.8,47.1-54,87.2-120.9l70.5,24.8L464.5,457
		L388.5,419z"/>
</g>
</svg>
