<?xml version="1.0" encoding="utf-8"?>
<!-- Generator: Adobe Illustrator 19.0.0, SVG Export Plug-In . SVG Version: 6.00 Build 0)  -->
<svg version="1.1" id="图层_1" xmlns="http://www.w3.org/2000/svg" xmlns:xlink="http://www.w3.org/1999/xlink" x="0px" y="0px"
	 viewBox="0 0 1451.3 1451.3" style="enable-background:new 0 0 1451.3 1451.3;" xml:space="preserve">
<style type="text/css">
	.st0{fill-rule:evenodd;clip-rule:evenodd;fill:#4E4D4D;}
</style>
<g id="XMLID_9_">
	<path id="XMLID_7_" class="st0" d="M565.3,497.9c-18.3,54.7-18.3,91.2,18.3,109.4c18.2,0,54.6-36.5,72.8-72.9
		c18.3-54.7,0-91.2-18.2-109.4C601.8,424.9,583.6,461.4,565.3,497.9z"/>
	<path id="XMLID_6_" class="st0" d="M820.5,516.1c-18.2,0-36.4,18.2-54.6,54.7c-18.3,36.5,0,73,18.2,91.2
		c18.2,0,36.4-18.2,54.7-54.7C857,570.8,857,516.1,820.5,516.1z"/>
	<path id="XMLID_10_" class="st0" d="M1276.2,552.6c-291.7,0-255.2-127.7-255.2-127.7l-36.5-237.1C948.1-49.3,784.1,5.5,784.1,5.5
		C674.7,23.7,510.6,187.8,474.1,242.5c-54.6,54.7-72.8,54.7-182.3,0C-18,60.2,0.2,279,0.2,279c0,255.3,127.7,419.4,182.3,492.4
		c-54.6,18.2-54.6,455.9-54.6,455.9C182.5,1500.9,383,1355,383,1355l200.6-145.9l198.1,182.4c328.1,164.1,271-54.7,271-54.7
		c0-127.7,0-346.5,0-346.5c167.6-36.5,312.3-182.4,312.3-182.4C1601.9,552.6,1276.2,552.6,1276.2,552.6z M273.7,698.5
		c-18.2,0-54.7-36.5-54.7-72.9s36.5-54.7,54.7-54.7c36.5,0,54.7,18.3,54.7,54.7S310.1,698.5,273.7,698.5z M346.5,680.2
		c0,0,0,492.4,510.4,200.6C310.1,1300.3,346.5,735,346.5,680.2z M893.4,570.8c0,0-18.2,182.4-109.3,255.3
		C638.2,917.3,620,716.7,620,716.7S383,844.4,437.7,552.6c0,0,36.4-164.1,127.6-182.4c91.1-36.5,145.9,36.5,145.9,91.2
		C711.2,461.4,911.6,333.7,893.4,570.8z M984.5,935.6c-36.4,0-72.9-36.5-72.9-73c0-36.5,36.5-73,72.9-73c18.2,0,54.7,36.5,54.7,73
		C1039.2,899.1,1002.7,935.6,984.5,935.6z"/>
</g>
</svg>
