<?xml version="1.0" encoding="utf-8"?>
<!-- Generator: Adobe Illustrator 19.0.0, SVG Export Plug-In . SVG Version: 6.00 Build 0)  -->
<svg version="1.1" id="图层_1" xmlns="http://www.w3.org/2000/svg" xmlns:xlink="http://www.w3.org/1999/xlink" x="0px" y="0px"
	 width="1451.3px" height="1451.3px" viewBox="0 0 1451.3 1451.3" enable-background="new 0 0 1451.3 1451.3" xml:space="preserve">
<g id="XMLID_8_">
	<path id="XMLID_13_" fill="#231815" d="M982.5,636c16.7,0,33.2,1.2,49.5,3c-44.4-204.6-265.7-356.7-518.3-356.7
		C231.3,282.3,0,472.6,0,714.3c0,139.5,77,254,205.5,342.9L154.1,1210l179.5-89c64.3,12.6,115.8,25.5,179.9,25.5
		c16.1,0,32.1-0.8,47.9-2c-10-34-15.9-69.5-15.9-106.4C545.8,816.1,738.6,636,982.5,636z M706.3,498.3c38.7,0,64.3,25.2,64.3,63.4
		c0,38.1-25.6,63.6-64.3,63.6c-38.5,0-77.1-25.5-77.1-63.6C629.2,523.4,667.8,498.3,706.3,498.3z M346.8,625.2
		c-38.5,0-77.4-25.5-77.4-63.6c0-38.2,38.8-63.4,77.4-63.4s64.1,25.2,64.1,63.4C411,599.7,385.3,625.2,346.8,625.2z"/>
	<path id="XMLID_9_" fill="#231815" d="M1451.3,1031.9c0-203.1-205.5-368.6-436.3-368.6c-244.4,0-436.9,165.5-436.9,368.6
		c0,203.4,192.5,368.6,436.9,368.6c51.2,0,102.7-12.7,154.1-25.5l140.9,76.3l-38.6-126.9C1374.5,1247.8,1451.3,1146.4,1451.3,1031.9
		z M873.4,968.3c-25.6,0-51.4-25.2-51.4-50.8c0-25.3,25.8-50.8,51.4-50.8c38.8,0,64.3,25.5,64.3,50.8
		C937.7,943.2,912.2,968.3,873.4,968.3z M1155.9,968.3c-25.4,0-51.1-25.2-51.1-50.8c0-25.3,25.7-50.8,51.1-50.8
		c38.5,0,64.3,25.5,64.3,50.8C1220.3,943.2,1194.5,968.3,1155.9,968.3z"/>
</g>
</svg>
