<?xml version="1.0" encoding="utf-8"?>
<!-- Generator: Adobe Illustrator 18.0.0, SVG Export Plug-In . SVG Version: 6.00 Build 0)  -->
<!DOCTYPE svg PUBLIC "-//W3C//DTD SVG 1.1//EN" "http://www.w3.org/Graphics/SVG/1.1/DTD/svg11.dtd">
<svg version="1.1" id="图层_1" xmlns="http://www.w3.org/2000/svg" xmlns:xlink="http://www.w3.org/1999/xlink" x="0px" y="0px"
	 width="512px" height="512px" viewBox="0 0 512 512" enable-background="new 0 0 512 512" xml:space="preserve">
<g>
	<path d="M312,384.8c-7,8.8-15.3,15.6-25.6,19.9c-10.3,4.4-22.5,6.6-36.6,6.6c-16.7,0-32.3-3-46.9-9.1
		c-14.6-6.1-25.6-13.6-33.2-22.5c-7.6-9-12.2-18.4-14.1-28.2c-1.9-9.8-2.7-24.6-2.7-44.3v-85.1c0-27.3,1.8-47.2,5.7-59.6
		c0,0-122.4,20.6-158.7,76.2c-0.4,5.7-0.6,11.4-0.6,17.2c0,141.4,114.6,256,256,256c19.4,0,38.4-2.2,56.6-6.3V384.8z"/>
	<path d="M255.4,0c-96.8,0-181,53.7-224.5,132.9c19.3-8,55-17.3,118.9-19.9c67.4-2.7,106.1,0,106.1,0l-0.4,0.2
		c3-0.1,6.1-0.2,9.3-0.2c29.1,0,53.3,4.5,72.5,13.4c19.2,9,31.8,19.6,37.6,31.9c4.8,10.1,7.7,24,8.6,41.6h-70
		c-9.9-29-26.6-48.2-45.5-48.2c-30.4,0-55,49.4-55,110.2c0,60.8,24.6,109.9,55,109.9c22.1,0,41.1-25.9,49.9-63.9h-24v-38h90v24v14.2
		v71.7V405v72.4c76.2-44.3,127.4-126.9,127.4-221.4C511.4,114.6,396.8,0,255.4,0z"/>
</g>
</svg>
