<?xml version="1.0" encoding="utf-8"?>
<!-- Generator: Adobe Illustrator 18.0.0, SVG Export Plug-In . SVG Version: 6.00 Build 0)  -->
<!DOCTYPE svg PUBLIC "-//W3C//DTD SVG 1.1//EN" "http://www.w3.org/Graphics/SVG/1.1/DTD/svg11.dtd">
<svg version="1.1" id="图层_1" xmlns="http://www.w3.org/2000/svg" xmlns:xlink="http://www.w3.org/1999/xlink" x="0px" y="0px"
	 width="512px" height="512px" viewBox="0 0 512 512" enable-background="new 0 0 512 512" xml:space="preserve">
<g>
	<path d="M157.1,57.1c25.6,37.1,31.1,97.9,31.1,97.9l7.8,91.5l7.6,88.5c10.5-50.7,20.1-102.5,32.7-180h0.1
		c1.4-7,13.9-12.4,29.2-12.4c15.2,0,27.8,5.5,29.2,12.4h0.1c1,8,4.6,34.2,10,86.4l12.4,99.9c4.2-63.4,11.1-125.3,20.7-186.3h3.4
		h68.6h80.9C451.5,63.8,360.9,0,255.4,0c-44.3,0-86,11.3-122.3,31.1C140,36.3,148.4,44.4,157.1,57.1z"/>
	<path d="M405.7,189l-28.8,228h-92.5c-8.5-40-15.9-86.1-22.4-137.4c-3,22-9.8,68.4-20.7,137.4h-91.9l-33.1-262
		c0,0-20.1-32.4-80.1-31.3C12.9,162.3-0.6,207.6-0.6,256c0,141.4,114.6,256,256,256s256-114.6,256-256c0-23.2-3.1-45.6-8.9-67H405.7
		z"/>
</g>
</svg>
