<?xml version="1.0" encoding="utf-8"?>
<!-- Generator: Adobe Illustrator 18.0.0, SVG Export Plug-In . SVG Version: 6.00 Build 0)  -->
<!DOCTYPE svg PUBLIC "-//W3C//DTD SVG 1.1//EN" "http://www.w3.org/Graphics/SVG/1.1/DTD/svg11.dtd">
<svg version="1.1" id="图层_1" xmlns="http://www.w3.org/2000/svg" xmlns:xlink="http://www.w3.org/1999/xlink" x="0px" y="0px"
	 width="512px" height="512px" viewBox="0 0 512 512" enable-background="new 0 0 512 512" xml:space="preserve">
<g>
	<path d="M255.3,1.3C114.5,1.3,0,115.9,0,256.7S114.5,512,255.3,512s255.3-114.5,255.3-255.3S396.1,1.3,255.3,1.3z M255.3,474.2
		c-119.9,0-217.5-97.6-217.5-217.5S135.4,39.2,255.3,39.2s217.5,97.6,217.5,217.5S375.3,474.2,255.3,474.2z"/>
	<path d="M343.1,126.6l-7.7-2.2c-0.2-0.1-0.3-0.1-0.5-0.1l-34.4-8.2c-5.7-1.3-11.5,2.5-12.9,8.2c-0.2,0.8-0.3,1.8-0.3,2.8h0
		c0,12-14.7,21.3-32,21.3c-17.3,0-32-9.3-32-21.3h0c0-1-0.1-2-0.3-2.8c-1.4-5.7-7.1-9.4-12.9-8.1l-34.4,8.2c-0.2,0-0.3,0-0.5,0.1
		l-7.7,2.2c-8.8,1.7-50.9,16-56.2,132.6c-0.1,2.9,0.9,5.6,2.9,7.7c2,2.1,4.8,3.1,7.7,3.1h31v112.3c0,11.8,10.6,21.7,22.3,21.7h160
		c11.8,0,21.7-9.9,21.7-21.7V270h31.7c2.9,0,5.7-1,7.7-3.1c2-2.1,3.1-4.9,2.9-7.8C394,142.5,351.9,128.3,343.1,126.6z M357,250v-33
		c0-5.9-5.1-10.7-11-10.7c-5.9,0-11,4.8-11,10.7v165H175V217c0-5.9-5.1-10.7-11-10.7c-5.9,0-11,4.8-11,10.7v33h-19.7
		c6.6-94,38.1-101.9,38-101.9c0.6-0.1,1.1-0.4,1.7-0.6l8-2.5l23.5-5.7c6.9,17.2,27,29.7,50.8,29.7s44-12.5,50.8-29.8l23.5,5.6l8,2.3
		c0.6,0.2,0.7,0.7,1.2,0.8c0.3,0.1,31.9,8,38.5,102H357z"/>
</g>
</svg>
