<?xml version="1.0" encoding="utf-8"?>
<!-- Generator: Adobe Illustrator 18.0.0, SVG Export Plug-In . SVG Version: 6.00 Build 0)  -->
<!DOCTYPE svg PUBLIC "-//W3C//DTD SVG 1.1//EN" "http://www.w3.org/Graphics/SVG/1.1/DTD/svg11.dtd">
<svg version="1.1" id="图层_1" xmlns="http://www.w3.org/2000/svg" xmlns:xlink="http://www.w3.org/1999/xlink" x="0px" y="0px"
	 width="512px" height="512px" viewBox="0 0 512 512" enable-background="new 0 0 512 512" xml:space="preserve">
<g>
	<path d="M502.6,112.4c-12.2-34-35.7-60.6-66-74.9c-20.4-9.6-43.3-14.7-66.2-14.7c-46.8,0-90.5,20.8-114.7,53.8
		c-24.3-32.7-67.8-53.2-114.2-53.2c-22.9,0-45.8,5.1-66.2,14.7C44.8,52.3,21.4,78.9,9.1,113c-14,39-11.8,84.6,5.8,121.9
		c38.9,82.3,220.4,241.7,228.1,248.4c3.6,3.1,8,4.7,12.5,4.7c4.5,0,8.9-1.6,12.5-4.7c7.7-6.8,189.6-166.8,228.6-249.1
		C514.3,196.9,516.5,151.4,502.6,112.4z M462.4,218c-30.1,63.6-164.8,187.8-206.8,225.6c-41.9-37.7-176.2-161.4-206.3-225
		c-13.4-28.4-15.1-63.1-4.4-92.9c8.8-24.4,25.3-43.4,46.5-53.4c15.4-7.3,32.7-11.1,50-11.1c37.8,0,72.4,17.5,88.2,44.6l9.7,16.5
		c3.3,5.6,9.4,8.8,15.9,9c6.4,0.2,12.8-3.2,16.5-8.5c0.3-0.4,0.5-0.8,0.8-1.2l9.7-16.5c15.7-27,50.3-44.5,88.1-44.5
		c17.3,0,34.6,3.8,50,11.1c21.2,10,37.7,29,46.5,53.4C477.5,154.9,475.8,189.6,462.4,218z"/>
</g>
</svg>
