<?xml version="1.0" encoding="utf-8"?>
<!-- Generator: Adobe Illustrator 18.0.0, SVG Export Plug-In . SVG Version: 6.00 Build 0)  -->
<!DOCTYPE svg PUBLIC "-//W3C//DTD SVG 1.1//EN" "http://www.w3.org/Graphics/SVG/1.1/DTD/svg11.dtd">
<svg version="1.1" xmlns="http://www.w3.org/2000/svg" xmlns:xlink="http://www.w3.org/1999/xlink" x="0px" y="0px" width="512px"
	 height="512px" viewBox="0 0 512 512" enable-background="new 0 0 512 512" xml:space="preserve">
<g id="图层_1">
	<g>
		<path fill="#231815" d="M255.8,505.3c-66.6,0-129.3-26-176.4-73.1C32.3,385.1,6.3,322.5,6.3,255.8s26-129.3,73.1-176.4
			C126.5,32.3,189.2,6.3,255.8,6.3c66.6,0,129.3,26,176.4,73.1c47.1,47.1,73.1,109.8,73.1,176.4s-26,129.3-73.1,176.4
			C385.1,479.4,322.5,505.3,255.8,505.3z M255.7,42.7c-117.4,0-213,95.6-213,213s95.6,213,213,213c117.4,0,213-95.6,213-213
			S373.2,42.7,255.7,42.7z"/>
		<path fill="#231815" d="M255.8,6.8c33.6,0,66.2,6.6,96.9,19.6c29.7,12.5,56.3,30.5,79.1,53.4c22.9,22.9,40.8,49.5,53.4,79.1
			c13,30.7,19.6,63.3,19.6,96.9s-6.6,66.2-19.6,96.9c-12.5,29.7-30.5,56.3-53.4,79.1c-22.9,22.9-49.5,40.8-79.1,53.4
			c-30.7,13-63.3,19.6-96.9,19.6s-66.2-6.6-96.9-19.6c-29.7-12.5-56.3-30.5-79.1-53.4c-22.9-22.9-40.8-49.5-53.4-79.1
			c-13-30.7-19.6-63.3-19.6-96.9s6.6-66.2,19.6-96.9c12.5-29.7,30.5-56.3,53.4-79.1s49.5-40.8,79.1-53.4
			C189.6,13.4,222.2,6.8,255.8,6.8 M255.7,469.2c117.7,0,213.5-95.8,213.5-213.5S373.4,42.2,255.7,42.2S42.2,138,42.2,255.7
			S138,469.2,255.7,469.2 M255.8,5.8c-138.1,0-250,111.9-250,250s111.9,250,250,250s250-111.9,250-250S393.9,5.8,255.8,5.8
			L255.8,5.8z M255.7,468.2c-117.4,0-212.5-95.1-212.5-212.5S138.3,43.2,255.7,43.2s212.5,95.1,212.5,212.5S373.1,468.2,255.7,468.2
			L255.7,468.2z"/>
	</g>
	<path fill="#231815" stroke="#231815" stroke-miterlimit="10" d="M125.5,313c0,7.5-6,13.5-13.5,13.5h0c-7.5,0-13.5-6-13.5-13.5V185
		c0-7.5,6-13.5,13.5-13.5h0c7.5,0,13.5,6,13.5,13.5V313z"/>
	<g>
		<path fill="#231815" d="M141.1,232.2c-19.1,11-19.1,29,0,40l90.7,52.4c19.1,11,34.6,2,34.6-20V199.8c0-22-15.6-31-34.6-20
			L141.1,232.2z M251.5,280.6c0,22-15.6,31-34.6,20l-48.5-28c-19.1-11-19.1-29,0-40l48.5-28c19.1-11,34.6-2,34.6,20V280.6z"/>
		<path fill="none" stroke="#231815" stroke-miterlimit="10" d="M141.1,232.2c-19.1,11-19.1,29,0,40l90.7,52.4
			c19.1,11,34.6,2,34.6-20V199.8c0-22-15.6-31-34.6-20L141.1,232.2z M251.5,280.6c0,22-15.6,31-34.6,20l-48.5-28
			c-19.1-11-19.1-29,0-40l48.5-28c19.1-11,34.6-2,34.6,20V280.6z"/>
	</g>
	<g>
		<path fill="#231815" d="M281.9,232.2c-19.1,11-19.1,29,0,40l90.7,52.4c19.1,11,34.6,2,34.6-20V199.8c0-22-15.6-31-34.6-20
			L281.9,232.2z M392.2,280.6c0,22-15.6,31-34.6,20l-48.5-28c-19.1-11-19.1-29,0-40l48.5-28c19.1-11,34.6-2,34.6,20V280.6z"/>
		<path fill="none" stroke="#231815" stroke-miterlimit="10" d="M281.9,232.2c-19.1,11-19.1,29,0,40l90.7,52.4
			c19.1,11,34.6,2,34.6-20V199.8c0-22-15.6-31-34.6-20L281.9,232.2z M392.2,280.6c0,22-15.6,31-34.6,20l-48.5-28
			c-19.1-11-19.1-29,0-40l48.5-28c19.1-11,34.6-2,34.6,20V280.6z"/>
	</g>
</g>
<g id="图层_2">
</g>
</svg>
