<?xml version="1.0" encoding="utf-8"?>
<!-- Generator: Adobe Illustrator 18.0.0, SVG Export Plug-In . SVG Version: 6.00 Build 0)  -->
<!DOCTYPE svg PUBLIC "-//W3C//DTD SVG 1.1//EN" "http://www.w3.org/Graphics/SVG/1.1/DTD/svg11.dtd">
<svg version="1.1" id="图层_1" xmlns="http://www.w3.org/2000/svg" xmlns:xlink="http://www.w3.org/1999/xlink" x="0px" y="0px"
	 width="512px" height="512px" viewBox="0 0 512 512" enable-background="new 0 0 512 512" xml:space="preserve">
<g>
	<path d="M377.4,0H136.6C105.9,0,81,25.5,81,56.9v398.2c0,31.4,24.9,56.9,55.6,56.9h240.8c30.6,0,55.6-25.5,55.6-56.9V56.9
		C433,25.5,408.1,0,377.4,0z M118.1,94.8h277.9v284.4H118.1V94.8z M136.6,37.9h240.8c10.2,0,18.5,8.5,18.5,19v19H118.1v-19
		C118.1,46.4,126.4,37.9,136.6,37.9z M377.4,474.1H136.6c-10.2,0-18.5-8.5-18.5-19v-56.9h277.9v56.9
		C395.9,465.6,387.6,474.1,377.4,474.1z"/>
	<path d="M275.5,426.7h-37.1c-5.1,0-9.3,4.2-9.3,9.5c0,5.2,4.1,9.5,9.3,9.5h37.1c5.1,0,9.3-4.2,9.3-9.5
		C284.8,430.9,280.6,426.7,275.5,426.7z"/>
</g>
</svg>
