<?xml version="1.0" encoding="utf-8"?>
<!-- Generator: Adobe Illustrator 18.0.0, SVG Export Plug-In . SVG Version: 6.00 Build 0)  -->
<!DOCTYPE svg PUBLIC "-//W3C//DTD SVG 1.1//EN" "http://www.w3.org/Graphics/SVG/1.1/DTD/svg11.dtd">
<svg version="1.1" id="图层_1" xmlns="http://www.w3.org/2000/svg" xmlns:xlink="http://www.w3.org/1999/xlink" x="0px" y="0px"
	 viewBox="0 0 512 512" enable-background="new 0 0 512 512" xml:space="preserve">
<g>
	<path fill="#231815" d="M466.5,143H417V60.8c0-24.6-20.1-44.8-45.2-44.8h-233C113.7,16,93,36.2,93,60.8V143H45.5
		C20.4,143,0,163.2,0,187.8v130.5C0,342.9,20.4,363,45.5,363h87.3L120,451.5v1c0,24.1,20.1,43.4,45.2,43.4H380
		c25.1,0,45-19.4,45-43.4v-1.8L403.2,363h63.3c25.1,0,45.5-20.1,45.5-44.7V187.8C512,163.2,491.6,143,466.5,143z M122,60.8
		c0-8.8,7.5-15.8,16.8-15.8h233c9.4,0,17.2,6.9,17.2,15.8V143H122V60.8z M379.9,287c-13.7-20-34.7-19.7-46.1-19.7
		c-0.8,0-1.6-0.3-2.4-0.3H194c-14.7,0-31,6-41.9,20h-48.1c-9.3,0-16.9-7.6-16.9-16.5v-15.7c0-8.9,7.6-15.9,16.9-15.9h317.9
		c9.3,0,17.1,7,17.1,15.9v15.7c0,8.8-7.8,16.5-17.1,16.5H379.9z M380,468H165.2c-9,0-16.4-6.5-16.9-14.4L168,319.7
		c2.3-17.5,15.5-23.7,26-23.7h137.4c0.8,0,1.6-0.2,2.4-0.2c15.3,0,23.5,0.8,28.2,20.2l35,138.2C396.1,461.9,388.8,468,380,468z
		 M483,318.3c0,8.8-7.2,15.7-16.5,15.7H396l-4.9-19h30.8c25,0,45.1-19.9,45.1-44.5v-15.7c0-24.6-20.1-44.9-45.1-44.9H103.9
		c-25,0-44.9,20.3-44.9,44.9v15.7c0,24.6,19.9,44.5,44.9,44.5h35.9c0,0-0.1,0.2-0.1,0.4L137,334H45.5c-9.4,0-17.5-6.8-17.5-15.7
		V187.8c0-8.9,8.1-15.8,17.5-15.8h47.9h14.2H403h14.2h49.2c9.4,0,16.5,7,16.5,15.8V318.3z"/>
	<g>
		<path fill="#231815" d="M351,316H180v28h171V316z"/>
		<path fill="#231815" d="M359,357H175v29h184V357z"/>
		<path fill="#231815" d="M162,404v28h215v-28H162z"/>
	</g>
</g>
</svg>
