<?xml version="1.0" encoding="utf-8"?>
<!-- Generator: Adobe Illustrator 18.0.0, SVG Export Plug-In . SVG Version: 6.00 Build 0)  -->
<!DOCTYPE svg PUBLIC "-//W3C//DTD SVG 1.1//EN" "http://www.w3.org/Graphics/SVG/1.1/DTD/svg11.dtd">
<svg version="1.1" id="图层_1" xmlns="http://www.w3.org/2000/svg" xmlns:xlink="http://www.w3.org/1999/xlink" x="0px" y="0px"
	 width="512px" height="512px" viewBox="0 0 512 512" enable-background="new 0 0 512 512" xml:space="preserve">
<g>
	<path d="M449.9,217.5l-61.1,41v-90.4c0-5.3-4.2-9.6-9.5-9.6H132.7c-5.2,0-9.5,4.3-9.5,9.6v90.4l-61.1-41
		c-4.4-2.9-10.3-1.7-13.1,2.6c-2.9,4.4-1.7,10.3,2.6,13.2l167.6,112.5c10.3,6.9,23.6,10.4,36.8,10.4c13.2,0,26.5-3.5,36.8-10.4
		l167.6-112.5c4.4-2.9,5.5-8.9,2.6-13.2C460.1,215.7,454.2,214.5,449.9,217.5z M282.3,330c-14.3,9.6-38.3,9.6-52.6,0l-87.5-58.8
		v-93.6h227.6v93.6L282.3,330z"/>
	<path d="M494.3,166.4L297.6,14C286.3,5.3,271.5,0.5,256,0.5c-15.5,0-30.3,4.8-41.6,13.6L17.6,166.5C7.4,174.4,0,189.9,0,203.4
		v251.1C0,486.2,25.5,512,56.9,512h398.2c31.4,0,56.9-25.8,56.9-57.5V203.4C512,189.9,504.6,174.4,494.3,166.4z M474.1,454.5
		c0,10.5-8.7,19.3-19,19.3H56.9c-10.3,0-19-8.8-19-19.3V203.4c0-1.7,1.7-5.5,2.8-6.5L237.5,44.3c4.6-3.6,11.4-5.6,18.5-5.6
		c7.1,0,13.9,2.1,18.5,5.6l196.6,152.3c1.3,1.2,3,5,3,6.7V454.5z"/>
	<path d="M189.6,225.4h132.7c5.2,0,9.5-4.3,9.5-9.6c0-5.3-4.2-9.6-9.5-9.6H189.6c-5.2,0-9.5,4.3-9.5,9.6
		C180.1,221.1,184.4,225.4,189.6,225.4z"/>
	<path d="M322.4,244.5H189.6c-5.2,0-9.5,4.3-9.5,9.6s4.2,9.6,9.5,9.6h132.7c5.2,0,9.5-4.3,9.5-9.6S327.6,244.5,322.4,244.5z"/>
</g>
</svg>
