<?xml version="1.0" encoding="utf-8"?>
<!-- Generator: Adobe Illustrator 18.0.0, SVG Export Plug-In . SVG Version: 6.00 Build 0)  -->
<!DOCTYPE svg PUBLIC "-//W3C//DTD SVG 1.1//EN" "http://www.w3.org/Graphics/SVG/1.1/DTD/svg11.dtd">
<svg version="1.1" id="图层_1" xmlns="http://www.w3.org/2000/svg" xmlns:xlink="http://www.w3.org/1999/xlink" x="0px" y="0px"
	 viewBox="0 0 512 512" enable-background="new 0 0 512 512" xml:space="preserve">
<path fill-rule="evenodd" clip-rule="evenodd" fill="#231815" d="M185.7,335.3c10.4,33.5,132,10.2,142.7,21.7c0,0-30,29.5,1.5,49.2
	c0,0-30,21.4-2.3,44c0,0-28.5,17.4,3.5,36.9c0,0,146.9,72.1,181-29.5V335.9c-1-1-1.8-1.8-1.8-1.8l-57.7-56.8
	c0,0-15.1-28.7-35.6-91.4c0,0-21-41.3-39,1.4c-18,42.7,10.7,124,10.7,124l-152.3-8.6C236.3,302.8,175.9,303.7,185.7,335.3z"/>
<path fill-rule="evenodd" clip-rule="evenodd" fill="#231815" d="M323.2,173.5c-10.3-32.9-130.8-10-141.3-21.3
	c0,0,29.7-28.9-1.4-48.3c0,0,29.8-21,2.3-43.2c0,0,28.3-17.1-3.4-36.3c0,0-145.3-70.8-179.3,28.9V173c0.9,1,1.7,1.7,1.7,1.7
	l57.1,55.8c0,0,14.9,28.2,35.3,89.7c0,0,20.8,40.6,38.7-1.4c17.9-42-10.6-121.8-10.6-121.8l150.9,8.4
	C273.1,205.4,332.9,204.6,323.2,173.5z"/>
</svg>
