<?xml version="1.0" encoding="utf-8"?>
<!-- Generator: Adobe Illustrator 16.0.0, SVG Export Plug-In . SVG Version: 6.00 Build 0)  -->
<!DOCTYPE svg PUBLIC "-//W3C//DTD SVG 1.1//EN" "http://www.w3.org/Graphics/SVG/1.1/DTD/svg11.dtd">
<svg version="1.1" id="图层_1" xmlns="http://www.w3.org/2000/svg" xmlns:xlink="http://www.w3.org/1999/xlink" x="0px" y="0px"
	 width="512px" height="512px" viewBox="0 0 512 512" enable-background="new 0 0 512 512" xml:space="preserve">
<path d="M513.8,256.5c0,11-9,20-20,20h-472c-11,0-20-9-20-20l0,0c0-11,9-20,20-20h472C504.8,236.5,513.8,245.5,513.8,256.5
	L513.8,256.5z"/>
<g>
	<g>
		<path d="M472.8,125.5v19h41v-44c0-55.2-44.8-100-100-100h-56v41h31C435.1,41.5,472.8,79.1,472.8,125.5z"/>
		<path d="M472.8,344.5v43c0,46.4-37.6,84-84,84h-31v41h56c55.2,0,100-44.8,100-100v-68H472.8z"/>
	</g>
	<g>
		<path d="M42.8,144.5v-19c0-46.4,37.6-84,84-84h31v-41h-56c-55.2,0-100,44.8-100,100v44H42.8z"/>
		<path d="M42.8,387.5v-43h-41v68c0,55.2,44.8,100,100,100h56v-41h-31C80.4,471.5,42.8,433.9,42.8,387.5z"/>
	</g>
</g>
</svg>
