<?xml version="1.0" encoding="utf-8"?>
<!-- Generator: Adobe Illustrator 18.0.0, SVG Export Plug-In . SVG Version: 6.00 Build 0)  -->
<!DOCTYPE svg PUBLIC "-//W3C//DTD SVG 1.1//EN" "http://www.w3.org/Graphics/SVG/1.1/DTD/svg11.dtd">
<svg version="1.1" id="图层_1" xmlns="http://www.w3.org/2000/svg" xmlns:xlink="http://www.w3.org/1999/xlink" x="0px" y="0px"
	 width="512px" height="512px" viewBox="0 0 512 512" enable-background="new 0 0 512 512" xml:space="preserve">
<path d="M191.6,125.3C86.8,125.3,0.8,200.6,0,293.2c-0.5,57,20.3,98,67.2,132.8c-0.1,12.7-6.7,32.4-33.4,58.9l-1.9,1.9
	c-4.2,4.4-5.3,11-2.8,16.6c2.3,5.3,7.4,8.6,12.8,8.6c0.4,0,0.7,0,1.1,0c57.5-4.7,115.7-50.7,120.7-54.7l2.9,0.5
	c10.4,1.9,19.4,3.5,24.9,3.5h0c105.6,0,191.6-75.4,191.6-168S297.2,125.3,191.6,125.3z M191.4,431.8c-3.2,0-15.2-2.2-19.7-3.1
	l-4.3-0.8c-10.7-1.9-19.7,4.8-21.1,6c-0.4,0.3-29.9,24.1-65.4,38.3c11.3-18.5,16.1-36.5,14.2-53.8c-0.1-1.2-0.4-2.4-0.8-3.5
	c-0.5-1.4-1.7-4.8-7.7-10.7c-0.5-0.5-1-0.9-1.6-1.3c-40.2-29.3-57.2-62-56.8-109.5C29,217,102.2,154.8,191.6,154.8
	c90,0,163.3,62.1,163.3,138.5S281.6,431.8,191.4,431.8z"/>
<path d="M505.1,21.9c-0.3-0.1-0.6-0.2-0.8-0.3c-44.4-14.3-102.1,2-107,3.4l-2-1.3C388,19,381.8,15,377.7,13.3l0,0
	c-78.9-32.7-166.4-3.1-195.1,66.1c-3,7.3-5.3,14.7-6.8,22.2c0,0,81.4-14.7,131.2,12.8c36.5,20.2,45.9,24,74.6,67.8
	c25.2,38.6,23.4,80.7,23.4,80.7c28.2-13.3,51.1-35.5,63.5-64.7c18-42.4,15.3-79.5-9-120c4.1-9.5,15-22.1,43.2-33.7l2-0.8
	c4.5-2,7.4-6.6,7.3-11.5C511.9,27.6,509.2,23.6,505.1,21.9z M436.4,75.2c-0.3,0.9-0.4,1.9-0.5,2.9c-0.1,1.2-0.2,4.1,2.4,10.4
	c0.2,0.5,0.5,1,0.8,1.5c21,34.3,23.5,64,8.5,99.4c-5.1,12.1-12.5,22.7-21.6,31.6c-2.8-16.6-10-42.1-28.2-66.2
	c-31.8-42.1-75.5-69-112.6-74.8c-38.8-6-61.9-5.6-75.8-3.1C237.6,28.1,306,9.4,368.7,35.4c2.4,1,10.7,6.4,13.8,8.4l2.9,1.9
	c7.4,4.7,16.2,2.5,17.6,2.1c0.4-0.1,29.8-8.7,60.7-8.4C449.5,49.8,440.4,61.7,436.4,75.2z"/>
<path d="M320,306.3c0,19.3-15.7,34.7-35,34.7s-35-15.7-35-35s15.7-35,35-35S320,287,320,306.3z"/>
<path d="M228.5,306.3c0,19.3-15.7,34.7-35,34.7s-35-15.7-35-35s15.7-35,35-35S228.5,287,228.5,306.3z"/>
<path d="M137,306.3c0,19.3-15.7,34.7-35,34.7s-35-15.7-35-35s15.7-35,35-35S137,287,137,306.3z"/>
</svg>
