<?xml version="1.0" encoding="utf-8"?>
<!-- Generator: Adobe Illustrator 18.0.0, SVG Export Plug-In . SVG Version: 6.00 Build 0)  -->
<!DOCTYPE svg PUBLIC "-//W3C//DTD SVG 1.1//EN" "http://www.w3.org/Graphics/SVG/1.1/DTD/svg11.dtd">
<svg version="1.1" id="图层_1" xmlns="http://www.w3.org/2000/svg" xmlns:xlink="http://www.w3.org/1999/xlink" x="0px" y="0px"
	 width="512px" height="512px" viewBox="0 0 512 512" enable-background="new 0 0 512 512" xml:space="preserve">
<g>
	<path d="M362.7,85h-165c-95.7,0-94.9,16-95.7,48c0.8,0,200.8,1,200.8,1c68.2,0,86.2,7.1,83.2,49.8c0,0-1,70.3-1,70.6
		c38.1-1,48-20.8,48-52.4v-58.3C433,111.6,401.3,85,362.7,85z"/>
	<path d="M266.8,169H80.1C35.7,169,0,204.2,0,246.6v77.5c0,2.6,0.4,5.9,0.4,8.9H0l0.8,4c1.5,5.3,2.6,10.9,5,16.3L52,512l32.4-111
		h182.4c44.2,0,79.2-34.5,79.2-76.9v-77.5C346,196.2,346.7,173,266.8,169z M299.9,304.5c-4.6,45.7-17.2,48.5-36.8,46.5H83.4
		l-23.8,38.5l-22-122.4c0-19.2,19.8-46.1,39.8-46.1h181.6c20,0,41.9,14.3,41.9,33.5L299.9,304.5z"/>
	<path d="M441.7,0h-79C275-0.7,267.8,16,267,48c0.8,0,114.8,1,114.8,1C450,49,468,56.1,465,98.8c0,0-1,70.3-1,70.6
		c38.1-1,48-20.8,48-52.4V58.7C512,26.6,480.3,0,441.7,0z"/>
</g>
</svg>
