<?xml version="1.0" encoding="utf-8"?>
<!-- Generator: Adobe Illustrator 18.0.0, SVG Export Plug-In . SVG Version: 6.00 Build 0)  -->
<!DOCTYPE svg PUBLIC "-//W3C//DTD SVG 1.1//EN" "http://www.w3.org/Graphics/SVG/1.1/DTD/svg11.dtd">
<svg version="1.1" id="图层_1" xmlns="http://www.w3.org/2000/svg" xmlns:xlink="http://www.w3.org/1999/xlink" x="0px" y="0px"
	 width="512px" height="512px" viewBox="0 0 512 512" enable-background="new 0 0 512 512" xml:space="preserve">
<g>
	<path d="M512.2,415.6c-1.7-11.9-8.9-22.1-21.8-31l-108.7-75.3c-7.3-5-15.7-7.7-24.5-7.7c-13.7,0-26.5,6.6-34.5,17.7l-28.2,40.4
		c-1.5,2.2-2.6,4.5-3.3,6.8c-11.9-1-38.3-8.6-77.9-48.6c-53.1-53.7-66.2-81.8-67.4-96.2c1.6-0.8,3.2-1.7,4.6-2.9l38.9-29.8
		c18.2-13.9,21.9-40.8,8.1-60L119.6,21.4c-18.3-25.2-42.8-28.2-66-8C40.7,24.5,20.1,50.5,11.4,66.6c-5.2,9.2-7.5,19.2-7,29
		C1.2,109.7-4.4,146.1,6,195.7c14.6,69.5,54,136,116.9,197.7C223.1,491.4,311.4,512,367.8,512c24.7,0,43.9-4.2,55-8.5
		c9-0.1,17.9-2.8,26.4-7.9c15.5-9.3,40.9-31.4,51.3-44.5C509.9,439.2,513.9,427.2,512.2,415.6z M44.8,85.4
		c6.5-11.9,24.5-34.7,33.8-42.7c2.8-2.4,4.6-3.4,5.4-3.7c0.8,0.5,2.4,1.9,4.8,5.3l77.8,107.4c1.6,2.3,1.2,5.2-0.2,6.4l-37.2,28.5
		c-0.6,0.1-1.3,0.3-1.9,0.4c-0.4,0.1-0.7,0.2-1.1,0.2c-8.8-6-77.7-85.4-80.9-90.3c-0.7-1.1-1.6-1.9-2.5-2.6c0-0.1,0-0.2,0-0.2
		C42.3,91.5,42.9,88.7,44.8,85.4z M367.8,473.3c-40.4,0-122.5-14-218.3-107.7C39.4,257.7,35.1,160.1,39.2,120
		c20.4,24.4,64.9,75.3,71.6,80.1c-12.6,34.9,10.7,79.7,75.4,145.1c76.2,77.1,121.9,60.1,131.1,55.3c14.4,15.3,66.5,68.3,72.1,71.4
		C383.4,472.7,376.2,473.3,367.8,473.3z M470.6,426.9c-7.6,9.7-29.4,28.6-41,35.5c-2.7,1.6-4.9,2.3-8.2,2.4c-0.1,0-0.1,0-0.2,0
		c-13.4-4.8-88.1-74.8-92.5-80.3c-0.3-0.4-0.6-0.7-0.9-1c0.1-1.2,0.1-2.5,0.1-3.9c0-0.3,0-0.5,0-0.8l25.9-37c1.1-1.6,4.2-2,6.2-0.6
		l108.7,75.3c3.4,2.3,4.8,4,5.4,4.7C473.8,422.1,473,423.9,470.6,426.9z"/>
	<path d="M245.4,111.5c74,22.9,131.9,81.1,154.8,155.9c1.3,4.1,5.1,6.8,9.1,6.8c0.9,0,1.9-0.1,2.8-0.4c5-1.6,7.9-7,6.3-12.1
		C393.6,180.8,331,117.7,250.9,93c-5.1-1.6-10.4,1.3-11.9,6.4C237.5,104.5,240.3,110,245.4,111.5z"/>
	<path d="M258.5,39.8c110.9,26.5,195.7,117,216,230.4c0.8,4.7,4.9,7.9,9.4,7.9c0.6,0,1.1,0,1.7-0.2c5.2-1,8.6-6,7.7-11.3
		C471.7,145.7,381.2,49.3,262.9,21c-5.1-1.2-10.3,2-11.5,7.2C250.2,33.4,253.3,38.6,258.5,39.8z"/>
</g>
</svg>
