<?xml version="1.0" encoding="utf-8"?>
<!-- Generator: Adobe Illustrator 18.0.0, SVG Export Plug-In . SVG Version: 6.00 Build 0)  -->
<!DOCTYPE svg PUBLIC "-//W3C//DTD SVG 1.1//EN" "http://www.w3.org/Graphics/SVG/1.1/DTD/svg11.dtd">
<svg version="1.1" id="图层_1" xmlns="http://www.w3.org/2000/svg" xmlns:xlink="http://www.w3.org/1999/xlink" x="0px" y="0px"
	 viewBox="0 0 512 512" enable-background="new 0 0 512 512" xml:space="preserve">
<path fill="#231815" d="M284,38.3V0h-58v38.4C109,52.7,17.1,153.2,17.1,274.6c0,131.3,106.9,238,238.1,238
	c131.3,0,238.1-106.8,238.1-238C493.3,153.1,401,52.5,284,38.3z M255.4,479.7c-113.1,0-205.1-92-205.1-205.1s92-205.1,205.1-205.1
	s205.1,92,205.1,205.1S368.5,479.7,255.4,479.7z"/>
<path fill="#231815" d="M360.1,144.9l-130.7,97.8l-4.6,3.4l-9.4,13.5l-91.5,116.5L112.9,412l38.5-7.7l130.2-96.1l14.6-18.7
	l91.5-116.4l9.5-32.1L360.1,144.9z M277.4,281.3L249,252.9l123-92L277.4,281.3z"/>
</svg>
