<?xml version="1.0" encoding="utf-8"?>
<!-- Generator: Adobe Illustrator 18.0.0, SVG Export Plug-In . SVG Version: 6.00 Build 0)  -->
<!DOCTYPE svg PUBLIC "-//W3C//DTD SVG 1.1//EN" "http://www.w3.org/Graphics/SVG/1.1/DTD/svg11.dtd">
<svg version="1.1" id="图层_1" xmlns="http://www.w3.org/2000/svg" xmlns:xlink="http://www.w3.org/1999/xlink" x="0px" y="0px"
	 width="512px" height="512px" viewBox="0 0 512 512" enable-background="new 0 0 512 512" xml:space="preserve">
<path d="M452.4,200.3c-9,0-17.4,1.9-25.1,5.3c-9.3-19.8-30.2-33.7-54.4-33.7c-12.8,0-24.6,3.9-34.3,10.4
	c-10.9-12.1-27.4-19.8-45.5-19.8c-7,0-13.2,1.2-20.2,3.3V58.7C273,27.4,246.9,2,214,2c-32.9,0-59,25.4-59,56.7v231l-56.9-49.3
	c-23.9-20.8-60.6-21.4-81.7-1.4c-20.9,19.9-21.9,54.3-2.1,78.4l90.2,110.4c14.2,17.3,39.8,42.6,57.1,56.3c19.8,15.7,55.9,28,82.2,28
	h36.6h3.2h148.9c43.8,0,79.5-38.1,79.5-85v-75.6V342v-85C512,225.8,485.2,200.3,452.4,200.3z M472,342v9.4V427c0,25.6-18,47-39.5,47
	h-40.3h-19.3c-0.9,0-1.8,0.1-2.7,0.3c0-0.1-0.1-0.3-0.1-0.3h-62.8h-21h-2.9h-14.4h-12.2h-13.1c-17.3,0-43.9-8.9-56.8-19.1
	c-15.3-12.1-38.7-35.2-51.2-50.5L45.5,294.1c-7.8-9.5-7.1-22.9-1.2-28.5c6.1-5.8,18.8-4.6,26.9,2.5l83.7,72.8v1.1
	c0,10.4,8.5,18.9,19.5,18.9c11,0,19.5-8.5,19.5-18.9V58.7c0-10.4,8.5-18.9,19.5-18.9S233,48.2,233,58.7v160.6v28.3v28.3
	c0,10.4,9,18.9,20,18.9c11,0,20-8.5,20-18.9v-28.3v-28.3c0-10.4,9-18.9,20-18.9s20,8.5,20,18.9v9.4V257v28.3c0,10.4,9,18.9,20,18.9
	c11,0,20-8.5,20-18.9V257v-28.3c0-10.4,9-18.9,20-18.9s20,8.5,20,18.9V257v18.9v18.9c0,10.4,8.5,18.9,19.5,18.9
	c11,0,19.5-8.5,19.5-18.9v-18.9V257c0-10.4,9-18.9,20-18.9c11,0,20,8.5,20,18.9V342z"/>
</svg>
