<?xml version="1.0" encoding="utf-8"?>
<!-- Generator: Adobe Illustrator 16.0.0, SVG Export Plug-In . SVG Version: 6.00 Build 0)  -->
<!DOCTYPE svg PUBLIC "-//W3C//DTD SVG 1.1//EN" "http://www.w3.org/Graphics/SVG/1.1/DTD/svg11.dtd">
<svg version="1.1" id="图层_1" xmlns="http://www.w3.org/2000/svg" xmlns:xlink="http://www.w3.org/1999/xlink" x="0px" y="0px"
	 width="512px" height="512px" viewBox="0 0 512 512" enable-background="new 0 0 512 512" xml:space="preserve">
<path d="M392,292.3H264v-51c1.5-0.9,3-1.9,4.3-3.2l99.9-99.9c7.8-7.8,7.8-20.7,0-28.5L268.3,9.9c-7.9-7.9-20.7-7.9-28.6,0
	l-99.9,99.9c-7.8,7.8-7.8,20.7,0,28.5l99.9,99.9c1.3,1.3,2.7,2.4,4.3,3.2v51h-128c-6.6,0-12,5.8-12,12.8v44.4c0,7,5.4,12.8,12,12.8
	h128v120.9c-25.6,1.2-45,7.1-45,14.3c0,3.1,3.7,6,10.1,8.4c4.9,3.5,23.1,6.1,44.9,6.1c0,0,0,0,0,0l0,0c0,0,0,0,0,0
	c21.8,0,40.1-2.6,44.9-6.1c6.3-2.4,10.1-5.2,10.1-8.4c0-7.1-19.4-13-45-14.3v-121h128c6.6,0,12-5.8,12-12.8v-44.4
	C404,298.1,398.5,292.3,392,292.3z"/>
</svg>
