<?xml version="1.0" encoding="utf-8"?>
<!-- Generator: Adobe Illustrator 18.0.0, SVG Export Plug-In . SVG Version: 6.00 Build 0)  -->
<!DOCTYPE svg PUBLIC "-//W3C//DTD SVG 1.1//EN" "http://www.w3.org/Graphics/SVG/1.1/DTD/svg11.dtd">
<svg version="1.1" id="图层_1" xmlns="http://www.w3.org/2000/svg" xmlns:xlink="http://www.w3.org/1999/xlink" x="0px" y="0px"
	 width="512px" height="512px" viewBox="0 0 512 512" enable-background="new 0 0 512 512" xml:space="preserve">
<path d="M163.5,120.2L129,92.9L238.8,6.1c4.8-3.8,11-5.6,17.2-5.6c6.2,0,12.5,1.9,17.2,5.6l109.7,86.8l-34.5,27.3l-68.1-53.8v281.3
	c0,10.6-10.9,19.3-24.4,19.3c-13.5,0-24.4-8.6-24.4-19.3V66.3L163.5,120.2z"/>
<path d="M472,162h-89v0.3c-5.1,1.5-9,8.6-9,17.2s3.9,15.7,9,17.2v0.3h52c18.8,0,34,15.2,34,34v212c0,18.8-15.2,34-34,34H77
	c-18.8,0-34-15.2-34-34V231c0-18.8,15.2-34,34-34h52v-0.1c5.6-0.8,10-8.3,10-17.4s-4.4-16.6-10-17.4V162H40c-22.1,0-40,17.9-40,40
	v270c0,22.1,17.9,40,40,40h432c22.1,0,40-17.9,40-40V202C512,179.9,494.1,162,472,162z"/>
</svg>
