<?xml version="1.0" encoding="utf-8"?>
<!-- Generator: Adobe Illustrator 18.0.0, SVG Export Plug-In . SVG Version: 6.00 Build 0)  -->
<!DOCTYPE svg PUBLIC "-//W3C//DTD SVG 1.1//EN" "http://www.w3.org/Graphics/SVG/1.1/DTD/svg11.dtd">
<svg version="1.1" id="图层_1" xmlns="http://www.w3.org/2000/svg" xmlns:xlink="http://www.w3.org/1999/xlink" x="0px" y="0px"
	 viewBox="0 0 512 512" enable-background="new 0 0 512 512" xml:space="preserve">
<g>
	<path fill="#231815" d="M255.8,0C114.5,0-0.2,114.6-0.2,256s114.6,256,256,256s256-114.6,256-256S397.2,0,255.8,0z M356.6,317
		l-130.4,75.2c-10.8,6.2-23.2,9.5-35.7,9.5c-12.4,0-25.3-3.3-36-9.5c-21.8-12.6-36.5-36.1-36.5-61.3V181c0-25.2,14.6-48.6,36.5-61.2
		c10.7-6.2,23.9-9.5,36.3-9.5c12.4,0,24.7,3.3,35.5,9.5l130.5,75.3c21.7,12.5,35.2,35.9,35.2,61C391.9,281.1,378.3,304.5,356.6,317z
		"/>
</g>
</svg>
