<?xml version="1.0" encoding="utf-8"?>
<!-- Generator: Adobe Illustrator 18.0.0, SVG Export Plug-In . SVG Version: 6.00 Build 0)  -->
<!DOCTYPE svg PUBLIC "-//W3C//DTD SVG 1.1//EN" "http://www.w3.org/Graphics/SVG/1.1/DTD/svg11.dtd">
<svg version="1.1" id="图层_1" xmlns="http://www.w3.org/2000/svg" xmlns:xlink="http://www.w3.org/1999/xlink" x="0px" y="0px"
	 width="512px" height="512px" viewBox="0 0 512 512" enable-background="new 0 0 512 512" xml:space="preserve">
<g>
	<path fill-rule="evenodd" clip-rule="evenodd" d="M255.3,1.3C114.5,1.3,0,115.9,0,256.7S114.5,512,255.3,512
		s255.3-114.5,255.3-255.3S396.1,1.3,255.3,1.3z M255.3,474.2c-119.9,0-217.5-97.6-217.5-217.5S135.4,39.2,255.3,39.2
		s217.5,97.6,217.5,217.5S375.3,474.2,255.3,474.2z"/>
	<path fill-rule="evenodd" clip-rule="evenodd" d="M218.5,122.5l-1,0.3c-3.9-3.1-9.7-5.1-16.1-5.1c-11.7,0-21.1,6.7-21.1,14.8
		c0,0.3,0,0.7,0.1,1l-0.1,0l1.7,249.5l0,0c0,0,0,0,0,0c0.1,8.1,9.6,14.7,21.3,14.7c7,0,13.1-2.4,16.9-6c0,0,160.2-129.7,160.1-135.1
		C380.3,253.3,218.5,122.5,218.5,122.5z"/>
</g>
</svg>
