<?xml version="1.0" encoding="utf-8"?>
<!-- Generator: Adobe Illustrator 18.0.0, SVG Export Plug-In . SVG Version: 6.00 Build 0)  -->
<!DOCTYPE svg PUBLIC "-//W3C//DTD SVG 1.1//EN" "http://www.w3.org/Graphics/SVG/1.1/DTD/svg11.dtd">
<svg version="1.1" xmlns="http://www.w3.org/2000/svg" xmlns:xlink="http://www.w3.org/1999/xlink" x="0px" y="0px" width="512px"
	 height="512px" viewBox="0 0 512 512" enable-background="new 0 0 512 512" xml:space="preserve">
<g id="图层_1">
</g>
<g id="图层_2">
	<g>
		<path fill="#231815" d="M256.3,510.9c-67.9,0-131.8-26.4-179.8-74.5c-48-48-74.5-111.9-74.5-179.8c0-67.9,26.4-131.8,74.5-179.8
			c48-48,111.9-74.5,179.8-74.5c67.9,0,131.8,26.4,179.8,74.5c48,48,74.5,111.9,74.5,179.8c0,67.9-26.4,131.8-74.5,179.8
			C388.1,484.5,324.3,510.9,256.3,510.9z M177.4,148.3c-13.9,0-22.9,10.6-22.9,27.1v150c0,16.5,9,27.1,22.9,27.1
			c4.5,0,9.2-1.1,14.1-3.4l177.3-81.6c9.9-4.5,15.3-10.6,15.3-17.2s-5.4-12.6-15.3-17.2l-177.3-81.6
			C186.7,149.4,181.9,148.3,177.4,148.3z"/>
		<path fill="#231815" d="M256.3,2.9c34.3,0,67.5,6.7,98.8,19.9c30.2,12.8,57.4,31.1,80.7,54.4c23.3,23.3,41.6,50.4,54.4,80.7
			c13.2,31.3,19.9,64.5,19.9,98.8s-6.7,67.5-19.9,98.8c-12.8,30.2-31.1,57.4-54.4,80.7c-23.3,23.3-50.4,41.6-80.7,54.4
			c-31.3,13.2-64.5,19.9-98.8,19.9s-67.5-6.7-98.8-19.9c-30.2-12.8-57.4-31.1-80.7-54.4c-23.3-23.3-41.6-50.4-54.4-80.7
			C9.3,324.1,2.6,290.9,2.6,256.7s6.7-67.5,19.9-98.8c12.8-30.2,31.1-57.4,54.4-80.7c23.3-23.3,50.4-41.6,80.7-54.4
			C188.9,9.6,222.1,2.9,256.3,2.9 M177.4,353c4.6,0,9.4-1.2,14.3-3.4L369.1,268c10-4.6,15.6-10.9,15.6-17.6c0-6.7-5.5-13-15.6-17.6
			l-177.3-81.6c-4.9-2.3-9.8-3.4-14.3-3.4c-14,0-23.4,11.1-23.4,27.6v150C154,341.9,163.4,353,177.4,353 M256.3,1.9
			C115.6,1.9,1.6,116,1.6,256.7s114.1,254.8,254.8,254.8s254.8-114.1,254.8-254.8S397,1.9,256.3,1.9L256.3,1.9z M177.4,352
			c-13.1,0-22.4-10-22.4-26.6v-150c0-16.6,9.3-26.6,22.4-26.6c4.3,0,9,1.1,13.9,3.3l177.3,81.6c20,9.2,20,24.2,0,33.4l-177.3,81.6
			C186.4,350.9,181.7,352,177.4,352L177.4,352z"/>
	</g>
</g>
</svg>
