<?xml version="1.0" encoding="utf-8"?>
<!-- Generator: Adobe Illustrator 18.0.0, SVG Export Plug-In . SVG Version: 6.00 Build 0)  -->
<!DOCTYPE svg PUBLIC "-//W3C//DTD SVG 1.1//EN" "http://www.w3.org/Graphics/SVG/1.1/DTD/svg11.dtd">
<svg version="1.1" xmlns="http://www.w3.org/2000/svg" xmlns:xlink="http://www.w3.org/1999/xlink" x="0px" y="0px" width="512px"
	 height="512px" viewBox="0 0 512 512" enable-background="new 0 0 512 512" xml:space="preserve">
<g id="图层_1">
	<g>
		<path fill="#231815" d="M256.3,36.9c29.7,0,58.5,5.8,85.5,17.3c26.2,11.1,49.7,26.9,69.9,47.1s36,43.7,47.1,69.9
			c11.4,27.1,17.3,55.8,17.3,85.5s-5.8,58.5-17.3,85.5c-11.1,26.2-26.9,49.7-47.1,69.9s-43.7,36-69.9,47.1
			c-27.1,11.4-55.8,17.3-85.5,17.3s-58.5-5.8-85.5-17.3c-26.2-11.1-49.7-26.9-69.9-47.1s-36-43.7-47.1-69.9
			c-11.4-27.1-17.3-55.8-17.3-85.5s5.8-58.5,17.3-85.5c11.1-26.2,26.9-49.7,47.1-69.9s43.7-36,69.9-47.1
			C197.9,42.7,226.7,36.9,256.3,36.9 M256.3,1.9C115.6,1.9,1.6,116,1.6,256.7s114.1,254.8,254.8,254.8s254.8-114.1,254.8-254.8
			S397,1.9,256.3,1.9L256.3,1.9z"/>
	</g>
</g>
<g id="图层_2">
	<g>
		<path fill="#231815" d="M174.6,147.1c3.8,0,7.9,0.9,12.2,2.9l186.4,85.7c17.5,8,17.5,21.2,0,29.3l-186.4,85.7
			c-4.3,2-8.4,2.9-12.2,2.9c-11.5,0-19.6-8.8-19.6-23.3v-160C155,155.9,163.1,147.1,174.6,147.1 M174.6,127
			C174.6,127,174.6,127,174.6,127c-11.5,0-21.9,4.7-29.2,13.2c-6.8,7.8-10.4,18.3-10.4,30.2v160c0,11.9,3.6,22.3,10.4,30.2
			c7.3,8.5,17.7,13.1,29.2,13.1c6.8,0,13.7-1.6,20.5-4.7l186.4-85.7c22.3-10.3,24.8-26.4,24.8-32.8c0-6.4-2.4-22.5-24.8-32.8
			l-186.4-85.8C188.3,128.6,181.4,127,174.6,127L174.6,127z"/>
	</g>
</g>
</svg>
