<?xml version="1.0" encoding="utf-8"?>
<!-- Generator: Adobe Illustrator 18.0.0, SVG Export Plug-In . SVG Version: 6.00 Build 0)  -->
<!DOCTYPE svg PUBLIC "-//W3C//DTD SVG 1.1//EN" "http://www.w3.org/Graphics/SVG/1.1/DTD/svg11.dtd">
<svg version="1.1" xmlns="http://www.w3.org/2000/svg" xmlns:xlink="http://www.w3.org/1999/xlink" x="0px" y="0px" width="512px"
	 height="512px" viewBox="0 0 512 512" enable-background="new 0 0 512 512" xml:space="preserve">
<g id="图层_1">
	<g>
		<path fill="#231815" d="M256.3,36.9c29.7,0,58.5,5.8,85.5,17.3c26.2,11.1,49.7,26.9,69.9,47.1s36,43.7,47.1,69.9
			c11.4,27.1,17.3,55.8,17.3,85.5s-5.8,58.5-17.3,85.5c-11.1,26.2-26.9,49.7-47.1,69.9s-43.7,36-69.9,47.1
			c-27.1,11.4-55.8,17.3-85.5,17.3s-58.5-5.8-85.5-17.3c-26.2-11.1-49.7-26.9-69.9-47.1s-36-43.7-47.1-69.9
			c-11.4-27.1-17.3-55.8-17.3-85.5s5.8-58.5,17.3-85.5c11.1-26.2,26.9-49.7,47.1-69.9s43.7-36,69.9-47.1
			C197.9,42.7,226.7,36.9,256.3,36.9 M256.3,1.9C115.6,1.9,1.6,116,1.6,256.7s114.1,254.8,254.8,254.8s254.8-114.1,254.8-254.8
			S397,1.9,256.3,1.9L256.3,1.9z"/>
	</g>
</g>
<g id="图层_2">
	<g>
		<path fill="#231815" d="M155,175.4c0-22,16.4-32.5,36.3-23.3l177.3,81.6c20,9.2,20,24.2,0,33.4l-177.3,81.6
			c-20,9.2-36.3-1.3-36.3-23.3V175.4z"/>
	</g>
</g>
</svg>
