<?xml version="1.0" encoding="utf-8"?>
<!-- Generator: Adobe Illustrator 18.0.0, SVG Export Plug-In . SVG Version: 6.00 Build 0)  -->
<!DOCTYPE svg PUBLIC "-//W3C//DTD SVG 1.1//EN" "http://www.w3.org/Graphics/SVG/1.1/DTD/svg11.dtd">
<svg version="1.1" id="图层_1" xmlns="http://www.w3.org/2000/svg" xmlns:xlink="http://www.w3.org/1999/xlink" x="0px" y="0px"
	 viewBox="0 0 512 512" enable-background="new 0 0 512 512" xml:space="preserve">
<g>
	<path fill="#231815" d="M255.8,0C114.5,0-0.2,114.6-0.2,256s114.6,256,256,256s256-114.6,256-256S397.2,0,255.8,0z M255.7,473.5
		c-120.2,0-217.6-97.4-217.6-217.6S135.5,38.3,255.7,38.3s217.6,97.4,217.6,217.6S375.9,473.5,255.7,473.5z"/>
</g>
<path fill="#231815" d="M356.7,195.1l-130.5-75.3c-10.7-6.2-23-9.5-35.4-9.5c-12.4,0-24.7,3.3-35.4,9.5
	C133.6,132.3,120,155.8,120,181v150c0,25.2,13.7,48.7,35.5,61.3c10.8,6.2,23,9.5,35.4,9.5c12.4,0,24.7-3.3,35.5-9.5L356.7,317
	c21.7-12.5,35.2-35.9,35.2-61C391.9,231,378.4,207.6,356.7,195.1z M340.3,288.6L210,363.8c-11.4,6.6-25.8,7-38,0
	c-12.2-7-19-19.8-19-32.9V181c0-13.1,6.8-25.8,19-32.8c12.1-7,26.6-6.5,37.9,0l130.5,75.3c11.2,6.5,18.8,18.6,18.8,32.5
	C359.1,269.9,351.6,282.1,340.3,288.6z"/>
</svg>
