<?xml version="1.0" encoding="utf-8"?>
<!-- Generator: Adobe Illustrator 19.0.0, SVG Export Plug-In . SVG Version: 6.00 Build 0)  -->
<svg version="1.1" id="图层_1" xmlns="http://www.w3.org/2000/svg" xmlns:xlink="http://www.w3.org/1999/xlink" x="0px" y="0px"
	 width="1451.3px" height="1451.3px" viewBox="0 0 1451.3 1451.3" enable-background="new 0 0 1451.3 1451.3" xml:space="preserve">
<path id="XMLID_7_" d="M873.2,1083.9c223.6-223.3,213.6-499,213.6-499H833.2H731.8V422.5h405.9v-54.1H731.8V151.8h-203v216.5H123
	v54.1h405.9v162.4H173.7v54.1h608.8c37.3,18.6,34.3,9.5,42.4,51.3c0,0,2.1,223.6-116.2,354.8c-120.3-27.4-239.3-52.3-342.7-70l0,0
	l0,0c-5.8-1-11.5-1.9-17.1-2.9c-0.1,0-0.1,0-0.2,0c-8.5-1.4-16.8-2.8-25-4c-0.1,0-0.3,0-0.4-0.1c-5.3-0.8-10.6-1.7-15.8-2.4
	c-0.3,0-0.5-0.1-0.8-0.1c-2.6-0.4-5.1-0.8-7.6-1.1c-0.1,0-0.3,0-0.4-0.1c-2.5-0.4-4.9-0.7-7.3-1.1c-0.2,0-0.4-0.1-0.6-0.1
	c-2.4-0.4-4.9-0.7-7.3-1c-0.4,0-0.7-0.1-1.1-0.1c-4.8-0.7-9.5-1.3-14.2-2c-0.4-0.1-0.9-0.1-1.3-0.2c-2.3-0.3-4.5-0.6-6.8-0.9
	c-0.3,0-0.6-0.1-1-0.1c-2.1-0.3-4.1-0.5-6.2-0.8c-0.3,0-0.7-0.1-1-0.1c-2.2-0.3-4.4-0.5-6.5-0.8c-0.5-0.1-0.9-0.1-1.4-0.2
	c-2.2-0.3-4.4-0.5-6.6-0.8c-133.8-15.9-216.1,116-216.1,116c-20.9,60.9-25.2,108.3-18.6,145l0,0l0,0c0.2,1,0.4,1.9,0.5,2.9
	c0.1,0.3,0.1,0.6,0.2,0.8c0.2,0.9,0.4,1.8,0.6,2.7c0.1,0.3,0.1,0.5,0.2,0.8c0.9,4.1,2,8,3.2,11.8c0.1,0.2,0.1,0.4,0.2,0.7
	c0.3,0.9,0.6,1.7,0.8,2.6c0.1,0.2,0.1,0.4,0.2,0.6c1.3,3.8,2.7,7.4,4.2,10.9c0.1,0.2,0.1,0.3,0.2,0.5c0.4,0.8,0.7,1.6,1.1,2.4
	c0.1,0.1,0.1,0.3,0.2,0.4c1.6,3.5,3.4,6.8,5.2,10c0.1,0.1,0.1,0.2,0.2,0.4c0.4,0.8,0.9,1.5,1.3,2.2c0.1,0.1,0.1,0.2,0.2,0.3
	c2,3.2,4,6.2,6.2,9.1c0.1,0.1,0.1,0.2,0.2,0.3c0.5,0.7,1,1.4,1.6,2.1l0.1,0.1c2.2,2.9,4.6,5.6,7,8.2c0.1,0.1,0.1,0.1,0.2,0.2
	c0.6,0.6,1.2,1.3,1.8,1.9c0,0,0,0,0.1,0.1c2.5,2.6,5.1,5.1,7.8,7.4l0.1,0.1c3.4,2.9,6.8,5.7,10.4,8.3l0.1,0.1c3.6,2.6,7.3,5,11,7.3
	c0,0,0,0,0.1,0c3.8,2.3,7.6,4.4,11.5,6.4l0,0c3.9,2,7.9,3.8,11.9,5.5l0,0c4,1.7,8.1,3.2,12.1,4.6l0,0c4.1,1.4,8.1,2.7,12.2,3.9
	c0,0,0,0,0.1,0c4.1,1.2,8.1,2.2,12.2,3.1c0,0,0,0,0.1,0c4,0.9,8,1.8,12,2.5h0.1c3.9,0.7,7.8,1.4,11.6,1.9c0.1,0,0.1,0,0.2,0
	c3.8,0.6,7.5,1,11.1,1.4c0.1,0,0.1,0,0.2,0c2.9,0.3,5.7,0.6,8.5,0.8h0.1c0.7,0.1,1.3,0.1,2,0.2c0.1,0,0.2,0,0.2,0
	c2.7,0.2,5.3,0.4,7.8,0.5c0.1,0,0.1,0,0.2,0c0.6,0,1.2,0.1,1.7,0.1c0.1,0,0.2,0,0.3,0c2.4,0.1,4.8,0.2,7.1,0.3c0.1,0,0.2,0,0.3,0
	c0.5,0,1,0,1.5,0c0.1,0,0.3,0,0.4,0c0.5,0,1,0,1.5,0h0.1c1.6,0,3.1,0,4.6,0c0.1,0,0.3,0,0.4,0c0.4,0,0.9,0,1.3,0c0.1,0,0.3,0,0.4,0
	c0.4,0,0.8,0,1.2,0c0.1,0,0.2,0,0.3,0c1.3,0,2.6,0,3.8-0.1c0.1,0,0.3,0,0.4,0c0.3,0,0.7,0,1,0c0.2,0,0.3,0,0.5,0c0.3,0,0.6,0,1,0
	c0.1,0,0.2,0,0.4,0c0.7,0,1.3,0,2-0.1c0.1,0,0.1,0,0.2,0c0.3,0,0.6,0,0.8,0c0.1,0,0.3,0,0.4,0c0.3,0,0.5,0,0.8,0c0.1,0,0.3,0,0.4,0
	c0.2,0,0.5,0,0.7,0c0.1,0,0.3,0,0.4,0c0.4,0,0.8,0,1.1-0.1c0.2,0,0.3,0,0.5,0s0.4,0,0.5,0c0.2,0,0.3,0,0.5,0s0.3,0,0.5,0
	s0.3,0,0.4,0c0.1,0,0.3,0,0.4,0c0.2,0,0.3,0,0.5,0s0.3,0,0.5,0s0.3,0,0.5,0c0.1,0,0.2,0,0.3,0s0.2,0,0.3,0s0.2,0,0.3,0s0.2,0,0.2,0
	c0.1,0,0.2,0,0.3,0s0.2,0,0.3,0s0.1,0,0.2,0l0,0v0.8c38.8,0,74.8-0.7,94.9-3c184.5-29.9,324.7-87,431.3-156.9
	c88.7,43.2,176.5,92.4,256.9,143.5c213.1,103.4,443.8,123.7,443.8,123.7v-216.5C1450.5,1234.5,1178.4,1157.8,873.2,1083.9z
	 M224.4,1288.6C-17.6,1313,69,1126.2,69,1126.2c0.6-1.5,1.1-3,1.7-4.4c0.1-0.3,0.3-0.7,0.4-1c0.6-1.4,1.2-2.9,1.9-4.2
	c0.1-0.2,0.1-0.3,0.2-0.5c0.6-1.3,1.2-2.5,1.8-3.8c0.2-0.3,0.3-0.6,0.5-0.9c0.7-1.3,1.4-2.7,2.1-4c0.1-0.2,0.3-0.5,0.4-0.7
	c0.6-1.1,1.3-2.3,2-3.4c0.2-0.3,0.3-0.5,0.5-0.8c0.8-1.3,1.6-2.5,2.4-3.7c0.2-0.3,0.3-0.5,0.5-0.8c0.7-1.1,1.5-2.1,2.2-3.2
	c0.1-0.2,0.3-0.4,0.4-0.6c0.9-1.2,1.7-2.3,2.6-3.5c0.2-0.3,0.4-0.5,0.6-0.8c0.8-1.1,1.7-2.1,2.6-3.1c0.1-0.1,0.2-0.2,0.3-0.3
	c0.9-1.1,1.9-2.2,2.9-3.2c0.2-0.3,0.5-0.5,0.7-0.8c1-1.1,2-2.1,3-3.1c0,0,0.1-0.1,0.2-0.1c1-1,2-1.9,3-2.9c0.3-0.2,0.5-0.5,0.8-0.7
	c1.1-1,2.1-1.9,3.2-2.9c0.2-0.1,0.3-0.3,0.5-0.4c1-0.8,2-1.6,3-2.5c0.3-0.2,0.5-0.4,0.8-0.6c1.1-0.9,2.3-1.7,3.4-2.6
	c0.2-0.2,0.5-0.3,0.7-0.5c1-0.7,2-1.5,3.1-2.2c0.3-0.2,0.5-0.4,0.8-0.5c1.2-0.8,2.4-1.6,3.6-2.4c0.3-0.2,0.6-0.4,0.9-0.6
	c1.1-0.7,2.2-1.3,3.3-2c0.2-0.1,0.4-0.3,0.7-0.4c1.3-0.7,2.5-1.4,3.8-2.1c0.3-0.2,0.7-0.4,1-0.5c1.2-0.6,2.4-1.3,3.7-1.9
	c0.1-0.1,0.3-0.1,0.4-0.2c1.3-0.7,2.7-1.3,4.1-1.9c0.4-0.2,0.7-0.3,1.1-0.5c1.4-0.6,2.7-1.2,4.1-1.8c0.2-0.1,0.4-0.1,0.5-0.2
	c1.3-0.5,2.6-1,3.9-1.5c0.4-0.2,0.8-0.3,1.2-0.5c1.4-0.5,2.8-1.1,4.3-1.6c0.3-0.1,0.6-0.2,0.9-0.3c1.2-0.4,2.5-0.8,3.8-1.3
	c0.4-0.1,0.8-0.3,1.2-0.4c1.5-0.5,2.9-0.9,4.4-1.3c0.4-0.1,0.8-0.2,1.2-0.3c1.3-0.4,2.5-0.7,3.8-1c0.4-0.1,0.8-0.2,1.2-0.3
	c1.5-0.4,3.1-0.8,4.6-1.1c0.5-0.1,0.9-0.2,1.4-0.3c1.3-0.3,2.6-0.6,4-0.9c0.4-0.1,0.7-0.2,1.1-0.2c1.6-0.3,3.2-0.6,4.8-0.9
	c0.5-0.1,1-0.2,1.5-0.3c1.4-0.3,2.9-0.5,4.4-0.8c0.3-0.1,0.7-0.1,1-0.2c1.5-0.2,3.1-0.5,4.6-0.7c0.6-0.1,1.1-0.2,1.7-0.2
	c1.6-0.2,3.3-0.4,5-0.6c0.4,0,0.8-0.1,1.2-0.1c1.4-0.2,2.8-0.3,4.2-0.5c0.6-0.1,1.2-0.1,1.7-0.2c1.7-0.2,3.4-0.3,5-0.4
	c0.5,0,1.1-0.1,1.6-0.1c1.3-0.1,2.7-0.2,4.1-0.3c0.6,0,1.2-0.1,1.8-0.1c1.7-0.1,3.4-0.2,5.1-0.3c0.6,0,1.2-0.1,1.9-0.1
	c1.3-0.1,2.7-0.1,4.1-0.1c0.6,0,1.2,0,1.8-0.1c1.7,0,3.5-0.1,5.2-0.1c0.7,0,1.4,0,2.1,0c1.4,0,2.8,0,4.2,0c0.6,0,1.2,0,1.8,0
	c1.7,0,3.5,0,5.2,0.1c0.8,0,1.5,0,2.3,0.1c1.5,0,3,0.1,4.5,0.1c0.8,0,1.7,0.1,2.5,0.1c1.5,0.1,2.9,0.1,4.4,0.2
	c0.8,0,1.6,0.1,2.4,0.1c1.7,0.1,3.4,0.2,5.2,0.3c0.8,0.1,1.6,0.1,2.4,0.2c1.3,0.1,2.7,0.2,4,0.3c0.8,0.1,1.7,0.1,2.5,0.2
	c1.8,0.1,3.6,0.3,5.4,0.5c0.8,0.1,1.7,0.2,2.5,0.2c1.3,0.1,2.6,0.2,3.8,0.4c0.9,0.1,1.7,0.2,2.6,0.3c1.8,0.2,3.6,0.4,5.5,0.6
	c0.9,0.1,1.9,0.2,2.8,0.3c1.2,0.1,2.5,0.3,3.7,0.5c0.9,0.1,1.8,0.2,2.7,0.3c1.8,0.2,3.7,0.5,5.5,0.7c1,0.1,2,0.3,3,0.4
	c1.2,0.2,2.5,0.4,3.8,0.5c1.4,0.2,2.8,0.4,4.1,0.6c1.4,0.2,2.7,0.4,4.1,0.6c1.1,0.2,2.1,0.3,3.2,0.5c1.3,0.2,2.6,0.4,3.9,0.6
	c1.5,0.3,3.1,0.5,4.6,0.8c1.2,0.2,2.4,0.4,3.6,0.6c1.1,0.2,2.2,0.4,3.3,0.6c1.4,0.3,2.8,0.5,4.2,0.8c1.5,0.3,3.1,0.6,4.6,0.9
	c1.1,0.2,2.2,0.4,3.3,0.7c1.2,0.2,2.3,0.5,3.5,0.7c1.8,0.4,3.7,0.8,5.5,1.1c1.2,0.3,2.4,0.5,3.6,0.8c1,0.2,2.1,0.5,3.1,0.7
	c1.3,0.3,2.6,0.6,3.9,0.9c1.7,0.4,3.5,0.8,5.2,1.2c1.3,0.3,2.6,0.6,3.8,0.9c1,0.2,2,0.5,3,0.7c2.1,0.5,4.1,1,6.2,1.5
	c1,0.2,2.1,0.5,3.1,0.7c1.3,0.3,2.7,0.7,4,1c0.9,0.2,1.9,0.5,2.8,0.7c2.2,0.6,4.5,1.1,6.8,1.7c0.9,0.2,1.8,0.5,2.7,0.7
	c1.4,0.4,2.8,0.7,4.2,1.1c0.8,0.2,1.7,0.5,2.5,0.7c2.4,0.6,4.8,1.3,7.2,2c0.8,0.2,1.7,0.5,2.5,0.7c1.5,0.4,2.9,0.8,4.4,1.2
	c0.7,0.2,1.4,0.4,2,0.6c2.6,0.7,5.3,1.5,7.9,2.3c0.8,0.2,1.6,0.5,2.3,0.7c4.9,1.4,9.7,2.9,14.6,4.4c0.7,0.2,1.4,0.4,2.2,0.7
	c5,1.5,9.9,3.1,14.9,4.7c0.6,0.2,1.3,0.4,1.9,0.6c3,1,6.1,2,9.1,3c0.4,0.1,0.8,0.3,1.2,0.4c1.7,0.6,3.3,1.1,5,1.7
	c0.5,0.2,1.1,0.4,1.6,0.5c3.1,1,6.2,2.1,9.3,3.1c0.4,0.2,0.9,0.3,1.3,0.5c1.7,0.6,3.5,1.2,5.2,1.8c0.3,0.1,0.6,0.2,0.9,0.3
	c3.3,1.1,6.6,2.3,9.9,3.5c0.5,0.2,1,0.3,1.5,0.5c5.3,1.9,10.7,3.8,16,5.8c0.5,0.2,0.9,0.3,1.4,0.5c5.4,2,10.8,4,16.2,6.1
	c0.4,0.2,0.8,0.3,1.3,0.5c5.5,2.1,11,4.2,16.5,6.3c0.3,0.1,0.7,0.3,1,0.4c3.7,1.4,7.4,2.9,11,4.4c4.7,1.9,9.3,3.7,14,5.6
	C490.5,1202.8,338.2,1253.7,224.4,1288.6z"/>
</svg>
