<?xml version="1.0" encoding="utf-8"?>
<!-- Generator: Adobe Illustrator 18.0.0, SVG Export Plug-In . SVG Version: 6.00 Build 0)  -->
<!DOCTYPE svg PUBLIC "-//W3C//DTD SVG 1.1//EN" "http://www.w3.org/Graphics/SVG/1.1/DTD/svg11.dtd">
<svg version="1.1" id="图层_1" xmlns="http://www.w3.org/2000/svg" xmlns:xlink="http://www.w3.org/1999/xlink" x="0px" y="0px"
	 width="512px" height="512px" viewBox="0 0 512 512" enable-background="new 0 0 512 512" xml:space="preserve">
<g>
	<path fill="#424242" d="M256.7,0C79.4,0,0,43.1,0,85.8v337.9c0,58.8,131.9,90.5,256,90.5c123.3,0,256-27.1,256-86.6V85.8
		C512,26.5,383.8,0,256.7,0z M469.3,215.2c-27.6,22.7-107.3,43-212.6,43c-107.1,0-187.7-21-214-44.1v-93.4
		c41.6,27.8,129.7,42.6,214,42.6c83.3,0,170.4-14.4,212.6-41.6V215.2z M42.7,237.8c44.5,25.7,131.1,39.3,214,39.3
		c82.1,0,167.7-13.3,212.6-38.5v90.4c-27.6,22.7-107.3,43-212.6,43c-107.1,0-187.7-21-214-44.1V237.8z M256.7,38
		c137.6,0,212.6,31.6,212.6,47.9v9.8c-19.8,24.8-101.6,48.6-212.6,48.6c-114.2,0-197.3-25.1-214-50.7v-7.7
		C42.7,69.6,118.2,38,256.7,38z M256,476.2c-130.2,0-213.3-34.5-213.3-52.5v-72c44.5,25.7,131.1,39.3,214,39.3
		c82.1,0,167.7-13.3,212.6-38.5v75C469.3,444.1,394,476.2,256,476.2z"/>
</g>
<ellipse fill="#424242" cx="417.5" cy="205" rx="15.5" ry="14"/>
</svg>
