<?xml version="1.0" encoding="utf-8"?>
<!-- Generator: Adobe Illustrator 18.0.0, SVG Export Plug-In . SVG Version: 6.00 Build 0)  -->
<!DOCTYPE svg PUBLIC "-//W3C//DTD SVG 1.1//EN" "http://www.w3.org/Graphics/SVG/1.1/DTD/svg11.dtd">
<svg version="1.1" id="图层_1" xmlns="http://www.w3.org/2000/svg" xmlns:xlink="http://www.w3.org/1999/xlink" x="0px" y="0px"
	 width="512px" height="512px" viewBox="0 0 512 512" enable-background="new 0 0 512 512" xml:space="preserve">
<g>
	<path d="M261.1,437.4v-19.3c91.6-1.5,180.8-23.6,180.8-70.9V72.3C441.9,24.2,345.8-1,251-1C159.1-1,60.3,21.6,60.3,71.4v272.8
		c0,46.9,89.3,72.1,180.8,73.9v19.3c-17.3,4.2-30.1,19-30.1,36.6c0,20.9,18,38,40.2,38c22.1,0,40.2-17,40.2-38
		C291.2,456.4,278.4,441.6,261.1,437.4z M401.7,176.1c-20.1,15.6-73.7,31.2-150.7,31.2c-76.8,0-130.4-15.5-150.5-31v-72.6
		c34.2,18.1,93.4,27.7,150.5,27.7c57.2,0,120.6-9.6,150.7-27.7V176.1z M100.4,198.6c34.2,18.1,93.4,27.7,150.5,27.7
		c57.2,0,120.6-9.6,150.7-27.7v72.6c-20.1,15.6-73.7,31.2-150.7,31.2c-76.8,0-130.4-15.5-150.5-31V198.6z M251,36.9
		c94.1,0,148.3,24.9,150.7,35.4l0,8.8c-20,15.6-73.7,31.1-150.7,31.1c-76.8,0-130.4-15.5-150.5-31v-6l0-3.7
		C102.9,61.2,157.1,36.9,251,36.9z M100.4,344.2v-50.6c34.2,18.1,93.4,27.6,150.5,27.6c57.2,0,120.6-9.6,150.7-27.7V347
		c0,9-51,32.5-146.2,33.2c-1.4-0.7-7.6-0.7-9,0C155.1,379.4,102.7,354.7,100.4,344.2z M251.1,493c-11.1,0-20.1-8.5-20.1-19
		s9-19,20.1-19s20.1,8.5,20.1,19S262.1,493,251.1,493z"/>
	<path d="M190.8,464.5H10c-5.5,0-10,4.2-10,9.5c0,5.2,4.5,9.5,10,9.5h180.8c5.5,0,10-4.2,10-9.5
		C200.8,468.8,196.4,464.5,190.8,464.5z"/>
	<path d="M502.1,464.5H321.4c-5.5,0-10,4.2-10,9.5c0,5.2,4.5,9.5,10,9.5h180.8c5.5,0,10-4.2,10-9.5
		C512.2,468.8,507.7,464.5,502.1,464.5z"/>
</g>
</svg>
