<?xml version="1.0" encoding="utf-8"?>
<!-- Generator: Adobe Illustrator 18.0.0, SVG Export Plug-In . SVG Version: 6.00 Build 0)  -->
<!DOCTYPE svg PUBLIC "-//W3C//DTD SVG 1.1//EN" "http://www.w3.org/Graphics/SVG/1.1/DTD/svg11.dtd">
<svg version="1.1" id="图层_1" xmlns="http://www.w3.org/2000/svg" xmlns:xlink="http://www.w3.org/1999/xlink" x="0px" y="0px"
	 width="512px" height="512px" viewBox="0 0 512 512" enable-background="new 0 0 512 512" xml:space="preserve">
<path d="M350.8-1.6c-59.9,0-161.2,4.8-161.2,62.3v158.5c-10.1-0.4-19.7-0.5-28.5-0.5c-56.3,0-149.4,4.3-160.1,52.7H0v177.2
	C0,492.1,83.5,512,161.2,512c74.4,0,161.2-16,161.2-61.1v-45.3c9.4,0.6,18.9,1,28.4,1c74.4,0,161.2-16,161.2-61.1V60.6
	C512,3.2,410.7-1.6,350.8-1.6z M284.4,344.1c-17.7,10.9-59.8,23-123.3,23c-63.5,0-105.6-12.1-123.2-23v-36
	c29,13.6,76.3,20.7,123.2,20.7c47,0,94.3-7,123.3-20.7V344.1z M37.9,365.6c29,13.6,76.3,20.7,123.2,20.7c47,0,94.3-7,123.3-20.7v36
	c-17.7,10.9-59.8,23-123.3,23c-63.5,0-105.6-12.1-123.2-23V365.6z M322.4,280c9.4,0.6,18.9,0.9,28.4,0.9c47,0,94.3-7,123.3-20.7v36
	c-17.7,10.9-59.8,23-123.3,23c-9.6,0-19.1-0.4-28.4-0.9V280z M474.1,123.8c-17.7,10.9-59.8,23-123.3,23c-63.5,0-105.6-12.1-123.2-23
	v-36c29,13.6,76.3,20.7,123.2,20.7c47,0,94.3-7,123.3-20.7V123.8z M227.6,145.3c29,13.6,76.3,20.7,123.2,20.7
	c47,0,94.3-7,123.3-20.7v36c-17.7,10.9-59.8,23-123.3,23c-63.5,0-105.6-12.1-123.2-23V145.3z M350.8,33.1
	c77.3,0,119.3,19.6,123.7,27.3c-0.1-0.2-0.5,0.2-0.5,0.2v5.7c-17.7,10.9-59.8,23-123.3,23c-63.5,0-105.6-12.1-123.2-23v-5.7h-0.1
	C232.9,52.7,274.6,33.1,350.8,33.1z M227.6,202.8c29,13.6,76.3,20.7,123.2,20.7c47,0,94.3-7,123.3-20.7v36
	c-17.7,10.9-59.8,23-123.3,23c-11.4,0-22.7-0.4-33.6-1.3c-13.4-23.9-50.8-34.3-89.6-38.7V202.8z M161.2,253.4
	c75.6,0,117.3,18.7,123.3,26.8v6.5c-17.7,10.9-59.8,23-123.3,23c-63.5,0-105.6-12.1-123.2-23v-5.9
	C43.9,272.7,85.6,253.4,161.2,253.4z M161.2,473.7c-75.3,0-117.1-18.2-123.2-26.6v-24c29,13.6,76.3,20.7,123.2,20.7
	c47,0,94.3-7,123.3-20.7v26.3C277.5,458,234.9,473.7,161.2,473.7z M350.8,368.3c-9.6,0-19.1-0.4-28.4-1v-29.8
	c9.3,0.6,18.8,0.9,28.4,0.9c47,0,94.3-7,123.3-20.7V344C467.1,352.6,424.6,368.3,350.8,368.3z"/>
</svg>
