<?xml version="1.0" encoding="utf-8"?>
<!-- Generator: Adobe Illustrator 16.0.0, SVG Export Plug-In . SVG Version: 6.00 Build 0)  -->
<!DOCTYPE svg PUBLIC "-//W3C//DTD SVG 1.1//EN" "http://www.w3.org/Graphics/SVG/1.1/DTD/svg11.dtd">
<svg version="1.1" id="图层_1" xmlns="http://www.w3.org/2000/svg" xmlns:xlink="http://www.w3.org/1999/xlink" x="0px" y="0px"
	 width="512px" height="512px" viewBox="0 0 512 512" enable-background="new 0 0 512 512" xml:space="preserve">
<g>
	<path d="M442.1,359.6c0,57.2-18,96.6-53.8,118.3c-35.9,21.7-81.9,32.5-137.9,32.5H82.2V4.6h174.9c56,0,98,12.8,126.1,38.5
		c28,25.7,42,56.2,42,91.7c0,35.5-9.6,61.7-28.6,78.4c-19.1,16.8-38.7,28.1-58.9,34c26.9,5.9,51,18.3,72.3,37
		C431.4,302.9,442.1,328.1,442.1,359.6z M347.9,134.8c0-25.6-8.4-44.4-25.2-56.2s-37.6-17.7-62.2-17.7H159.6v156.8h97.5
		c24.6,0,45.9-6.4,63.9-19.2C338.9,185.6,347.9,164.4,347.9,134.8z M361.4,359.6c0-31.5-11.8-53.7-35.3-66.6
		c-23.5-12.8-49.9-19.2-79-19.2h-87.4v180.4h77.3c40.4,0,71.1-6.9,92.5-20.7C350.7,419.8,361.4,395.1,361.4,359.6z"/>
</g>
</svg>
