<?xml version="1.0" encoding="utf-8"?>
<!-- Generator: Adobe Illustrator 19.0.0, SVG Export Plug-In . SVG Version: 6.00 Build 0)  -->
<svg version="1.1" id="图层_1" xmlns="http://www.w3.org/2000/svg" xmlns:xlink="http://www.w3.org/1999/xlink" x="0px" y="0px"
	 width="1451.3px" height="1451.3px" viewBox="0 0 1451.3 1451.3" enable-background="new 0 0 1451.3 1451.3" xml:space="preserve">
<path id="XMLID_16_" d="M1067.5,859.7c-56.1-10.9-28.8-41.1-28.8-41.1s54.9-90.5-10.9-156.3c-81.5-81.5-279.6,10.4-279.6,10.4
	c-75.7,23.5-55.6-10.7-44.9-68.9c0-68.6-23.5-184.6-225-116c-201.4,68.9-374.2,310.3-374.2,310.3C-16.2,958.5-0.3,1082.5-0.3,1082.5
	c30,273.7,320.9,348.8,547.1,366.6c238,18.7,559.2-82,656.6-288.9C1300.8,953,1123.8,871,1067.5,859.7z M564.4,1371.9
	c-236.3,11-427.2-107.4-427.2-265.1c0-157.8,191-284.4,427.2-295.3c236.4-10.9,427.8,86.5,427.8,244
	C992.2,1213.2,800.8,1361.2,564.4,1371.9z"/>
<path id="XMLID_12_" d="M517.3,915.5c-237.6,27.8-210.2,250.4-210.2,250.4s-2.4,70.5,63.7,106.4c139,75.3,282.2,29.7,354.6-63.7
	C797.7,1115.1,755.3,887.9,517.3,915.5z M457.3,1227.9c-44.4,5.2-80.1-20.4-80.1-57.5c0-37,31.8-75.7,76.1-80.3
	c51-4.9,84.1,24.5,84.1,61.6C537.5,1188.7,501.6,1222.9,457.3,1227.9z M597.4,1108.6c-15,11.2-33.5,9.7-41.5-3.8
	c-8.3-13.1-5.2-34.2,10-45.3c17.6-13.1,35.9-9.3,43.9,3.8C617.8,1076.8,612.1,1097,597.4,1108.6z"/>
<path id="XMLID_2_" d="M1192.8,713.4c19.1,0,35.4-14.2,38.2-32.6c0.3-1.4,0.5-2.6,0.5-4.2c29-260.9-213.8-216-213.8-216
	c-21.6,0-38.9,17.4-38.9,39.2c0,21.4,17.3,38.9,38.9,38.9c174.4-38.5,135.9,135.9,135.9,135.9
	C1153.6,696.1,1171.2,713.4,1192.8,713.4z"/>
<path id="XMLID_1_" d="M1164.5,257.9c-84-19.7-170.3-2.7-194.5,1.9c-1.9,0.2-3.6,1.9-5.4,2.3c-0.8,0.2-1.4,1-1.4,1
	c-23.8,6.7-41.3,28.8-41.3,54.9c0,31.1,25.2,56.7,56.6,56.7c0,0,30.6-4.1,51.3-12.2c20.6-8.3,194.5-6.2,280.8,138.9
	c47.1,105.9,20.7,176.7,17.4,188.1c0,0-11.2,27.5-11.2,54.6c0,31.3,25.2,50.9,56.5,50.9c26.1,0,48-3.5,54.4-47.7h0.4
	C1520.9,438.2,1314.7,293,1164.5,257.9z"/>
</svg>
