<?xml version="1.0" encoding="utf-8"?>
<!-- Generator: Adobe Illustrator 18.0.0, SVG Export Plug-In . SVG Version: 6.00 Build 0)  -->
<!DOCTYPE svg PUBLIC "-//W3C//DTD SVG 1.1//EN" "http://www.w3.org/Graphics/SVG/1.1/DTD/svg11.dtd">
<svg version="1.1" id="图层_1" xmlns="http://www.w3.org/2000/svg" xmlns:xlink="http://www.w3.org/1999/xlink" x="0px" y="0px"
	 width="512px" height="512px" viewBox="0 0 512 512" enable-background="new 0 0 512 512" xml:space="preserve">
<g>
	<path d="M512,104.3c0-15.7-12.8-28.3-28.4-28.3H474V56.9C474,25.5,448.6,0,417.2,0H75.9C44.5,0,19,25.5,19,56.9V95h38V56.9
		C57,46.4,65.4,38,75.9,38h341.3c10.5,0,18.8,8.4,18.8,18.9v398.2c0,10.5-8.4,18.9-18.8,18.9H75.9c-10.5,0-18.9-8.4-18.9-18.9V408
		h9.4c5.2,0,9.5-4.3,9.5-9.5s-4.2-9.5-9.5-9.5H9.5c-5.2,0-9.5,4.3-9.5,9.5s4.2,9.5,9.5,9.5H19v47.1c0,31.4,25.5,56.9,56.9,56.9
		h341.3c31.4,0,56.8-25.5,56.8-56.9V436h9.6c15.7,0,28.4-12.6,28.4-28.3v-75.9c0-7.3-2.8-13.9-7.4-19c4.5-5,7.4-11.7,7.4-19v-75.9
		c0-7.3-2.8-13.9-7.4-19c4.5-5,7.4-11.7,7.4-19V104.3z M493,407.7c0,5.2-4.2,9.3-9.4,9.3H474v-95h9.6c5.2,0,9.4,4.6,9.4,9.9V407.7z
		 M493,293.9c0,5.2-4.2,9.1-9.4,9.1H474v-94h9.6c5.2,0,9.4,3.8,9.4,9.1V293.9z M493,180.1c0,5.2-4.2,9.9-9.4,9.9H474V95h9.6
		c5.2,0,9.4,4.1,9.4,9.3V180.1z"/>
	<path d="M9.5,133H19v237h38V133h9.4c5.2,0,9.5-4.3,9.5-9.5s-4.2-9.5-9.5-9.5H9.5c-5.2,0-9.5,4.3-9.5,9.5S4.2,133,9.5,133z"/>
	<path d="M313,229.5c6.3-8.5,9.4-18.4,9.4-29.6c0-14-5.4-25.5-16-34c-10.6-8.5-24.9-12.9-42.7-12.9H204v203h61.3
		c19.5,0,35.6-5.4,48.1-16.2c12.5-10.8,18.8-24.9,18.8-42.3c0-13.6-4-24.8-12.2-33.7c-8.2-8.9-18.9-14.1-32.9-15.6v-0.5
		C298,244.1,306.7,238,313,229.5z M304.7,297c0,11.3-3.7,20.1-11.2,26.4c-7.5,6.3-18,9.5-31.7,9.5H230v-71h27.4
		C288.9,262,304.7,273.8,304.7,297z M283.9,230.6c-7.2,6.2-17.1,9.4-29.8,9.4H230v-64h26.5c25.5,0,38.2,9.7,38.2,28.8
		C294.7,215.7,291.1,224.5,283.9,230.6z"/>
</g>
</svg>
