<?xml version="1.0" encoding="utf-8"?>
<!-- Generator: Adobe Illustrator 18.0.0, SVG Export Plug-In . SVG Version: 6.00 Build 0)  -->
<!DOCTYPE svg PUBLIC "-//W3C//DTD SVG 1.1//EN" "http://www.w3.org/Graphics/SVG/1.1/DTD/svg11.dtd">
<svg version="1.1" id="图层_1" xmlns="http://www.w3.org/2000/svg" xmlns:xlink="http://www.w3.org/1999/xlink" x="0px" y="0px"
	 width="512px" height="512px" viewBox="0 0 512 512" enable-background="new 0 0 512 512" xml:space="preserve">
<path d="M456.9,46H400V26.6C400,10.8,387-2,371.2-2h-9.5C346-2,333,10.8,333,26.6V46H181V26.6C181,10.8,168-2,152.3-2h-9.5
	C127-2,114,10.8,114,26.6V46H57.1C24.6,46,0,68.5,0,98.9v356C0,486.4,25.6,512,57.1,512h399.8c31.5,0,57.1-25.6,57.1-57.1v-356
	C514,68.5,489.4,46,456.9,46z M38,98.9C38,87.7,48.3,84,57.1,84h57.1c0,15,12.8,28,28.6,28h28.6c5.3,0,9.5-4.2,9.5-9.5
	c0-5.3-4.3-9.5-9.5-9.5h-28.6c-5.2,0-9.8-4.1-9.8-9.3V26.6c0-5.2,4.5-9.6,9.8-9.6h9.5c5.2,0,9.7,4.3,9.7,9.6v21.7
	c-6,3.3-9.6,9.5-9.6,16.6c0,10.5,8.4,19.2,18.9,19.2h161.8c0,15,12.8,28,28.6,28h28.6c5.3,0,9.5-4.2,9.5-9.5c0-5.3-4.3-9.5-9.5-9.5
	h-28.6c-5.2,0-9.7-4.1-9.7-9.3V26.6c0-5.2,4.5-9.6,9.7-9.6h9.5c5.2,0,9.8,4.3,9.8,9.6v21.7c-6,3.3-9.6,9.5-9.6,16.6
	c0,10.5,8.4,19.2,18.9,19.2h66.6c8.8,0,19.1,3.7,19.1,14.9V169H38V98.9z M129,366H38v-76h91V366z M164,290h185v76H164V290z M349,401
	v73H164v-73H349z M164,255v-67h185v67H164z M384,290h92v76h-92V290z M384,255v-67h92v67H384z M129,188v67H38v-67H129z M38,454.9V401
	h91v73H57.1C46.6,474,38,465.4,38,454.9z M456.9,474H384v-73h92v53.9C476,465.4,467.4,474,456.9,474z"/>
</svg>
