<?xml version="1.0" encoding="utf-8"?>
<!-- Generator: Adobe Illustrator 18.0.0, SVG Export Plug-In . SVG Version: 6.00 Build 0)  -->
<!DOCTYPE svg PUBLIC "-//W3C//DTD SVG 1.1//EN" "http://www.w3.org/Graphics/SVG/1.1/DTD/svg11.dtd">
<svg version="1.1" id="图层_1" xmlns="http://www.w3.org/2000/svg" xmlns:xlink="http://www.w3.org/1999/xlink" x="0px" y="0px"
	 viewBox="0 0 512 512" enable-background="new 0 0 512 512" xml:space="preserve">
<path fill="#231815" d="M256,7.7C114.6,7.7,0.1,118.9,0.1,256c0,137.1,114.6,248.3,255.9,248.3c141.4,0,255.9-111.2,255.9-248.3
	C511.9,118.9,397.4,7.7,256,7.7z M270,473.4V430h-30v43.2C128,465.5,38.8,379,31.1,271H71v-30H31.1c7.6-107,95.3-192.8,205.4-201.9
	l0,50.1l30.1,0l0-50.7c56.4,2.5,109,25,149.1,63.9c39.2,38,62,87.6,65.3,140.6h-44v30h43.8C472.1,381,382,466.8,270,473.4z"/>
<path fill="#231815" d="M405.6,248H282.4c-3.4-11.4-14-19.6-26.4-19.6c-1.7,0-3.4,0.2-5.1,0.5l-64.9-112.4
	c-1.9-3.4-8.4-3.3-14.4,0.2c-6,3.5-9.3,9-7.4,12.3L231,244.3c-1.7,3.5-2.6,7.5-2.6,11.7c0,15.3,12.4,27.6,27.6,27.6
	c8.8,0,16.7-4.2,21.8-10.6h127.9c5.4,0,9.7-5.6,9.7-12.5C415.4,253.6,411,248,405.6,248z"/>
</svg>
