<?xml version="1.0" encoding="utf-8"?>
<!-- Generator: Adobe Illustrator 19.0.0, SVG Export Plug-In . SVG Version: 6.00 Build 0)  -->
<svg version="1.1" id="图层_1" xmlns="http://www.w3.org/2000/svg" xmlns:xlink="http://www.w3.org/1999/xlink" x="0px" y="0px"
	 width="1451.3px" height="1451.3px" viewBox="0 0 1451.3 1451.3" enable-background="new 0 0 1451.3 1451.3" xml:space="preserve">
<path id="XMLID_219_" d="M1187.5,1276.2c107.1-134.2,263.9-364.6,263.9-549.8c0-400.8-324.9-725.7-725.7-725.7
	C324.8,0.7,0,325.6,0,726.4s324.9,725.6,725.7,725.6c115.7,0,637.7,0,637.7,0S1095.7,1391.3,1187.5,1276.2z M175.8,1188.2
	c0,0,309.7-179.6,250.5-286.5c-17.8-32.1-36.7-64.7-46.9-101.8c-52.4-189.4,64-384,260-434.7s410.9,58.6,450.3,251
	C1211.1,1210.2,175.8,1188.2,175.8,1188.2z"/>
</svg>
