<?xml version="1.0" encoding="utf-8"?>
<!-- Generator: Adobe Illustrator 18.0.0, SVG Export Plug-In . SVG Version: 6.00 Build 0)  -->
<!DOCTYPE svg PUBLIC "-//W3C//DTD SVG 1.1//EN" "http://www.w3.org/Graphics/SVG/1.1/DTD/svg11.dtd">
<svg version="1.1" id="图层_1" xmlns="http://www.w3.org/2000/svg" xmlns:xlink="http://www.w3.org/1999/xlink" x="0px" y="0px"
	 width="512px" height="512px" viewBox="0 0 512 512" enable-background="new 0 0 512 512" xml:space="preserve">
<path d="M502.4,225.9c13.4-12.4,11.1-24.9,9.4-29.7c-1.6-4.8-7.4-16.2-25.6-17.8l-70.4-6.2l-67.2-5.9c-3.4-0.3-9.1-5.5-10.4-8.6
	L281.5,23.6c-7.2-17-19.8-18.9-24.9-18.9c-5.1,0-17.7,1.8-24.9,18.9l-56.8,135.1c-1.3,3.1-7.1,7.3-10.4,7.6L98,172.2l-71.2,6.3
	c-18.2,1.6-23.9,13-25.6,17.8c-1.6,4.8-4,17.3,9.4,29.7L114,320.8c2.7,2.4,4.8,9.5,4,13L84.5,476.6c-3,12.7,0.8,20.8,4.4,25.4
	c7.9,9.9,22.5,11.9,35.8,3.8l125.4-75.9c0.8-0.5,3.1-1.3,6.4-1.3s5.6,0.8,6.4,1.3l125.4,75.9c5.7,3.4,11.4,5.2,16.9,5.2
	c7.5,0,14.4-3.3,18.9-9c3.7-4.6,7.4-12.8,4.4-25.5l-33.5-142.7c-0.8-3.5,1.3-10.6,4-13L502.4,225.9z M373.5,292.8
	c-12.8,11.8-19.3,32.7-15.3,49.7l27.5,117.2l-103-62.4c-7.3-4.4-16.5-6.8-26.1-6.8c-9.6,0-18.8,2.4-26.1,6.8l-103,62.4L155,342.5
	c4-17-2.4-37.9-15.3-49.7l-85.5-78.6l113.6-10c17.3-1.5,35.4-14.7,42.1-30.7l46.7-111l46.7,111c6.7,16,24.8,29.2,42.1,30.7l113.6,10
	L373.5,292.8z"/>
</svg>
