<?xml version="1.0" encoding="utf-8"?>
<!-- Generator: Adobe Illustrator 18.0.0, SVG Export Plug-In . SVG Version: 6.00 Build 0)  -->
<!DOCTYPE svg PUBLIC "-//W3C//DTD SVG 1.1//EN" "http://www.w3.org/Graphics/SVG/1.1/DTD/svg11.dtd">
<svg version="1.1" id="图层_1" xmlns="http://www.w3.org/2000/svg" xmlns:xlink="http://www.w3.org/1999/xlink" x="0px" y="0px"
	 width="512px" height="512px" viewBox="0 0 512 512" enable-background="new 0 0 512 512" xml:space="preserve">
<path d="M255,2.1C114.4,2.1,0,116.4,0,257s114.4,255,255,255s255-114.4,255-255S395.6,2.1,255,2.1z M472.2,257c0,0.4,0,0.8,0,1.2
	l-43.2,18l-39.5-39.5l-94.8,23.7l10.2,71.4l-67.2,25.2l-79.8-71l65.4-112.2l81.9-71.7l9-54.2C405.3,73.9,472.2,157.8,472.2,257z
	 M152,65.9l-6.4,44.6l-38.9,19.5l-19.4,48.6l-37,6.2C68.3,133.6,104.9,91.3,152,65.9z M49.7,328h31.5l32.5,31.7l-7.9,55
	C80.6,390.9,61.2,361.3,49.7,328z M255,474.2c-49.2,0-94.7-16.5-131.2-44.2l11.2-77.4L89.5,308H43.8c-3.9-16.4-6.1-33.4-6.1-51
	c0-17.5,2.1-34.6,6-50.9l57.9-9.6l20.8-52l41.5-20.8l9.7-68.1c25.1-10.2,52.5-15.8,81.2-15.8c13.5,0,26.7,1.3,39.6,3.6l-8.1,48.4
	l-79,69.1l-75.4,129.2l101.2,90L327,345l-9.9-69.4l66.1-16.5l41,41l46.7-19.4C459.1,389.3,366.8,474.2,255,474.2z"/>
</svg>
