<?xml version="1.0" encoding="utf-8"?>
<!-- Generator: Adobe Illustrator 18.0.0, SVG Export Plug-In . SVG Version: 6.00 Build 0)  -->
<!DOCTYPE svg PUBLIC "-//W3C//DTD SVG 1.1//EN" "http://www.w3.org/Graphics/SVG/1.1/DTD/svg11.dtd">
<svg version="1.1" id="图层_1" xmlns="http://www.w3.org/2000/svg" xmlns:xlink="http://www.w3.org/1999/xlink" x="0px" y="0px"
	 viewBox="0 0 512 512" enable-background="new 0 0 512 512" xml:space="preserve">
<path fill="#231815" d="M255.8,0C114.5,0-0.2,114.6-0.2,256s114.6,256,256,256s256-114.6,256-256S397.2,0,255.8,0z M229,351.5
	c0,17.2-14.4,32.5-33,32.5h-0.2c-18.6,0-34.8-15.3-34.8-32.5V159.6c0-17.2,16.3-30.6,34.9-30.6h0.1c18.6,0,33,13.4,33,30.6V351.5z
	 M349,350.7c0,17.2-14.3,32.3-32.9,32.3H316c-18.6,0-35-15.1-35-32.3V158.8c0-17.2,16.4-30.8,35-30.8h0.2
	c18.6,0,32.8,13.6,32.8,30.8V350.7z"/>
</svg>
