<?xml version="1.0" encoding="utf-8"?>
<!-- Generator: Adobe Illustrator 18.0.0, SVG Export Plug-In . SVG Version: 6.00 Build 0)  -->
<!DOCTYPE svg PUBLIC "-//W3C//DTD SVG 1.1//EN" "http://www.w3.org/Graphics/SVG/1.1/DTD/svg11.dtd">
<svg version="1.1" id="图层_1" xmlns="http://www.w3.org/2000/svg" xmlns:xlink="http://www.w3.org/1999/xlink" x="0px" y="0px"
	 width="512px" height="512px" viewBox="0 0 512 512" enable-background="new 0 0 512 512" xml:space="preserve">
<g>
	<path fill="#231815" d="M257.3,510.9c-67.9,0-131.8-26.4-179.8-74.5c-48-48-74.5-111.9-74.5-179.8c0-67.9,26.4-131.8,74.5-179.8
		c48-48,111.9-74.5,179.8-74.5s131.8,26.4,179.8,74.5c48,48,74.5,111.9,74.5,179.8c0,67.9-26.4,131.8-74.5,179.8
		C389.1,484.5,325.3,510.9,257.3,510.9z M197.8,134.5c-15.1,0-27.3,12.3-27.3,27.3v190.7c0,15.1,12.3,27.3,27.3,27.3
		c15.1,0,27.3-12.3,27.3-27.3V161.8C225.2,146.8,212.9,134.5,197.8,134.5z M316,134.5c-15.1,0-27.3,12.3-27.3,27.3v190.3
		c0,15.1,12.3,27.3,27.3,27.3s27.3-12.3,27.3-27.3V161.8C343.3,146.8,331.1,134.5,316,134.5z"/>
	<path fill="#231815" d="M257.3,2.9c34.3,0,67.5,6.7,98.8,19.9c30.2,12.8,57.4,31.1,80.7,54.4c23.3,23.3,41.6,50.4,54.4,80.7
		c13.2,31.3,19.9,64.5,19.9,98.8s-6.7,67.5-19.9,98.8c-12.8,30.2-31.1,57.4-54.4,80.7c-23.3,23.3-50.4,41.6-80.7,54.4
		c-31.3,13.2-64.5,19.9-98.8,19.9s-67.5-6.7-98.8-19.9c-30.2-12.8-57.4-31.1-80.7-54.4c-23.3-23.3-41.6-50.4-54.4-80.7
		c-13.2-31.3-19.9-64.5-19.9-98.8s6.7-67.5,19.9-98.8c12.8-30.2,31.1-57.4,54.4-80.7c23.3-23.3,50.4-41.6,80.7-54.4
		C189.9,9.6,223.1,2.9,257.3,2.9 M316,380c15.3,0,27.8-12.5,27.8-27.8V161.8c0-15.3-12.5-27.8-27.8-27.8
		c-15.3,0-27.8,12.5-27.8,27.8v190.3C288.2,367.5,300.7,380,316,380 M197.8,380.3L197.8,380.3c15.3,0,27.8-12.5,27.8-27.8V161.8
		c0-15.3-12.5-27.8-27.8-27.8c-15.3,0-27.8,12.5-27.8,27.8v190.7C170,367.8,182.5,380.3,197.8,380.3 M257.3,1.9
		C116.6,1.9,2.6,116,2.6,256.7s114.1,254.8,254.8,254.8s254.8-114.1,254.8-254.8S398,1.9,257.3,1.9L257.3,1.9z M316,379
		c-14.8,0-26.8-12.1-26.8-26.8V161.8c0-14.8,12.1-26.8,26.8-26.8c14.8,0,26.8,12.1,26.8,26.8v190.3C342.8,366.9,330.8,379,316,379
		L316,379z M197.8,379.3c-14.8,0-26.8-12.1-26.8-26.8V161.8c0-14.8,12.1-26.8,26.8-26.8h0c14.8,0,26.8,12.1,26.8,26.8v190.7
		C224.7,367.3,212.6,379.3,197.8,379.3L197.8,379.3L197.8,379.3z"/>
</g>
</svg>
