<?xml version="1.0" encoding="utf-8"?>
<!-- Generator: Adobe Illustrator 18.0.0, SVG Export Plug-In . SVG Version: 6.00 Build 0)  -->
<!DOCTYPE svg PUBLIC "-//W3C//DTD SVG 1.1//EN" "http://www.w3.org/Graphics/SVG/1.1/DTD/svg11.dtd">
<svg version="1.1" xmlns="http://www.w3.org/2000/svg" xmlns:xlink="http://www.w3.org/1999/xlink" x="0px" y="0px" width="512px"
	 height="512px" viewBox="0 0 512 512" enable-background="new 0 0 512 512" xml:space="preserve">
<g id="图层_1">
	<g>
		<path fill="#231815" d="M256.3,36.9c29.7,0,58.5,5.8,85.5,17.3c26.2,11.1,49.7,26.9,69.9,47.1c20.2,20.2,36,43.7,47.1,69.9
			c11.4,27.1,17.3,55.8,17.3,85.5s-5.8,58.5-17.3,85.5c-11.1,26.2-26.9,49.7-47.1,69.9c-20.2,20.2-43.7,36-69.9,47.1
			c-27.1,11.4-55.8,17.3-85.5,17.3s-58.5-5.8-85.5-17.3c-26.2-11.1-49.7-26.9-69.9-47.1c-20.2-20.2-36-43.7-47.1-69.9
			c-11.4-27.1-17.3-55.8-17.3-85.5s5.8-58.5,17.3-85.5c11.1-26.2,26.9-49.7,47.1-69.9c20.2-20.2,43.7-36,69.9-47.1
			C197.9,42.7,226.7,36.9,256.3,36.9 M256.3,1.9C115.6,1.9,1.6,116,1.6,256.7s114.1,254.8,254.8,254.8s254.8-114.1,254.8-254.8
			S397,1.9,256.3,1.9L256.3,1.9z"/>
	</g>
	<path fill="#231815" stroke="#231815" stroke-miterlimit="10" d="M195.7,133.5h-0.4c-16.5,0-29.8,12.3-29.8,27.5v195
		c0,15.2,13.3,27.5,29.8,27.5h0.4c16.5,0,29.8-12.3,29.8-27.5V161C225.5,145.8,212.2,133.5,195.7,133.5z"/>
	<path fill="#231815" stroke="#231815" stroke-miterlimit="10" d="M343.5,158.5c0-15.2-13.3-27-29.8-27h-0.4
		c-16.5,0-29.8,11.8-29.8,27v195c0,15.2,13.3,28,29.8,28h0.4c16.5,0,29.8-12.8,29.8-28V158.5z"/>
</g>
<g id="图层_2">
</g>
</svg>
