<?xml version="1.0" encoding="utf-8"?>
<!-- Generator: Adobe Illustrator 18.0.0, SVG Export Plug-In . SVG Version: 6.00 Build 0)  -->
<!DOCTYPE svg PUBLIC "-//W3C//DTD SVG 1.1//EN" "http://www.w3.org/Graphics/SVG/1.1/DTD/svg11.dtd">
<svg version="1.1" id="图层_1" xmlns="http://www.w3.org/2000/svg" xmlns:xlink="http://www.w3.org/1999/xlink" x="0px" y="0px"
	 viewBox="0 0 512 512" enable-background="new 0 0 512 512" xml:space="preserve">
<g>
	<path fill="#231815" d="M255.8,0C114.5,0-0.2,114.6-0.2,256s114.6,256,256,256s256-114.6,256-256S397.2,0,255.8,0z M255.7,473.5
		c-120.2,0-217.6-97.4-217.6-217.6S135.5,38.3,255.7,38.3s217.6,97.4,217.6,217.6S375.9,473.5,255.7,473.5z"/>
</g>
<g>
	<path fill="#231815" d="M196,129h-0.1c-18.6,0-33.9,14.3-33.9,31.5v191.9c0,17.2,15.2,31.6,33.8,31.6h0.2c18.6,0,34-14.4,34-31.6
		V160.5C230,143.3,214.6,129,196,129z"/>
	<path fill="#231815" d="M316.2,128H316c-18.6,0-34,14.4-34,31.6v191.9c0,17.2,15.4,31.5,34,31.5h0.1c18.6,0,33.9-14.3,33.9-31.5
		V159.6C350,142.4,334.8,128,316.2,128z"/>
</g>
</svg>
