<?xml version="1.0" encoding="utf-8"?>
<!-- Generator: Adobe Illustrator 16.0.0, SVG Export Plug-In . SVG Version: 6.00 Build 0)  -->
<!DOCTYPE svg PUBLIC "-//W3C//DTD SVG 1.1//EN" "http://www.w3.org/Graphics/SVG/1.1/DTD/svg11.dtd">
<svg version="1.1" id="图层_1" xmlns="http://www.w3.org/2000/svg" xmlns:xlink="http://www.w3.org/1999/xlink" x="0px" y="0px"
	 width="512px" height="512px" viewBox="0 0 512 512" enable-background="new 0 0 512 512" xml:space="preserve">
<g>
	<path d="M432.1,511h-81.5L303,375.7H153.5L105.9,511H24.4L194.2,69.3h67.9L432.1,511z M286,327.2l-54.4-155.8h-6.8l-54.4,155.8H286
		z"/>
</g>
<g>
	<path d="M602.7,507.8h-38.3c-2.1-2.1-3.7-5-4.8-8.8c-1.1-3.7-1.6-8.2-1.6-13.6c-7.5,8.5-16.5,14.9-27.1,19.2
		c-10.7,4.3-21.8,6.4-33.5,6.4c-17,0-31.4-4.2-43.1-12.8c-11.7-8.5-17.6-20.8-17.6-36.7s5.3-28.7,16-38.3
		c10.6-9.6,27.1-16,49.5-19.2c14.9-2.1,27.9-4.8,39.1-8s16.8-7.4,16.8-12.8c0-6.4-2.4-12.8-7.2-19.2c-4.8-6.4-15.2-9.6-31.1-9.6
		c-12.8,0-22.1,2.4-27.9,7.2c-5.9,4.8-9.9,11.5-12,20h-35.1c2.1-17,9.8-30.6,23.2-40.7c13.3-10.1,30.6-15.2,51.9-15.2
		c23.4,0,41,5.3,52.7,16c11.7,10.7,17.6,25.5,17.6,44.7v87.8c0,6.4,1,12.3,3.2,17.6C595.3,497.2,598.5,502.5,602.7,507.8z
		 M558,448.7v-31.9c-6.4,2.1-12.5,4-18.4,5.6c-5.9,1.6-15.7,3.5-29.5,5.6c-16,2.1-26.3,5.9-31.1,11.2c-4.8,5.3-7.2,11.7-7.2,19.2
		c0,6.4,2.4,12,7.2,16.8c4.8,4.8,12,7.2,21.6,7.2s20-2.6,31.1-8C542.8,469,551.6,460.5,558,448.7z"/>
</g>
</svg>
