<?xml version="1.0" encoding="utf-8"?>
<!-- Generator: Adobe Illustrator 18.0.0, SVG Export Plug-In . SVG Version: 6.00 Build 0)  -->
<!DOCTYPE svg PUBLIC "-//W3C//DTD SVG 1.1//EN" "http://www.w3.org/Graphics/SVG/1.1/DTD/svg11.dtd">
<svg version="1.1" id="图层_1" xmlns="http://www.w3.org/2000/svg" xmlns:xlink="http://www.w3.org/1999/xlink" x="0px" y="0px"
	 width="512px" height="512px" viewBox="0 0 512 512" enable-background="new 0 0 512 512" xml:space="preserve">
<g>
	<path d="M341.1,36.5c-9.5-5-20.8-3.9-31,3.2L159,142.9c-6,4.1-12.9,6.9-15.3,7.5h-8.9H57.9c-31.8,0-57.7,25.9-57.7,57.7v96.2
		c0,31.8,25.9,57.7,57.7,57.7h76.9h8.9c2.5,0.6,9.4,3.4,15.4,7.5l151,103.3c6,4.1,12.5,6.2,18.6,6.2c4.3,0,8.5-1,12.4-3.1
		c9.5-5,14.9-15,14.9-27.4V63.9C356,51.5,350.5,41.5,341.1,36.5z M317.5,431.3l-136.7-93.6c-4-2.7-10.3-6.4-17.1-9.4v-72.2
		c0-5.3-4.3-9.6-9.6-9.6c-5.3,0-9.6,4.3-9.6,9.6v67.3h-9.6H57.9c-10.6,0-19.2-8.6-19.2-19.2v-96.2c0-10.6,8.6-19.2,19.2-19.2h76.9
		h9.6v9.6c0,5.3,4.3,9.6,9.6,9.6c5.3,0,9.6-4.3,9.6-9.6V184c6.8-2.9,13.1-6.6,17.1-9.4l136.7-93.5V431.3z"/>
	<path d="M405.5,188.7c-4.7-2.4-10.4-0.5-12.8,4.2c-2.4,4.7-0.5,10.5,4.1,12.9c1,0.5,24.6,13.3,24.6,51.1s-23.6,50.6-24.5,51.1
		c-4.8,2.4-6.7,8.2-4.3,12.9c1.7,3.4,5.1,5.3,8.6,5.3c1.4,0,2.9-0.3,4.3-1c1.4-0.7,35.1-18.2,35.1-68.3S406.9,189.4,405.5,188.7z"/>
	<path d="M449.5,132.9c-4.4-2.9-10.4-1.8-13.3,2.7c-3,4.4-1.8,10.4,2.6,13.3c2.2,1.5,53.8,37.1,53.8,108S441,363.5,438.8,365
		c-4.4,2.9-5.6,8.9-2.7,13.3c1.9,2.8,4.9,4.3,8,4.3c1.8,0,3.7-0.5,5.3-1.6c2.5-1.7,62.3-42.5,62.3-124
		C511.8,175.4,452.1,134.6,449.5,132.9z"/>
</g>
</svg>
