<?xml version="1.0" encoding="utf-8"?>
<!-- Generator: Adobe Illustrator 19.0.0, SVG Export Plug-In . SVG Version: 6.00 Build 0)  -->
<svg version="1.1" id="图层_1" xmlns="http://www.w3.org/2000/svg" xmlns:xlink="http://www.w3.org/1999/xlink" x="0px" y="0px"
	 width="1451.3px" height="1451.3px" viewBox="0 0 1451.3 1451.3" enable-background="new 0 0 1451.3 1451.3" xml:space="preserve">
<path id="XMLID_6_" d="M292.9,705.8c34.5-2.9,63.3-8.6,66.1-8.6c126.5-28.8,238.9-28.8,290.6-23c11.6,2.9,49,2.9,49,5.7V677
	c0-80.6-34.6-201.4-57.7-299.3c-17.2-89.2-57.6-155.4-63.3-164c-34.5-46-103.5-63.3-103.5-63.3c-109.3-23-205.7,49.1-205.7,49.1
	c-120.7,74.9-79.1,213.2-76.1,213.2c0,0-11.5,0-20.1,0c-221.5,0-155.3,195.5-155.3,195.5c23,60.4,80.6,96.3,112.1,104.9
	C180.8,724.6,249.7,711.6,292.9,705.8z"/>
<path id="XMLID_5_" d="M802.3,673.3v2.9c99-28.8,137.9-43.2,296.1-60.4c89.1-11.5,143.8-37.4,158.1-46c46-31.6,69-77.7,69-77.7
	c46-103.6-8.7-198.5-14.4-201.4c-74.8-112.2-169.7-66.2-178.3-63.3c-2.4,2.4-24,12.4-31.6,15.9c0-10.4-0.1-47.9-2.9-56.3
	C1069.5,74.8,951.6,89.2,920,97.8c-63.3,20.1-92,54.7-106.4,80.5c-20.1,46.1-20.1,72-23,115.2c0,115.1-2.8,227.3,11.6,345.3
	C802.1,650.2,802.3,664.6,802.3,673.3z"/>
<path id="XMLID_4_" d="M724.3,769.7c-8.6,2.8-46,0-57.5,2.8c-138,5.7-247.3,40.3-330.8,83.4c-40.3,17.3-80.5,51.8-106.4,80.5
	c-17.3,25.9-54.7,69.1-51.7,135.3c-5.7,25.9-17.2,189.9,161.1,201.4c11.5,0,54.7,0,54.7-2.9c0,2.9,2.9,14.4,5.7,23
	c0,8.6,17.3,97.8,103.6,141c37.4,28.8,184,31.6,253.1-74.8c11.6-2.9,37.3-57.6,40.3-109.3c2.8-14.4,2.8-86.3-14.4-184.1
	C750.2,939.5,721.4,867.6,724.3,769.7z"/>
<path id="XMLID_3_" d="M1367.1,776.2c0,0-25.9-17.2-83.4-31.6c-14.4-2.9-74.8-20.1-172.6-11.5c-132.3,8.7-201.3,25.9-293.3,31.7
	c5.7,8.6,5.7,28.8,8.7,40.3c28.7,112.2,69.1,233,106.4,328c17.2,37.4,28.8,69.1,51.8,103.6c25.9,20.1,60.4,48.9,126.5,46.1
	c31.6,0,172.6-25.3,164-140.5c-2.9-8.7-17.2-68.5-20.1-68.5c0,0,0,0,2.9,0c2.8,0,31.6,5.2,37.3,5.2c8.6,0,115.1,12.6,149.6-102.5
	C1459.1,950.6,1456.2,828,1367.1,776.2z"/>
</svg>
