<?xml version="1.0" encoding="utf-8"?>
<!-- Generator: Adobe Illustrator 18.0.0, SVG Export Plug-In . SVG Version: 6.00 Build 0)  -->
<!DOCTYPE svg PUBLIC "-//W3C//DTD SVG 1.1//EN" "http://www.w3.org/Graphics/SVG/1.1/DTD/svg11.dtd">
<svg version="1.1" id="图层_1" xmlns="http://www.w3.org/2000/svg" xmlns:xlink="http://www.w3.org/1999/xlink" x="0px" y="0px"
	 width="512px" height="512px" viewBox="0 0 512 512" enable-background="new 0 0 512 512" xml:space="preserve">
<g>
	<path d="M464,20.7H48c-26.5,0-48,19.4-48,43.3v375.4c0,23.9,21.5,43.3,48,43.3h416c26.5,0,48-19.4,48-43.3V64.1
		C512,40.1,490.5,20.7,464,20.7z M460.5,393c0,23.9-21.5,43.3-48,43.3h-313c-26.5,0-48-19.4-48-43.3V110.5c0-23.9,21.5-43.3,48-43.3
		h313c26.5,0,48,19.4,48,43.3V393z"/>
</g>
</svg>
