<?xml version="1.0" encoding="utf-8"?>
<!-- Generator: Adobe Illustrator 16.0.0, SVG Export Plug-In . SVG Version: 6.00 Build 0)  -->
<!DOCTYPE svg PUBLIC "-//W3C//DTD SVG 1.1//EN" "http://www.w3.org/Graphics/SVG/1.1/DTD/svg11.dtd">
<svg version="1.1" id="图层_1" xmlns="http://www.w3.org/2000/svg" xmlns:xlink="http://www.w3.org/1999/xlink" x="0px" y="0px"
	 width="512px" height="512px" viewBox="0 0 512 512" enable-background="new 0 0 512 512" xml:space="preserve">
<path d="M10.3,399.3h-10v-300h10V399.3z M72.3,99.3h-10v300h10V99.3z M374.3,99.3h-10v300h10V99.3z M164.3,99.3h-10v300h10V99.3z
	 M282.3,99.3h-10v300h10V99.3z M102.3,99.3h-20v300h20V99.3z M354.3,99.3h-20v300h20V99.3z M24.3,99.3h-4v300h4V99.3z M38.3,99.3h-4
	v300h4V99.3z M52.3,99.3h-4v300h4V99.3z M116.3,99.3h-4v300h4V99.3z M130.3,99.3h-4v300h4V99.3z M144.3,99.3h-4v300h4V99.3z
	 M178.3,99.3h-4v300h4V99.3z M388.3,99.3h-4v300h4V99.3z M402.2,99.3h-4v300h4V99.3z M416.4,99.2h-4v300h4V99.2z M430.4,99.3h-4v300
	h4V99.3z M444.4,99.4h-4v300h4V99.4z M458.4,99.4h-4v300h4V99.4z M472.6,99.3h-4v300h4V99.3z M486.6,99.4h-4v300h4V99.4z
	 M500.6,99.4h-4v300h4V99.4z M512,99.4h-4v300h4V99.4z M192.3,99.3h-4v300h4V99.3z M206.3,99.3h-4v300h4V99.3z M220.3,99.3h-4v300h4
	V99.3z M234.3,99.3h-4v300h4V99.3z M296.3,99.3h-4v300h4V99.3z M310.3,99.3h-4v300h4V99.3z M324.3,99.3h-4v300h4V99.3z M248.3,99.3
	h-4v300h4V99.3z M262.3,99.3h-4v300h4V99.3z"/>
</svg>
