<?xml version="1.0" encoding="utf-8"?>
<!-- Generator: Adobe Illustrator 19.0.0, SVG Export Plug-In . SVG Version: 6.00 Build 0)  -->
<svg version="1.1" id="图层_1" xmlns="http://www.w3.org/2000/svg" xmlns:xlink="http://www.w3.org/1999/xlink" x="0px" y="0px"
	 width="1451.3px" height="1451.3px" viewBox="0 0 1451.3 1451.3" enable-background="new 0 0 1451.3 1451.3" xml:space="preserve">
<g id="XMLID_219_">
	<path id="XMLID_220_" d="M1379,558.5c-72.4-247.7-309.4-456.3-466.4-485l-1.2-1.1C859.1,59.6,798.1,51.3,728,50.8
		c-225.9-1.5-263.7-21.2-324-37.7C343.6-3.6,290.8-17.2,271.2,58.3c-19.6,75.5-30.2,175.8-105.7,283.5
		c-25.8,36.9-52.8,82.7-76.2,134.5C58.5,560.3,11.1,738.8,73.9,926c86.5,257.8,323.5,499,682.3,475.4
		c183.1-12.1,233.5,22.1,291.8,40.2c58.3,18.1,110.7,18.1,124.8-64.4c14.1-82.6,65.9-214.6,159-344.4
		C1331.8,1032.8,1451.5,806.2,1379,558.5L1379,558.5z M930.9,305.7c46.7,0,84.5,38.8,84.5,86.6c0,47.9-37.8,86.6-84.5,86.6
		s-84.5-38.8-84.5-86.6C846.4,344.4,884.2,305.7,930.9,305.7L930.9,305.7z M647.2,476.9c46.7,0,84.5,37.9,84.5,84.6
		c0,46.7-37.8,84.6-84.5,84.6s-84.6-37.9-84.6-84.6C562.6,514.7,600.5,476.9,647.2,476.9L647.2,476.9z M363.4,803.2
		c-46.7,0-84.5-37.9-84.5-84.6c0-46.7,37.8-84.6,84.5-84.6s84.6,37.9,84.6,84.6C447.9,765.3,410.1,803.2,363.4,803.2L363.4,803.2z
		 M965.2,982.5c-130.8,106.8-358.2,138.9-487,50.4c0,0-26.7-30.8-23.4-55.7c3.2-24.9,36.5-44.1,107.9-20.9
		c110.1,35.7,205.3,44.3,318-38.3c0,0,132.9-74.5,169.1-259.8c0,0,18.1-74.5,78.5-12.1C1188.5,708.5,1051.9,911.7,965.2,982.5
		L965.2,982.5z"/>
</g>
</svg>
