<?xml version="1.0" encoding="utf-8"?>
<!-- Generator: Adobe Illustrator 18.0.0, SVG Export Plug-In . SVG Version: 6.00 Build 0)  -->
<!DOCTYPE svg PUBLIC "-//W3C//DTD SVG 1.1//EN" "http://www.w3.org/Graphics/SVG/1.1/DTD/svg11.dtd">
<svg version="1.1" id="图层_1" xmlns="http://www.w3.org/2000/svg" xmlns:xlink="http://www.w3.org/1999/xlink" x="0px" y="0px"
	 width="512px" height="512px" viewBox="0 0 512 512" enable-background="new 0 0 512 512" xml:space="preserve">
<path d="M503.5,426.5l-95.7-95.1c-27.3-27.3-41-39.8-48.4-45.2c15.7-27.7,24.8-59.7,24.8-93.7c0-105.3-86.2-191-192.1-191
	C86.2,1.5,0,87.2,0,192.5s86.2,191,192.1,191c35.5,0,68.8-9.7,97.4-26.4c-7.5-2,19.7,24.9,43.5,48.7l95.7,95.1
	c7.2,7.2,16.9,11.2,27.2,11.2c10.3,0,19.9-4,27.2-11.2l20.5-20.3C518.5,465.6,518.5,441.4,503.5,426.5z M38.4,192.5
	c0-84.2,68.9-152.8,153.7-152.8c84.7,0,153.7,68.5,153.7,152.8s-68.9,152.8-153.7,152.8C107.4,345.3,38.4,276.7,38.4,192.5z
	 M455.9,469.4c0,0-4.5,4.4-4.5,4.4l-93.4-95.1l21.6-20.3l96.2,92.9L455.9,469.4z"/>
</svg>
