<?xml version="1.0" encoding="utf-8"?>
<!-- Generator: Adobe Illustrator 18.0.0, SVG Export Plug-In . SVG Version: 6.00 Build 0)  -->
<!DOCTYPE svg PUBLIC "-//W3C//DTD SVG 1.1//EN" "http://www.w3.org/Graphics/SVG/1.1/DTD/svg11.dtd">
<svg version="1.1" id="图层_1" xmlns="http://www.w3.org/2000/svg" xmlns:xlink="http://www.w3.org/1999/xlink" x="0px" y="0px"
	 width="512px" height="512px" viewBox="0 0 512 512" enable-background="new 0 0 512 512" xml:space="preserve">
<g>
	<path d="M492.5,24.5c-15.5-17-38.1-25.5-63.3-23L295.7,14.6c-18.7,1.8-41.5,12-53.1,23.5L17.5,262.9C7.5,273,1.3,286,0.2,299.5
		C-1,314,3.9,327.9,13.6,337.7l161.1,161c8.6,8.6,20.5,13.4,33.3,13.4c14.6,0,29.1-6.2,39.9-17l225.1-224.8
		c12.1-12.1,22.5-33.3,24-49.4l13.6-138C512.9,60.6,506.5,39.8,492.5,24.5z M220.7,467.8c-3.6,3.6-8.4,5.8-12.7,5.8
		c-1.8,0-4.3-0.4-6-2.1L40.8,310.5c-3.9-3.9-3-13.4,3.9-20.4l30.4-30.4l176.9,176.7L220.7,467.8z M472.4,79.1l-13.6,138
		c-0.7,7.3-7.1,20.2-13,26L265.7,422.8L88.8,246.1l181-180.8c4.8-4.8,19.1-11.4,29.6-12.5L433,39.7c1.6-0.2,3.1-0.2,4.7-0.2
		c10.6,0,20,3.8,26.3,10.8C470.5,57.5,473.5,67.7,472.4,79.1z"/>
	<path d="M391.9,72.1c-26.5,0-48.1,21.6-48.1,48.1s21.6,48.1,48.1,48.1c26.5,0,48.1-21.6,48.1-48.1S418.4,72.1,391.9,72.1z
		 M391.9,149c-15.9,0-28.9-12.9-28.9-28.8s13-28.8,28.9-28.8c15.9,0,28.9,12.9,28.9,28.8S407.8,149,391.9,149z"/>
</g>
</svg>
