<?xml version="1.0" encoding="utf-8"?>
<!-- Generator: Adobe Illustrator 18.0.0, SVG Export Plug-In . SVG Version: 6.00 Build 0)  -->
<!DOCTYPE svg PUBLIC "-//W3C//DTD SVG 1.1//EN" "http://www.w3.org/Graphics/SVG/1.1/DTD/svg11.dtd">
<svg version="1.1" id="图层_1" xmlns="http://www.w3.org/2000/svg" xmlns:xlink="http://www.w3.org/1999/xlink" x="0px" y="0px"
	 width="512px" height="512px" viewBox="0 0 512 512" enable-background="new 0 0 512 512" xml:space="preserve">
<path d="M512,319.8c0.3-1.3,0.3-2.6,0-3.9V224c0.3-1.3,0.3-2.6,0-3.9v-94.3c0-1.8-0.5-3.4-1.3-4.9c0-5.3-1.9-18.4-18.9-25.7
	L280.7,4.6C271.9,0.8,262.4,0,256,0c-6.4,0-15.9,0.8-24.7,4.6L20.2,95.1c-17.1,7.3-18.9,20.4-18.9,25.7c0,1.1-0.1,2.6,0.2,4.4
	c-0.2,1.1-0.5,2.2-0.5,3.3v88.2c0,0.5-0.6,1-0.8,1.6c-1.2,3.1-0.2,6.3,0.8,8.9v85.3c0,0.5-0.6,1-0.8,1.6c-1.2,3.1-0.2,6.3,0.8,8.9
	v75.1c0,0.1,0.2,0.2,0.2,0.3c-0.3,0.5-0.5,1.1-0.7,1.6c-1.9,5.1,0.5,10.8,5.3,12.8l229.2,95.4c5.9,2.5,13.5,3.7,21.1,3.7
	c7.6,0,15.2-1.2,21.1-3.7l229.2-95.4c4.4-1.8,6.7-6.7,5.7-11.4c0-0.3,0.1-0.7,0.1-1.1V319.8z M482,219.9l-212.1,88.3
	c-7.4,3.1-20.7,3.1-28.1,0L31,220.5v-69.2l200.3,85.9c8.8,3.8,18.3,4.6,24.7,4.6c6.4,0,15.7-0.8,24.6-4.6L482,150.7V219.9z
	 M31,241.7l203.9,84.9c5.9,2.5,13.5,3.7,21.1,3.7c7.6,0,15-1.2,20.9-3.7L482,241.1v74.6l-212.1,88.3c-7.4,3.1-20.7,3.1-28.1,0
	L31,316.3V241.7z M245.7,41c1.8-0.8,5.5-1.6,10.3-1.6c4.8,0,8.5,0.8,10.3,1.6l186.1,79.9l-186.1,79.8c-1.8,0.8-5.5,1.6-10.3,1.6
	c-4.8,0-8.5-0.8-10.3-1.6L59.6,120.9L245.7,41z M270.1,490c-7.4,3.1-20.7,3.1-28.1,0L30.5,402c0.3-1.2,0.5-2.5,0.5-3.9v-60.7
	l203.9,84.9c5.9,2.5,13.5,3.7,21.1,3.7c7.6,0,15-1.2,20.9-3.7L482,336.9v63.6c0,0.4,0.2,0.8,0.2,1.2L270.1,490z"/>
</svg>
