<?xml version="1.0" encoding="utf-8"?>
<!-- Generator: Adobe Illustrator 16.0.0, SVG Export Plug-In . SVG Version: 6.00 Build 0)  -->
<!DOCTYPE svg PUBLIC "-//W3C//DTD SVG 1.1//EN" "http://www.w3.org/Graphics/SVG/1.1/DTD/svg11.dtd">
<svg version="1.1" id="图层_1" xmlns="http://www.w3.org/2000/svg" xmlns:xlink="http://www.w3.org/1999/xlink" x="0px" y="0px"
	 width="512px" height="512px" viewBox="0 0 512 512" enable-background="new 0 0 512 512" xml:space="preserve">
<path d="M342,433.3c2.2-2.7,3.5-6.2,3.5-10c0-8.8-7.1-15.9-15.9-15.9c0,0,0,0,0,0c0.1,0,0.2,0,0.3,0l0,0l-43.8-0.1V60.5V23v-1
	c0-9-7.3-16.3-16.3-16.3S253.7,13,253.7,22v1v37.5v346.7h-43.2l0,0.1c-0.1,0-0.1,0-0.2,0c-8.8,0-15.9,7.1-15.9,15.9
	c0,4.5,1.7,8.7,4.8,11.6l0.1,0.1l49,54.6l8.4,10.8l0.2,0.1c2.9,4.2,7.7,6.8,13.2,6.8c5.5,0,10.5-2.8,13.3-7l8.4-10.8l47.4-52.8l0,0
	l0,0l2.1-2.3l0,0L342,433.3L342,433.3z M254.1,491.4c0,0.5,0,1,0.1,1.5C254.1,492.4,254.1,491.9,254.1,491.4
	c0-7.7,5.5-14.1,12.7-15.6C259.5,477.3,254.1,483.7,254.1,491.4z M339.1,436.1L339.1,436.1C339.1,436.1,339.1,436.1,339.1,436.1
	L339.1,436.1z"/>
</svg>
