<?xml version="1.0" encoding="utf-8"?>
<!-- Generator: Adobe Illustrator 18.0.0, SVG Export Plug-In . SVG Version: 6.00 Build 0)  -->
<!DOCTYPE svg PUBLIC "-//W3C//DTD SVG 1.1//EN" "http://www.w3.org/Graphics/SVG/1.1/DTD/svg11.dtd">
<svg version="1.1" id="图层_1" xmlns="http://www.w3.org/2000/svg" xmlns:xlink="http://www.w3.org/1999/xlink" x="0px" y="0px"
	 width="512px" height="512px" viewBox="0 0 512 512" enable-background="new 0 0 512 512" xml:space="preserve">
<g>
	<path d="M431.5,239.3C376.3,112.7,275,8.1,270.7,3.7c-3.7-3.8-8.7-5.9-14-5.9c0,0,0,0-0.1,0c-5.3,0-10.3,2.2-14,6
		c-4.2,4.4-104,109-158.9,234.9c-12.5,26-18.8,53.6-18.8,82.1C65,426.2,151.3,512,257.4,512c106.1,0,192.4-85.8,192.4-191.3
		C449.8,291.9,443.5,264.3,431.5,239.3z M257.4,472.9c-84.5,0-153.3-68.3-153.3-152.2c0-22.5,5-44.5,15.2-65.8
		c40.5-92.8,108.4-175.4,137.5-208.6c29.5,33.1,98.4,115.8,139.1,209.3c9.7,20.3,14.7,42.2,14.7,65.2
		C410.7,404.6,341.9,472.9,257.4,472.9z"/>
</g>
</svg>
