<?xml version="1.0" encoding="utf-8"?>
<!-- Generator: Adobe Illustrator 16.0.0, SVG Export Plug-In . SVG Version: 6.00 Build 0)  -->
<!DOCTYPE svg PUBLIC "-//W3C//DTD SVG 1.1//EN" "http://www.w3.org/Graphics/SVG/1.1/DTD/svg11.dtd">
<svg version="1.1" id="图层_1" xmlns="http://www.w3.org/2000/svg" xmlns:xlink="http://www.w3.org/1999/xlink" x="0px" y="0px"
	 width="512px" height="512px" viewBox="0 0 512 512" enable-background="new 0 0 512 512" xml:space="preserve">
<path fill-rule="evenodd" clip-rule="evenodd" d="M474.5,416.1c0,40.1-32.8,73-73,73H109.7c-40.1,0-73-32.8-73-73v-24.3h437.7V416.1
	L474.5,416.1z"/>
<path fill-rule="evenodd" clip-rule="evenodd" d="M48.9,313.2h413.4c13.4,0,24.3,10.9,24.3,24.3c0,13.4-10.9,24.3-24.3,24.3H48.9
	c-13.4,0-24.3-10.9-24.3-24.3C24.6,324.1,35.5,313.2,48.9,313.2L48.9,313.2z"/>
<path fill-rule="evenodd" clip-rule="evenodd" d="M474.5,225.1v-26.2H279.9h-24.3H36.8v26.2c-20.9,6.5-36.5,29.6-36.5,56.8
	c0,8.1,5.4,14.7,12.2,14.7c6.7,0,12.2-6.6,12.2-14.7c0-16.1,10.9-29.3,24.3-29.3h36.5c13.4,0,24.3,13.2,24.3,29.3
	c0,8.1,5.4,14.7,12.2,14.7c6.7,0,12.2-6.6,12.2-14.7c0-16.1,10.9-29.3,24.3-29.3h36.5c6.7,0,12.2,6.6,12.2,14.7
	c0,8.1,5.4,14.7,12.2,14.7c6.7,0,12.2-6.6,12.2-14.7c0-8.1,5.5-14.7,12.2-14.7h218.9c13.4,0,24.3,13.2,24.3,29.3
	c0,8.1,5.4,14.7,12.2,14.7c6.7,0,12.2-6.6,12.2-14.7C511,254.7,495.4,231.6,474.5,225.1z"/>
<path fill-rule="evenodd" clip-rule="evenodd" d="M255.6,22.3c-88.2,0-218.9,37.5-218.9,145.9h437.7
	C474.5,59.8,343.8,22.3,255.6,22.3z M146.2,100.2c-6.7,0-12.2-5.4-12.2-12.2c0-6.7,5.4-12.2,12.2-12.2c6.7,0,12.2,5.4,12.2,12.2
	C158.3,94.8,152.9,100.2,146.2,100.2z M182.7,75.9c-6.7,0-12.2-5.4-12.2-12.2c0-6.7,5.4-12.2,12.2-12.2c6.7,0,12.2,5.4,12.2,12.2
	C194.8,70.5,189.4,75.9,182.7,75.9z M219.1,112.4c-6.7,0-12.2-5.4-12.2-12.2c0-6.7,5.4-12.2,12.2-12.2c6.7,0,12.2,5.4,12.2,12.2
	C231.3,107,225.9,112.4,219.1,112.4z M255.6,63.8c-6.7,0-12.2-5.4-12.2-12.2c0-6.7,5.4-12.2,12.2-12.2c6.7,0,12.2,5.4,12.2,12.2
	C267.8,58.3,262.3,63.8,255.6,63.8z M292.1,112.4c-6.7,0-12.2-5.4-12.2-12.2c0-6.7,5.4-12.2,12.2-12.2c6.7,0,12.2,5.4,12.2,12.2
	C304.3,107,298.8,112.4,292.1,112.4z M328.6,75.9c-6.7,0-12.2-5.4-12.2-12.2c0-6.7,5.4-12.2,12.2-12.2c6.7,0,12.2,5.4,12.2,12.2
	C340.7,70.5,335.3,75.9,328.6,75.9z M365.1,100.2c-6.7,0-12.2-5.4-12.2-12.2c0-6.7,5.4-12.2,12.2-12.2c6.7,0,12.2,5.4,12.2,12.2
	C377.2,94.8,371.8,100.2,365.1,100.2z"/>
</svg>
