<?xml version="1.0" encoding="utf-8"?>
<!-- Generator: Adobe Illustrator 19.0.0, SVG Export Plug-In . SVG Version: 6.00 Build 0)  -->
<svg version="1.1" id="图层_1" xmlns="http://www.w3.org/2000/svg" xmlns:xlink="http://www.w3.org/1999/xlink" x="0px" y="0px"
	 width="1451.3px" height="1451.3px" viewBox="0 0 1451.3 1451.3" enable-background="new 0 0 1451.3 1451.3" xml:space="preserve">
<g>
	<path fill="#231815" d="M143.4,569.4L61,706.8l152,102.1c0,0,101.3,56.2,52.8,161.5c-44.9,99.8-265.7,318-265.7,318l197.9,133.8
		c137.1-322.2,128-279.3,162.2-395.3c35.3-117.8,43.1-208.2-16.9-273.7C266.3,669.5,257.8,661.5,143.4,569.4L143.4,569.4z
		 M251.6,517.7c71.9,0,130.2-56.5,130.2-126.3c0-70.2-58.3-126.9-130.2-126.9c-72.4,0-130.3,56.8-130.3,126.9
		C121.3,461.2,179.2,517.7,251.6,517.7L251.6,517.7z M1427.1,533.3c0,0-43.2-362.6-774.6-138.2c31.5-59,46.2-97.2,46.2-97.2
		L516,242.2c0,0-73.8,261.2-205.3,382.8c0,0,127.5,79.9,126.2,77.6c36.5-39.6,69.4-80,97.3-119c29.3-14,57.5-26.9,84.8-39
		c-34.1,66.2-88.3,165.1-143,227.7l76.8,73.1c0,0,52.7-54.8,109.9-120.8H728v121.9H473.3V944h254.6v233.4l-9.7-0.4
		c-28-1.5-71.6-6.5-89-35.9c-20.6-35.9-5.3-101.2-4.4-141.9H449l-6.3,3.9c0,0-64.5,313.3,185.8,306.3
		c234.2,6.8,368.5-71.1,433-124.8l25.7,103.9l144.5-65.7l-97.7-259.3l-117.4,39.6l21.6,88.7c-29.7,24.6-64.3,42.7-101.6,56.2v-204
		h248.2v-97.6H936.5V724.4h249.2V627H742.6c32-42.3,56.9-81.2,63.6-105.3l-77.4-22.9c331.6-129.2,516.2-106.9,514.9,104.6V1160
		c0,0,19.5,191-182.2,177.5L952.1,1312l-25.5,112.6c0,0,471.2,146.5,509.7-246.9C1474.9,784.4,1427.1,533.3,1427.1,533.3
		L1427.1,533.3z"/>
</g>
</svg>
