<?xml version="1.0" encoding="utf-8"?>
<!-- Generator: Adobe Illustrator 18.0.0, SVG Export Plug-In . SVG Version: 6.00 Build 0)  -->
<!DOCTYPE svg PUBLIC "-//W3C//DTD SVG 1.1//EN" "http://www.w3.org/Graphics/SVG/1.1/DTD/svg11.dtd">
<svg version="1.1" id="图层_1" xmlns="http://www.w3.org/2000/svg" xmlns:xlink="http://www.w3.org/1999/xlink" x="0px" y="0px"
	 width="512px" height="512px" viewBox="0 0 512 512" enable-background="new 0 0 512 512" xml:space="preserve">
<path d="M195,285.8h63.1V349c0,7,5.6,12.6,12.6,12.6c7,0,12.6-5.6,12.6-12.6v-63.1h63.1c7,0,12.6-5.6,12.6-12.6s-5.6-12.6-12.6-12.6
	h-63.1v-63.1c0-7-5.6-12.6-12.6-12.6c-7,0-12.6,5.6-12.6,12.6v63.1H195c-7,0-12.6,5.6-12.6,12.6S188,285.8,195,285.8z"/>
<path d="M422.3,1H214.2c-15.5,0-34.7,7.7-45.7,18.7l-87.2,86.7c-11,11-19.3,30.1-19.3,45.6v321.7c0,20.9,17.7,38.3,38.6,38.3h321.7
	c20.9,0,36.7-17.5,36.7-38.3V242.5v-5.4V57.3v-2V38.4C459,17.5,443.2,1,422.3,1z M194,46.2v77.3c0,5.2-3,10.4-8.2,10.4h-77.3
	L194,46.2z M422,242.5V474H100V152h85.8c15.7,0,27.2-12.8,27.2-28.4V39h209V242.5z"/>
</svg>
