<?xml version="1.0" encoding="utf-8"?>
<!-- Generator: Adobe Illustrator 16.0.0, SVG Export Plug-In . SVG Version: 6.00 Build 0)  -->
<!DOCTYPE svg PUBLIC "-//W3C//DTD SVG 1.1//EN" "http://www.w3.org/Graphics/SVG/1.1/DTD/svg11.dtd">
<svg version="1.1" id="图层_1" xmlns="http://www.w3.org/2000/svg" xmlns:xlink="http://www.w3.org/1999/xlink" x="0px" y="0px"
	 width="512px" height="512px" viewBox="0 0 512 512" enable-background="new 0 0 512 512" xml:space="preserve">
<path d="M90.1,205.4c-32.4-30.8-39.1-77.3-14.5-106c25.6-29.7,75.3-28.9,110.9,1.8c21.6,18.6,33.1,43.9,33.2,67.6l42.6,36.6h7.2
	c11.3-46.3-7.5-101.8-52.1-140.1C158,14.1,75.2,12.8,32.5,62.3c-32.8,38.2-32.3,95.4-3.1,143H90.1z"/>
<path d="M424.3,306c31.9,30.8,38.3,76.9,13.8,105.4c-25.6,29.7-75.3,28.9-110.9-1.8C305.6,391,294.1,365.7,294,342l-41.9-36h-8.1
	c-11,46.1,7.8,101.3,52.2,139.5c59.5,51.2,142.3,52.5,184.9,2.9c32.7-38,32.3-94.9,3.5-142.4H424.3z"/>
<g>
	<path d="M131.9,174.3l36.8,31.7h61.7l-72.2-62.2c-4.5-3.9-10.7-4.2-13.7-0.7l-15.3,17.8C126.1,164.4,127.3,170.4,131.9,174.3z"/>
	<path d="M375,330.5L346.6,306h-61.7l63.9,55c4.5,3.9,10.7,4.2,13.7,0.7l15.3-17.8C380.8,340.4,379.5,334.4,375,330.5z"/>
</g>
<path d="M512,260.7c0,3.2-2.7,5.8-6,5.8H6c-3.3,0-6-2.6-6-5.8v-18.4c0-3.2,2.7-5.8,6-5.8h500c3.3,0,6,2.6,6,5.8V260.7z"/>
</svg>
