<?xml version="1.0" encoding="utf-8"?>
<!-- Generator: Adobe Illustrator 16.0.0, SVG Export Plug-In . SVG Version: 6.00 Build 0)  -->
<!DOCTYPE svg PUBLIC "-//W3C//DTD SVG 1.1//EN" "http://www.w3.org/Graphics/SVG/1.1/DTD/svg11.dtd">
<svg version="1.1" id="图层_1" xmlns="http://www.w3.org/2000/svg" xmlns:xlink="http://www.w3.org/1999/xlink" x="0px" y="0px"
	 width="512px" height="512px" viewBox="0 0 512 512" enable-background="new 0 0 512 512" xml:space="preserve">
<path d="M255.4,199.5l23.3,76.8l33.1-37.4L232.4,0h-38.2L98.6,287.5h45.9l26.8-88.1H255.4z M211.4,66.5h3.8l30.6,101.4h-65
	L211.4,66.5z"/>
<g>
	<path d="M341.3,456.4l-92.7-82c-7.8-6.9-18-8-22.9-2.6l-24.5,27.7c-4.8,5.5-2.5,15.5,5.3,22.4l92.7,82c7.8,6.9,18,8,22.9,2.6
		l24.5-27.7C351.4,473.3,349,463.3,341.3,456.4z"/>
	<path d="M491.5,240.7l-41.6-36.8c-21.9-19.4-52.2-20.9-67.7-3.3l-1.5,1.6c-0.7,0.5-1.4,1.1-2,1.8l-111,125.4
		c-6.7,7.5-2.8,21.8,8.6,32l79.4,70.3c11.4,10.1,26.1,12.2,32.8,4.7l48.8-55.1c1.2-1,2.3-2.1,3.4-3.3l62.3-70.4
		C518.6,289.9,513.4,260,491.5,240.7z"/>
</g>
</svg>
