<?xml version="1.0" encoding="utf-8"?>
<!-- Generator: Adobe Illustrator 18.0.0, SVG Export Plug-In . SVG Version: 6.00 Build 0)  -->
<!DOCTYPE svg PUBLIC "-//W3C//DTD SVG 1.1//EN" "http://www.w3.org/Graphics/SVG/1.1/DTD/svg11.dtd">
<svg version="1.1" id="图层_1" xmlns="http://www.w3.org/2000/svg" xmlns:xlink="http://www.w3.org/1999/xlink" x="0px" y="0px"
	 viewBox="0 0 512 512" enable-background="new 0 0 512 512" xml:space="preserve">
<g>
	<path fill="#231815" d="M505.7,383.4l-98.1-189c-7.6-14.7-20.4-25.7-36.2-31.2c-1.5-0.5-2.9-1-4-1.3l-0.1,0l-0.1,0
		c-0.1,0-0.1-0.2-0.2-0.2l-0.4-0.6h-1.3c-5.1-1-10.4-1.8-15.7-1.8c-5.3,0-10.5,0.8-15.6,1.8h-33v-25v-14h-14.2h-22.1
		c-0.6-1-1-2.5-0.8-3.3c0-0.1,3.1-9.4,37.7-16.2c21.8-4.3,35.9-7.8,45.8-11.2c9.3-3.3,19.5-7.9,23.8-17.6
		c5.1-11.5-1.1-21.7-6.5-30.7c-1.3-2.1-2.5-4.2-3.8-6.5L336,50.4c1.5,2.7,3,5.2,4.3,7.4c0.9,1.4,1.9,3.2,2.8,4.7
		c-5.2,2.4-17.6,6.3-46.9,12.1c-35.2,6.9-54.8,19-59.7,36.5c-1.1,3.8-1.3,7-1.1,11h-7H214v14v25h-35.9c-5.2-1-10.4-1.7-15.6-1.7
		c-24,0-46.8,13.2-58.1,35l-98,189.1c-4.7,9-7.1,18.7-7.1,28.7c0,24.2,13.8,46,35.9,56.8c9.2,4.5,19.1,6.6,28.8,6.6
		c23.8,0,46.8-12.5,58.2-34.5l49.9-96h167.7l49.9,96c11.4,22,34.4,34.6,58.2,34.6c9.7,0,19.6-2.2,28.9-6.7
		c22.1-10.8,35.9-32.7,35.9-56.9C512.7,402.1,510.3,392.1,505.7,383.4z M243,150h30v11h-30V150z M464.3,443.2
		c-5.3,2.6-10.9,3.8-16.5,3.8c-13.4,0-26.3-7.1-32.7-19.4l-53.9-103.9l-0.1,0c-1.6-4.5-6.1-7.8-11.3-7.8c-0.5,0-1,0.1-1.5,0.1H163
		v0.2c0,0-0.2,0-0.5,0c-6.1,0-11.1,3.6-12.3,8.4l-53.3,103C90.5,439.9,77.6,447,64.2,447c-5.5,0-11.2-1.2-16.4-3.8
		c-12.3-6-19.9-18-19.9-31.2c0-5.4,1.3-10.6,3.9-15.5l98-189c6.3-12.2,19.1-19.5,32.7-19.5c3.3,0,6.7,0.4,10.1,1.4l0,0
		c0.9,0.4,1.8,0.6,2.9,0.6c0.3,0,0.7,0,0.7,0v0.2h159.8h25.6c0.1,0,0.1,0,0.2,0l0.2,0l0.2,0c8.9,3,16.1,9.2,20.3,17.4l98.1,189
		c2.5,4.8,3.8,10,3.8,15.4C484.2,425.2,476.5,437.2,464.3,443.2z"/>
	<path fill="#231815" d="M172,213.1c-22.7,0-41.1,17.1-41.1,38.3c0,21.1,18.4,38.3,41.1,38.3c22.7,0,41.1-17.1,41.1-38.3
		C213.1,230.3,194.7,213.1,172,213.1z M172,261.2c-6.8,0-12.6-4.5-12.6-9.7c0-5.3,5.8-9.8,12.6-9.8c6.8,0,12.6,4.5,12.6,9.8
		C184.6,256.7,178.8,261.2,172,261.2z"/>
	<path fill="#231815" d="M376,266.7l-27-0.2V290h-32.8l-0.3-23.8l-28-0.3v-26l28,0.2v-27h33v27.5l27,0.2V266.7z"/>
</g>
</svg>
