<?xml version="1.0" encoding="utf-8"?>
<!-- Generator: Adobe Illustrator 18.0.0, SVG Export Plug-In . SVG Version: 6.00 Build 0)  -->
<!DOCTYPE svg PUBLIC "-//W3C//DTD SVG 1.1//EN" "http://www.w3.org/Graphics/SVG/1.1/DTD/svg11.dtd">
<svg version="1.1" id="图层_1" xmlns="http://www.w3.org/2000/svg" xmlns:xlink="http://www.w3.org/1999/xlink" x="0px" y="0px"
	 viewBox="0 0 512 512" enable-background="new 0 0 512 512" xml:space="preserve">
<g>
	<g>
		<path fill="#231815" d="M200,436v37h112v-37H200z"/>
		<path fill="#231815" d="M225,512h63v-30h-63V512z"/>
	</g>
	<path fill="#231815" d="M416,147.8C416,66.3,344.2,0,256,0S96,66.3,96,147.8c0,54.9,15.7,83.2,60.6,150.3
		c42.4,57.1,37.3,73,30.2,95.1c-2.4,7.6-5.2,15.9-6.5,26.7l-1.2,9.2h153.9l-1.2-9.2c-1.4-10.8-4.1-19.2-6.5-26.7
		c-7.1-22.1-12.2-38,30.5-95.4C400.4,230.9,416,202.7,416,147.8z M207.4,399c1-7,2.3-9.1,3.5-13.4c2.1-7.1,3.8-12.6,4.5-20.6h81.2
		c0.7,8,2.4,13.5,4.5,20.6c1.2,4.3,2.5,6.4,3.5,13.4H207.4z"/>
</g>
</svg>
