<?xml version="1.0" encoding="utf-8"?>
<!-- Generator: Adobe Illustrator 18.0.0, SVG Export Plug-In . SVG Version: 6.00 Build 0)  -->
<!DOCTYPE svg PUBLIC "-//W3C//DTD SVG 1.1//EN" "http://www.w3.org/Graphics/SVG/1.1/DTD/svg11.dtd">
<svg version="1.1" id="图层_1" xmlns="http://www.w3.org/2000/svg" xmlns:xlink="http://www.w3.org/1999/xlink" x="0px" y="0px"
	 viewBox="0 0 512 512" enable-background="new 0 0 512 512" xml:space="preserve">
<g>
	<g>
		<path fill-rule="evenodd" clip-rule="evenodd" fill="#231815" d="M364.7,458.8C481.9,422.6,400.6,256,400.6,256
			c-21.6-35.6-40.8-3.9-40.8-3.9c-24.9-30.9-48.5,2.6-48.5,2.6c-21.8-35-54.3-1.6-54.3-1.6c-12.7-11.9,14.3-154.2-22.8-165.8
			C199.2,76.3,195,115,195,115l11.5,205.2c0,0-51.5-76.6-98.7-56.5c-47.2,20.1-1.4,48.9-1.4,48.9c66.6,36.7,55.6,87.8,55.6,87.8
			l69.7,55.3c0,0,26.1,20.6-19.7,56.1l172.7,0.5C384.6,512.3,350.2,491.7,364.7,458.8"/>
	</g>
	<path fill-rule="evenodd" clip-rule="evenodd" fill="#231815" d="M225.9,0c-60,0-108.8,47.7-108.8,106.4c0,44.8,29,85,72.1,100
		l4.7,1.6l65.6-0.5l4.6-1.7c20.4-7.5,37.9-20.6,50.5-38.1c13-18,19.9-39.2,19.9-61.4C334.5,47.7,285.8,0,225.9,0z M254.4,179.2
		l-55.8,0.5c-30.9-10.8-53.1-39.5-53.1-73.3c0-43,36-78,80.4-78c44.4,0,80.3,34.9,80.3,78C306.2,139.7,284.7,168.1,254.4,179.2z"/>
</g>
</svg>
