<?xml version="1.0" encoding="utf-8"?>
<!-- Generator: Adobe Illustrator 18.0.0, SVG Export Plug-In . SVG Version: 6.00 Build 0)  -->
<!DOCTYPE svg PUBLIC "-//W3C//DTD SVG 1.1//EN" "http://www.w3.org/Graphics/SVG/1.1/DTD/svg11.dtd">
<svg version="1.1" id="图层_1" xmlns="http://www.w3.org/2000/svg" xmlns:xlink="http://www.w3.org/1999/xlink" x="0px" y="0px"
	 width="512px" height="512px" viewBox="0 0 512 512" enable-background="new 0 0 512 512" xml:space="preserve">
<g>
	<path d="M394.7,404.2l-85.4-57.8c-6.5-4.4-14-6.6-21.8-6.6c-12.2,0-23.7,5.7-30.8,15.5l-22.1,30.9c-1.1,1.5-2.1,3.1-2.9,4.8
		c-1.7,0.6-4.1,1.2-7.2,1.2c-8.5,0-27.2-4.3-56.3-33c-43.7-43.1-46-61.9-42.7-73.2c0.8-0.5,1.6-1,2.3-1.6l30.6-22.9
		c16.3-12.1,19.6-35.6,7.3-52.4l-61.2-82.5c-15.8-21.3-38.3-24.1-58.5-6.9c-10.5,8.9-27.1,29.4-34.2,42c-4.3,7.6-6.4,15.8-6.1,23.9
		c-29,116.2,58.9,211.6,86.7,238.2C168.7,496.7,240,512,286.4,512c24.9,0,43.6-4.5,53.7-8.3c7.6-0.2,15.1-2.5,22.1-6.7
		c12.7-7.5,32.9-24.6,41.5-35.2c8.3-10.1,11.7-20.5,10.2-30.8C412.3,420.8,405.9,411.7,394.7,404.2z M373.1,437.6
		c-5.6,7-22.4,21.1-31,26.2c-1.3,0.8-2.5,1.4-3.6,1.2c-3.7-0.4-7.8,0.4-11.1,2c-2.7,1.3-17.5,6.2-41,6.2
		c-39.1,0-99.8-13.4-166.6-77.3C26.7,306.9,36.1,224,44.6,192.1c0.7-2.5,0.8-5.1,0.4-7.7c-0.1-0.4-0.2-1.4,1.1-3.8
		c4.9-8.8,18.5-25.6,25.5-31.5c0.2-0.2,0.4-0.4,0.6-0.5c0.2,0.3,0.5,0.6,0.8,1l60.8,81.9l-28.7,21.5c-5.5,1.5-10.1,5.4-12.5,10.6
		c-17.4,37.4-3.9,71.9,48,123.2c29.8,29.4,58,44.3,84,44.3c18.9,0,30.9-7.9,36.4-12.6c3.2-2.8,5.5-6.5,6.3-10.7l20.6-28.8l84.8,57.3
		c0.4,0.3,0.7,0.5,1,0.7C373.5,437.1,373.3,437.3,373.1,437.6z"/>
	<path d="M244.9,215.4c-16.8,10.4-35.9,22.3-35.9,44.9v12.5c0,5.4,4.4,9.7,9.8,9.7h68.6c5.4,0,9.8-4.3,9.8-9.7s-4.4-9.7-9.8-9.7
		h-58.8v-2.8c0-11.3,10.1-18.2,26.7-28.5c18.7-11.6,41.9-26,41.9-55.9c0-11.3-4.1-21.1-11.9-28.1c-9-8.2-22.6-11.9-38-10.6
		c-24.4,2.1-36.6,23.4-37.1,24.3c-2.6,4.7-0.9,10.5,3.8,13.1c4.7,2.6,10.7,0.9,13.3-3.7c0.1-0.1,7.8-13.3,21.7-14.5
		c9.9-0.9,18.1,1.1,23,5.6c3.7,3.3,5.5,8,5.5,13.8C277.7,193.8,265.3,202.7,244.9,215.4z"/>
	<path d="M379,147.4c-3.9-1.4-8.2-0.3-10.8,2.8L309.4,218c-1.5,1.8-2.4,4-2.4,6.3v9.7c0,5.4,4.4,9.7,9.8,9.7h49v29.1
		c0,5.4,4.4,9.7,9.8,9.7c5.4,0,9.8-4.3,9.8-9.7v-29.1h9.8c5.4,0,9.8-4.3,9.8-9.7s-4.4-9.7-9.8-9.7h-9.8v-67.8
		C385.4,152.4,382.9,148.8,379,147.4z M365.8,224.3h-36.1l36.1-41.6V224.3z"/>
	<path d="M499.9,379.8l-29.4,9.7c27.4-40.8,42.3-88.8,42.3-138.2c0-137.9-113.5-250-253-250c-65.3,0-127.2,24.5-174.4,68.9
		c-3.9,3.7-4.1,9.8-0.3,13.7c3.7,3.9,9.9,4,13.9,0.3c43.6-41,100.7-63.6,160.9-63.6c128.7,0,233.4,103.5,233.4,230.6
		c0,47.9-15.2,94.6-43.1,133.4l-6.1-36c-0.9-5.3-5.9-8.9-11.3-8c-5.3,0.9-8.9,5.9-8.1,11.1l9.8,58.1c0.5,2.8,2.2,5.2,4.6,6.7
		c1.5,0.9,3.3,1.4,5.1,1.4c1,0,2.1-0.2,3.1-0.5l58.8-19.4c5.1-1.7,7.9-7.2,6.2-12.2C510.6,380.8,505.1,378.1,499.9,379.8z"/>
</g>
</svg>
