<?xml version="1.0" encoding="utf-8"?>
<!-- Generator: Adobe Illustrator 18.0.0, SVG Export Plug-In . SVG Version: 6.00 Build 0)  -->
<!DOCTYPE svg PUBLIC "-//W3C//DTD SVG 1.1//EN" "http://www.w3.org/Graphics/SVG/1.1/DTD/svg11.dtd">
<svg version="1.1" id="图层_1" xmlns="http://www.w3.org/2000/svg" xmlns:xlink="http://www.w3.org/1999/xlink" x="0px" y="0px"
	 width="512px" height="512px" viewBox="0 0 512 512" enable-background="new 0 0 512 512" xml:space="preserve">
<g>
	<path fill="#424242" d="M506.8,450.9l-3.8-12.4c-10.6-34.9-100.4-82.9-118.1-91.2c0,0-8.5,5.9-35.6,23.5l-62.9,33.3l-88.5-54.5
		c-8.8,3.6-116.3,48-128.1,91.5c-2.1,7.6-8.6,29.1-8.6,29.1c-0.5,1.7-0.8,3.4-0.8,5.1c0,24.3,17.1,36.5,50.9,36.5h349.7
		c15.2,0,50.9,0,50.9-35.4C512,467.7,511,464.5,506.8,450.9z M461.1,477H111.4c-8.9,0-13.2-0.6-15.3-1.2c2.1-7,5.9-19.7,7.4-25.3
		c3.8-14.1,59.8-49.7,108.1-69.1l70.2,40.4c1.3,0.8,2.9,1.2,4.4,1.2c1.4,0,2.8-0.3,4.1-1l78.8-41.7c39.2,17.7,95.6,56,100.5,68.5
		l3.8,12.5c3.4,11.1,3.6,11.7,3.6,14.8C473.1,477,464.9,477,461.1,477z"/>
	<path fill="#424242" d="M287.8,351.8c67.8,0,122.8-65.5,122.8-146.4S355.6,59,287.8,59s-122.8,65.5-122.8,146.4
		S219.9,351.8,287.8,351.8z M287.8,96.1c50.9,0,92.1,49.1,92.1,109.7s-41.2,109.7-92.1,109.7c-50.9,0-92.1-49.1-92.1-109.7
		S236.9,96.1,287.8,96.1z"/>
</g>
<path fill="#424242" d="M183,360H46.3c-7.6,0-11.3-0.6-13.2-1.1c1.8-6,5.1-17,6.4-21.8c3.3-12.1,51.3-42.8,93-59.5l50.4,29.1v-18
	l-62.3-38.4c-7.6,3.1-100.1,41.4-110.2,78.8c-1.8,6.5-7.4,25-7.4,25.1c-0.4,1.4-0.6,2.9-0.6,4.4c0,20.9,14.8,31.5,43.9,31.5H183V360
	z"/>
<path fill="#424242" d="M149.3,209.6c0-3,0.1-6,0.2-8.9c-18.5-17.3-30.4-44.2-30.4-74.3c0-52.2,35.4-94.5,79.2-94.5
	c17.3,0,33.3,6.5,46.3,17.7c10.3-3.5,21.1-5.3,32.2-5.3c0.6,0,1.2,0,1.9,0C259.2,17.5,230.4,0,198.2,0C139.8,0,92.5,56.4,92.5,126
	c0,49.4,24,92.2,58.8,112.9C150,229.4,149.3,219.6,149.3,209.6z"/>
</svg>
