<?xml version="1.0" encoding="utf-8"?>
<!-- Generator: Adobe Illustrator 18.0.0, SVG Export Plug-In . SVG Version: 6.00 Build 0)  -->
<!DOCTYPE svg PUBLIC "-//W3C//DTD SVG 1.1//EN" "http://www.w3.org/Graphics/SVG/1.1/DTD/svg11.dtd">
<svg version="1.1" id="图层_1" xmlns="http://www.w3.org/2000/svg" xmlns:xlink="http://www.w3.org/1999/xlink" x="0px" y="0px"
	 width="512px" height="512px" viewBox="0 0 512 512" enable-background="new 0 0 512 512" xml:space="preserve">
<path d="M258,0.1c-76.7,0-138.8,74.1-138.8,165.4S181.4,331,258,331s138.8-74.1,138.8-165.4S334.7,0.1,258,0.1z M258,290
	c-57.5,0-104-55.5-104-124S200.6,42,258,42s104,55.5,104,124S315.5,290,258,290z"/>
<path d="M505.5,443l-4.3-14c-11.4-37.6-105.8-93.6-131.8-106.4c-12.1,14.8-29,27.1-49,35.5c-8.5,3.9-40.3,10.6-71.7,10.6
	c-31.4,0-62.3-15.4-62.3-15.4c-9.5-6.3-26.8-21.3-35.5-30.8c-29.9,12.9-127.6,66.4-139.3,109.5C9.4,440.7,2,464.9,2,464.9
	c-0.6,1.9-0.8,3.8-0.8,5.8c0,27.4,19.4,41.3,57.6,41.3h395.1c17.2,0,57.6,0,57.6-40C511.4,462,510.3,458.4,505.5,443z M154,421.3
	c-15,6.5-26.4,23.7-26.4,44c0,2.3,0.1,4.5,0.4,6.7H58.7c-10,0-14.9-0.5-17.3-1.2c2.4-7.9,6.7-22.2,8.4-28.4
	c3.2-11.9,70.4-49.2,104.1-67.3V421.3z M453.8,472H207.4c0.3-2.2,0.4-4.4,0.4-6.7c0-20.5-11.9-37.9-26.9-44.2v-40.2
	c12.3,7.1,48.4,13.6,75,13.6c22.2,0,51.5-7.5,66-11.6v3.7v8.5c-27,7-48,32.2-48,62h29.6c0.8-17.8,15.6-32.1,33.7-32.1
	c18.1,0,32.8,14.3,33.7,32.1h30.9c0-29.7-20.8-54.9-47.8-61.9V369h2.5c25.9,14.9,102.4,59.9,107,71.6l4.3,14.1
	c3.9,12.5,4.1,13,4.1,16.5C467.4,472.2,458.1,472,453.8,472z"/>
</svg>
