<?xml version="1.0" encoding="utf-8"?>
<!-- Generator: Adobe Illustrator 18.0.0, SVG Export Plug-In . SVG Version: 6.00 Build 0)  -->
<!DOCTYPE svg PUBLIC "-//W3C//DTD SVG 1.1//EN" "http://www.w3.org/Graphics/SVG/1.1/DTD/svg11.dtd">
<svg version="1.1" id="图层_1" xmlns="http://www.w3.org/2000/svg" xmlns:xlink="http://www.w3.org/1999/xlink" x="0px" y="0px"
	 width="512px" height="512px" viewBox="0 0 512 512" enable-background="new 0 0 512 512" xml:space="preserve">
<path fill="#424242" d="M505.5,443l-4.3-14c-12-39.5-113.5-93.7-133.5-103c0,0-9.6,6.6-40.2,26.6l-71,37.6l-100-61.5
	c-10,4.1-131.5,54.3-144.8,103.5C9.4,440.7,2,464.9,2,464.9c-0.6,1.9-0.9,3.8-0.9,5.8c0,27.4,19.4,41.3,57.6,41.3h395.1
	c17.2,0,57.6,0,57.6-40C511.4,462,510.3,458.4,505.5,443z M453.8,472H58.7c-10,0-14.9-0.5-17.3-1.2c2.4-7.9,6.7-22.2,8.4-28.4
	c4.3-15.9,67.5-56.1,122.2-78l79.3,45.7c1.5,0.9,3.2,1.3,4.9,1.3c1.6,0,3.2-0.4,4.6-1.1l89.1-47.1c44.3,20,108.1,63.3,113.5,77.4
	l4.3,14.1c3.9,12.5,4.1,13,4.1,16.5C467.4,472.2,458.1,472,453.8,472z"/>
<path fill="#424242" d="M258,0.1c-76.7,0-138.8,74.1-138.8,165.4S181.4,331,258,331s138.8-74.1,138.8-165.4S334.7,0.1,258,0.1z
	 M258,290c-57.5,0-104-55.5-104-124S200.6,42,258,42s104,55.5,104,124S315.5,290,258,290z"/>
</svg>
