<?xml version="1.0" encoding="utf-8"?>
<!-- Generator: Adobe Illustrator 18.0.0, SVG Export Plug-In . SVG Version: 6.00 Build 0)  -->
<!DOCTYPE svg PUBLIC "-//W3C//DTD SVG 1.1//EN" "http://www.w3.org/Graphics/SVG/1.1/DTD/svg11.dtd">
<svg version="1.1" id="图层_1" xmlns="http://www.w3.org/2000/svg" xmlns:xlink="http://www.w3.org/1999/xlink" x="0px" y="0px"
	 width="512px" height="512px" viewBox="0 0 512 512" enable-background="new 0 0 512 512" xml:space="preserve">
<path d="M455.1,1.6H56.9C25.5,1.6,0,27,0,58.3v302.5c0,31.3,25.5,56.7,56.9,56.7h113.8v21.7l-21.9,27.3c-7.8,9.8-9.7,20.9-5.1,30.4
	c4.6,9.6,14.5,15.1,27,15.1h170.7c12.6,0,22.4-5.5,27-15.1c4.6-9.6,2.8-20.7-5.1-30.4l-21.9-27.3v-21.7h113.8
	c31.4,0,56.9-25.4,56.9-56.7V58.3C512,27,486.5,1.6,455.1,1.6z M56.9,39.4h398.2c10.5,0,19,8.5,19,18.9v236.3H37.9V58.3
	C37.9,47.9,46.4,39.4,56.9,39.4z M320.8,474.2H191.2l17.4-21.7v-35h94.8v35L320.8,474.2z M455.1,379.7H56.9c-10.5,0-19-8.5-19-18.9
	v-47.3h436.1v47.3C474.1,371.2,465.6,379.7,455.1,379.7z"/>
</svg>
