<?xml version="1.0" encoding="utf-8"?>
<!-- Generator: Adobe Illustrator 19.0.0, SVG Export Plug-In . SVG Version: 6.00 Build 0)  -->
<svg version="1.1" id="图层_1" xmlns="http://www.w3.org/2000/svg" xmlns:xlink="http://www.w3.org/1999/xlink" x="0px" y="0px"
	 width="1451.3px" height="1451.3px" viewBox="0 0 1451.3 1451.3" enable-background="new 0 0 1451.3 1451.3" xml:space="preserve">
<path id="XMLID_2_" d="M261.7,766.1c156.8-33.9,135.4-222.5,130.7-263.7c-7.6-63.5-81.9-174.5-182.8-165.9
	C82.8,348,64.2,532.5,64.2,532.5C47.1,617.7,105.3,799.9,261.7,766.1z M428.1,1094c-4.6,13.3-14.8,47.2-6,76.7
	c17.5,66.2,74.7,69.3,74.7,69.3h82.1v-202H491C451.5,1049.8,432.4,1080.7,428.1,1094z M552.6,449.8c86.6,0,156.6-100.4,156.6-224.4
	c0-123.9-70-224.2-156.6-224.2C466.2,1.3,396,101.6,396,225.5C396.1,349.5,466.3,449.8,552.6,449.8z M925.6,464.6
	c115.7,15.1,190.2-109.2,205-203.4c15.1-94.1-59.6-203.4-141.5-222.1C907,20.1,804.5,152.5,795.2,238.8
	C784,344.2,810.1,449.6,925.6,464.6z M1209.2,1018.5c0,0-179.1-139.4-283.6-290.2c-141.6-222.3-343-131.8-410.3-18.7
	c-67,113-171.5,184.5-186.3,203.4c-15,18.6-216.3,127.9-171.6,327.7c44.7,199.6,201.6,195.8,201.6,195.8s115.7,11.5,249.8-18.8
	c134.2-30,249.7,7.4,249.7,7.4s313.5,105.7,399.3-97.7C1343.3,1124,1209.2,1018.5,1209.2,1018.5z M672.8,1321.2H469.1
	c-88-17.7-123.1-78.1-127.5-88.4c-4.3-10.5-29.3-59.1-16.1-141.7C363.5,967.2,472,958.4,472,958.4h108.4V824.2l92.4,1.4
	L672.8,1321.2L672.8,1321.2z M1052.4,1319.8H817.9c-90.9-23.6-95.1-88.6-95.1-88.6v-261l95.1-1.6v234.6
	c5.8,25.1,36.7,29.6,36.7,29.6h96.6V970.2h101.3L1052.4,1319.8L1052.4,1319.8z M1384.4,622.9c0-45.1-37.3-180.8-175.2-180.8
	c-138.3,0-156.7,128.1-156.7,218.7c0,86.5,7.3,207.1,178.9,203.2C1403.2,860.1,1384.4,668.2,1384.4,622.9z"/>
</svg>
