<?xml version="1.0" encoding="utf-8"?>
<!-- Generator: Adobe Illustrator 19.0.0, SVG Export Plug-In . SVG Version: 6.00 Build 0)  -->
<svg version="1.1" id="图层_1" xmlns="http://www.w3.org/2000/svg" xmlns:xlink="http://www.w3.org/1999/xlink" x="0px" y="0px"
	 width="1451.3px" height="1451.3px" viewBox="0 0 1451.3 1451.3" enable-background="new 0 0 1451.3 1451.3" xml:space="preserve">
<g id="XMLID_219_">
	<path id="XMLID_221_" d="M1258.2,1174.7c16,12.1,39.5,27.9,68.7,27.5c30.5-0.3,62.3-15.6,82.4-27.7c13.3-8,21.7-22.4,21.9-37.9
		c1.5-86.5-28.8-174.7-92.9-245.4c-63.7-70.2-142.7-106.7-223.1-111.3c2.8-17.9,4.3-36.3,4.3-54.9c0-194.8-157.8-352.8-352.5-352.8
		S414.5,530.2,414.5,725c0,8.9,0.3,17.7,1,26.4c-20.5-3.7-41.6-5.7-63.2-5.7c-3.2,0-6.4,0-9.6,0.1c-0.4,0-0.9,0-1.3,0.1
		c-2.8,0.1-5.7,0.2-8.5,0.4c-0.1,0-0.1,0-0.2,0C147.3,756.5,0,910.3,0,1098.5c0,194.8,157.8,352.8,352.5,352.8
		c84.7,0,162.5-29.9,223.2-79.8l0,0l0.3-0.2c0.9-0.8,1.9-1.6,2.8-2.3l398.3-333.2c63.4-60.1,163.4-52.8,223.4,16.3
		c23.3,26.8,35.8,58.7,39.9,91.4C1242,1155.9,1248.2,1167.2,1258.2,1174.7z M757.3,528.9c102.7,0,186,83.4,186,186.2
		s-83.3,186.2-186,186.2s-186-83.4-186-186.2S654.6,528.9,757.3,528.9z M156.7,1088.7c0-82.9,54.1-153.1,129-177.2
		c0.1,0.3,0.1,0.6,0.2,0.8c15.7-5.1,32.1-8.8,49.3-9.6c2.5-0.1,5-0.2,7.6-0.2c102.7,0,186,83.4,186,186.2c0,3-0.1,6-0.2,9
		c-0.1,2.2-0.3,4.4-0.5,6.6c-0.1,0.6-0.1,1.3-0.1,1.9c-3.9,40-20.8,76-45.8,104.6c0.4-0.1,0.8-0.2,1.3-0.4
		c-34.1,39.4-84.4,64.4-140.6,64.4C239.9,1274.9,156.7,1191.5,156.7,1088.7z"/>
	<ellipse id="XMLID_220_" cx="1347.7" cy="1347.5" rx="103.7" ry="103.8"/>
</g>
</svg>
