<?xml version="1.0" encoding="utf-8"?>
<!-- Generator: Adobe Illustrator 18.0.0, SVG Export Plug-In . SVG Version: 6.00 Build 0)  -->
<!DOCTYPE svg PUBLIC "-//W3C//DTD SVG 1.1//EN" "http://www.w3.org/Graphics/SVG/1.1/DTD/svg11.dtd">
<svg version="1.1" id="图层_1" xmlns="http://www.w3.org/2000/svg" xmlns:xlink="http://www.w3.org/1999/xlink" x="0px" y="0px"
	 width="512px" height="512px" viewBox="0 0 512 512" enable-background="new 0 0 512 512" xml:space="preserve">
<g>
	<path d="M412,19.4l-13.6-4c-0.3-0.1-0.6-0.2-0.9-0.3L336.3,0.5c-10.1-2.4-20.4,3.9-22.9,14.1c-0.4,1.5-0.5,2.4-0.5,4.4h0
		c0,21-26.1,37.9-56.9,37.9c-30.8,0-56.9-16.9-56.9-37.9h0c0-2-0.1-3-0.5-4.4c-2.4-10.2-12.7-16.4-22.9-14l-61.2,14.7
		c-0.3,0.1-0.6,0.2-0.9,0.2l-13.6,4C84.4,22.5,9.4,47.9,0,255.1c-0.2,5.2,1.7,10.2,5.2,14c3.6,3.7,8.5,5.9,13.7,5.9h57v199.1
		C76,495,92.9,512,113.8,512h284.4c20.9,0,37.8-17,37.8-37.9V275h57c5.2,0,10.1-2.1,13.7-5.9c3.6-3.7,5.5-8.8,5.2-14
		C502.6,47.9,427.6,22.5,412,19.4z M436,237v-56.9c0-10.5-8.5-19-19-19c-10.5,0-19,8.5-19,19V474H114V180.1c0-10.5-8.5-19-19-19
		c-10.5,0-19,8.5-19,19V237H39C50.7,71,106.8,56.7,106.6,56.7c1-0.1,2-0.3,3-0.6l14.2-4.2l41.8-10c12.2,30.6,48.1,52.9,90.3,52.9
		s78.1-22.3,90.3-52.9l41.8,10l14.2,4.2c1,0.3,1.2,0.4,2.2,0.5C405.2,56.7,461.3,71,473,237H436z"/>
	<circle cx="264" cy="206" r="50"/>
</g>
</svg>
