<?xml version="1.0" encoding="utf-8"?>
<!-- Generator: Adobe Illustrator 18.0.0, SVG Export Plug-In . SVG Version: 6.00 Build 0)  -->
<!DOCTYPE svg PUBLIC "-//W3C//DTD SVG 1.1//EN" "http://www.w3.org/Graphics/SVG/1.1/DTD/svg11.dtd">
<svg version="1.1" id="图层_1" xmlns="http://www.w3.org/2000/svg" xmlns:xlink="http://www.w3.org/1999/xlink" x="0px" y="0px"
	 width="512px" height="512px" viewBox="0 0 512 512" enable-background="new 0 0 512 512" xml:space="preserve">
<path d="M475.9,131.3h-157c24.4-9.7,51-23.3,68.6-40.9c15.1-15.1,19.3-37,10.9-57.2c-8.3-20-26.8-33-47.2-33
	c-12.9,0-32.8,5.1-53.8,29.7c-19.9,23.2-32.1,49-39.4,69.8c-6-15-15.1-32.2-28.5-47.9c-17.1-20-33.4-24.2-44-24.2
	c-16.9,0-32.3,10.7-39.1,27.3c-6.9,16.7-3.5,34.9,9,47.4c11.9,11.9,28.9,21.5,45.7,28.9H38.1c-21,0-38.1,17.1-38.1,38.1v76.1
	c0,10.5,8.5,19,19,19h9.5v209.4c0,21,17.1,38.1,38.1,38.1h390.2c21,0,38.1-17.1,38.1-38.1V264.5c10.5,0,19-8.5,19-19v-76.1
	C514,148.4,496.9,131.3,475.9,131.3z M475.9,226.5H266.5v-57.1h209.4V226.5z M311.8,42.3c12.9-15.1,26.5-23,39.3-23
	c12.6,0,24.3,8.3,29.6,21.2c5.5,13.2,2.9,26.8-6.7,36.5c-26.6,26.6-79.2,43.7-104.6,50.8C274.2,108.3,286,72.5,311.8,42.3z
	 M163.8,62.3c3.9-9.4,12.4-15.5,21.5-15.5c9.5,0,19.8,6.1,29.6,17.5c18.7,21.8,28,47.6,32.2,63.4c-20.9-6.1-58.9-19.1-78.4-38.7
	C161.7,81.9,159.9,71.9,163.8,62.3z M247.5,169.4v57.1H38.1v-57.1H247.5z M66.6,264.5h180.8v209.4H66.6V264.5z M456.9,473.9H266.5
	V264.5h190.4V473.9z"/>
</svg>
