<?xml version="1.0" encoding="utf-8"?>
<!-- Generator: Adobe Illustrator 18.0.0, SVG Export Plug-In . SVG Version: 6.00 Build 0)  -->
<!DOCTYPE svg PUBLIC "-//W3C//DTD SVG 1.1//EN" "http://www.w3.org/Graphics/SVG/1.1/DTD/svg11.dtd">
<svg version="1.1" id="图层_1" xmlns="http://www.w3.org/2000/svg" xmlns:xlink="http://www.w3.org/1999/xlink" x="0px" y="0px"
	 width="512px" height="512px" viewBox="0 0 512 512" enable-background="new 0 0 512 512" xml:space="preserve">
<g>
	<path d="M212.2,217.9c2.9-18-26-44.8-65.8-52.6c-39.8-7.8-75.5,6.4-78.5,24.4s27,38.8,66.8,46.6
		C174.6,244.1,209.3,235.8,212.2,217.9z M88.8,193.7c2.1-12.9,27.6-24.9,56.1-19.3c10.3,2,19.6,6.1,27.2,11
		c-9.3,2.4-16.2,11.6-16.2,22.5c0,9.1,4.8,17,11.8,20.8c-9,1.1-19.7,0.7-31-1.5C108.1,221.5,86.7,206.6,88.8,193.7z"/>
	<path d="M353.2,172.5c-44.6,2.2-79.9,24.6-79.1,42.5s37.5,30.8,82,28.6c44.6-2.2,80.1-18.6,79.4-36.5
		C434.7,189.1,397.7,170.3,353.2,172.5z M356.2,234.4c-31.9,1.6-58.3-7.6-58.8-20.5c-0.5-12.9,24.2-30.7,56.2-32.3
		c11.5-0.6,22.4,1.1,31.6,4c-9.5,4.6-14.9,15.1-12.6,25.6c2,8.8,8.9,15.2,17.2,17.1C380.4,231.5,368.8,233.8,356.2,234.4z"/>
	<path d="M312.4,379H214v-25.3c24-0.5,42.9-8.2,43.4-18.6c0.6-11.5-21.7-22-49.6-23.4c-28-1.4-51.3,6.9-51.9,18.4
		c-0.5,10.7,18.2,20.4,43.2,22.9V379h-58.7c-4.9,0-9.3,4.4-9.3,9.4v2.1c0,4.9,4.4,8.5,9.3,8.5h172.1c4.9,0,24.6-17.5,31.5-24.9
		l-5-11C329.6,356.3,317.3,379,312.4,379z"/>
	<path d="M512.1,272.2L512.1,272.2l0.8-184.3l-82.4-61l-17.9-11c-6.4-2.1-32.1-12.3-50-1.5c-8.4,5.1-7,23.4-7,23.4l7.6,23.7
		c-22.6-7.3-65.6-11.2-114.9-9.6c-50.5,1.7-94,9-115.5,18.1l-1.6,0L30.4,26.2c0,0-28.6-16.5-29,4.1c-0.3,20.6,0,39.8,0,39.8
		L27.5,203l0,0c-16.6,28.8-26.1,60.2-26.1,91.9c0,114.7,72.6,207.6,214,207.6s298-93,298-207.6C513.5,287.3,513,279.7,512.1,272.2z
		 M486.7,305.9l0,4.7l-0.4-1.2c-13.6,94.4-146.2,168.5-266.6,168.5c-127,0-192.3-82.5-192.3-184.3c0-27.5,8.1-54.7,22.4-79.8
		L29.4,109.4c0,0-6.5-20.2-6.2-40.7c0.3-20.6,35.1-3.4,35.1-3.4l67,39c37.4-13.5,72.1-22.5,131.4-24.7
		c60.4-2.2,123.5,15.2,151.4,30.2l-12-25.6c0,0-20.1-43.2-13.7-47.1c15.4-9.5,53.8,27.4,53.8,27.4l50.9,42.5l-0.4,171.9
		c0.4,4.8,0.7,9.7,0.7,14.6C487.5,297.7,487.2,301.8,486.7,305.9z"/>
</g>
</svg>
