<?xml version="1.0" encoding="utf-8"?>
<!-- Generator: Adobe Illustrator 18.0.0, SVG Export Plug-In . SVG Version: 6.00 Build 0)  -->
<!DOCTYPE svg PUBLIC "-//W3C//DTD SVG 1.1//EN" "http://www.w3.org/Graphics/SVG/1.1/DTD/svg11.dtd">
<svg version="1.1" id="图层_1" xmlns="http://www.w3.org/2000/svg" xmlns:xlink="http://www.w3.org/1999/xlink" x="0px" y="0px"
	 width="512px" height="512px" viewBox="0 0 512 512" enable-background="new 0 0 512 512" xml:space="preserve">
<path d="M417.6,1H209.4c-15.5,0-34.7,8-45.7,18.9l-86.8,86.8c-11,11-18.9,30.2-18.9,45.7v321.7C58,495,75,512,95.9,512h321.7
	c20.9,0,37.4-17,37.4-37.8V243v-5.4V57.8v-2V38.9C455,18,438.4,1,417.6,1z M190,46.7v77.3c0,5.2-3.8,9.9-9,9.9h-77.3L190,46.7z
	 M418,243v231H96V152h85c15.7,0,28-12.3,28-27.9V39h209V243z"/>
</svg>
