<?xml version="1.0" encoding="utf-8"?>
<!-- Generator: Adobe Illustrator 18.0.0, SVG Export Plug-In . SVG Version: 6.00 Build 0)  -->
<!DOCTYPE svg PUBLIC "-//W3C//DTD SVG 1.1//EN" "http://www.w3.org/Graphics/SVG/1.1/DTD/svg11.dtd">
<svg version="1.1" id="图层_1" xmlns="http://www.w3.org/2000/svg" xmlns:xlink="http://www.w3.org/1999/xlink" x="0px" y="0px"
	 width="512px" height="512px" viewBox="0 0 512 512" enable-background="new 0 0 512 512" xml:space="preserve">
<path d="M512.1,250.3c0-0.8-0.1-1.6-0.2-2.4c-0.1-0.6-0.1-1.2-0.2-1.8c-0.1-0.6-0.3-1.2-0.5-1.9c-0.2-0.7-0.4-1.5-0.7-2.2
	c-0.1-0.1-0.1-0.3-0.1-0.4L419.8,27.9H92.2L1.6,241.6c-0.1,0.1-0.1,0.3-0.1,0.4c-0.3,0.7-0.5,1.4-0.7,2.2c-0.2,0.6-0.4,1.2-0.5,1.9
	c-0.1,0.6-0.2,1.2-0.2,1.8c-0.1,0.8-0.2,1.6-0.2,2.4c0,0.1,0,0.3,0,0.4v169.8c0,35.1,25.5,63.7,56.9,63.7h398.5
	c31.4,0,56.9-28.6,56.9-63.7V250.7C512.2,250.6,512.2,250.4,512.1,250.3z M116.2,70.3h279.6l71.9,169.8H350.9
	c-10.5,0-19,9.5-19,21.2v10.6v37.1c0,14.6-12.8,26.5-28.5,26.5h-94.9c-15.7,0-28.5-11.9-28.5-26.5v-37.1v-10.6
	c0-11.7-8.5-21.2-19-21.2H44.3L116.2,70.3z M455.3,441.7H56.7c-10.5,0-19-9.5-19-21.2V261.3h123.3v10.6v37.1
	c0,26.3,21.3,47.7,47.4,47.7h94.9c26.2,0,47.4-21.4,47.4-47.7v-37.1v-10.6h123.3v159.2C474.2,432.2,465.7,441.7,455.3,441.7z"/>
</svg>
