<?xml version="1.0" encoding="utf-8"?>
<!-- Generator: Adobe Illustrator 18.0.0, SVG Export Plug-In . SVG Version: 6.00 Build 0)  -->
<!DOCTYPE svg PUBLIC "-//W3C//DTD SVG 1.1//EN" "http://www.w3.org/Graphics/SVG/1.1/DTD/svg11.dtd">
<svg version="1.1" id="图层_1" xmlns="http://www.w3.org/2000/svg" xmlns:xlink="http://www.w3.org/1999/xlink" x="0px" y="0px"
	 width="512px" height="512px" viewBox="0 0 512 512" enable-background="new 0 0 512 512" xml:space="preserve">
<path fill="#424242" d="M255.5,1C114.6,1,0,115.6,0,256.5S114.6,512,255.5,512S511,397.4,511,256.5S396.4,1,255.5,1z M428,389
	c-11.3-6.7-27.6-14.7-48.8-22c7.7-30.6,12.2-64.8,12.9-101h80.8C470.9,312.1,454.5,354.6,428,389z M38.1,266h80.8
	c0.7,36.3,5.2,70.4,12.9,101c-21.2,7.2-37.5,15.3-48.8,22C56.5,354.6,40.1,312.1,38.1,266z M82.5,124.7
	c11.3,6.7,27.7,14.9,49.1,22.2c-7.5,30.4-12,64.2-12.7,100.2H38.1C40.1,201.2,56.3,159,82.5,124.7z M265,165.8
	c38.1-0.8,70-6.1,95.9-13.2c7.2,28.9,11.6,60.9,12.3,94.4H265V165.8z M265,146.9V39.1c14.6,0.6,28.8,2.7,42.5,6.1
	c19.8,20.2,36.6,51.3,48.3,89.1C331.3,141,301.1,146.1,265,146.9z M246,39.1v107.8c-36.1-0.8-66.3-5.9-90.8-12.7
	c11.7-37.8,28.5-68.9,48.2-89C217.2,41.8,231.4,39.7,246,39.1z M246,165.8V247H137.8c0.7-33.6,5.1-65.6,12.3-94.4
	C176,159.7,208,165,246,165.8z M137.8,266H246v82.2c-38,0.8-69.8,6-95.7,13.1C143,332.2,138.5,299.9,137.8,266z M246,367.1v106.8
	c-14.6-0.6-28.8-2.7-42.5-6.1c-19.6-20-36.3-50.8-48-88.2C179.9,372.9,210,367.9,246,367.1z M265,473.9V367.1
	c35.9,0.8,66.1,5.9,90.5,12.6c-11.7,37.4-28.3,68.1-48,88.1C293.8,471.2,279.6,473.3,265,473.9z M265,348.2V266h108.2
	c-0.7,33.9-5.2,66.2-12.5,95.3C334.8,354.2,302.9,348.9,265,348.2z M392.1,247c-0.7-35.9-5.1-69.8-12.7-100.2
	c21.4-7.3,37.8-15.4,49.1-22.2c26.2,34.3,42.4,76.5,44.4,122.3H392.1z M416.2,109.9c-10,5.7-23.9,12.4-41.8,18.6
	c-8.4-27.8-19.6-52.1-32.8-71.9C370.1,69,395.5,87.2,416.2,109.9z M169.4,56.6c-13.2,19.8-24.3,44.1-32.8,71.8
	c-17.9-6.2-31.8-12.9-41.8-18.6C115.5,87.2,140.9,69,169.4,56.6z M95.4,403.8c10-5.7,23.8-12.3,41.5-18.4
	c8.4,27.4,19.4,51.4,32.5,71C141.2,444.1,116,426.1,95.4,403.8z M341.6,456.4c13.1-19.6,24.1-43.6,32.5-70.9
	c17.7,6.1,31.5,12.7,41.5,18.4C395,426.1,369.8,444.2,341.6,456.4z"/>
</svg>
