<?xml version="1.0" encoding="utf-8"?>
<!-- Generator: Adobe Illustrator 19.0.0, SVG Export Plug-In . SVG Version: 6.00 Build 0)  -->
<svg version="1.1" id="图层_1" xmlns="http://www.w3.org/2000/svg" xmlns:xlink="http://www.w3.org/1999/xlink" x="0px" y="0px"
	 width="1451.3px" height="1451.3px" viewBox="0 0 1451.3 1451.3" enable-background="new 0 0 1451.3 1451.3" xml:space="preserve">
<path id="XMLID_8_" d="M98.5,763.7c0-0.9,0-1.8,0-2.6c-47.4,56-91,129.8-95.6,213.3c-22.2,133.1,85.2,266.1,229.3,343.8
	c11.1,44.4-40.5,122-40.5,122c-22.2,11.1,13,11.1,13,11.1c77.6,0,167.2-66.5,211.5-99.8c119.6,10.9,224.3-15.7,316.5-67.7
	C388.9,1263.3,98.5,1034.8,98.5,763.7z"/>
<path id="XMLID_3_" d="M1451.3,721.5c0-288.3-288.3-521.2-654-521.2S143.4,433.2,143.4,721.5c0,277.2,288.2,510.1,642.8,510.1
	c55.5,55.4,221.7,177.4,343.6,177.4c0,0,55.5,11.1,33.2-22.2c0,0-99.7-122-77.5-199.6C1307.2,1098.5,1451.3,921.1,1451.3,721.5z
	 M1161.5,579.2c0,24.5-19.8,44.4-44.4,44.4h-6c-24.5,0-44.3-19.9-44.3-44.4v-6c0-24.5,19.8-44.4,44.3-44.4h6
	c24.5,0,44.4,19.9,44.4,44.4V579.2z M965.1,887.8c0,22.2-34.7,67.2-68,67.2H886c-33.2,0-63-45-63-67.2V666
	c0-10.3-2.7-42.4-14.6-42.4h-80.1v264.2c0,22.2-8.6,67.2-30.6,67.2h-22.2c-22.2,0-41.8-45-41.8-67.2V666c0-22.2-13.7-42.4-35.8-42.4
	H539v264.2c0,22.2-29.8,67.2-52,67.2h-22.2c-22.2,0-67.9-45-67.9-67.2c0-110.9,0-221.8,0-332.7c0-22.2,45.7-26.2,79-26.2h199.5h22.2
	h155.1c66.5,0,112.3,48.4,112.3,81.7C965.1,699.3,965.1,788,965.1,887.8z M1154.4,910.6c0,24.5-19.8,44.4-44.3,44.4h-6
	c-24.5,0-44.4-19.9-44.4-44.4V715.3c0-24.5,19.8-44.4,44.4-44.4h6c24.5,0,44.3,19.9,44.3,44.4V910.6z"/>
</svg>
