<?xml version="1.0" encoding="utf-8"?>
<!-- Generator: Adobe Illustrator 18.0.0, SVG Export Plug-In . SVG Version: 6.00 Build 0)  -->
<!DOCTYPE svg PUBLIC "-//W3C//DTD SVG 1.1//EN" "http://www.w3.org/Graphics/SVG/1.1/DTD/svg11.dtd">
<svg version="1.1" id="图层_1" xmlns="http://www.w3.org/2000/svg" xmlns:xlink="http://www.w3.org/1999/xlink" x="0px" y="0px"
	 width="512px" height="512px" viewBox="0 0 512 512" enable-background="new 0 0 512 512" xml:space="preserve">
<g>
	<path d="M359.6,474.2H37.8V152.4H123c15.7,0,28.4-12.7,28.4-28.4V38.9h208.2v18.9h37.8V38.9c0-20.9-17-37.8-37.8-37.8H151.4
		c-15.5,0-34.7,8-45.7,18.9l-86.8,86.8C8,117.7,0,136.9,0,152.4v321.7C0,495,17,512,37.8,512h321.7c20.9,0,37.8-17,37.8-37.8V237.6
		h-37.8V474.2z M132.5,46.7v77.3c0,5.2-4.2,9.5-9.5,9.5H45.7L132.5,46.7z"/>
	<path d="M413.6,70.1c-3.6-3.6-9.5-3.7-13.2-0.2L192.2,268.6c-1,1-1.8,2.2-2.3,3.5l-28.4,75.7c-1.4,3.7-0.4,7.8,2.5,10.4
		c1.8,1.6,4,2.4,6.3,2.4c1.4,0,2.9-0.3,4.2-1l75.7-37.8c0.9-0.5,1.7-1.1,2.5-1.8l198.7-198.7c3.7-3.7,3.7-9.7,0-13.4L413.6,70.1z
		 M240.4,305.5l-52.8,26.4l19.2-51.1L406.7,90l24.6,24.6L240.4,305.5z"/>
	<path d="M463.6,10.5h-3.9l-37.8,37.8l51.2,51.2L511,61.7v-3.9C511,20.4,480,10.5,463.6,10.5z M473.1,72.8l-24.5-24.5l18.7-18.7
		c7.7,1,22.8,5.3,24.6,24.4L473.1,72.8z"/>
</g>
</svg>
