<?xml version="1.0" encoding="utf-8"?>
<!-- Generator: Adobe Illustrator 18.0.0, SVG Export Plug-In . SVG Version: 6.00 Build 0)  -->
<!DOCTYPE svg PUBLIC "-//W3C//DTD SVG 1.1//EN" "http://www.w3.org/Graphics/SVG/1.1/DTD/svg11.dtd">
<svg version="1.1" id="图层_1" xmlns="http://www.w3.org/2000/svg" xmlns:xlink="http://www.w3.org/1999/xlink" x="0px" y="0px"
	 width="512px" height="512px" viewBox="0 0 512 512" enable-background="new 0 0 512 512" xml:space="preserve">
<path d="M449.1-1.6h-5.3l-51.2,51.2l69.3,69.3l51.2-51.2v-5.3C513.1,11.7,471.2-1.6,449.1-1.6z M461.9,82.7l-33.1-33.1L454,24.3
	c10.5,1.3,30.9,7.1,33.2,33L461.9,82.7z"/>
<path d="M270,512H16c-8.8,0-16-7.2-16-16v-8c0-8.8,7.2-16,16-16h254c8.8,0,16,7.2,16,16v8C286,504.8,278.8,512,270,512z"/>
<path d="M432.5,130.1l-51.2-51.2c-4.9-4.9-12.9-5-17.9-0.2L81.8,347.6c-1.4,1.3-2.5,3-3.2,4.8L40.2,454.7c-1.9,4.9-0.5,10.5,3.4,14
	c2.4,2.2,5.5,3.3,8.6,3.3c1.9,0,3.9-0.4,5.7-1.4l102.4-51.2c1.2-0.6,2.4-1.4,3.3-2.4l268.8-268.8
	C437.5,143.2,437.5,135.1,432.5,130.1z M147.1,397.5l-71.4,35.7l25.9-69.1l225.9-215.7c0.7,1.1,1.4,2.1,2.4,3l27.7,27.7
	c1.4,1.4,2.9,2.4,4.6,3.2L147.1,397.5z"/>
</svg>
