<?xml version="1.0" encoding="utf-8"?>
<!-- Generator: Adobe Illustrator 18.0.0, SVG Export Plug-In . SVG Version: 6.00 Build 0)  -->
<!DOCTYPE svg PUBLIC "-//W3C//DTD SVG 1.1//EN" "http://www.w3.org/Graphics/SVG/1.1/DTD/svg11.dtd">
<svg version="1.1" id="图层_1" xmlns="http://www.w3.org/2000/svg" xmlns:xlink="http://www.w3.org/1999/xlink" x="0px" y="0px"
	 width="512px" height="512px" viewBox="0 0 512 512" enable-background="new 0 0 512 512" xml:space="preserve">
<path d="M256.3,1.3C115.5,1.3,1,115.9,1,256.7S115.5,512,256.3,512s255.3-114.5,255.3-255.3S397.1,1.3,256.3,1.3z M256.3,474.2
	c-119.9,0-217.5-97.6-217.5-217.5S136.4,39.2,256.3,39.2c119.9,0,217.5,97.6,217.5,217.5S376.3,474.2,256.3,474.2z"/>
<path d="M149.2,274.5h214.3c9.9,0,17.9-8,17.9-17.9c0-9.9-8-17.9-17.9-17.9H149.2c-9.9,0-17.9,8-17.9,17.9
	C131.3,266.5,139.3,274.5,149.2,274.5z"/>
</svg>
