<?xml version="1.0" encoding="utf-8"?>
<!-- Generator: Adobe Illustrator 16.0.0, SVG Export Plug-In . SVG Version: 6.00 Build 0)  -->
<!DOCTYPE svg PUBLIC "-//W3C//DTD SVG 1.1//EN" "http://www.w3.org/Graphics/SVG/1.1/DTD/svg11.dtd">
<svg version="1.1" id="图层_1" xmlns="http://www.w3.org/2000/svg" xmlns:xlink="http://www.w3.org/1999/xlink" x="0px" y="0px"
	 width="512px" height="512px" viewBox="0 0 512 512" enable-background="new 0 0 512 512" xml:space="preserve">
<g>
	<path d="M486.1,260.4c-0.2,12.4-3,53.2-20.9,130.5c19.1,0.1,38.7-25,44.9-58.7C516.6,296.5,505.9,264.7,486.1,260.4z"/>
	<path d="M474.5,243.6c0,0-1.2-1.6-4.7-2.4c-1.4-1-4.5-2.3-10.4-1.8c0,0-0.8,0.1-1.6,0.6c-0.4-0.2-0.8-0.5-1.3-0.6
		c-0.5-0.2-1.2-0.4-2-0.6c-0.5-0.4-1.1-0.7-1.7-0.9c-0.4-0.1-1-0.3-1.8-0.5C445.6,213.6,408.6,82.6,246.9,84
		C92.4,85.3,54.7,217.6,48.3,246.4c-0.6,0.2-1,0.4-1.4,0.5c-1.1,0.5-2,1.3-2.6,2.1c-1.1,0-2,0.1-2.9,0.2c-0.6-0.2-1-0.2-1-0.2
		c-8.8,0-11.1,3.6-11.1,3.6c-4.7,6.6-2.3,12.8,15.5,83c16.8,66.3,18.5,67.5,18.5,67.5c1,2.7,3.9,3.3,4.6,3.5c1.6,0.4,3.2,0.4,4.6,0
		c4.8,1.2,9.3-2,11.2-3.5c1.1,0.1,2.4,0.1,3.6-0.1c6.9,1,18.4-2,14.4-23.8c-11.2-60.2-25.8-120.5-32.5-128.7c-4-4.9-9-5.4-12.8-4.9
		c-0.9-0.1-1.7-0.2-2.6-0.2c12.3-31.4,64.6-139.3,191.4-142.7C378.3,99,429.4,206,443.7,237.2c-2.9,0.6-5.9,2.2-8.4,5.7
		c-6,8.7-15.5,70-21.6,130.9c-1.6,16,4.1,21.4,9.9,22.7c4,2.5,8.9,2,11.9,0.9c1.1,0.6,2.4,1.2,3.8,1.5c2.4,1.3,6,2.6,9.6,1.3
		c0.7-0.2,3.5-1.1,4.2-3.8c0,0,1.7-1.4,12.8-68.8C477.9,256.2,479.8,249.8,474.5,243.6z"/>
	<path d="M50.8,398.2c-24.4-75.7-30-115.2-31.3-127.4c-16.8,8.4-24.1,38.6-16.3,71.4c8.2,34.3,30.1,58.7,49.6,56.1
		c-0.3,0-0.6,0-0.8,0.1C51.7,398.3,51.3,398.2,50.8,398.2z"/>
</g>
<path d="M48.5,326.1c0-114.9,91.5-208,204.3-208c112.8,0,204.3,93.1,204.3,208c0,0.9,0,1.9,0,2.8c2.2-12,3.3-24.3,3.3-37
	c0-114.9-93.1-208-208-208s-208,93.1-208,208c0,14.7,1.5,29,4.4,42.9C48.6,331.9,48.5,329,48.5,326.1z"/>
</svg>
