<?xml version="1.0" encoding="utf-8"?>
<!-- Generator: Adobe Illustrator 19.0.0, SVG Export Plug-In . SVG Version: 6.00 Build 0)  -->
<svg version="1.1" id="图层_1" xmlns="http://www.w3.org/2000/svg" xmlns:xlink="http://www.w3.org/1999/xlink" x="0px" y="0px"
	 width="1451.3px" height="1451.3px" viewBox="0 0 1451.3 1451.3" enable-background="new 0 0 1451.3 1451.3" xml:space="preserve">
<path id="XMLID_4_" d="M727.4,0C470.3,0,261.1,208.2,261.1,464.1c0,73.1,17.5,146.7,51.2,211.5c10.6,20.3,35.1,28.4,55.5,17.5
	c20.9-10.3,28.9-35.2,18.1-55.3c-28.1-54.2-42-112.8-42-173.9c0-210.2,172.2-381.3,383.4-381.3C939,82.6,1111,253.8,1111,464
	c0.1,210.2-171.8,381.3-383.5,381.3c-29.2,0-58.3-3.1-86.4-9.6c-22.2-5.3-44.1,8.7-49.6,31.1c-4.6,21.9,8.8,44,31.2,49.3
	c34,7.5,69.6,11.5,104.6,11.5c257.3,0,466.6-208.1,466.6-463.6C1194,208.2,984.8,0,727.4,0z"/>
<path id="XMLID_3_" d="M646,584.8c25.2,17.3,55.5,27.7,88.4,27.7c85.7,0,154.2-68.6,154.2-153.7c0-84.8-68.7-153.2-154.2-153.2
	c-85.2,0-154.5,68.6-154.5,153.2c0,21.9,4.6,42.7,12.9,61.4c-33.1,34.7-69.6,78.4-105.1,131.3c-99,145.6-209.8,404.8-178.3,753.5
	c2.1,21.4,19.9,49.8,41.1,49.8h4.1c22.7,0,39.7-34.6,37.9-57.2c-24.1-258.6,30.7-495.5,161.9-690.6
	C585.1,660.9,616.8,615.8,646,584.8z"/>
</svg>
