<?xml version="1.0" encoding="utf-8"?>
<!-- Generator: Adobe Illustrator 16.0.0, SVG Export Plug-In . SVG Version: 6.00 Build 0)  -->
<!DOCTYPE svg PUBLIC "-//W3C//DTD SVG 1.1//EN" "http://www.w3.org/Graphics/SVG/1.1/DTD/svg11.dtd">
<svg version="1.1" id="图层_1" xmlns="http://www.w3.org/2000/svg" xmlns:xlink="http://www.w3.org/1999/xlink" x="0px" y="0px"
	 width="512px" height="512px" viewBox="0 0 512 512" enable-background="new 0 0 512 512" xml:space="preserve">
<path fill-rule="evenodd" clip-rule="evenodd" d="M273.6,112.6c-83.3,3.6-94.7-36.5-106.4-102.7c83.3,1.3,121.7-3.2,118.7,68
	c-28.7-20.9-39.4-27.4-72-41.3C244.5,61.9,267.5,74.1,273.6,112.6L273.6,112.6z M349.4,80.9c0.9-16-8.3-20.8-22.7-19.2
	c-53.6,60.4-44.9,63.9-59,136.4c-315.5-39.6-122.9,419.8,18.2,283.5c149.9,135.1,327.6-332.5,20.4-279.3
	C307.9,149.6,316.7,122.8,349.4,80.9L349.4,80.9z"/>
</svg>
