<?xml version="1.0" encoding="utf-8"?>
<!-- Generator: Adobe Illustrator 16.0.0, SVG Export Plug-In . SVG Version: 6.00 Build 0)  -->
<!DOCTYPE svg PUBLIC "-//W3C//DTD SVG 1.1//EN" "http://www.w3.org/Graphics/SVG/1.1/DTD/svg11.dtd">
<svg version="1.1" id="图层_1" xmlns="http://www.w3.org/2000/svg" xmlns:xlink="http://www.w3.org/1999/xlink" x="0px" y="0px"
	 width="512px" height="512px" viewBox="0 0 512 512" enable-background="new 0 0 512 512" xml:space="preserve">
<path d="M398.5,148.6c1.9-2.2,3.8-4.5,5.5-7c19.2-26.4,23.9-59,15.6-88.2c-20.5,0.7-40.6,7.6-57.4,20.1c0.2-21-6-41.3-17.4-58.3
	c-19.2,7-36.2,19.8-48.3,36.9c-6.2-20-18.5-37.4-34.6-50c-16.1,12.6-28.3,30-34.6,50C215.2,35,198.2,22.3,179,15.2
	c-11.4,17-17.7,37.3-17.4,58.2c-16.8-12.5-36.9-19.4-57.4-20.1c-8.3,29.2-3.6,61.7,15.6,88.2c1.6,2.1,3.2,4.2,4.9,6.2
	c-47.8,20.8-77.4,67.9-77.4,122.7c0,107.3,161,241.5,214.7,241.5c53.7,0,214.7-134.2,214.7-241.5
	C476.6,216.4,444.6,169.8,398.5,148.6z"/>
<g>
	<path fill="#FFFFFF" d="M262,418c10.7,0,19.3,8.7,19.3,19.3c0,10.7-8.7,19.3-19.3,19.3c-10.6,0-19.3-8.7-19.3-19.3
		C242.7,426.6,251.3,418,262,418L262,418z"/>
</g>
<path fill="#FFFFFF" d="M190.9,323.8c10.7,0,19.3,8.7,19.3,19.3s-8.6,19.3-19.3,19.3c-10.7,0-19.3-8.7-19.3-19.3
	S180.3,323.8,190.9,323.8L190.9,323.8z"/>
<path fill="#FFFFFF" d="M333.1,323.8c10.7,0,19.3,8.7,19.3,19.3s-8.7,19.3-19.3,19.3c-10.7,0-19.3-8.7-19.3-19.3
	S322.5,323.8,333.1,323.8L333.1,323.8z"/>
<g>
	<path fill="#FFFFFF" d="M135.6,229.5c10.7,0,19.3,8.6,19.3,19.3c0,10.7-8.7,19.3-19.3,19.3c-10.7,0-19.3-8.7-19.3-19.3
		C116.3,238.1,124.9,229.5,135.6,229.5L135.6,229.5z"/>
	<path fill="#FFFFFF" d="M388.3,229.5c10.7,0,19.3,8.6,19.3,19.3c0,10.7-8.7,19.3-19.3,19.3c-10.7,0-19.3-8.7-19.3-19.3
		C368.9,238.1,377.6,229.5,388.3,229.5L388.3,229.5z"/>
	<path fill="#FFFFFF" d="M262,229.5c10.7,0,19.3,8.6,19.3,19.3c0,10.7-8.7,19.3-19.3,19.3c-10.6,0-19.3-8.7-19.3-19.3
		C242.7,238.1,251.3,229.5,262,229.5L262,229.5z"/>
</g>
</svg>
