<?xml version="1.0" encoding="utf-8"?>
<!-- Generator: Adobe Illustrator 16.0.0, SVG Export Plug-In . SVG Version: 6.00 Build 0)  -->
<!DOCTYPE svg PUBLIC "-//W3C//DTD SVG 1.1//EN" "http://www.w3.org/Graphics/SVG/1.1/DTD/svg11.dtd">
<svg version="1.1" id="图层_1" xmlns="http://www.w3.org/2000/svg" xmlns:xlink="http://www.w3.org/1999/xlink" x="0px" y="0px"
	 width="512px" height="512px" viewBox="0 0 512 512" enable-background="new 0 0 512 512" xml:space="preserve">
<path fill-rule="evenodd" clip-rule="evenodd" d="M472.8,244c54.5-107.8,63-219.9-57-242.9C258.5-11.5,13,87.8,0.9,263.3
	c-9.2,133.3,49.5,202.1,229.4,241.6c97.8,14.8,230.2,15.8,269.3-88.6C514.4,350.5,450.2,288.8,472.8,244z M464.1,398.7
	c-33.1,88.4-147.2,80.5-229.9,68C81.9,433.2,32.3,375,40.1,262.2C50.3,113.6,268,29.6,401.1,40.4c101.5,19.4,77.3,114.3,31.2,205.5
	C413.2,283.8,476.6,343,464.1,398.7z"/>
<path fill-rule="evenodd" clip-rule="evenodd" d="M283.9,221.7c-61.9,0-112.2,48.4-112.2,108.1c0,59.7,50.2,108.1,112.2,108.1
	c62,0,112.2-48.4,112.2-108.1C396.1,270.2,345.8,221.7,283.9,221.7z M217,391.2c-14.3-22.6-37.9-65.7-2.1-108.2
	c33.7-40,73.5-38.7,101-35.9C263.4,251,201.2,322,217,391.2z"/>
</svg>
