<?xml version="1.0" encoding="utf-8"?>
<!-- Generator: Adobe Illustrator 18.0.0, SVG Export Plug-In . SVG Version: 6.00 Build 0)  -->
<!DOCTYPE svg PUBLIC "-//W3C//DTD SVG 1.1//EN" "http://www.w3.org/Graphics/SVG/1.1/DTD/svg11.dtd">
<svg version="1.1" id="图层_1" xmlns="http://www.w3.org/2000/svg" xmlns:xlink="http://www.w3.org/1999/xlink" x="0px" y="0px"
	 width="512px" height="512px" viewBox="0 0 512 512" enable-background="new 0 0 512 512" xml:space="preserve">
<g>
	<g>
		<path d="M255.3,1.3C114.5,1.3,0,115.9,0,256.7S114.5,512,255.3,512s255.3-114.5,255.3-255.3S396.1,1.3,255.3,1.3z M255.3,474.2
			c-119.9,0-217.5-97.6-217.5-217.5S135.4,39.2,255.3,39.2s217.5,97.6,217.5,217.5S375.3,474.2,255.3,474.2z M256.3,338.7
			c-19.3,0-35,15.7-35,35c0,19.3,15.7,35,35,35c19.3,0,35-15.7,35-35C291.3,354.3,275.7,338.7,256.3,338.7z M256.3,101
			c-26.5,0-48,19.3-48,27.5c0,0.2,0,0.3,0,0.5h0l29.8,183h15.3h3h16.3l31.7-183h0c0-0.2,0-0.3,0-0.5
			C304.4,120.3,282.9,101,256.3,101z"/>
	</g>
</g>
</svg>
