<?xml version="1.0" encoding="utf-8"?>
<!-- Generator: Adobe Illustrator 18.0.0, SVG Export Plug-In . SVG Version: 6.00 Build 0)  -->
<!DOCTYPE svg PUBLIC "-//W3C//DTD SVG 1.1//EN" "http://www.w3.org/Graphics/SVG/1.1/DTD/svg11.dtd">
<svg version="1.1" id="图层_1" xmlns="http://www.w3.org/2000/svg" xmlns:xlink="http://www.w3.org/1999/xlink" x="0px" y="0px"
	 width="512px" height="512px" viewBox="0 0 512 512" enable-background="new 0 0 512 512" xml:space="preserve">
<g>
	<path d="M455.1,0H56.9C25.5,0,0,25.5,0,56.9v398.2C0,486.5,25.5,512,56.9,512h398.2c31.4,0,56.9-25.5,56.9-56.9V56.9
		C512,25.5,486.5,0,455.1,0z M474.1,56.9v189.6H265.5V37.9h189.6C465.6,37.9,474.1,46.4,474.1,56.9z M56.9,37.9h189.6v208.6H37.9
		V56.9C37.9,46.4,46.4,37.9,56.9,37.9z M37.9,455.1V265.5h208.6v208.6H56.9C46.4,474.1,37.9,465.6,37.9,455.1z M455.1,474.1H265.5
		V265.5h208.6v189.6C474.1,465.6,465.6,474.1,455.1,474.1z"/>
	<path d="M85.3,151.7h47.4v47.4c0,5.2,4.2,9.5,9.5,9.5c5.2,0,9.5-4.2,9.5-9.5v-47.4h47.4c5.2,0,9.5-4.2,9.5-9.5
		c0-5.2-4.2-9.5-9.5-9.5h-47.4V85.3c0-5.2-4.2-9.5-9.5-9.5c-5.2,0-9.5,4.2-9.5,9.5v47.4H85.3c-5.2,0-9.5,4.2-9.5,9.5
		C75.9,147.5,80.1,151.7,85.3,151.7z"/>
	<path d="M155.6,369.8l40.7-40.7c3.7-3.7,3.7-9.7,0-13.4c-3.7-3.7-9.7-3.7-13.4,0l-40.7,40.7l-40.7-40.7c-3.7-3.7-9.7-3.7-13.4,0
		c-3.7,3.7-3.7,9.7,0,13.4l40.7,40.7l-40.7,40.7c-3.7,3.7-3.7,9.7,0,13.4c1.9,1.9,4.3,2.8,6.7,2.8c2.4,0,4.9-0.9,6.7-2.8l40.7-40.7
		l40.7,40.7c1.9,1.9,4.3,2.8,6.7,2.8c2.4,0,4.9-0.9,6.7-2.8c3.7-3.7,3.7-9.7,0-13.4L155.6,369.8z"/>
	<path d="M312.9,151.7h113.8c5.2,0,9.5-4.2,9.5-9.5c0-5.2-4.2-9.5-9.5-9.5H312.9c-5.2,0-9.5,4.2-9.5,9.5
		C303.4,147.5,307.6,151.7,312.9,151.7z"/>
	<path d="M426.7,360.3H312.9c-5.2,0-9.5,4.2-9.5,9.5s4.2,9.5,9.5,9.5h113.8c5.2,0,9.5-4.2,9.5-9.5S431.9,360.3,426.7,360.3z"/>
	<circle cx="369.8" cy="322.4" r="17.1"/>
	<circle cx="369.8" cy="417.2" r="17.1"/>
</g>
</svg>
