<?xml version="1.0" encoding="utf-8"?>
<!-- Generator: Adobe Illustrator 18.0.0, SVG Export Plug-In . SVG Version: 6.00 Build 0)  -->
<!DOCTYPE svg PUBLIC "-//W3C//DTD SVG 1.1//EN" "http://www.w3.org/Graphics/SVG/1.1/DTD/svg11.dtd">
<svg version="1.1" id="图层_1" xmlns="http://www.w3.org/2000/svg" xmlns:xlink="http://www.w3.org/1999/xlink" x="0px" y="0px"
	 width="512px" height="512px" viewBox="0 0 512 512" enable-background="new 0 0 512 512" xml:space="preserve">
<g>
	<path d="M512,280.5v-57.8l-72.9-15.5c-5-18.9-13.9-35.1-22.6-49.2l43.9-64.9l-40.9-41.2l-70.7,41.8c-12.8-7-26.5-12.3-40.7-16.1
		L289.4,1h-58l-18.8,77.5l-0.3,0.3c-16.6,4.4-31.8,10.6-45.3,18.4L99.1,51.9l-40.9,41l42.7,71.2c-7.5,13.1-12.3,27-16.5,41.5
		L0,222.6v58.2l82,21c3.7,14.1,7.2,28.4,15.1,42.7l-39.4,69.1l41.1,41l63.5-41.2c18.5,11.9,35.7,19.9,52.1,24.4l17,74.3h58.2
		l17-74.3c15.2-4,30.7-10.8,46.9-20.4l66.7,37.4l41.2-41.2l-40.4-63c9.8-17.1,16.2-35.2,19.6-50.4L512,280.5z M406.2,282.7l-2.5,4.6
		c-4.5,21.1-10.1,36.1-18,48.6l-2.7,4.2l34.9,53.7L398.8,413l-56.7-31.9l-3.9,2.4c-16.1,9.9-31,16.3-45.6,19.5l-4.8,1l-14.5,63
		h-26.7l-14.5-63l-4.8-0.8c-15.4-3.4-31.8-11.1-50.2-23.4l-4.3-2.9l-54.4,35.3l-19-19l31-54.3l0.9-7.3l-1.1-2.2
		c-7.7-13.6-12.9-27.2-15.9-40.4l-0.4-4l-5.8-2.8L44,265.8v-26.6l62.4-12.5l8.2-3.2l1.1-4.2c3.6-14.2,9.4-27.8,17.1-40.4l1.7-2.8
		l-1.1-4.8l-33.8-57.8l18.9-18.8l53.5,35.7l5.1,2.8l3.9-2.4c12.5-7.8,26.5-13.6,42.8-17.7l2.7-0.7l5.6-7.4L246.5,45h26.9l14.7,60.7
		l6,6l2.1,0.5c13.5,3.4,26.3,8.6,38.2,15.4l3.5,1.4l3.1-0.8l57.7-33.7l18.7,18.8l-37.5,55.6l3.1,4.4c8.8,13,15.7,28.7,20.4,47.9
		l2,4.8l61.6,13.1V266L406.2,282.7z"/>
	<path d="M265.5,169.3c-48.5,0-87.8,39.3-87.8,87.7c0,48.4,39.3,87.7,87.8,87.7s87.8-39.3,87.8-87.7
		C353.4,208.6,314.1,169.3,265.5,169.3z M265.6,313.6c-31.4,0-56.8-25.4-56.8-56.7c0-31.3,25.4-56.7,56.8-56.7s56.8,25.4,56.8,56.7
		C322.4,288.2,297,313.6,265.6,313.6z"/>
</g>
</svg>
