<?xml version="1.0" encoding="utf-8"?>
<!-- Generator: Adobe Illustrator 16.0.0, SVG Export Plug-In . SVG Version: 6.00 Build 0)  -->
<!DOCTYPE svg PUBLIC "-//W3C//DTD SVG 1.1//EN" "http://www.w3.org/Graphics/SVG/1.1/DTD/svg11.dtd">
<svg version="1.1" id="图层_1" xmlns="http://www.w3.org/2000/svg" xmlns:xlink="http://www.w3.org/1999/xlink" x="0px" y="0px"
	 width="512px" height="512px" viewBox="0 0 512 512" enable-background="new 0 0 512 512" xml:space="preserve">
<g>
	<path d="M265.2,365.5c67.6,0,122.4-54.8,122.4-122.4v-49.4H142.8v49.4C142.8,310.7,197.6,365.5,265.2,365.5z"/>
	<path d="M387.6,120.6C387.6,53,332.8-1.8,265.2-1.8c-67.6,0-122.4,54.8-122.4,122.4v43h244.8V120.6z"/>
	<path d="M440,71.1c-10.7,0-19.4,8.7-19.4,19.4v100.7h-0.5c0.3,4,0.5,8,0.5,12.1v33.5v8.9c0,85.8-69.6,155.4-155.4,155.4
		c-85.8,0-155.4-69.6-155.4-155.4v-8.9v-33.5c0-4.1,0.2-8.1,0.5-12.1h-0.5V90.5c0-10.7-8.7-19.4-19.4-19.4S71,79.8,71,90.5V198v38.8
		v14.1c0,95.3,68.7,174.6,159.2,191.1v21.8h-65c-13.8,0-25,11.2-25,25s11.2,25,25,25h200c13.8,0,25-11.2,25-25s-11.2-25-25-25h-65
		V442c90.6-16.5,159.2-95.8,159.2-191.1v-14.1V198V90.5C459.4,79.8,450.7,71.1,440,71.1z"/>
</g>
</svg>
