<?xml version="1.0" encoding="utf-8"?>
<!-- Generator: Adobe Illustrator 18.0.0, SVG Export Plug-In . SVG Version: 6.00 Build 0)  -->
<!DOCTYPE svg PUBLIC "-//W3C//DTD SVG 1.1//EN" "http://www.w3.org/Graphics/SVG/1.1/DTD/svg11.dtd">
<svg version="1.1" id="图层_1" xmlns="http://www.w3.org/2000/svg" xmlns:xlink="http://www.w3.org/1999/xlink" x="0px" y="0px"
	 width="512px" height="512px" viewBox="0 0 512 512" enable-background="new 0 0 512 512" xml:space="preserve">
<g>
	<path d="M255.8,0C115.7,0,0.8,99.5-0.3,221.7C-1,297,26.8,351.2,89.6,397.1c-0.2,16.8-9,42.8-44.6,77.8l-2.5,2.5
		c-5.6,5.8-7.1,14.5-3.8,21.9c3.1,6.9,9.8,11.3,17.2,11.3c0.5,0,1,0,1.5-0.1c76.8-6.2,154.6-67,161.4-72.2l3.9,0.7
		c13.9,2.5,25.9,4.6,33.2,4.6h0c141.2,0,256.2-99.5,256.2-221.9S397.1,0,255.8,0z M255.6,404.8c-4.3,0-20.3-2.9-26.4-4l-5.7-1
		c-14.3-2.5-26.4,6.4-28.2,7.9c-0.5,0.4-40,31.8-87.4,50.6c15.1-24.4,21.5-48.2,19-71c-0.2-1.6-0.5-3.1-1.1-4.6
		c-0.7-1.9-2.3-6.4-10.3-14.1c-0.7-0.6-1.4-1.2-2.1-1.8C59.7,328.1,37,284.8,37.5,222.1C38.4,121.1,136.4,39,255.8,39
		c120.4,0,218.3,82.1,218.3,182.9S376.2,404.8,255.6,404.8z"/>
	<path d="M147.1,188.7c-20.9,0-37.8,17.5-37.8,39s17,39,37.8,39c20.9,0,37.8-17.5,37.8-39S168,188.7,147.1,188.7z M147.1,247.2
		c-10.4,0-18.9-8.7-18.9-19.5s8.5-19.5,18.9-19.5c10.4,0,18.9,8.7,18.9,19.5S157.5,247.2,147.1,247.2z"/>
	<path d="M251.1,188.7c-20.9,0-37.8,17.5-37.8,39s17,39,37.8,39c20.9,0,37.8-17.5,37.8-39S272,188.7,251.1,188.7z M251.1,247.2
		c-10.4,0-18.9-8.7-18.9-19.5s8.5-19.5,18.9-19.5c10.4,0,18.9,8.7,18.9,19.5S261.5,247.2,251.1,247.2z"/>
	<path d="M355.1,188.7c-20.9,0-37.8,17.5-37.8,39s17,39,37.8,39c20.9,0,37.8-17.5,37.8-39S376,188.7,355.1,188.7z M355.1,247.2
		c-10.4,0-18.9-8.7-18.9-19.5s8.5-19.5,18.9-19.5c10.4,0,18.9,8.7,18.9,19.5S365.5,247.2,355.1,247.2z"/>
</g>
</svg>
