<?xml version="1.0" encoding="utf-8"?>
<!-- Generator: Adobe Illustrator 19.0.0, SVG Export Plug-In . SVG Version: 6.00 Build 0)  -->
<svg version="1.1" id="图层_1" xmlns="http://www.w3.org/2000/svg" xmlns:xlink="http://www.w3.org/1999/xlink" x="0px" y="0px"
	 width="1451.3px" height="1451.3px" viewBox="0 0 1451.3 1451.3" enable-background="new 0 0 1451.3 1451.3" xml:space="preserve">
<path d="M38.8,0h1373.6v153.4H38.8V0z"/>
<path id="XMLID_4_" d="M1293,883.7V283.8H158.3v599.9L1293,883.7L1293,883.7z M322.8,437.2h807.3v293.3H322.8V437.2z"/>
<path id="XMLID_3_" d="M1047.6,1299.5c49.4-75,96-161.9,139.1-260.6l-165.1-59.6c-42.9,116.9-92.9,223.9-149.8,320.3H584.5
	c-47.6-124.9-101.3-231.8-161.6-320.3L271.1,1039c62.6,93.2,113.1,179.9,151.8,260.6H0v151.7h1451.3v-151.8H1047.6z"/>
</svg>
