<?xml version="1.0" encoding="utf-8"?>
<!-- Generator: Adobe Illustrator 16.0.0, SVG Export Plug-In . SVG Version: 6.00 Build 0)  -->
<!DOCTYPE svg PUBLIC "-//W3C//DTD SVG 1.1//EN" "http://www.w3.org/Graphics/SVG/1.1/DTD/svg11.dtd">
<svg version="1.1" id="图层_1" xmlns="http://www.w3.org/2000/svg" xmlns:xlink="http://www.w3.org/1999/xlink" x="0px" y="0px"
	 width="512px" height="512px" viewBox="0 0 512 512" enable-background="new 0 0 512 512" xml:space="preserve">
<path d="M188.2,114L188.2,114c0.8,0.6,1.6,1.3,2.4,1.8c5.3,4.7,11.8,8.6,19.1,11.7c2.7,1.5,5.9,2.5,9.5,2.5h0.1h2.2h22.8h2.7h2.7
	h22.8h2.2h0.1c3.5,0,6.8-0.9,9.5-2.5c7.3-3.1,13.8-7,19.1-11.7c0.8-0.6,1.6-1.2,2.3-1.8h0.1c28.5-22.2,50.3-54.2,66.9-93.4
	c0.9-2.1,1.5-4.4,1.5-6.9c0-7.7-5.8-14.1-12.9-14.1h-1.1h-28.4h-85h-85h-28.3h-1c-7.1,0-12.9,6.3-12.9,14.1c0,2.5,0.6,4.8,1.7,6.9
	C137.9,59.8,159.7,91.8,188.2,114z"/>
<polygon points="205.3,395.1 205.6,394.8 205.3,395 "/>
<path d="M202.6,402.7L202.6,402.7c0,0,0.1-0.1,0.1-0.2l0,0L202.6,402.7z"/>
<path d="M211,340L211,340L211,340z"/>
<path d="M228.1,372.9l0.1-0.1L228.1,372.9z"/>
<path d="M472.1,468.7c-16.5-173.3-109.5-306.1-221.9-306.1c-1.1,0-2.1,0-3.2,0.1c-1.1,0-2.1-0.1-3.2-0.1
	c-112.3,0-205.4,132.8-221.9,306.1c-0.2,1.8-0.4,3.5-0.4,5.4c0,21.3,17.1,38.5,38.3,38.5c1.5,0,2.9-0.1,4.3-0.2v0.2h91.3h91.5h91.5
	h91.3v-0.2c1.4,0.2,2.9,0.2,4.3,0.2c21.2,0,38.3-17.3,38.3-38.5C472.5,472.2,472.4,470.5,472.1,468.7z M276.6,275.2
	c-24.6,0-44.6,7.8-60,23.5c-15.5,15.7-23.2,36.8-23.2,63.4c0,1.1,0,2.1,0.1,3.2c0,1-0.1,2.1-0.1,3.2c0,26.6,7.7,47.7,23.2,63.4
	c15.4,15.7,35.4,23.5,60,23.5c12.7,0,24.7-1.9,35.9-5.7l0,0c6.5-2.8,14.1,0.2,16.9,6.8c2.8,6.5-0.2,14-6.6,16.9
	c-12.7,4.3-28.3,6.4-46.5,6.4c-32.7,0-59.7-10.3-80.9-31c-21.3-20.7-31.9-48.1-31.9-82c0-0.5,0-1,0-1.5c0-0.5,0-1,0-1.5
	c0-33.9,10.6-61.3,31.9-82c21.2-20.7,48.2-31,80.9-31c18.2,0,33.8,2.1,46.5,6.4c6.4,2.8,9.4,10.4,6.6,16.9
	c-2.8,6.5-10.4,9.6-16.9,6.8l0,0C301.2,277.1,289.2,275.2,276.6,275.2z"/>
</svg>
