<?xml version="1.0" encoding="utf-8"?>
<!-- Generator: Adobe Illustrator 18.0.0, SVG Export Plug-In . SVG Version: 6.00 Build 0)  -->
<!DOCTYPE svg PUBLIC "-//W3C//DTD SVG 1.1//EN" "http://www.w3.org/Graphics/SVG/1.1/DTD/svg11.dtd">
<svg version="1.1" id="图层_1" xmlns="http://www.w3.org/2000/svg" xmlns:xlink="http://www.w3.org/1999/xlink" x="0px" y="0px"
	 width="512px" height="512px" viewBox="0 0 512 512" enable-background="new 0 0 512 512" xml:space="preserve">
<path d="M456.5,63H335c-0.4-1-1-1.7-1.3-2.6L320,25.6C314.4,11.3,298.9,0,284.6,0h-66.8c-14.2,0-29.8,11.2-35.4,25.5l-13.6,34.9
	c-0.3,0.9-0.9,1.6-1.3,2.6h-112C23.9,63-2,90.8-2,125.4v323.9c0,34.6,25.9,62.7,57.5,62.7h401.1c31.6,0,57.5-28.1,57.5-62.7V125.4
	C514,90.8,488.1,63,456.5,63z M200,34c2.6-6.7,11.1-13,17.8-13h66.8c6.7,0,15.2,6.2,17.8,13l11.3,29H188.6L200,34z M476,449.3
	c0,11.5-8.9,20.7-19.5,20.7H55.5c-10.5,0-19.5-9.2-19.5-20.7V219h130v86c0,8.8,7.2,16,16,16h148c8.8,0,16-7.2,16-16v-86h130V449.3z
	 M314,239v45c0,8.8-7.2,16-16,16h-84c-8.8,0-16-7.2-16-16v-45c0-8.8,7.2-16,16-16h84C306.8,223,314,230.2,314,239z M476,199H36
	v-73.6c0-11.5,8.9-21.4,19.5-21.4h401.1c10.5,0,19.5,9.9,19.5,21.4V199z"/>
</svg>
