<?xml version="1.0" encoding="utf-8"?>
<!-- Generator: Adobe Illustrator 18.0.0, SVG Export Plug-In . SVG Version: 6.00 Build 0)  -->
<!DOCTYPE svg PUBLIC "-//W3C//DTD SVG 1.1//EN" "http://www.w3.org/Graphics/SVG/1.1/DTD/svg11.dtd">
<svg version="1.1" id="图层_1" xmlns="http://www.w3.org/2000/svg" xmlns:xlink="http://www.w3.org/1999/xlink" x="0px" y="0px"
	 width="512px" height="512px" viewBox="0 0 512 512" enable-background="new 0 0 512 512" xml:space="preserve">
<g>
	<path d="M107.7,117.4c0.9,0,1.9-0.1,2.8-0.4c5.1-1.5,7.9-6.8,6.4-11.8l-19-62.4C88.7,7.2,62.3-0.7,50.3,0H9.6C4.3,0,0,4.3,0,9.5
		S4.3,19,9.6,19h41.2c2.2,0,21.3,0.1,28.7,28.8l19.1,62.8C99.8,114.7,103.6,117.4,107.7,117.4z"/>
	<path d="M506,136.7c-5.9-8.6-15.9-13.5-27.3-13.5H134c-11.1,0-21,4.7-27.3,12.9c-6.3,8.2-8.2,18.9-5.2,29.4l37.6,134.1
		c0.9,3.2,2.3,6.2,4,9.1c-10.2,9.4-18.7,23.2-18.7,42.1c0,19.4,17.1,47.4,47.9,47.4H450v-37.9H172.3c-6.8,0-9.5-8.7-9.6-9.5
		c0-11.9,10.3-17.6,14.4-19.4c1.6,0.2,3.2,0.4,4.8,0.4h229.8c18.4,0,37.3-12.8,43.9-29.8l53.1-135.3
		C512.9,156.2,511.9,145.3,506,136.7z M419.9,288.4c-1,2.5-5.6,5.6-8.2,5.6H181.9c-1.9,0-5.3-2.5-5.8-4.4l-36-128.4h329.8
		L419.9,288.4z"/>
	<path d="M172.3,417.2c-26.4,0-47.9,21.3-47.9,47.4c0,26.1,21.5,47.4,47.9,47.4s47.9-21.3,47.9-47.4
		C220.2,438.5,198.7,417.2,172.3,417.2z M172.3,493c-15.8,0-28.7-12.8-28.7-28.4c0-15.7,12.9-28.4,28.7-28.4s28.7,12.8,28.7,28.4
		C201.1,480.3,188.2,493,172.3,493z"/>
	<path d="M402.1,417.2c-26.4,0-47.9,21.3-47.9,47.4c0,26.1,21.5,47.4,47.9,47.4c26.4,0,47.9-21.3,47.9-47.4
		C450,438.5,428.5,417.2,402.1,417.2z M402.1,493c-15.8,0-28.7-12.8-28.7-28.4c0-15.7,12.9-28.4,28.7-28.4
		c15.8,0,28.7,12.8,28.7,28.4C430.8,480.3,418,493,402.1,493z"/>
</g>
</svg>
