<?xml version="1.0" encoding="utf-8"?>
<!-- Generator: Adobe Illustrator 16.0.0, SVG Export Plug-In . SVG Version: 6.00 Build 0)  -->
<!DOCTYPE svg PUBLIC "-//W3C//DTD SVG 1.1//EN" "http://www.w3.org/Graphics/SVG/1.1/DTD/svg11.dtd">
<svg version="1.1" id="图层_1" xmlns="http://www.w3.org/2000/svg" xmlns:xlink="http://www.w3.org/1999/xlink" x="0px" y="0px"
	 width="512px" height="512px" viewBox="0 0 512 512" enable-background="new 0 0 512 512" xml:space="preserve">
<g>
	<path d="M165.6,231.2c-23.4,3.5-50.2-4.1-71.8-22.7C58.2,177.8,50,128.8,75.6,99c25.6-29.7,75.3-28.9,110.9,1.8
		c21.6,18.6,33.1,43.9,33.2,67.6l48.4,41.7c14-47.2-4.5-105.4-50.7-145.2C158,13.7,75.2,12.4,32.5,62
		c-42.6,49.6-29,131.2,30.5,182.4c46.2,39.8,106.5,49.4,151.1,28.5L165.6,231.2z"/>
	<path d="M450.7,265.7c-46.2-39.8-106.5-49.4-151.1-28.5l48.4,41.7c23.4-3.5,50.2,4.1,71.8,22.7c35.7,30.7,43.9,79.7,18.3,109.4
		c-25.6,29.7-75.3,28.9-110.9-1.8c-21.6-18.6-33.1-43.9-33.2-67.6L245.6,300c-14,47.2,4.5,105.4,50.7,145.2
		c59.5,51.2,142.3,52.5,184.9,2.9C523.9,398.5,510.2,316.8,450.7,265.7z"/>
	<path d="M362.4,361.3c-3,3.5-9.1,3.2-13.7-0.7L131.9,174c-4.5-3.9-5.8-9.9-2.7-13.4l15.3-17.8c3-3.5,9.1-3.2,13.7,0.7L375,330.1
		c4.5,3.9,5.8,9.9,2.7,13.4L362.4,361.3z"/>
</g>
</svg>
