<?xml version="1.0" encoding="utf-8"?>
<!-- Generator: Adobe Illustrator 18.0.0, SVG Export Plug-In . SVG Version: 6.00 Build 0)  -->
<!DOCTYPE svg PUBLIC "-//W3C//DTD SVG 1.1//EN" "http://www.w3.org/Graphics/SVG/1.1/DTD/svg11.dtd">
<svg version="1.1" id="图层_1" xmlns="http://www.w3.org/2000/svg" xmlns:xlink="http://www.w3.org/1999/xlink" x="0px" y="0px"
	 width="512px" height="512px" viewBox="0 0 512 512" enable-background="new 0 0 512 512" xml:space="preserve">
<path d="M394.1,179.6l54.4-57c-32.5-2.2-117.9-2.2-177.1,49.2c-39.1,33.9-60.4,85.1-63.4,152.1l-38-1.8
	c3.5-78.8,29.5-139.7,77.3-181.1c66.8-57.8,157.1-60.7,198.1-58.5l-51.4-53.8l26.9-28.1l85.5,89.5c7.4,7.8,7.4,20.4,0,28.1
	l-85.5,89.5L394.1,179.6z M466.1,104.2l-1.4-1.5l-0.5,3.5L466.1,104.2z"/>
<path d="M40,92h130v0.1c6.7,0.7,12,8.2,12,17.4s-5.3,16.7-12,17.4v0.1H68.3C50,127,35,142,35,160.3v283.3C35,462,50,477,68.3,477
	h283.3c18.3,0,33.3-15,33.3-33.3V322c0-6.6,7.8-12,17.5-12s17.5,5.4,17.5,12v150c0,22-18,40-40,40H40c-22,0-40-18-40-40V132
	C0,110,18,92,40,92z"/>
</svg>
