<?xml version="1.0" encoding="utf-8"?>
<!-- Generator: Adobe Illustrator 18.0.0, SVG Export Plug-In . SVG Version: 6.00 Build 0)  -->
<!DOCTYPE svg PUBLIC "-//W3C//DTD SVG 1.1//EN" "http://www.w3.org/Graphics/SVG/1.1/DTD/svg11.dtd">
<svg version="1.1" id="图层_1" xmlns="http://www.w3.org/2000/svg" xmlns:xlink="http://www.w3.org/1999/xlink" x="0px" y="0px"
	 width="512px" height="512px" viewBox="0 0 512 512" enable-background="new 0 0 512 512" xml:space="preserve">
<path d="M117.9,179.6l-54.4-57c32.5-2.2,117.9-2.2,177.1,49.2c39.1,33.9,60.4,85.1,63.4,152.1l38-1.8
	c-3.5-78.8-29.5-139.7-77.3-181.1C197.8,83.2,107.6,80.3,66.6,82.5l51.4-53.8L91.1,0.6L5.6,90.1c-7.4,7.8-7.4,20.4,0,28.1l85.5,89.5
	L117.9,179.6z M45.9,104.2l1.4-1.5l0.5,3.5L45.9,104.2z"/>
<path d="M472,92H342v0.1c-6.7,0.7-12,8.2-12,17.4s5.3,16.7,12,17.4v0.1h101.7c18.3,0,33.3,15,33.3,33.3v283.3
	c0,18.3-15,33.3-33.3,33.3H160.3c-18.3,0-33.3-15-33.3-33.3V322c0-6.6-7.8-12-17.5-12S92,315.4,92,322v150c0,22,18,40,40,40h340
	c22,0,40-18,40-40V132C512,110,494,92,472,92z"/>
</svg>
