<?xml version="1.0" encoding="utf-8"?>
<!-- Generator: Adobe Illustrator 18.0.0, SVG Export Plug-In . SVG Version: 6.00 Build 0)  -->
<!DOCTYPE svg PUBLIC "-//W3C//DTD SVG 1.1//EN" "http://www.w3.org/Graphics/SVG/1.1/DTD/svg11.dtd">
<svg version="1.1" id="图层_1" xmlns="http://www.w3.org/2000/svg" xmlns:xlink="http://www.w3.org/1999/xlink" x="0px" y="0px"
	 width="512px" height="512px" viewBox="0 0 512 512" enable-background="new 0 0 512 512" xml:space="preserve">
<g>
	<path d="M507.4,90.1L421.9,0.6L395,28.7l51.4,53.8c-41-2.2-131.3,0.7-198.1,58.5c-47.8,41.4-73.8,102.3-77.3,181.1l38,1.8
		c3-67,24.3-118.1,63.4-152.1c59.2-51.4,144.6-51.4,177.1-49.2l-54.4,57l26.9,28.1l85.5-89.5C514.8,110.5,514.8,97.9,507.4,90.1z
		 M465.2,106.2l0.5-3.5l1.4,1.5L465.2,106.2z"/>
	<path d="M427.5,263.3c-5.3,0-9.5,4.4-9.5,9.9v189c0,16.5-12.8,29.8-28.5,29.8h-342c-15.7,0-28.5-13.4-28.5-29.8v-368
		c0-16.5,12.8-29.8,28.5-29.8h190c5.3,0,9.5-4.4,9.5-9.9s-4.2-9.9-9.5-9.9h-190C21.3,44.5,0,66.8,0,94.2v368
		C0,489.7,21.3,512,47.5,512h342c26.2,0,47.5-22.3,47.5-49.7v-189C437,267.8,432.7,263.3,427.5,263.3z"/>
</g>
</svg>
