<?xml version="1.0" encoding="utf-8"?>
<!-- Generator: Adobe Illustrator 18.0.0, SVG Export Plug-In . SVG Version: 6.00 Build 0)  -->
<!DOCTYPE svg PUBLIC "-//W3C//DTD SVG 1.1//EN" "http://www.w3.org/Graphics/SVG/1.1/DTD/svg11.dtd">
<svg version="1.1" id="图层_1" xmlns="http://www.w3.org/2000/svg" xmlns:xlink="http://www.w3.org/1999/xlink" x="0px" y="0px"
	 width="512px" height="512px" viewBox="0 0 512 512" enable-background="new 0 0 512 512" xml:space="preserve">
<g>
	<path d="M5.6,90.1L91.1,0.6l26.9,28.1L66.6,82.5c41-2.2,131.3,0.7,198.1,58.5c47.8,41.4,73.8,102.3,77.3,181.1l-38,1.8
		c-3-67-24.3-118.1-63.4-152.1C181.4,120.4,96,120.5,63.5,122.6l54.4,57l-26.9,28.1L5.6,118.2C-1.9,110.5-1.9,97.9,5.6,90.1z
		 M47.8,106.2l-0.5-3.5l-1.4,1.5L47.8,106.2z"/>
	<path d="M85.5,263.3c5.3,0,9.5,4.4,9.5,9.9v189c0,16.5,12.8,29.8,28.5,29.8h342c15.7,0,28.5-13.4,28.5-29.8v-368
		c0-16.5-12.8-29.8-28.5-29.8h-190c-5.3,0-9.5-4.4-9.5-9.9s4.2-9.9,9.5-9.9h190c26.2,0,47.5,22.3,47.5,49.7v368
		c0,27.4-21.3,49.7-47.5,49.7h-342C97.3,512,76,489.7,76,462.3v-189C76,267.8,80.2,263.3,85.5,263.3z"/>
</g>
</svg>
