<?xml version="1.0" encoding="utf-8"?>
<!-- Generator: Adobe Illustrator 18.0.0, SVG Export Plug-In . SVG Version: 6.00 Build 0)  -->
<!DOCTYPE svg PUBLIC "-//W3C//DTD SVG 1.1//EN" "http://www.w3.org/Graphics/SVG/1.1/DTD/svg11.dtd">
<svg version="1.1" id="图层_1" xmlns="http://www.w3.org/2000/svg" xmlns:xlink="http://www.w3.org/1999/xlink" x="0px" y="0px"
	 viewBox="0 0 512 512" enable-background="new 0 0 512 512" xml:space="preserve">
<g>
	<path fill="#231815" d="M255.8,0C114.5,0-0.2,114.6-0.2,256s114.6,256,256,256s256-114.6,256-256S397.2,0,255.8,0z M376.5,374.2
		c0.1,0,0.2,0,0.4,0c0.1,0,0.2,0,0.4,0H376.5z M418,273.2v58.8c0,10.8-3.9,21.6-12.1,29.8c-8.1,8.1-18.6,12.2-29.3,12.3
		c-10.7-0.1-21.6-4.2-29.8-12.3c-8.2-8.2-12.8-19-12.8-29.8v-16.5c0-10.8-3.6-21.3-11.8-29.5c-8.3-8.3-18.5-12-29.4-12H271v6.6
		c0,16.5-8.8,31.9-23.1,40.1c-7,4.1-14.9,6.2-23,6.2c-8.1,0-16.2-2.1-23.2-6.2l-85.3-49.3c-14.2-8.2-23.1-23.5-23.1-39.9
		c0-16.4,8.8-31.7,23-39.9l85.4-49.3c7-4.1,15-6.2,23.1-6.2c8.1,0,16.1,2.1,23.1,6.2c14.3,8.2,23,23.6,23,40.1v8.6h64.1h10.1
		c18.8,0,37.3,6.5,51.6,20.9c14.3,14.3,21.2,32.5,21.2,51.3V273.2z"/>
</g>
</svg>
