<?xml version="1.0" encoding="utf-8"?>
<!-- Generator: Adobe Illustrator 18.0.0, SVG Export Plug-In . SVG Version: 6.00 Build 0)  -->
<!DOCTYPE svg PUBLIC "-//W3C//DTD SVG 1.1//EN" "http://www.w3.org/Graphics/SVG/1.1/DTD/svg11.dtd">
<svg version="1.1" id="图层_1" xmlns="http://www.w3.org/2000/svg" xmlns:xlink="http://www.w3.org/1999/xlink" x="0px" y="0px"
	 viewBox="0 0 512 512" enable-background="new 0 0 512 512" xml:space="preserve">
<g>
	<path fill="#231815" d="M255.8,0C114.5,0-0.2,114.6-0.2,256s114.6,256,256,256s256-114.6,256-256S397.2,0,255.8,0z M255.7,473.5
		c-120.2,0-217.6-97.4-217.6-217.6S135.5,38.3,255.7,38.3s217.6,97.4,217.6,217.6S375.9,473.5,255.7,473.5z"/>
</g>
<g>
	<path fill="#231815" d="M377.3,375c-0.1,0-0.2,0-0.4,0c-0.1,0-0.2,0-0.4,0H377.3z"/>
	<path fill="#231815" d="M397.3,212.3C383,197.9,364,191,345.2,191h-10.1H272v-7.7c0-16.5-9.3-31.8-23.5-40.1
		c-7-4.1-15.4-6.2-23.5-6.2c-8.1,0-16.1,2.1-23.2,6.2l-85.4,49.3c-14.2,8.2-23,23.5-23,39.9c0,16.4,8.9,31.7,23.1,39.9l85.3,49.2
		c7,4.1,15.2,6.2,23.3,6.2c8.1,0,16.3-2.1,23.4-6.2c14.3-8.3,23.6-23.6,23.6-40.1V274h20.8c10.8,0,21.6,4.2,29.9,12.4
		c8.3,8.3,12.3,19.1,12.3,29.9v16.5c0,10.8,4.2,21.6,12.4,29.8c8.1,8.1,18.8,12.2,29.5,12.3c10.7-0.1,21.5-4.2,29.6-12.3
		c8.2-8.2,12.5-19,12.5-29.8v-58.8V264C419,245.2,411.7,226.6,397.3,212.3z"/>
</g>
</svg>
