<?xml version="1.0" encoding="utf-8"?>
<!-- Generator: Adobe Illustrator 18.0.0, SVG Export Plug-In . SVG Version: 6.00 Build 0)  -->
<!DOCTYPE svg PUBLIC "-//W3C//DTD SVG 1.1//EN" "http://www.w3.org/Graphics/SVG/1.1/DTD/svg11.dtd">
<svg version="1.1" xmlns="http://www.w3.org/2000/svg" xmlns:xlink="http://www.w3.org/1999/xlink" x="0px" y="0px" width="512px"
	 height="512px" viewBox="0 0 512 512" enable-background="new 0 0 512 512" xml:space="preserve">
<g id="图层_1">
	<g>
		<path fill="#231815" d="M256.4,7.6c-138.1,0-250,111.9-250,250s111.9,250,250,250s250-111.9,250-250S394.5,7.6,256.4,7.6z
			 M401.5,237.7c0,16.5,0,43.5,0,60v44.8c0,16.5-13.5,30-30,30h-18c-16.5,0-30-13.5-30-30v-35c0-16.5-13.5-30-30-30h-37
			c-16.5,0-30,11-30,24.6s-11.5,17.5-25.6,8.9l-95.2-58.4c-14.1-8.6-14.1-22.8,0-31.4l95.2-58.4c14.1-8.6,25.6-4.3,25.6,9.6
			s13.5,25.3,30,25.3h115c16.5,0,30,13.5,30,30V237.7z"/>
	</g>
</g>
<g id="图层_2">
</g>
</svg>
