<?xml version="1.0" encoding="utf-8"?>
<!-- Generator: Adobe Illustrator 18.0.0, SVG Export Plug-In . SVG Version: 6.00 Build 0)  -->
<!DOCTYPE svg PUBLIC "-//W3C//DTD SVG 1.1//EN" "http://www.w3.org/Graphics/SVG/1.1/DTD/svg11.dtd">
<svg version="1.1" xmlns="http://www.w3.org/2000/svg" xmlns:xlink="http://www.w3.org/1999/xlink" x="0px" y="0px" width="512px"
	 height="512px" viewBox="0 0 512 512" enable-background="new 0 0 512 512" xml:space="preserve">
<g id="图层_1">
	<g>
		<path fill="#231815" d="M256.4,42.6c29,0,57.2,5.7,83.7,16.9c25.6,10.8,48.6,26.3,68.4,46.1c19.8,19.8,35.3,42.8,46.1,68.4
			c11.2,26.5,16.9,54.6,16.9,83.7s-5.7,57.2-16.9,83.7c-10.8,25.6-26.3,48.6-46.1,68.4c-19.8,19.8-42.8,35.3-68.4,46.1
			c-26.5,11.2-54.6,16.9-83.7,16.9s-57.2-5.7-83.7-16.9c-25.6-10.8-48.6-26.3-68.4-46.1c-19.8-19.8-35.3-42.8-46.1-68.4
			c-11.2-26.5-16.9-54.6-16.9-83.7s5.7-57.2,16.9-83.7c10.8-25.6,26.3-48.6,46.1-68.4c19.8-19.8,42.8-35.3,68.4-46.1
			C199.2,48.3,227.4,42.6,256.4,42.6 M256.4,7.6c-138.1,0-250,111.9-250,250s111.9,250,250,250s250-111.9,250-250
			S394.5,7.6,256.4,7.6L256.4,7.6z"/>
	</g>
	<g>
		<path fill="#231815" d="M401,282.7c0-8.3,0-21.8,0-30v-40.2c0-8.3-6.3-14.5-14.5-14.5h-145c-8.3,0-15.5-7.3-15.5-15.5V162
			c0-8.3-5.5-11.5-12.5-7.2L92.8,229c-7,4.3-7,11.4,0.1,15.7l120.6,74.1c7,4.3,12.6,1.1,12.6-7.2v-19.1c0-8.3,7.3-14.5,15.5-14.5h67
			c8.3,0,14.5,6.3,14.5,14.5v65c0,8.3,7.3,15.5,15.5,15.5h48c8.3,0,14.5-7.3,14.5-15.5V282.7z"/>
		<path fill="none" stroke="#231815" stroke-width="15" stroke-miterlimit="10" d="M401.5,282.7c0-8.3,0-21.8,0-30v-40.2
			c0-8.3-6.8-15-15-15h-145c-8.3,0-15-6.8-15-15V162c0-8.3-5.8-11.5-12.8-7.2L92.9,229c-7,4.3-7,11.4,0,15.7l120.8,74.1
			c7,4.3,12.8,1.1,12.8-7.2v-19.1c0-8.3,6.8-15,15-15h67c8.3,0,15,6.8,15,15v65c0,8.3,6.8,15,15,15h48c8.3,0,15-6.8,15-15V282.7z"/>
	</g>
</g>
<g id="图层_2">
</g>
</svg>
