<?xml version="1.0" encoding="utf-8"?>
<!-- Generator: Adobe Illustrator 18.0.0, SVG Export Plug-In . SVG Version: 6.00 Build 0)  -->
<!DOCTYPE svg PUBLIC "-//W3C//DTD SVG 1.1//EN" "http://www.w3.org/Graphics/SVG/1.1/DTD/svg11.dtd">
<svg version="1.1" xmlns="http://www.w3.org/2000/svg" xmlns:xlink="http://www.w3.org/1999/xlink" x="0px" y="0px" width="512px"
	 height="512px" viewBox="0 0 512 512" enable-background="new 0 0 512 512" xml:space="preserve">
<g id="图层_1">
	<g>
		<path fill="#231815" d="M256.4,42.6c29,0,57.2,5.7,83.7,16.9c25.6,10.8,48.6,26.3,68.4,46.1c19.8,19.8,35.3,42.8,46.1,68.4
			c11.2,26.5,16.9,54.6,16.9,83.7s-5.7,57.2-16.9,83.7c-10.8,25.6-26.3,48.6-46.1,68.4c-19.8,19.8-42.8,35.3-68.4,46.1
			c-26.5,11.2-54.6,16.9-83.7,16.9s-57.2-5.7-83.7-16.9c-25.6-10.8-48.6-26.3-68.4-46.1c-19.8-19.8-35.3-42.8-46.1-68.4
			c-11.2-26.5-16.9-54.6-16.9-83.7s5.7-57.2,16.9-83.7c10.8-25.6,26.3-48.6,46.1-68.4c19.8-19.8,42.8-35.3,68.4-46.1
			C199.2,48.3,227.4,42.6,256.4,42.6 M222.5,358.4c21.6,0,38.8-14.4,43.9-34.4H285v25c0,33.1,27.1,60,60.2,60h20.1
			c33.1,0,59.7-26.9,59.7-60v-44.2v-50v-13.1c0-33.1-26.7-59.7-59.7-59.7h-98.7c-4.9-21-22.3-35.9-44.3-35.9
			c-9.7,0-19.7,2.9-28.9,8.6l-88.9,54.5C88.3,219.1,79,234.7,79,252.1c0,17.3,9.3,33,25.5,42.9l88.9,54.6
			C202.7,355.3,212.7,358.4,222.5,358.4 M256.4,7.6c-138.1,0-250,111.9-250,250s111.9,250,250,250s250-111.9,250-250
			S394.5,7.6,256.4,7.6L256.4,7.6z M222.5,323.2c-3.2,0-6.9-1.1-10.8-3.6l-88.9-54.6c-11.7-7.2-11.7-19,0-26.1l88.9-54.6
			c3.8-2.4,7.5-3.5,10.6-3.5c6.4,0,10.7,4.8,10.7,13.2c0,12.5,11.3,22.8,25,22.8h107.3c13.8,0,24.7,11,24.7,24.7v13.1
			c0,13.8,0,36.3,0,50V349c0,13.8-11,25-24.7,25h-20.1c-13.8,0-25.2-11.3-25.2-25v-35.4c0-13.8-11.1-24.6-24.8-24.6H258
			c-13.8,0-25,9.7-25,21.9C233,318.9,228.8,323.2,222.5,323.2L222.5,323.2z"/>
	</g>
</g>
<g id="图层_2">
</g>
</svg>
