<?xml version="1.0" encoding="utf-8"?>
<!-- Generator: Adobe Illustrator 18.0.0, SVG Export Plug-In . SVG Version: 6.00 Build 0)  -->
<!DOCTYPE svg PUBLIC "-//W3C//DTD SVG 1.1//EN" "http://www.w3.org/Graphics/SVG/1.1/DTD/svg11.dtd">
<svg version="1.1" id="图层_1" xmlns="http://www.w3.org/2000/svg" xmlns:xlink="http://www.w3.org/1999/xlink" x="0px" y="0px"
	 width="512px" height="512px" viewBox="0 0 512 512" enable-background="new 0 0 512 512" xml:space="preserve">
<g>
	<path d="M256,0C114.6,0,0,114.6,0,256s114.6,256,256,256s256-114.6,256-256S397.4,0,256,0z M256,460.5
		c-112.9,0-204.5-91.6-204.5-204.5S143.1,51.5,256,51.5S460.5,143.1,460.5,256S368.9,460.5,256,460.5z"/>
	<path d="M256,103c-84.8,0-153.5,68.2-153.5,153S171.2,409.5,256,409.5S409.5,340.8,409.5,256S340.8,103,256,103z"/>
</g>
</svg>
