<?xml version="1.0" encoding="utf-8"?>
<!-- Generator: Adobe Illustrator 18.0.0, SVG Export Plug-In . SVG Version: 6.00 Build 0)  -->
<!DOCTYPE svg PUBLIC "-//W3C//DTD SVG 1.1//EN" "http://www.w3.org/Graphics/SVG/1.1/DTD/svg11.dtd">
<svg version="1.1" id="图层_1" xmlns="http://www.w3.org/2000/svg" xmlns:xlink="http://www.w3.org/1999/xlink" x="0px" y="0px"
	 width="512px" height="512px" viewBox="0 0 512 512" enable-background="new 0 0 512 512" xml:space="preserve">
<g>
	<path d="M122.8,264.6c-10.7-7.4-25.5-4.7-32.9,5.8s-4.7,25.2,5.8,32.6c0,0,136.5,95.6,138,96.8c7.5,5.8,17.5,6.3,25.5,2.1
		c3.6-1.7,9.2-7.7,9.2-7.7c0.7-1,239.5-308.4,239.5-308.4c8-10.2,6.1-25-4.3-32.9c-10.2-7.8-25.2-6-33.2,4.1L243.9,348.5
		L122.8,264.6z"/>
	<path d="M486.3,281c-13.6,0-24.8,9.6-25.7,21.7h-0.1v119.6c0,23.9-21.5,43.3-48,43.3h-313c-26.5,0-48-19.4-48-43.3V139.8
		c0-23.9,21.5-43.3,48-43.3H232v-0.1c13.4-0.8,24-10.9,24-23.2s-10.6-22.4-24-23.2V50H48C21.5,50,0,69.4,0,93.3v375.4
		C0,492.6,21.5,512,48,512h416c26.5,0,48-19.4,48-43.3v-166h-0.1C511,290.6,499.9,281,486.3,281z"/>
</g>
</svg>
