<?xml version="1.0" encoding="utf-8"?>
<!-- Generator: Adobe Illustrator 16.0.0, SVG Export Plug-In . SVG Version: 6.00 Build 0)  -->
<!DOCTYPE svg PUBLIC "-//W3C//DTD SVG 1.1//EN" "http://www.w3.org/Graphics/SVG/1.1/DTD/svg11.dtd">
<svg version="1.1" id="图层_1" xmlns="http://www.w3.org/2000/svg" xmlns:xlink="http://www.w3.org/1999/xlink" x="0px" y="0px"
	 width="512px" height="512px" viewBox="0 0 512 512" enable-background="new 0 0 512 512" xml:space="preserve">
<path d="M190.9,114L190.9,114c0.8,0.6,1.6,1.3,2.4,1.8c5.3,4.7,11.8,8.6,19.1,11.7c2.7,1.5,5.9,2.5,9.5,2.5h0.1h2.2H247h2.7h2.7
	h22.8h2.2h0.1c3.5,0,6.8-0.9,9.5-2.5c7.3-3.1,13.8-7,19.1-11.7c0.8-0.6,1.6-1.2,2.3-1.8h0.1c28.5-22.2,50.3-54.2,66.9-93.4
	c0.9-2.1,1.5-4.4,1.5-6.9c0-7.7-5.8-14.1-12.9-14.1h-1.1h-28.4h-85h-85h-28.3h-1c-7.1,0-12.9,6.3-12.9,14.1c0,2.5,0.6,4.8,1.7,6.9
	C140.6,59.8,162.4,91.8,190.9,114z"/>
<g>
	<polygon points="205.3,395.1 205.6,394.8 205.3,395 	"/>
	<path d="M202.6,402.7v0.1c0-0.1,0.1-0.2,0.1-0.3l0,0L202.6,402.7z"/>
	<polygon points="211,340 211,340 211,340 	"/>
	<polygon points="228.1,372.9 228.2,372.8 228.1,372.9 	"/>
	<path d="M474.8,468.7c-16.5-173.3-109.5-306.1-221.9-306.1c-1.1,0-2.1,0-3.2,0.1c-1.1,0-2.1-0.1-3.2-0.1
		c-112.3,0-205.4,132.8-221.9,306.1c-0.2,1.8-0.4,3.5-0.4,5.4c0,21.3,17.1,38.5,38.3,38.5c1.5,0,2.9-0.1,4.3-0.2v0.2h91.3h91.5h91.5
		h91.3v-0.2c1.4,0.2,2.9,0.2,4.3,0.2c21.2,0,38.3-17.3,38.3-38.5C475.2,472.2,475.1,470.5,474.8,468.7z M266.9,335.3
		C266.9,335.3,266.9,335.3,266.9,335.3l-2.7,2.6c-4.3,5.2-4.8,12.8-1.4,19.1l1.4,2.2c0,0,0,0,0,0l0,0l57.9,90.5
		c5.3,8.3,2.9,19.2-5.4,24.5c-8.3,5.3-19.2,2.9-24.5-5.4l-61.1-95.4c-1-0.8-2.2-0.9-3.3-0.3L206.4,394c-1,1.6-1.8,3.3-2.5,5
		l-1.1,3.1c0,0.1-0.1,0.3-0.1,0.4l-0.1,8v48.7c0,9.8-7.9,17.8-17.8,17.8s-17.8-7.9-17.8-17.8V277.7c0-9.8,7.9-17.8,17.8-17.8
		s17.8,7.9,17.8,17.8v59.8c0.1,0.1,0.2,0.3,0.3,0.4l0.3,0.3c2,2.2,5.1,2.9,7.9,1.7l83.8-81.4c7-6.8,18.3-6.7,25.1,0.4
		c6.8,7,6.7,18.3-0.4,25.1L266.9,335.3L266.9,335.3z"/>
</g>
</svg>
