<?xml version="1.0" encoding="utf-8"?>
<!-- Generator: Adobe Illustrator 18.0.0, SVG Export Plug-In . SVG Version: 6.00 Build 0)  -->
<!DOCTYPE svg PUBLIC "-//W3C//DTD SVG 1.1//EN" "http://www.w3.org/Graphics/SVG/1.1/DTD/svg11.dtd">
<svg version="1.1" id="图层_1" xmlns="http://www.w3.org/2000/svg" xmlns:xlink="http://www.w3.org/1999/xlink" x="0px" y="0px"
	 viewBox="0 0 512 512" enable-background="new 0 0 512 512" xml:space="preserve">
<g>
	<path fill="#231815" d="M511.2,152.6c-0.9-20.6-10.8-44.8-22.6-55.2l-92.6-82.2c-17.7-15.6-73.6-24.9-96.9,1.3l-0.6,0.7l-78,110.4
		l-37.4-12.1c-4.8-1.7-7.4-2.9-9.2-3.7c-6.5-2.9-9.9-3.4-17.2-2.4c-11.1,1.4-21.7,6.9-29.7,15.5c-9.1,9.6-13.9,22.2-13.4,34.4
		c0.5,10.8,5,20.5,12.8,27.4l64,56.9L58,403.6l-0.8,1.1c-2.8,4.1-6.9,9.3-11.3,14.9c-6.7,8.6-13.6,17.5-18.8,25.6
		c-3.9,6.1-6.5,11.3-8.2,16.3c-6.1,18.4,1.2,33.4,10,41.3c3.1,2.7,11.8,9.3,24.7,9.3c5.7,0,12.1-1.3,19.3-4.7
		c5.3-2.6,10.9-6.2,17.6-11.5c9.6-7.6,20.3-17.9,29.8-27c1.7-1.6,3.3-3.1,4.9-4.7l154.1-141.7l54.1,48c7.5,6.7,16.9,9.9,26.6,9.9
		c12.5,0,25.5-5.4,35.3-15.9c19.2-20.4,12.8-40.6,4.8-56.2l-11.6-30l111-91.7l0.8-0.7l0.7-0.8C508.4,177.6,511.8,166.3,511.2,152.6z
		 M476.7,161.8L362,256.5c-6.1,1.7-10.7,8.3-10.7,16.3c0,3.8,1,7.2,2.8,10l15.3,39.6l0.5,0.9c6.5,12.3,4.9,14,1,18.1
		c-5,5.3-12,6.4-14.9,3.9L278,276l-8.4,9.5l0,0C250.2,303.8,57.7,483,51.5,477.5c-6.2-5.5,21.1-35.7,33.5-53.4L229,249.9l-0.1-0.1
		l8.6-9.7l-88.7-78.8c-0.3-0.3-1.4-1.2-1.5-3.6c-0.1-3.1,1.4-6.8,4.2-9.7c2.6-2.7,5.9-4.6,9.2-5.1c2.2,1,5.6,2.4,11.2,4.5l47.3,15.3
		c2.6,1.4,5.5,2.3,8.6,2.3c8.4,0,15.4-5.9,17.4-13.8l79.6-112.7c3.1-2.9,11.4-5.3,23.5-4.5c13.1,0.8,23,4.8,25.2,6.6l92.6,82.2
		c1.9,1.7,6.7,9.4,9.5,20.3C478.3,153.2,477.5,159.8,476.7,161.8z"/>
	<polygon fill="#231815" points="229,249.9 229,249.9 229,249.9 	"/>
</g>
</svg>
