<?xml version="1.0" encoding="utf-8"?>
<!-- Generator: Adobe Illustrator 18.0.0, SVG Export Plug-In . SVG Version: 6.00 Build 0)  -->
<!DOCTYPE svg PUBLIC "-//W3C//DTD SVG 1.1//EN" "http://www.w3.org/Graphics/SVG/1.1/DTD/svg11.dtd">
<svg version="1.1" id="图层_1" xmlns="http://www.w3.org/2000/svg" xmlns:xlink="http://www.w3.org/1999/xlink" x="0px" y="0px"
	 width="512px" height="512px" viewBox="0 0 512 512" enable-background="new 0 0 512 512" xml:space="preserve">
<g>
	<path d="M338.1,0c-95.9,0-173.9,78-173.9,173.9c0,20.5,3.7,41.8,10.1,59.5L6.1,401.6c-3.6,3.6-5.5,8.4-5.5,13.4v77.5
		c0,10.5,8.5,18.9,18.9,18.9H97c5.3,0,10.4-2.2,14-6.2l31.4-34.4c3-3.3,4.7-7.4,4.9-11.8l0.5-10.5l9.7-0.9c4.1-0.4,7.9-2.1,11-4.8
		l24.7-22.3c4-3.6,6.2-8.7,6.2-14v-8.6h9.5c4,0,8-1.3,11.2-3.7l20.8-15.3h11c5.3,0,10.3-2.2,13.9-6l27.9-30.1
		c13.7,3.4,28.5,5.1,44.3,5.1c95.9,0,173.9-78,173.9-173.9C512,78,434,0,338.1,0z M243.7,341h-9c-4,0-8,1.3-11.2,3.7l-20.8,15.3
		h-22.2c-10.5,0-18.9,8.5-18.9,18.9V398l-13.8,12.5l-19.8,1.8c-9.4,0.9-16.7,8.5-17.2,17.9l-1,20.1l-21.2,23.2H41L230.6,284
		c9.2,9.8,23.7,21,38.8,29.3L243.7,341z M338.1,310c-16.4,0-31.3-2.2-44.2-6.6c-1-0.3-2-0.4-3-0.5c-20.8-8.4-43.2-26.3-50.7-36.6
		c-1.7-2.3-4.1-3.5-6.7-3.7c-3.4-1.4-7.5-0.7-10.3,2.1L38.4,449.3v-26.5L205.3,256l5-5.1c5.6-5.8,7-14.5,3.4-21.7
		c-7.2-14.3-11.6-35.5-11.6-55.3c0-75,61-136,136-136c75,0,136,61,136,136C474.1,248.9,413.1,310,338.1,310z"/>
	<path d="M362.2,90.6c-27.4,0-49.8,22.3-49.8,49.8c0,27.4,22.3,49.8,49.8,49.8c27.4,0,49.8-22.3,49.8-49.8
		C412,112.9,389.6,90.6,362.2,90.6z M362.2,171.2c-17,0-30.8-13.8-30.8-30.8c0-17,13.8-30.8,30.8-30.8c17,0,30.8,13.8,30.8,30.8
		C393,157.3,379.2,171.2,362.2,171.2z"/>
</g>
</svg>
