<?xml version="1.0" encoding="utf-8"?>
<!-- Generator: Adobe Illustrator 18.0.0, SVG Export Plug-In . SVG Version: 6.00 Build 0)  -->
<!DOCTYPE svg PUBLIC "-//W3C//DTD SVG 1.1//EN" "http://www.w3.org/Graphics/SVG/1.1/DTD/svg11.dtd">
<svg version="1.1" id="图层_1" xmlns="http://www.w3.org/2000/svg" xmlns:xlink="http://www.w3.org/1999/xlink" x="0px" y="0px"
	 width="512px" height="512px" viewBox="0 0 512 512" enable-background="new 0 0 512 512" xml:space="preserve">
<path d="M338.1,0c-95.9,0-173.9,78-173.9,173.9c0,20.5,3.7,41.8,10.1,59.5L6.3,401.6C2.8,405.2,1,410,1,415v77.5
	C1,503,9,511,19.5,511H97c5.3,0,10.4-2,14-6l31.4-34.3c3-3.3,4.7-7.4,4.9-11.8l0.5-10.5l9.7-0.9c4.1-0.4,7.9-2.1,11-4.8l24.5-22.3
	c4-3.6,6-8.7,6-14V398h9.9c4,0,8-1.3,11.2-3.7L241,379h11c5.3,0,10.3-2.3,13.9-6.1l27.9-30.1c13.7,3.4,28.5,5.1,44.3,5.1
	c95.9,0,173.9-78,173.9-173.9C512,78,434,0,338.1,0z M362.2,190.1c-27.4,0-49.8-22.3-49.8-49.8c0-7,1.4-13.6,4-19.6l0,0l0,0
	c7.6-17.7,25.2-30.1,45.7-30.1c8.9,0,17.3,2.4,24.6,6.5l0,0l0,0c12.2,7,21.1,18.9,24.1,33.1l0,0l0,0c0.7,3.3,1,6.7,1,10.1
	C412,167.8,389.6,190.1,362.2,190.1z"/>
</svg>
