<?xml version="1.0" encoding="utf-8"?>
<!-- Generator: Adobe Illustrator 18.0.0, SVG Export Plug-In . SVG Version: 6.00 Build 0)  -->
<!DOCTYPE svg PUBLIC "-//W3C//DTD SVG 1.1//EN" "http://www.w3.org/Graphics/SVG/1.1/DTD/svg11.dtd">
<svg version="1.1" id="图层_1" xmlns="http://www.w3.org/2000/svg" xmlns:xlink="http://www.w3.org/1999/xlink" x="0px" y="0px"
	 width="512px" height="512px" viewBox="0 0 512 512" enable-background="new 0 0 512 512" xml:space="preserve">
<g>
	<path d="M255.6,274.6c-26.4,0-47.9,21.4-47.9,47.7c0,14.9,7.2,29,19.2,38v47.9c0,15.8,12.9,28.6,28.7,28.6
		c15.9,0,28.7-12.8,28.7-28.6v-47.9c11.9-9,19.2-23,19.2-38C303.6,296,282.1,274.6,255.6,274.6z M270,346.9l-4.8,2.8v58.5
		c0,5.3-4.3,9.5-9.6,9.5c-5.3,0-9.6-4.3-9.6-9.5v-58.5l-4.8-2.8c-9-5.2-14.4-14.4-14.4-24.6c0-15.8,12.9-28.6,28.7-28.6
		c15.9,0,28.7,12.8,28.7,28.6C284.4,332.4,279,341.6,270,346.9z"/>
	<path d="M425.5,182.9h-9.8v-47.4C415.7,55.9,344.2,0,259.6,0C175,0,103.5,55.9,103.5,135.5v47.4h-9.8c-32.3,0-58.5,26.1-58.5,58.3
		v213.6c0,32.1,26.3,58.3,58.5,58.3h331.7c32.3,0,58.5-26.1,58.5-58.3V241.1C484,209,457.7,182.9,425.5,182.9z M142.5,135.5
		C142.5,77,196.1,35,259.6,35c63.5,0,117.1,42,117.1,100.5v47.4H142.5V135.5z M445,454.7c0,10.7-8.8,19.4-19.5,19.4H93.8
		c-10.8,0-19.5-8.7-19.5-19.4V241.1c0-10.7,8.8-19.4,19.5-19.4h331.7c10.8,0,19.5,8.7,19.5,19.4V454.7z"/>
</g>
</svg>
