<?xml version="1.0" encoding="utf-8"?>
<!-- Generator: Adobe Illustrator 18.0.0, SVG Export Plug-In . SVG Version: 6.00 Build 0)  -->
<!DOCTYPE svg PUBLIC "-//W3C//DTD SVG 1.1//EN" "http://www.w3.org/Graphics/SVG/1.1/DTD/svg11.dtd">
<svg version="1.1" id="图层_1" xmlns="http://www.w3.org/2000/svg" xmlns:xlink="http://www.w3.org/1999/xlink" x="0px" y="0px"
	 width="512px" height="512px" viewBox="0 0 512 512" enable-background="new 0 0 512 512" xml:space="preserve">
<g>
	<path d="M384,128.2c-5.8-5.7-15.1-5.7-20.8,0L255.7,235.4L148.3,128.2c-5.8-5.7-15.1-5.7-20.8,0c-5.8,5.7-5.8,15,0,20.8
		l107.4,107.2L127.5,363.5c-5.8,5.7-5.8,15,0,20.8c2.9,2.9,6.6,4.3,10.4,4.3c3.8,0,7.5-1.4,10.4-4.3L255.7,277l107.4,107.2
		c2.9,2.9,6.6,4.3,10.4,4.3c3.8,0,7.5-1.4,10.4-4.3c5.8-5.7,5.8-15,0-20.8L276.6,256.2L384,149C389.7,143.3,389.7,133.9,384,128.2z"
		/>
	<path d="M255.7,0.8C114.8,0.8,0.2,115.4,0.2,256.3s114.7,255.6,255.6,255.6s255.6-114.7,255.6-255.6S396.7,0.8,255.7,0.8z
		 M255.7,474C135.7,474,38,376.4,38,256.3S135.7,38.6,255.7,38.6s217.7,97.7,217.7,217.7S375.8,474,255.7,474z"/>
</g>
</svg>
