<?xml version="1.0" encoding="utf-8"?>
<!-- Generator: Adobe Illustrator 18.0.0, SVG Export Plug-In . SVG Version: 6.00 Build 0)  -->
<!DOCTYPE svg PUBLIC "-//W3C//DTD SVG 1.1//EN" "http://www.w3.org/Graphics/SVG/1.1/DTD/svg11.dtd">
<svg version="1.1" id="图层_1" xmlns="http://www.w3.org/2000/svg" xmlns:xlink="http://www.w3.org/1999/xlink" x="0px" y="0px"
	 width="512px" height="512px" viewBox="0 0 512 512" enable-background="new 0 0 512 512" xml:space="preserve">
<path d="M290.1,255.7L483.1,62.9c10.3-10.3,10.3-27.1,0-37.4c-10.3-10.3-27.1-10.3-37.4,0L252.6,218.3L59.6,25.5
	c-10.3-10.3-27.1-10.3-37.4,0c-10.3,10.3-10.3,27.1,0,37.4l193.1,192.8L22.1,448.5c-10.3,10.3-10.3,27.1,0,37.4
	c5.2,5.2,11.9,7.7,18.7,7.7c6.8,0,13.5-2.6,18.7-7.7l193.1-192.8l193.1,192.8c5.2,5.2,11.9,7.7,18.7,7.7c6.8,0,13.5-2.6,18.7-7.7
	c10.3-10.3,10.3-27.1,0-37.4L290.1,255.7z"/>
</svg>
