<?xml version="1.0" encoding="utf-8"?>
<!-- Generator: Adobe Illustrator 18.0.0, SVG Export Plug-In . SVG Version: 6.00 Build 0)  -->
<!DOCTYPE svg PUBLIC "-//W3C//DTD SVG 1.1//EN" "http://www.w3.org/Graphics/SVG/1.1/DTD/svg11.dtd">
<svg version="1.1" id="图层_1" xmlns="http://www.w3.org/2000/svg" xmlns:xlink="http://www.w3.org/1999/xlink" x="0px" y="0px"
	 width="512px" height="512px" viewBox="0 0 512 512" enable-background="new 0 0 512 512" xml:space="preserve">
<g>
	<path d="M256.3,157c-26.5,0-48,19.3-48,27.5c0,0.2,0,0.5,0,0.5h0l29.8,183h15.3h3h16.3l31.7-183h0c0,0,0-0.3,0-0.5
		C304.4,176.3,282.9,157,256.3,157z"/>
	<path d="M502.9,469.8L281.2,8.6c-6.8-6.8-16-9.5-24.9-8.4c-8.9-1.1-18.1,1.7-24.9,8.5L9.7,469.8C-3.6,488.7-1.9,501,9.7,512h246.6
		h246.6C514.6,501,516.3,488.7,502.9,469.8z M439.4,473h-183h-183c-8.7-8-9.9-17.3,0-31.4L237.9,85.3c5-5,11.9-25,18.4-24.2
		c6.6-0.8,13.4,19.3,18.4,24.3l164.6,356.3C449.3,455.7,448,465,439.4,473z"/>
	<circle cx="256.3" cy="429.7" r="35"/>
</g>
</svg>
