<?xml version="1.0" encoding="utf-8"?>
<!-- Generator: Adobe Illustrator 18.0.0, SVG Export Plug-In . SVG Version: 6.00 Build 0)  -->
<!DOCTYPE svg PUBLIC "-//W3C//DTD SVG 1.1//EN" "http://www.w3.org/Graphics/SVG/1.1/DTD/svg11.dtd">
<svg version="1.1" id="图层_1" xmlns="http://www.w3.org/2000/svg" xmlns:xlink="http://www.w3.org/1999/xlink" x="0px" y="0px"
	 viewBox="0 0 512 512" enable-background="new 0 0 512 512" xml:space="preserve">
<g>
	<path fill="#231815" d="M204.6,66l9.4-7.1l-5.7-10.3c-14.5-26.1-41-43.9-71-47.8C133.1,0.3,129,0,124.8,0C77.5,0,37.2,34.5,31,80.3
		c-3.7,27.3,5.3,54.6,24.8,74.9l7.3,7.7l9.2-5.3C119.9,130.2,163,97.6,204.6,66z M59.7,84.2C64,52.7,92,29,124.8,29
		c2.9,0,5.9,0.2,8.8,0.6c16.4,2.1,31.3,10.1,41.7,22.2c-33.8,25.6-68.8,51.5-106.1,73.9C61.1,113.4,57.7,98.7,59.7,84.2z"/>
	<path fill="#231815" d="M437,162.3l9,5.6l7.6-7.3c20.3-19.5,30.5-46.4,27.9-73.8c-2.1-23.2-13.1-44.5-30.8-60.1
		c-17.5-15.4-40.1-23.9-63.6-23.9c-2.8,0-5.7,0.1-8.5,0.4c-30.1,2.7-57.4,19.5-73,44.9l-6.1,10l9.1,7.5
		C349,98.8,390.8,133.2,437,162.3z M381.1,32c2-0.2,4-0.3,6-0.3c16.4,0,32.2,5.9,44.4,16.6c12.1,10.7,19.6,25.3,21.1,41.1
		c1.4,14.7-2.7,29.2-11.3,41.2c-36.2-23.8-70-51.1-102.9-78.1C349.4,40.9,364.7,33.4,381.1,32z"/>
	<path fill="#231815" d="M288.6,277c-3.5-10.6-11.4-19.2-21.6-23.5V154h-31v100c-13.3,6.1-22.5,19.5-22.5,35
		c0,21.3,17.2,38.5,38.5,38.5c14.4,0,26.9-7.9,33.5-19.5H370v-31H288.6z"/>
	<path fill="#231815" d="M440.4,279.3c0-94.5-74.3-172.4-169-181.6l0-35.7H292V35h-68v27h20.3l0,35C144.7,101.3,65,181.4,65,279.3
		c0,54.8,24.9,103.9,64.3,137.4l-56.5,75L94.4,508l56.7-75.3c29.3,18.4,64.2,29.1,101.5,29.1c43.4,0,83.5-14.4,115.3-38.6l68.2,88.7
		l21.5-16.5l-69.3-90.1C420.6,372.5,440.4,328.1,440.4,279.3z M252.7,432.8C165.2,432.8,94,364,94,279.3
		c0-84.6,71.2-153.5,158.7-153.5c87.5,0,158.7,68.9,158.7,153.5C411.4,364,340.2,432.8,252.7,432.8z"/>
</g>
</svg>
