<?xml version="1.0" encoding="utf-8"?>
<!-- Generator: Adobe Illustrator 18.0.0, SVG Export Plug-In . SVG Version: 6.00 Build 0)  -->
<!DOCTYPE svg PUBLIC "-//W3C//DTD SVG 1.1//EN" "http://www.w3.org/Graphics/SVG/1.1/DTD/svg11.dtd">
<svg version="1.1" id="图层_1" xmlns="http://www.w3.org/2000/svg" xmlns:xlink="http://www.w3.org/1999/xlink" x="0px" y="0px"
	 width="512px" height="512px" viewBox="0 0 512 512" enable-background="new 0 0 512 512" xml:space="preserve">
<g>
	<path d="M264.7,252.1V149c0-5.1-4.2-9.3-9.3-9.3c-5.1,0-9.3,4.2-9.3,9.3v103c-21.2,4.3-37.1,23.1-37.1,45.5
		c0,25.6,20.8,46.4,46.4,46.4c25.6,0,46.4-20.8,46.4-46.4C301.8,275.1,285.9,256.4,264.7,252.1z M255.4,325.4
		c-15.4,0-27.8-12.5-27.8-27.8s12.5-27.8,27.8-27.8c15.4,0,27.8,12.5,27.8,27.8S270.8,325.4,255.4,325.4z"/>
	<path d="M425.4,168.6l18.4-18.4c10.9-10.9,10.9-28.5,0-39.4l-10.9-10.9c-10.9-10.9-28.5-10.9-39.4,0l-19.9,19.9
		c-33.9-22.6-74.5-35.8-118.1-35.8C137.8,84.1,42,179.8,42,297.5S137.8,511,255.4,511c117.7,0,213.4-95.8,213.4-213.4
		C468.9,249.1,452.7,204.4,425.4,168.6z M406.7,113c3.6-3.6,9.5-3.6,13.1,0l10.9,10.9c3.6,3.6,3.6,9.5,0,13.1l-17.2,17.2
		c-7.6-8.4-15.9-16.1-24.8-23.2L406.7,113z M255.4,473.9c-97.2,0-176.3-79.1-176.3-176.3s79.1-176.3,176.3-176.3
		c97.2,0,176.3,79.1,176.3,176.3S352.7,473.9,255.4,473.9z"/>
	<path d="M218.3,74.8h74.3h0.1C308,74.5,320.4,62,320.4,47v-9.3c0-14.7-11.5-29.2-25.7-32.5c-25.8-5.5-52.7-5.5-78.8,0
		c-14,3.2-25.5,17.8-25.5,32.5v9.3C190.5,62,202.9,74.5,218.3,74.8z M209,37.7c0-6,5.5-13.1,10.9-14.4c11.6-2.5,23.6-3.7,35.5-3.7
		c11.9,0,23.8,1.3,35.3,3.7c5.6,1.3,11.1,8.4,11.1,14.4V47c0,4.9-4.3,9.1-9.4,9.3h-73.9c-5.1-0.1-9.5-4.3-9.5-9.3V37.7z"/>
	<path d="M116.2,288.2H97.7c-5.1,0-9.3,4.2-9.3,9.3c0,5.1,4.2,9.3,9.3,9.3h18.6c5.1,0,9.3-4.2,9.3-9.3
		C125.5,292.4,121.4,288.2,116.2,288.2z"/>
	<path d="M413.2,288.2h-18.6c-5.1,0-9.3,4.2-9.3,9.3c0,5.1,4.2,9.3,9.3,9.3h18.6c5.1,0,9.3-4.2,9.3-9.3
		C422.5,292.4,418.3,288.2,413.2,288.2z"/>
	<path d="M255.4,427.5c-5.1,0-9.3,4.2-9.3,9.3v18.6c0,5.1,4.2,9.3,9.3,9.3c5.1,0,9.3-4.2,9.3-9.3v-18.6
		C264.7,431.6,260.6,427.5,255.4,427.5z"/>
</g>
</svg>
