<?xml version="1.0" encoding="utf-8"?>
<!-- Generator: Adobe Illustrator 18.0.0, SVG Export Plug-In . SVG Version: 6.00 Build 0)  -->
<!DOCTYPE svg PUBLIC "-//W3C//DTD SVG 1.1//EN" "http://www.w3.org/Graphics/SVG/1.1/DTD/svg11.dtd">
<svg version="1.1" id="图层_1" xmlns="http://www.w3.org/2000/svg" xmlns:xlink="http://www.w3.org/1999/xlink" x="0px" y="0px"
	 width="512px" height="512px" viewBox="0 0 512 512" enable-background="new 0 0 512 512" xml:space="preserve">
<g>
	<path d="M455.3,0H313c-23.3,0-43.1,12.7-56.7,29.1C243,12.7,223.2,0,199.2,0H56.9C25.5,0,0,25.3,0,56.7v350.9
		C0,439,25.5,465,56.9,465h132.8c27.4,0,47.3,20.9,47.3,28v0c0,10.5,8.5,19,19,19c10.3,0,19-8.2,19-18.5c0-0.2,0-0.3,0-0.5
		c0-6.9,21-28,47.5-28h132.8c31.4,0,56.7-26,56.7-57.4V56.7C512,25.3,486.6,0,455.3,0z M247,92v354.3c-16-11.6-35.7-19.3-57.3-19.3
		H56.9c-10.5,0-18.9-8.9-18.9-19.4V56.7C38,46.3,46.4,38,56.9,38h142.3c22.8,0,47.1,28.1,47.1,39C246.3,84,247,86.1,247,92z
		 M474,407.6c0,10.5-8.3,19.4-18.7,19.4H322.5c-21.6,0-41.5,7.7-56.5,19.3V92c0-4.5,0-9.2,0-16.2c0-10.7,25.8-37.8,47-37.8h142.3
		c10.5,0,18.7,8.3,18.7,18.7V407.6z"/>
	<path d="M442.5,126h-144c-4.7,0-8.5,3.8-8.5,8.5c0,4.7,3.8,8.5,8.5,8.5h144c4.7,0,8.5-3.8,8.5-8.5C451,129.8,447.2,126,442.5,126z"
		/>
	<path d="M442.5,193h-144c-4.7,0-8.5,3.8-8.5,8.5c0,4.7,3.8,8.5,8.5,8.5h144c4.7,0,8.5-3.8,8.5-8.5C451,196.8,447.2,193,442.5,193z"
		/>
</g>
</svg>
