<?xml version="1.0" encoding="utf-8"?>
<!-- Generator: Adobe Illustrator 18.0.0, SVG Export Plug-In . SVG Version: 6.00 Build 0)  -->
<!DOCTYPE svg PUBLIC "-//W3C//DTD SVG 1.1//EN" "http://www.w3.org/Graphics/SVG/1.1/DTD/svg11.dtd">
<svg version="1.1" id="图层_1" xmlns="http://www.w3.org/2000/svg" xmlns:xlink="http://www.w3.org/1999/xlink" x="0px" y="0px"
	 width="512px" height="512px" viewBox="0 0 512 512" enable-background="new 0 0 512 512" xml:space="preserve">
<path d="M476.9,225.8H36.7C16.4,225.8,0,242.3,0,262.5s16.4,36.7,36.7,36.7h440.3c20.3,0,36.7-16.4,36.7-36.7
	S497.2,225.8,476.9,225.8z"/>
<path d="M256.8,139.1c38.7,0,70-31.3,70-70s-31.3-70-70-70c-38.7,0-70,31.3-70,70S218.2,139.1,256.8,139.1z"/>
<path d="M256.8,372c-38.7,0-70,31.3-70,70s31.3,70,70,70c38.7,0,70-31.3,70-70S295.5,372,256.8,372z"/>
</svg>
