<?xml version="1.0" encoding="utf-8"?>
<!-- Generator: Adobe Illustrator 18.0.0, SVG Export Plug-In . SVG Version: 6.00 Build 0)  -->
<!DOCTYPE svg PUBLIC "-//W3C//DTD SVG 1.1//EN" "http://www.w3.org/Graphics/SVG/1.1/DTD/svg11.dtd">
<svg version="1.1" id="图层_1" xmlns="http://www.w3.org/2000/svg" xmlns:xlink="http://www.w3.org/1999/xlink" x="0px" y="0px"
	 width="512px" height="512px" viewBox="0 0 512 512" enable-background="new 0 0 512 512" xml:space="preserve">
<path d="M485.9,1.9l-0.1-0.2c-20.2,12.4-50.1,23.9-131.3,23.9c-91.7,0-158.6,28.1-161.4,29.3l0.1,0.1c-13.5,5.5-15.7,19.7-16,25.1
	l-0.2,0v1c0,0.7,0,1.2,0,1.2v278.1v23.8c-17-3.6-56.8-10-68.8-10c-60.7,0-108.2,30.2-108.2,68.8c0,38.6,47.8,68.8,108.5,68.8
	S217,481.8,217,443.2V171.1c0-0.2,1.3-0.4,2.1-0.7c0.5-0.2,50.5-20.4,135.7-20.4c63.8,0,98.2-4.5,118.2-9.2v177.3
	c-20-5.3-58-15.1-69.3-15.1c0,0,0,0,0,0c-60.7,0-108.3,32.4-108.3,71c0,38.6,47.6,71,108.3,71S512,414.8,512,376.2v-282V73.4V8.7
	C510.4-7.5,489,0.6,485.9,1.9z M177,443.2c0,12.5-26.7,30.5-68.8,30.5c-42.1,0-68.9-18.1-68.9-30.5c0-12.5,26.8-30.6,68.8-30.6
	c12.4,0,53.8,1,70.8,5.4l-2,9.5V443.2z M354.8,130.8c-74.3,0-122.8,14.4-137.8,19.9V87c19-6.8,71.3-23.1,137.8-23.1
	c51.6,0,88.2-4.3,118.2-14.1V121C459,124.9,426.9,130.8,354.8,130.8z M403.9,405.7c-42.1,0-69-19.3-69-31.8
	c0-12.5,26.8-32.9,68.8-32.9c0,0,0,0,0,0c10.4,0,50.3,4.6,70.3,10l-1,25.2C473,388.6,446,405.7,403.9,405.7z"/>
</svg>
