<?xml version="1.0" encoding="utf-8"?>
<!-- Generator: Adobe Illustrator 18.0.0, SVG Export Plug-In . SVG Version: 6.00 Build 0)  -->
<!DOCTYPE svg PUBLIC "-//W3C//DTD SVG 1.1//EN" "http://www.w3.org/Graphics/SVG/1.1/DTD/svg11.dtd">
<svg version="1.1" id="图层_1" xmlns="http://www.w3.org/2000/svg" xmlns:xlink="http://www.w3.org/1999/xlink" x="0px" y="0px"
	 width="512px" height="512px" viewBox="0 0 512 512" enable-background="new 0 0 512 512" xml:space="preserve">
<g>
	<path d="M507.7,249.8c-2.6-6.1-65.5-150.1-251-150.1C88.9,99.6,9.7,242,6.4,248l-4.9,9.1l4.7,9.2c3.3,6.5,82.4,158.1,250.5,158.1
		c185.9,0,250.6-158.2,251.2-159.8l3-7.5L507.7,249.8z M145.8,165.6c30.4-16,67.2-27.5,110.8-27.5c43.6,0,79.4,9,108.4,22.3
		c8.6,17.4,13.2,36.5,13.2,56.5c0,68.9-54.6,124.9-121.6,124.9S135,285.7,135,216.9C135,198.9,138.8,181.5,145.8,165.6z M256.7,386
		c-124.4,0-193.2-97-212-128.2c10.4-15.8,35.8-49.5,76.2-77.2c-3,11.7-4.5,23.9-4.5,36.3c0,79.5,62.9,144.1,140.3,144.1
		C334,361,397,296.3,397,216.9c0-14.7-2.2-29-6.3-42.6c46.5,29,70.6,67.4,79.1,83.4C455.6,286.5,396.5,386,256.7,386z"/>
	<circle cx="256" cy="227" r="60"/>
</g>
</svg>
