<?xml version="1.0" encoding="utf-8"?>
<!-- Generator: Adobe Illustrator 16.0.0, SVG Export Plug-In . SVG Version: 6.00 Build 0)  -->
<!DOCTYPE svg PUBLIC "-//W3C//DTD SVG 1.1//EN" "http://www.w3.org/Graphics/SVG/1.1/DTD/svg11.dtd">
<svg version="1.1" id="图层_1" xmlns="http://www.w3.org/2000/svg" xmlns:xlink="http://www.w3.org/1999/xlink" x="0px" y="0px"
	 width="512px" height="512px" viewBox="0 0 512 512" enable-background="new 0 0 512 512" xml:space="preserve">
<path fill-rule="evenodd" clip-rule="evenodd" d="M258,0L258,0L258,0C116.6,0,2,118.2,2,264c0,55.9,16.9,107.7,45.6,150.3l0,0
	l0.2,0.3c1.9,2.9,3.9,7.2,6,10l6.3,9c13.8,26.1,43.3,48.4,77.3,48.4c7.7,0,15.1-1.1,22.2-3c36.9-9.7,64.2-44.2,64.2-85.3
	c0-19.9-6.4-38.2-17.2-52.9c-3.5-4.8-12.1-16-14.2-20.6c-7.1-11.5-19.7-32.9-19.7-56.2c0-48.6,38.2-88,85.3-88l0,0v0
	c47.1,0,85.3,39.4,85.3,88c0,12.5-2.2,23.9-6.3,34c-4.1,10.2-10.5,19.8-18.7,28.3c-34.9,36-32.9,94.9,4.2,128.4l-42.7,22.9l46,34.5
	l7.9-48.8c32.9,21.1,76.8,16.9,105.3-12.6c23.2-24,42.2-53.1,55.4-86C507,333.2,514,299.2,514,264C514,118.2,399.4,0,258,0z
	 M51.4,393.3C51.4,393.3,51.4,393.4,51.4,393.3c-1.3-6.2-2.2-11.7-2.2-15.4c0-48.6,25.8-83.8,72.5-88.1l10.1-0.9l8.2,1.3
	c8,2,17.4,3.7,29.7,21.9c-16.3-6.7-21.8-7.7-32.4-7.4C89.9,306.1,51.4,344.4,51.4,393.3z M79.4,362.9c0-4,3.2-7.3,7.1-7.3
	c3.9,0,7.1,3.3,7.1,7.3c0,4.1-3.2,7.3-7.1,7.3C82.6,370.2,79.4,366.9,79.4,362.9z M86.6,399.5c0-8.1,6.4-14.7,14.2-14.7
	c7.9,0,14.2,6.6,14.2,14.7c0,8.1-6.4,14.7-14.2,14.7C92.9,414.2,86.6,407.6,86.6,399.5z M115,450.8c-3.9,0-7.1-3.3-7.1-7.3
	c0-4,3.2-7.3,7.1-7.3c3.9,0,7.1,3.3,7.1,7.3C122.1,447.6,118.9,450.8,115,450.8z M115,340.9c0-8.1,6.4-14.7,14.2-14.7
	c7.9,0,14.2,6.6,14.2,14.7c0,8.1-6.4,14.7-14.2,14.7C121.4,355.5,115,349,115,340.9z M143.4,421.5c-3.9,0-7.1-3.3-7.1-7.3
	c0-4,3.2-7.3,7.1-7.3c3.9,0,7.1,3.3,7.1,7.3C150.6,418.2,147.4,421.5,143.4,421.5z M143.4,377.5c-3.9,0-7.1-3.3-7.1-7.3
	c0-4.1,3.2-7.3,7.1-7.3c3.9,0,7.1,3.3,7.1,7.3C150.6,374.2,147.4,377.5,143.4,377.5z M164.8,458.2c-3.9,0-7.1-3.3-7.1-7.3
	c0-4,3.2-7.3,7.1-7.3c3.9,0,7.1,3.3,7.1,7.3C171.9,454.9,168.7,458.2,164.8,458.2z M186.1,370.2c7.9,0,14.2,6.6,14.2,14.7
	c0,8.1-6.4,14.7-14.2,14.7c-7.9,0-14.2-6.6-14.2-14.7C171.9,376.7,178.3,370.2,186.1,370.2z"/>
<path fill-rule="evenodd" clip-rule="evenodd" d="M201.1,278.1"/>
</svg>
