<?xml version="1.0" encoding="utf-8"?>
<!-- Generator: Adobe Illustrator 18.0.0, SVG Export Plug-In . SVG Version: 6.00 Build 0)  -->
<!DOCTYPE svg PUBLIC "-//W3C//DTD SVG 1.1//EN" "http://www.w3.org/Graphics/SVG/1.1/DTD/svg11.dtd">
<svg version="1.1" id="图层_1" xmlns="http://www.w3.org/2000/svg" xmlns:xlink="http://www.w3.org/1999/xlink" x="0px" y="0px"
	 width="512px" height="512px" viewBox="0 0 512 512" enable-background="new 0 0 512 512" xml:space="preserve">
<path d="M433.1,445.2c-2.2-10-8.4-38.3-8.9-50.6h1.6c0-0.3,0.1-0.5,0.2-0.8c0,0,2.4-11.9-15.7-18.7c0,0-23.3-14-26.6-40.5
	c0,0,11.1-37.9-6.9-55.3c0,0,27.5,8.7,25,20.2s-8,18-3,27.5s55.5,43.5,55.5,43.5s-21.5-30-25.2-50.6l19.7,17.1
	c-3.4-3.9-10.1-20.9-14.8-33.1c7.6,6.5,13.2,14.5,14.3,24.1c0,0,7.8-16.7-8.7-27.4c0,0,27.5,13.6,29.1,38.5c0,0,1.1,44.5,26.3,43.1
	c-1.2,0-15.7-0.5-17.7-23c0.7,5.8,5.2,27,34.5,14.7c0,0-28.7,3.3-28-39.1c0,0,16.3,2,18,14.9c0,0,5.9-13.2-11.7-23.9
	c0,0-2.5-21.9-18.1-36.2c0,0,19.1,0.5,24.3-6c0,0-25.4,5.3-39-2.5c0,0-17.2-31.1-70.3-27.4c0,0-11.7,1.2-26.2,10.7
	c0,0-13-32.7-76.7-35.3c0,0-72.2-13.2-87.5-58.4c0,0,6.7,1.6,10,5.5c-2.3-3.3-9.1-12.1-18.1-17.2c-5.3-2.4-22.2-10.4-18-10.8
	c5-0.5,8.5,0.5,8.5,0.5s7.8,0.4,26,3.3c14.5,1,29.2-2.3,33.7-6.1c0,0-9.4,2.9-23.8-3.4c4-0.2,6.6-0.4,6.6-0.4l33.3-13
	c0,0-19.8-0.5-29.6-0.9c-3-0.1-5.2-0.4-7-0.6c-1.1-0.2-2-0.4-2.8-0.6c0,0,0,0,0,0c-7.3-0.8-13-3.1-16.6-5.2c-0.2,0-0.3-0.1-0.5-0.1
	c-0.3-0.3-0.7-0.6-1.2-0.9c-1.8-1.1-2.8-2-2.9-2c0,0,0,0,0,0c-5.7-3.9-14-9.4-17.3-13.8c20,7.7,52.6,3.7,61.2,4.7
	c0.1,0.1-11-4.9-33.2-11.5c3.9,2.6-30.1-10.9-27.1-12.6c17.4,4.8,42.1,6.2,44.5,3.2c0,0-20-4.7-41.6-10.6c-2.5-2-14.3-5-17.7-8.3
	c24.4,6.5,38.2-5.1,41.7-4.7c0,0-18.4,0-54.4-8.9c-26.8-6.6-46-15.3-54-10c0,0-14.5-4.2-20.8-0.9c0,0,2.9-12.2,0.7-19.2
	c0,0-13.4,17.1-21.1,23.1c0,0-23.8,5.7-27.6,20.3c0,0-25.8,37.3-27.7,55.1c5.3-10.6,19.7-38,26.9-41.8C36.1,78,35.8,67,35.8,67
	l20.8-3.8l13-10l-19.8,20L44,73.7c-8.9,11.4-12.4,12.5-16.8,17.6C21.5,98,16.7,105,12.7,111.6c1.1,1.4,2.7,4.9-1.9,8.6
	c-1.7,1.4-3.4,2.7-5,3.9c-1.4,2.9-2.7,5.6-3.7,8c0,0.1,5.7,12.7,16.9,9.2c0,0,7.8,6.5,15.4-10.7c0,0,9.4-6.9,12.9-3.1
	c0,0,10.3,7.1,18.2-5.3c0,0,17.7,8.8,14.1,55.3c0,0-18.6,31.8-18.7,41.3c0,0-29.5-5.1-35.5,8.2c0,0-6.2,5.2-5.9,12.9
	c-6.3,3.4-13.5,9.5-12.8,19.5l-5.2,41.9c0,0-5,11.1,4.3,10.2c0,0,3.3,12.1,7.9,22.2c-1.7,0-2.5,1.1-2.5,3c0,9.7,0.5,24.4,1.4,44
	c0.9,19.6,1.4,34.3,1.4,44.1c0,3.4-0.1,8.5-0.4,15.3s-0.4,12-0.4,15.5c0,14.9,1.1,25.3,3.3,31.2c4.4,11.9,13.9,20,28.6,24.2
	c9.2,2.6,22.3,3.9,39.4,3.9c37.7,0,61.3-7.2,70.8-21.5c5.1-7.9,7.7-22.5,7.7-44.1c0-2.7,0-6.8-0.1-12.2c-0.1-5.4-0.1-9.5-0.1-12.2
	c0-9.8,0.4-24.5,1.2-44.1c0.8-19.6,1.2-34.2,1.2-44c0-2-1.2-3-3.7-3c-5,0-12.5,0.2-22.5,0.6c-10,0.4-17.6,0.6-22.5,0.6
	c-2.1,0-3.2,1.3-3.2,3.9c0,12.2,0.3,30.6,0.9,55.1c0.6,24.5,0.9,42.9,0.9,55.1c0,16.8-8.7,25.2-26,25.2c-11.8,0-19.6-3.2-23.3-9.5
	c-2.8-4.6-4.2-13.6-4.2-26.9c0-11.1,0.4-27.8,1.1-50.1c0.7-22.2,1.1-38.9,1.1-50.1c0-1.9-1.1-2.8-3.2-2.8c-5.2,0-12.9-0.2-23.4-0.6
	c-1.2,0-2.3-0.1-3.5-0.1l14.2-17.4l-7.7-1l-17.9,14.6l5.6-17.2l0,0c-1.6-1.5-3.2-4.3-3.2-9.6c0,0-5.9-37.2,3.6-46.5l5.1,2.3
	c1.5,6,6,16.1,19,14.4c0,0,23.6,16.5,35.7,12c0,0,8.1,1.1,1.3-15.4l-4.5-3.1l-9.7-13.6c-0.1,0.7-0.2,1.1-0.2,1.1l7.4,24.5
	l-15.5-17.3c0,0-9-1.2-10.5-5.7c-0.7-2-1.9-4.5-3-6.7l0,0c0,0,11.8,3.4,19.7,1.1l2.7-1.1l11.5,16c0,0,4.2,3.6,10.1,4.3
	c6.1,5,13.9,10,23.7,14.3c0,0,37.9,41.4,113,43.7c0,0,20.7,3.5,18.4,34.8c0,0-7.6,16.3,27,31.7h-1c8.2,4.7,30,16.6,39.2,15.2
	c0,0,26.7,12.2,5.7,42.2c0,0-5.8,20.1-16.6,41.7l0,0l-8.7,17.5l21.5,0.4l0.4-0.2l16.7,0.2v-0.2H320l19-8.8l-2.9-4.2
	c-0.2-0.7-0.5-1.5-0.8-2.3l-24.8,9.4l19.7-18.1c1.5-6.6,12.2-52.9,29.2-74.1c0,0,9.7-10.9-4.5-18.8h-0.7c-0.6-0.2-1.3-0.4-2-0.6
	c0,0-31.5-10.3-11.2-36.1c0,0,18.9,22.9,45.4,36.7h6.4c4.7,3.6,26.1,21.7,26.6,55.3l-0.1,0.1v4.9v4.9L419,460l-7,21l33-21l-6-10
	l-11.5,5.7"/>
</svg>
