<?xml version="1.0" encoding="utf-8"?>
<!-- Generator: Adobe Illustrator 18.0.0, SVG Export Plug-In . SVG Version: 6.00 Build 0)  -->
<!DOCTYPE svg PUBLIC "-//W3C//DTD SVG 1.1//EN" "http://www.w3.org/Graphics/SVG/1.1/DTD/svg11.dtd">
<svg version="1.1" id="图层_1" xmlns="http://www.w3.org/2000/svg" xmlns:xlink="http://www.w3.org/1999/xlink" x="0px" y="0px"
	 width="512px" height="512px" viewBox="0 0 512 512" enable-background="new 0 0 512 512" xml:space="preserve">
<path d="M256,0C114.6,0,0,114.6,0,256s114.6,256,256,256s256-114.6,256-256S397.4,0,256,0z M137.7,222.7c-19.3,0-35-15.7-35-35
	s15.7-35,35-35c19.3,0,35,15.7,35,35S157,222.7,137.7,222.7z M256,407.4c-40.3,0-74.3-26.9-85.1-63.7h14.8
	c16.2,21.1,41.7,34.7,70.4,34.7c28.7,0,54.1-13.6,70.4-34.7h14.8C330.3,380.5,296.3,407.4,256,407.4z M369,222.7
	c-19.3,0-35-15.7-35-35s15.7-35,35-35s35,15.7,35,35S388.3,222.7,369,222.7z"/>
</svg>
