<?xml version="1.0" encoding="utf-8"?>
<!-- Generator: Adobe Illustrator 18.0.0, SVG Export Plug-In . SVG Version: 6.00 Build 0)  -->
<!DOCTYPE svg PUBLIC "-//W3C//DTD SVG 1.1//EN" "http://www.w3.org/Graphics/SVG/1.1/DTD/svg11.dtd">
<svg version="1.1" id="图层_1" xmlns="http://www.w3.org/2000/svg" xmlns:xlink="http://www.w3.org/1999/xlink" x="0px" y="0px"
	 width="512px" height="512px" viewBox="0 0 512 512" enable-background="new 0 0 512 512" xml:space="preserve">
<g>
	<path d="M256,0C114.6,0,0,114.6,0,256s114.6,256,256,256s256-114.6,256-256S397.4,0,256,0z M256,460.5
		c-112.9,0-204.5-91.6-204.5-204.5S143.1,51.5,256,51.5S460.5,143.1,460.5,256S368.9,460.5,256,460.5z"/>
	<path d="M353.1,160c-19.3,0-35,12.7-35,32s15.7,35,35,35s35-15.7,35-35S372.4,160,353.1,160z"/>
	<path d="M163.7,160c-19.3,0-35,12.7-35,32s15.7,35,35,35s35-15.7,35-35S183.1,160,163.7,160z"/>
	<path d="M351.4,372.7l0.1,0.3c-29.4,11.9-61.4,18.5-95,18.6v0c-0.2,0-0.3,0-0.5,0c-0.2,0-0.3,0-0.5,0v0c-33.6-0.1-65.6-6.7-95-18.6
		l0.1-0.3c-7.9-3.8-13.4-11.9-13.4-21.3c0-13.1,10.6-23.7,23.7-23.7c0.9,0,1.8,0.1,2.6,0.1l0,0c0,0,0.1,0,0.1,0
		c3.2,0.4,6.2,1.4,8.9,2.8c23.3,7.1,48,10.9,73.6,10.9c25.6,0,50.3-3.9,73.6-10.9c2.7-1.5,5.7-2.5,8.9-2.8c0,0,0.1,0,0.1,0l0,0
		c0.9-0.1,1.7-0.1,2.6-0.1c13.1,0,23.7,10.6,23.7,23.7C364.8,360.8,359.4,368.9,351.4,372.7z"/>
</g>
</svg>
