<?xml version="1.0" encoding="utf-8"?>
<!-- Generator: Adobe Illustrator 16.0.0, SVG Export Plug-In . SVG Version: 6.00 Build 0)  -->
<!DOCTYPE svg PUBLIC "-//W3C//DTD SVG 1.1//EN" "http://www.w3.org/Graphics/SVG/1.1/DTD/svg11.dtd">
<svg version="1.1" id="图层_1" xmlns="http://www.w3.org/2000/svg" xmlns:xlink="http://www.w3.org/1999/xlink" x="0px" y="0px"
	 width="512px" height="512px" viewBox="0 0 512 512" enable-background="new 0 0 512 512" xml:space="preserve">
<path fill-rule="evenodd" clip-rule="evenodd" fill="#4D4D4D" d="M513.505,170.832c-63.813,22.461-76.754,39.24-106.551,66.133
	c-11.368-5.961-22.123-11.589-32.398-16.966c-5.495-6.977-2.912-14.611,2.627-18.059c13.88-8.566-32.433-12.586-42.524-28.185
	c-1.17-1.802-17.137-6.005-27.004,10.265c-51.983-38.739-93.531-36.937-117.171-78.442c-29.06,15.945-42.726,37.813-64.092,56.732
	c-85.78,41.4-80.074,45.063-125.34,119.869c69.476,71.232,45.656,44.216,145.854,80.524c15.641,15.508,31.576,24.122,57.465,11.382
	c-21.073-11.488-11.534-19.872-18.24-30.827c77.561,41.012,146.968-31.159,222.382-64.199
	c19.193,35.378,38.513,53.115,82.581,70.432C463.109,288.136,468.798,217.952,513.505,170.832z M99.307,259.51
	c-1.937,12.549-13.675,21.137-26.224,19.202c-12.541-1.948-21.131-13.688-19.194-26.223c1.941-12.548,13.68-21.137,26.222-19.202
	C92.658,235.225,101.249,246.963,99.307,259.51z M190.852,330.583c12.503-25.171,14.412-58.181,2.675-90.22
	c-11.738-32.04-34.518-56.005-60.319-67.131c32.913-4.688,68.137,19.56,82.577,58.978
	C230.228,271.636,218.999,312.889,190.852,330.583z"/>
</svg>
