<?xml version="1.0" encoding="utf-8"?>
<!-- Generator: Adobe Illustrator 16.0.0, SVG Export Plug-In . SVG Version: 6.00 Build 0)  -->
<!DOCTYPE svg PUBLIC "-//W3C//DTD SVG 1.1//EN" "http://www.w3.org/Graphics/SVG/1.1/DTD/svg11.dtd">
<svg version="1.1" id="图层_1" xmlns="http://www.w3.org/2000/svg" xmlns:xlink="http://www.w3.org/1999/xlink" x="0px" y="0px"
	 width="512px" height="512px" viewBox="0 0 512 512" enable-background="new 0 0 512 512" xml:space="preserve">
<path fill-rule="evenodd" clip-rule="evenodd" fill="#4D4D4D" d="M513.7,136c-61.4,32.9-75.5,46-100.1,86.2
	C235.1,107.6,106.6,120.9,0,261.6c80.9,127.7,256.4,152.5,417.1,11.5c20.4,35.5,43.5,52.3,95.9,71.4
	C461.2,268.7,466,206.8,513.7,136z M140.5,244.2c-2,12.6-13.8,21.3-26.4,19.4c-12.6-2-21.3-13.8-19.4-26.4
	c2-12.6,13.8-21.3,26.4-19.4C133.8,219.7,142.5,231.5,140.5,244.2z M167.5,330.9c23.5-18.1,40.7-46.6,40.7-78.5
	c0-32-15.2-60.4-38.7-78.5c37.5,6.5,66,39.2,66,78.5C235.5,291.7,205,324.4,167.5,330.9z"/>
</svg>
