<?xml version="1.0" encoding="utf-8"?>
<!-- Generator: Adobe Illustrator 16.0.0, SVG Export Plug-In . SVG Version: 6.00 Build 0)  -->
<!DOCTYPE svg PUBLIC "-//W3C//DTD SVG 1.1//EN" "http://www.w3.org/Graphics/SVG/1.1/DTD/svg11.dtd">
<svg version="1.1" id="图层_1" xmlns="http://www.w3.org/2000/svg" xmlns:xlink="http://www.w3.org/1999/xlink" x="0px" y="0px"
	 width="512px" height="512px" viewBox="0 0 512 512" enable-background="new 0 0 512 512" xml:space="preserve">
<path fill-rule="evenodd" clip-rule="evenodd" d="M423.9,74.5c-39.9-39.9-105.4-39.9-145.4,0c-39.9,39.9-39.9,105.4,0,145.3
	c39.9,39.9,105.4,39.9,145.4,0C463.8,179.9,463.8,114.4,423.9,74.5z M310.6,80.2c10.8,19.6,21.6,39.3,32.4,58.9
	c-18.6-10.5-37.4-21.7-55.9-32.3C273.3,92.4,295.8,69.3,310.6,80.2z M283.5,108.4c19.1,11.7,38.2,23.4,57.3,35.1
	c-21.4,0.1-43.3-0.3-64.5-0.4C257.1,137.4,265.2,106.2,283.5,108.4z M276.3,146.5c21.3,1,43.1,1.6,64.5,2.8
	c-19.7,10.8-39.3,21.5-59,32.3C263.5,182.8,256.8,151.2,276.3,146.5z M285.9,183c18.8-9.8,38.1-20.3,57.1-30
	c-11.6,19.2-23.2,38.4-34.7,57.5C293,220.8,271.5,196.9,285.9,183z M348.5,225.5c-7.7,16.7-38.5,7.4-33.4-12
	c11-18.2,22.1-37,33.4-55.2C348.5,180.7,348.5,203.1,348.5,225.5z M348.5,135.7c-11.3-18.2-22.3-37-33.4-55.2
	c-5.2-19.3,25.6-28.7,33.4-12C348.5,90.9,348.5,113.3,348.5,135.7z M426.2,143.3c-21.3,0.1-43.1,0.5-64.5,0.4
	c19.1-11.7,38.2-23.4,57.3-35.1C437.2,106.5,445.4,137.6,426.2,143.3z M415.2,107.1c-18.4,10.6-37.2,21.8-55.9,32.3
	c10.8-19.6,21.6-39.3,32.4-58.9C406.6,69.5,429.1,92.6,415.2,107.1z M353.9,68.8c7.7-16.7,38.6-7.4,33.4,12
	c-11,18.2-22.1,37-33.4,55.2C353.9,113.6,353.9,91.2,353.9,68.8z M353.9,225.7c0-22.4,0-44.8,0-67.2c11.3,18.2,22.3,37,33.4,55.2
	C392.5,233.1,361.6,242.4,353.9,225.7z M394.1,210.7c-11.6-19.2-23.1-38.3-34.7-57.5c19.1,9.7,38.3,20.2,57.1,30
	C430.9,197.1,409.4,221.1,394.1,210.7z M420.6,181.7c-19.6-10.8-39.3-21.5-58.9-32.3c21.4-1.2,43.2-1.8,64.5-2.8
	C445.5,151.5,438.9,183,420.6,181.7z"/>
<path fill-rule="evenodd" clip-rule="evenodd" d="M248.1,402.4c0-21.1,36.7-33.5,69.9-75.7h0l0,0c12.3-15.6,24.1-35.4,33.4-61.2
	c-0.1,0-0.1,0-0.2,0c-65.4,0-118.4-53-118.4-118.4c0-3,0.1-5.9,0.3-8.8h-59.7l-32.5-138l-15.3,3l31.8,135.1h-47.1
	c2.6,211.5,122.2,225.4,122.2,263.8v92L134.1,512c70.8,0,141.7,0,212.5,0l-98.1-17.9L248.1,402.4z M223.9,362.3
	c-1.7,0-3.2-0.5-4.4-1.5l0,0l0,0c-0.3-0.2-0.6-0.5-0.9-0.8L197,340.9h91.1l-24.5,19.6c-1.3,1.1-3,1.8-4.9,1.8H223.9z"/>
</svg>
