<?xml version="1.0" encoding="utf-8"?>
<!-- Generator: Adobe Illustrator 16.0.0, SVG Export Plug-In . SVG Version: 6.00 Build 0)  -->
<!DOCTYPE svg PUBLIC "-//W3C//DTD SVG 1.1//EN" "http://www.w3.org/Graphics/SVG/1.1/DTD/svg11.dtd">
<svg version="1.1" id="图层_1" xmlns="http://www.w3.org/2000/svg" xmlns:xlink="http://www.w3.org/1999/xlink" x="0px" y="0px"
	 width="512px" height="512px" viewBox="0 0 512 512" enable-background="new 0 0 512 512" xml:space="preserve">
<path fill-rule="evenodd" clip-rule="evenodd" d="M341.9,0.6c-94.3,0-170.7,76.4-170.7,170.7c0,11.4,1.1,22.6,3.3,33.4
	c5.7,28.8-2.6,56.2-23.4,76.9L131,301.7c-11.1,11.1-11.1,29.2,0,40.2l-37.5,37.5c-5.5,5.5-14.6,5.5-20.1,0
	c-16.7-16.7-43.7-16.7-60.3,0c-16.7,16.7-16.7,43.7,0,60.3c9,9,21.1,13.2,32.8,12.4c4.2-0.3,8,1.2,10.9,4.1c3,3,4.4,6.7,4.1,10.9
	c-0.7,11.8,3.4,23.8,12.4,32.8c16.7,16.7,43.7,16.7,60.3,0c16.7-16.7,16.7-43.7,0-60.3c-5.5-5.5-5.5-14.6,0-20.1l37.5-37.5l0,0
	c11.1,11.1,29.2,11.1,40.2,0l20.1-20.1c20.8-20.8,48.1-29.1,76.9-23.4c10.8,2.1,22,3.3,33.4,3.3c94.3,0,170.7-76.4,170.7-170.7
	C512.6,77,436.2,0.6,341.9,0.6z"/>
</svg>
