<?xml version="1.0" standalone="no"?>
<!DOCTYPE svg PUBLIC "-//W3C//DTD SVG 1.1//EN" "http://www.w3.org/Graphics/SVG/1.1/DTD/svg11.dtd" >
<svg xmlns="http://www.w3.org/2000/svg">
<metadata></metadata>
<defs>
<font id="artreactorregular" horiz-adv-x="1792" >
<font-face units-per-em="1792" ascent="1536" descent="-256" />
<missing-glyph horiz-adv-x="448" />
<glyph unicode="&#xd;" horiz-adv-x="597" />
<glyph unicode=" "  horiz-adv-x="448" />
<glyph unicode="&#x09;" horiz-adv-x="448" />
<glyph unicode="&#xa0;" horiz-adv-x="448" />
<glyph unicode="&#xa8;" />
<glyph unicode="&#xa9;" />
<glyph unicode="&#xae;" />
<glyph unicode="&#xb4;" />
<glyph unicode="&#xc6;" />
<glyph unicode="&#x2000;" horiz-adv-x="768" />
<glyph unicode="&#x2001;" horiz-adv-x="1536" />
<glyph unicode="&#x2002;" horiz-adv-x="768" />
<glyph unicode="&#x2003;" horiz-adv-x="1536" />
<glyph unicode="&#x2004;" horiz-adv-x="512" />
<glyph unicode="&#x2005;" horiz-adv-x="384" />
<glyph unicode="&#x2006;" horiz-adv-x="256" />
<glyph unicode="&#x2007;" horiz-adv-x="256" />
<glyph unicode="&#x2008;" horiz-adv-x="192" />
<glyph unicode="&#x2009;" horiz-adv-x="307" />
<glyph unicode="&#x200a;" horiz-adv-x="85" />
<glyph unicode="&#x202f;" horiz-adv-x="307" />
<glyph unicode="&#x205f;" horiz-adv-x="384" />
<glyph unicode="&#x2122;" />
<glyph unicode="&#x221e;" />
<glyph unicode="&#x2260;" />
<glyph unicode="&#x25fc;" horiz-adv-x="500" d="M0 0v0v0v0v0z" />
<glyph unicode="&#xe000;" horiz-adv-x="500" d="M0 0z" />
<glyph unicode="&#xf000;" d="M894 1520q-380 -9 -632.5 -262t-261.5 -633q9 -379 261.5 -632t632.5 -262q380 9 632 262t261 632q-9 380 -261 633t-632 262zM894 -136q-322 9 -537 224t-224 537q9 323 224 537t537 223q323 -9 537 -223t223 -537q-9 -322 -223 -537t-537 -224zM898 339q-52 -2 -87 -37 t-35 -87t35 -86t87 -34t86 34t34 86t-34 87t-86 37zM898 1170q-72 -3 -119.5 -37.5t-49.5 -59.5l104 -641h122l111 641q-2 25 -49.5 59.5t-118.5 37.5z" />
<glyph unicode="&#xf001;" d="M1598 1362h-198v68q-2 43 -30 71t-71 29h-34q-41 -1 -69.5 -29t-30.5 -71v-68h-531v68q-1 43 -30 71t-70 29h-34q-43 -1 -71 -29t-29 -71v-68h-199q-88 -2 -143.5 -53t-57.5 -132v-1247q2 -84 58.5 -140.5t142.5 -58.5h1397q86 2 142.5 58.5t58.5 140.5v1247 q-2 81 -57.5 132t-143.5 53zM133 1177q1 29 22 40.5t46 11.5h199q1 -39 29 -67.5t71 -30.5h100q15 0 24 9.5t9 24t-9 23.5t-24 9h-100q-14 0 -24 10t-10 24v199q0 14 10 24t24 10h34q14 0 23 -10t9 -24v-75q-30 -20 -32 -59q0 -27 19 -47t47 -20h567q1 -41 29 -68.5 t69 -29.5h101q14 0 24 9.5t10 24t-10 23.5t-24 9h-101q-14 0 -23 9t-9 23v201q0 14 9 24t23 10h34q15 0 24.5 -10t9.5 -24v-75q-32 -20 -34 -59q0 -27 20 -47t47 -20h232q26 0 46.5 -11.5t22.5 -40.5v-245h-1534v245zM452 242h-319v267h319v-267zM573 509h649v-267h-649v267 zM1222 120v-256h-649v256h649zM573 631v235h649v-235h-649zM1344 509h323v-267h-323v267zM1344 631v235h323v-235h-323zM452 866v-235h-319v235h319zM133 -70v190h319v-256h-251q-29 0 -48.5 19.5t-19.5 46.5zM1598 -136h-254v256h323v-190q0 -27 -20 -46.5t-49 -19.5z" />
<glyph unicode="&#xf002;" d="M1792 690q-2 86 -58.5 142.5t-140.5 58.5h-353q11 55 31.5 186t22.5 211q-6 147 -71 191t-128 41q-90 -4 -128.5 -47t-36.5 -86q0 -20 -8 -47.5t-17 -47.5l-289 -579q-14 -14 -26 -19q-15 28 -48 45t-78 17h-331q-58 -2 -94.5 -38.5t-38.5 -93.5v-764q2 -57 38.5 -94 t94.5 -38h233q34 0 76 8t76 20l43 18q12 6 33 5t33 -8l15 -6q32 -16 75 -26.5t80 -10.5h631q84 1 140.5 53t58.5 129q0 38 -14 68q50 26 81.5 74t31.5 107q0 54 -25 97q43 27 67 71t24 98q0 37 -13.5 71t-36.5 61q23 27 36.5 61t13.5 72zM133 -140v764h333v-746 q-23 -7 -51 -12.5t-49 -5.5h-233zM1527 491h66q27 0 46.5 -19.5t19.5 -46.5t-19.5 -47t-46.5 -20h-34l-11 -1l-21 1h-34q-27 0 -47 -19.5t-20 -46.5t20 -46.5t47 -21.5h34q27 0 46.5 -19t19.5 -47.5t-19.5 -47.5t-46.5 -19h-99q-34 4 -43 -17.5t-7 -46.5q7 -25 53.5 -60 t54.5 -57q0 -21 -16.5 -35.5t-43.5 -14.5h-630q-20 0 -48 7.5t-47 16.5l-15 7q-34 16 -75 18.5t-79 -6.5v663q22 -9 49 -9q41 2 80.5 25.5t62.5 51.5l299 597q16 31 27 73t13 78q1 3 32 5q25 4 44.5 -12.5t21.5 -87.5q-2 -67 -20.5 -191.5t-33.5 -195.5q-3 -27 3 -54 t23 -46.5t42.5 -31.5t52.5 -12h365q29 0 47.5 -18.5t18.5 -46.5t-18.5 -47.5t-47.5 -19.5h-66q-29 0 -48 -20t-19 -47t19 -46.5t48 -19.5z" />
<glyph unicode="&#xf003;" d="M1760 733q34 32 36.5 61t-2 43t-24 34.5t-66.5 28.5l-482 41q-10 2 -21 11.5t-14 18.5l-199 470q-20 43 -47 55.5t-41.5 12.5t-40.5 -12.5t-45 -55.5l-199 -473q-6 -9 -16.5 -17t-21.5 -10l-233 -20l-249 -23q-46 -6 -66 -26.5t-24.5 -34.5t-1.5 -43t37 -61l362 -333 q7 -8 11.5 -21t2.5 -24l-118 -500q-7 -34 -1 -55.5t17 -34.5q21 -25 55 -29.5t70 17.5l439 265q4 4 22 4t23 -4l437 -265q33 -18 59 -18q43 0 67 30q11 13 17 34.5t-1 55.5l-117 500q-1 11 2.5 24t10.5 21zM1310 498q-34 -32 -49 -79.5t-5 -94.5l95 -410l-360 219 q-39 23 -90 23t-93 -23l-360 -219l97 410q11 47 -4.5 94.5t-49.5 79.5l-299 276l398 34q46 6 87.5 35.5t59.5 72.5l163 389l163 -389q20 -43 61 -72.5t88 -35.5l397 -34z" />
<glyph unicode="&#xf004;" d="M1595 1285h-747q-11 0 -32.5 20.5t-39.5 60.5q-25 64 -78 114t-116 52h-383q-84 -2 -140.5 -62t-58.5 -149v-1378q2 -90 58.5 -150t140.5 -62h1398q84 2 140.5 62t58.5 150v1130q-2 90 -58.5 150t-142.5 62zM199 1391h382q10 -2 32.5 -22.5t40.5 -58.5q25 -65 77 -114 t117 -53h747q29 0 48.5 -20.5t19.5 -49.5v-105h-1530v353q0 28 19.5 49t46.5 21zM1595 -127h-1396q-27 0 -46.5 19.5t-19.5 50.5v953h1530v-953q0 -31 -19.5 -50.5t-48.5 -19.5zM1344 561q0 23 -16 39t-40 16h-693q-23 0 -39.5 -16t-16.5 -39v-48q0 -26 16.5 -42t39.5 -16 h693q24 0 40 16t16 42v48z" />
<glyph unicode="&#xf005;" d="M1792 1158q-2 43 -29.5 70.5t-69.5 29.5h-34v66q-1 85 -57.5 141t-141.5 58h-1195q-84 -2 -140.5 -58t-58.5 -141v-132h133v132q0 27 19.5 47t46.5 20h1195q27 0 47 -20t20 -47v-1394q0 -27 -20 -46.5t-47 -19.5h-1195q-27 0 -46.5 19.5t-19.5 46.5v165h34q14 0 23 10 t9 24t-9 23t-23 9h-199q-14 0 -24 -9t-10 -23t10 -24t24 -10h32v-165q2 -84 58.5 -140.5t140.5 -58.5h1195q85 2 141.5 58.5t57.5 140.5v66h34q42 2 69.5 30t29.5 71v265q0 39 -25 66q23 29 25 67v265q0 41 -25 68q23 25 25 66v264zM1726 97q0 -15 -9 -23.5t-24 -8.5h-34 v331h34q15 0 24 -10t9 -24v-265zM1726 495q0 -15 -9 -24t-24 -9h-34v330h34q15 0 24 -9t9 -23v-265zM1726 892q0 -14 -9 -24t-24 -10h-34v334h34q15 0 24 -10t9 -24v-266zM34 1057h32v-829h133v829h34q14 0 23 10t9 24.5t-9 23.5t-23 9h-199q-14 0 -24 -9t-10 -23.5 t10 -24.5t24 -10zM1095 720q34 45 34 104q0 74 -55.5 118.5t-150.5 44.5h-210v-709h215q104 0 169.5 56.5t65.5 147.5q0 72 -43 118.5t-115 53.5v2q58 20 90 64zM1066 484q0 -59 -38.5 -92.5t-111.5 -33.5h-111v249h96q165 -1 165 -123zM995 717q-40 -32 -106 -34h-84v224 h93q134 0 134 -101q0 -57 -37 -89z" />
<glyph unicode="&#xf006;" d="M1792 647v8.5t-1 7.5t-2 6.5t-1.5 5l-0.5 2.5l-318 749h-1146l-318 -749l-0.5 -1.5t-1.5 -5t-2 -7.5t-1 -7v-9v-2v-593q2 -95 58.5 -158.5t140.5 -65.5h1394q86 2 141.5 65.5t57.5 158.5v593v2zM407 1278h978l253 -595h-410q-27 0 -47 -20.5t-20 -53.5v-166 q-2 -40 -29.5 -66t-68.5 -28h-334q-41 2 -68.5 28t-29.5 66v166q0 33 -20 53.5t-47 20.5h-408zM1593 -23h-1394q-29 0 -47.5 21.5t-18.5 53.5v557h431v-166q2 -72 48.5 -119.5t116.5 -49.5h332q72 2 118.5 49.5t48.5 119.5v166h431v-557q0 -32 -18.5 -53.5t-47.5 -21.5z" />
<glyph unicode="&#xf007;" d="M1142 1029q-2 102 -70 170t-170 70q-102 -2 -170 -70t-70 -170q2 -103 70 -171t170 -71q102 3 170 71t70 171zM902 855q-73 2 -122.5 51t-49.5 123.5t49.5 123t122.5 48.5t122.5 -49.5t49.5 -123t-48.5 -122.5t-123.5 -51zM1800 -185l-201 732q-9 34 -41 44l-258 92 q32 59 61 123q48 104 48 217q-5 213 -148.5 355.5t-358.5 148.5q-215 -6 -358.5 -148.5t-148.5 -355.5q0 -114 48 -217q29 -64 61 -125l-254 -90q-31 -10 -42 -44l-200 -732q-6 -19 0.5 -37t22.5 -31.5t35 -15.5t37 7l369 185l403 -186q29 -11 56 0l403 186l371 -185 q16 -7 30 -7q24 0 43 15q15 14 21 32t1 37zM461 1023q6 185 130.5 308.5t310.5 128.5q188 -5 311.5 -128.5t129.5 -308.5q0 -98 -43 -190q-97 -211 -217 -380.5t-179 -237.5q-61 68 -182 238.5t-218 381.5q-43 88 -43 188zM1366 57q-29 15 -57 0l-405 -186l-405 186 q-29 15 -58 0l-265 -134l151 555l243 85q112 -180 204 -295.5t103.5 -126t26 -10.5t26 10.5t103 127t201.5 295.5l247 -86l150 -555z" />
<glyph unicode="&#xf008;" d="M1796 403q4 9 0 15v322q4 7 0 13v329q0 11 -4 18q2 15 -10.5 42.5t-55.5 47.5l-740 317q-23 9 -45.5 12.5t-39.5 3.5t-40.5 -3.5t-46.5 -12.5l-738 -317q-45 -20 -56.5 -47.5t-10.5 -42.5q-1 -5 0 -14l-1 -13v-308q0 -2 -4 -5q-4 -18 4 -32v-298q0 -2 -4 -5q-4 -18 4 -33 v-261v-2l-2 -5q-6 -15 -0.5 -27.5t18.5 -17.5l803 -335q32 -13 74 -13t72 13l803 335q13 5 17.5 16t2.5 23v285zM1690 754l-742 -310q-19 -7 -48 -7t-50 7l-737 307v244l701 -301q23 -11 46.5 -14t40.5 -3t39.5 3t45.5 14l704 302v-242zM113 677l714 -297q32 -13 73 -13 t73 13l717 299v-261l-742 -309q-19 -7 -48 -7t-50 7l-737 307v261zM864 1380q11 5 37 5t35 -5l652 -280l-652 -279q-9 -6 -35 -6t-37 6l-652 279zM950 -192q-21 -7 -50 -7t-48 7l-740 308l1 15v211l714 -297q32 -13 73 -13t73 13l717 299v-222l2 -6z" />
<glyph unicode="&#xf009;" d="M1701 1516v2q-49 -34 -150 -58.5t-311 -25.5q-245 -6 -398.5 -50t-165.5 -53v0q-34 -16 -45 -43.5t-11 -43.5v-1065q-50 11 -127 21.5t-115 12.5q-163 -2 -268.5 -69t-109.5 -171q4 -104 110.5 -172t269.5 -70q163 2 269.5 69t110.5 171v954q2 1 7 1q4 6 127.5 37.5 t347.5 34.5q167 0 265.5 10t148.5 22v-620q-58 15 -133 33t-109 19v0q-163 -3 -269.5 -73t-110.5 -174q4 -106 110.5 -175.5t269.5 -73.5q163 2 268.5 69t109.5 171v1287q-9 39 -44 34.5t-47 -11.5zM620 -29q-2 -34 -65.5 -69t-176.5 -36q-111 1 -174.5 36t-63.5 70t63.5 70 t174.5 37q38 0 117.5 -3.5t129.5 -14.5l-5 -34v-56zM1242 1066q-195 -2 -319 -28t-163 -42v223q52 19 178 48t304 32q134 0 234.5 12.5t179.5 37.5v-249q-34 -10 -131 -22t-283 -12zM1414 104q-111 4 -175.5 39.5t-64.5 71.5t63.5 73.5t176.5 41.5v0q32 0 110 -10t135 -24 l-3 -90q-2 -34 -66.5 -67t-175.5 -35z" />
<glyph unicode="&#xf00a;" d="M1412 962q-34 151 -155 255.5t-271 110.5q-124 -4 -224.5 -88t-150.5 -199q-21 6 -45 6h-46q-83 -2 -154.5 -40.5t-121.5 -99.5q-72 -101 -81 -182.5t-5 -93.5q-81 -41 -119.5 -127t-38.5 -190q4 -146 91.5 -258.5t222.5 -120.5h1030q190 8 316.5 162t131.5 360 q-2 193 -104 338.5t-276 166.5zM1344 75h-1030q-108 20 -151 85.5t-43 106.5q5 183 88.5 238.5t96.5 50.5q-2 0 -14.5 31t-14.5 89q14 118 62.5 172.5t159.5 74.5q18 3 50.5 5t51.5 -3l70 -18l32 71q40 90 115 141t169 53q112 -2 196.5 -73.5t109.5 -188.5l14 -70l67 -5 q139 -16 217 -124.5t80 -260.5q-2 -161 -88.5 -266t-237.5 -109z" />
<glyph unicode="&#xf00b;" d="M1769 -27l-15 49q-50 109 -223 219t-244 141q1 0 -31 -20l-109 -73l-249 -131l-350 215q-50 -16 -249 -122t-258 -240l-34 -115q-3 -9 -3 -20q0 -145 202 -145h1382q52 -3 123.5 18.5t78.5 121.5q0 25 -4.5 44.5t-16.5 57.5zM1588 -129h-1382q-27 0 -40.5 1t-20.5 3 l16 53l13 47q20 47 149 129t279 143l278 -159q9 -4 18 -4t14 4l312 165q125 -58 250.5 -144t147.5 -129l16 -48l12 -41q2 -9 2 -16q-12 -2 -32 -4h-32zM903 1523q-206 -5 -343 -169t-142 -410q5 -245 142 -408t343 -170q206 5 343 168t143 410q-6 248 -143 411t-343 168z M903 509q-154 5 -257 127t-107 307q4 184 107 306t257 127q154 -5 257 -127t107 -306q-4 -185 -107 -307t-257 -127z" />
<glyph unicode="&#xf00c;" d="M1598 1303h-426l-52 131q-16 39 -50 64t-74 25h-234q-38 0 -73 -25t-51 -64l-47 -122l-5 -9h-392q-85 -2 -142 -64t-59 -155v-1134q2 -93 59 -155t142 -64h1404q86 2 142.5 64t58.5 155v1134q-2 93 -59 155t-142 64zM701 1405q7 18 25 31.5t36 13.5h234q18 0 37 -13.5 t26 -31.5l39 -102h-439zM1667 -50q0 -31 -20 -51.5t-49 -20.5h-1404q-27 0 -47 20.5t-22 51.5v806h456v-301q0 -23 16 -39t41 -16h518q23 0 39 16t16 39v301h456v-806zM1098 686v-157q0 -24 -16 -40t-39 -16h-294q-23 0 -39 16t-16 40v157q0 24 16 41t39 17h294q23 0 39 -17 t16 -41zM1667 826h-1542v258q2 32 22 53.5t47 21.5h1404q29 0 49 -21.5t20 -53.5v-258z" />
<glyph unicode="&#xf00d;" d="M1788 1133q-1 82 -56.5 137.5t-138.5 57.5h-1401q-83 -2 -138.5 -57.5t-57.5 -137.5v-1011q2 -83 57.5 -138.5t138.5 -56.5h1401q83 1 138.5 56.5t56.5 138.5v1011zM1659 122q0 -27 -19.5 -46t-46.5 -19h-1399q-27 0 -46 19t-19 46v1011q0 26 19 45t46 19h1399 q27 0 46.5 -19t19.5 -45v-1011zM1575 1156l-521 -471q-22 44 -63 71t-95 27q-48 0 -86.5 -23t-62.5 -61l-530 457q-11 9 -23.5 8t-21.5 -11.5t-8 -23.5t12 -22l548 -474q-2 -11 -2 -26q2 -75 51.5 -124t124.5 -49t123.5 49t50.5 124v6l546 494q9 9 10 22.5t-8 23.5t-21.5 11 t-23.5 -8z" />
<glyph unicode="&#xf00e;" d="M1443 1455l-49 14l-3 2l-214 50q-27 6 -50 -7.5t-30 -40.5q-2 -7 -2 -16v0q-2 -57 -59.5 -94t-139.5 -37t-139.5 37t-59.5 94v0q0 9 -2 16q-7 27 -30 40.5t-50 7.5l-214 -52h-3l-49 -14q-53 9 -182 -145t-167 -679q0 -27 19 -48.5t47 -21.5h199v-697q2 -58 38.5 -94.5 t94.5 -38.5h996q58 2 94.5 38.5t38.5 94.5v697h199q28 0 47 21.5t19 48.5q-38 525 -167 679t-182 145zM1527 694v198q0 29 -20 48t-47.5 19t-47.5 -19t-20 -48v-1028h-992v1028q0 29 -20 48t-47.5 19t-47.5 -19t-20 -48v-198h-129q41 421 134.5 533t102.5 97q5 2 10 2l51 16 l145 34q34 -82 119 -132.5t198 -50.5t197 50.5t118 132.5l147 -34l51 -16h7q12 14 105.5 -98.5t134.5 -533.5h-129z" />
<glyph unicode="&#xf010;" d="M1269 1226h-577q-240 0 -292 -42t-43 -127l702 -3q177 3 240 -31t52 -143l-3 -247q96 3 133 51.5t35 132.5v203q-2 87 -72 145.5t-175 60.5zM934 932h-654q-119 -4 -197.5 -81t-82.5 -192v-270l2 -31h-2l4 -14q7 -29 16 -57l163 -556l113 389h638q118 4 196 79t81 190 v270q9 133 -34 198.5t-243 74.5zM1050 457q-12 -115 -44.5 -142.5t-84.5 -18.5h-629l-84 -137l-77 429q2 55 44 106t96 55h636q55 -2 100 -34t47 -82zM1546 1523h-277q-222 2 -281.5 -41t-52.5 -127l402 -4q175 4 238 -30t52 -144l-3 -247q98 4 134 52t34 133v202 q-4 88 -73 146t-173 60z" />
<glyph unicode="&#xf011;" d="M699 1299q-294 -5 -490 -170t-207 -414q-2 -149 57 -262t189 -202q0 -32 -25.5 -84t-96.5 -120l-8 -8q-12 -10 -14.5 -26.5t4.5 -30.5q16 -30 46 -30h4q163 21 291 96.5t148 93.5l12 -2q60 -11 90 -13v0q296 7 493 172t204 414q-7 249 -204 414t-493 172zM699 231 q-11 0 -34 4l-54 11q-30 1 -50.5 -8.5t-24.5 -14t-71 -48.5t-167 -85q61 98 50 188q0 7 -2 11.5t-7 13.5t-22 25l-5 4q-109 75 -158.5 167t-47.5 214q7 206 175.5 342.5t417.5 141.5q253 -5 420.5 -141.5t174.5 -342.5q-7 -206 -174.5 -341t-420.5 -141zM1767 138 q-54 23 -94 60t-67 74q77 51 121 121.5t44 154.5q0 131 -72.5 226t-223.5 126q23 -92 23 -194q-1 -211 -91.5 -318t-189.5 -189l47 -7q26 -4 46 -4q38 0 72 6q37 -24 96.5 -48t142.5 -44t141.5 -5.5t4.5 41.5z" />
<glyph unicode="&#xf012;" d="M1663 1061h-548q64 27 127.5 62.5t110.5 80.5q41 40 51 92.5t-12.5 106.5t-66.5 85.5t-97 31.5q-36 1 -84.5 -20.5t-102.5 -83t-88 -125t-52 -119.5q-16 39 -41 82t-59 85q-45 52 -85 69t-67 15q-45 0 -82 -26t-55.5 -70t-9.5 -88t41 -76t73.5 -57t85.5 -45h-569 q-58 -2 -94.5 -38.5t-38.5 -94.5v-265q0 -29 19.5 -47.5t46.5 -18.5h33v-733q1 -58 39 -94.5t95 -38.5h1364q57 2 93.5 38.5t38.5 94.5v731q27 0 46 19.5t21 48.5v265q-2 58 -39 94.5t-94 38.5zM1090 1373q69 79 138 80q32 0 59.5 -20.5t42 -54.5t8 -67t-31.5 -60 q-75 -70 -183.5 -114t-181.5 -64q12 54 46 135.5t103 164.5zM590 1210q-38 39 -18 93q10 25 30 39.5t45 14.5q52 0 102 -60.5t77 -120.5t38 -103q-59 17 -139 51t-135 86zM133 729v199h731v-199h-731zM1597 -136h-359h-1007v731h1366v-731zM1663 729h-731v199h731v-199z M926 541q-116 -2 -196 -68t-83 -165q0 -59 24 -104t74 -80q0 -15 -10.5 -35.5t-37.5 -47.5l-3 -3q-9 -9 -3 -21.5t17 -12.5h2q66 9 117 38.5t58 36.5h6q21 -6 35 -6v0q117 2 196 69.5t82 165.5q-3 99 -82 165t-196 68zM787 125v0v0v0z" />
<glyph unicode="&#xf013;" d="M1600 638q-7 299 -206 497t-498 205q-186 -1 -338.5 -86.5t-249.5 -230.5l93 -95q77 129 206.5 206t288.5 79q246 -5 408 -168t167 -407h-192l257 -256l256 256h-192zM896 61q-244 5 -407 168t-168 409h192l-257 254l-256 -254h192q7 -299 206 -498t498 -206 q186 1 338.5 87.5t249.5 231.5l-93 93q-77 -129 -206.5 -206t-288.5 -79z" />
<glyph unicode="&#xf014;" d="M1805 1057q-2 27 -17 48.5t-40 30.5q-16 6 -33 6q-35 0 -64 -26l-210 -209l-213 39l-39 213l209 210q20 20 24.5 45t-4.5 51t-30.5 41t-48.5 17h-27q-100 0 -189 -36.5t-158 -106.5q-112 -113 -138.5 -259t34.5 -288l-509 -509l-15 13q-18 16 -40 15t-38 -17l-201 -215 q-16 -18 -15.5 -40.5t17.5 -38.5l7 -7q-43 -52 -55 -116.5t53 -134.5q32 -32 64.5 -42t55.5 -10q41 0 76 18t64 45l12 -11q18 -16 40.5 -15t38.5 17l201 215q14 18 14 40.5t-16 38.5l500 500q95 -41 199 -41q99 0 188.5 37.5t159.5 107.5q73 73 110.5 171t32.5 203z M185 -179q-29 -2 -56 27q-30 30 -25.5 61.5t29.5 63.5l127 -118q-39 -32 -75 -34zM1599 745q-59 -59 -133.5 -88.5t-151.5 -29.5q-57 0 -112 16t-103 47l-550 -550l-133 123l556 554q-74 120 -60.5 257t115.5 243q59 59 132.5 88t152.5 29h22l-242 -244l61 -319l319 -61 l243 242q4 -83 -24.5 -162.5t-91.5 -144.5z" />
<glyph unicode="&#xf015;" d="M1770 706l-781 783q-41 40 -94 40t-94 -40l-781 -783q-20 -20 -20 -46.5t19.5 -46.5t45.5 -20t48 20l52 52v-801q2 -58 39.5 -94.5t94.5 -38.5h387v778q2 34 24.5 57.5t54.5 23.5h262q34 0 56.5 -23.5t22.5 -57.5v-778h385q57 2 94 38.5t39 94.5v801l53 -52 q20 -20 47 -20t46.5 20t19.5 46.5t-20 46.5zM1491 -136h-220h-74v726q-2 44 -31.5 73t-74.5 31h-390q-45 -2 -74.5 -31t-31.5 -73v-726h-298v933l597 597l597 -597v-933z" />
<glyph unicode="&#xf016;" d="M1410 1091q-34 151 -155 256.5t-271 111.5q-124 -4 -224.5 -89t-150.5 -200q-19 6 -45 6h-44q-83 -2 -155.5 -40.5t-122.5 -99.5q-72 -101 -81 -182.5t-5 -93.5q-81 -41 -119.5 -127t-38.5 -190q4 -146 91.5 -258.5t222.5 -119.5h158v139h-158q-108 18 -151 84.5 t-43 107.5q6 183 89 238.5t96 50.5q-2 0 -14.5 31t-14.5 89q15 120 63 174.5t159 74.5q18 3 50.5 4t52.5 -3l69 -17l33 69q39 90 114.5 142t168.5 54q113 -2 197 -74.5t109 -189.5l15 -70l66 -5q140 -14 218 -123.5t79 -261.5q-1 -140 -67.5 -239.5t-186.5 -128.5v-139 q163 39 268 185t108 329q-2 194 -104 339t-276 166zM1152 25q-9 9 -20.5 10t-20.5 -8l-99 -75v530q0 11 -14 22.5t-39 15.5q-24 -4 -38 -15.5t-14 -22.5v-530l-101 75q-9 9 -20.5 8t-21.5 -10t-18.5 -25t23.5 -50l177 -149q4 -2 13 -5q9 3 12 5l176 149q32 34 24 50t-19 25z " />
<glyph unicode="&#xf017;" d="M1410 1091q-34 151 -155 256.5t-271 111.5q-124 -4 -224.5 -89t-150.5 -200q-19 6 -45 6h-44q-83 -2 -155.5 -40.5t-122.5 -99.5q-72 -101 -81 -182.5t-5 -93.5q-81 -41 -119.5 -127t-38.5 -190q4 -146 91.5 -258.5t222.5 -119.5h158v139h-158q-108 18 -151 84.5 t-43 107.5q6 183 89 238.5t96 50.5q-2 0 -14.5 31t-14.5 89q15 120 63 174.5t159 74.5q18 3 50.5 4t52.5 -3l69 -17l33 69q39 90 114.5 142t168.5 54q113 -2 197 -74.5t109 -189.5l15 -70l66 -5q140 -14 218 -123.5t79 -261.5q-1 -140 -67.5 -239.5t-186.5 -128.5v-139 q163 39 268 185t108 329q-2 194 -104 339t-276 166zM1254 495h-252v250q0 24 -16.5 40t-39.5 16t-38.5 -16t-15.5 -40v-250h-250q-24 0 -40 -17t-16 -38.5t16 -39t40 -18.5h250v-249q0 -24 16.5 -40t38 -16t38.5 16t17 40v249h252q22 0 39 17t17 38v2q0 23 -16 39.5 t-40 16.5z" />
<glyph unicode="&#xf018;" d="M1774 -56l-14 45q-43 97 -196.5 194.5t-215.5 124.5q1 0 -27 -18l-99 -64l-220 -117l-308 190q-45 -14 -221.5 -108t-228.5 -213l-29 -100q-4 -11 -4 -18q0 -129 178 -129h1224q46 -3 110 15.5t69 108.5q0 21 -3.5 38t-14.5 51zM1615 -147h-1224q-45 0 -54 5l25 88 q18 41 131.5 114t246.5 128l246 -141q9 -4 17 -4t13 4l276 145q111 -50 221.5 -125.5t129.5 -114.5l15 -43l10 -36q2 -9 2 -16q-12 -2 -29 -4h-26zM1007 292q183 5 304 149.5t126 363.5q-5 218 -126 362.5t-304 149.5q-183 -5 -304 -149.5t-126 -362.5q5 -219 126 -363.5 t304 -149.5zM1007 1186q138 -3 228.5 -111.5t94.5 -271.5q-4 -163 -94.5 -271.5t-228.5 -112.5q-136 4 -227.5 112.5t-94.5 271.5q3 163 94.5 271.5t227.5 111.5zM640 263h-479q-37 0 -45 4l11 39q7 24 11 38q14 34 112 97t214 111l176 -102v63l-217 134q-38 -13 -190 -93.5 t-197 -182.5l-25 -88q-2 -5 -2 -14q2 -111 152 -111h479v105zM523 790v31q-48 46 -76.5 112.5t-28.5 147.5q3 141 81 234.5t195 96.5q93 -2 163 -63q53 20 112 20h6q-52 72 -123.5 113t-157.5 41q-158 -5 -262 -128.5t-108 -312.5q2 -132 57.5 -235t148.5 -161q-7 51 -7 104 z" />
<glyph unicode="&#xf019;" d="M903 1523q-206 -5 -343 -169t-142 -410q5 -245 142 -408t343 -170q206 5 343 168t143 410q-6 248 -143 411t-343 168zM903 509q-154 5 -257 127t-107 307q4 184 107 306t257 127q154 -5 257 -127t107 -306q-4 -185 -107 -307t-257 -127zM1769 -27l-15 49 q-46 105 -211 219t-249 153q-66 -79 -172 -123q-25 -13 -96 -24.5t-155 -13.5q-86 4 -150.5 27t-68.5 27q-27 18 -62.5 50t-60.5 57q-97 -39 -268 -152t-220 -231l-34 -115q-3 -9 -3 -20q0 -145 202 -145h1384q51 -3 122 18.5t78 121.5q0 25 -4.5 44.5t-16.5 57.5zM539 48 q-39 -16 -65 -57t-28 -97q0 -10 2 -23h-242q-27 0 -40.5 1t-20.5 3l16 53l13 47q20 36 143.5 109.5t221.5 125.5v-162zM1588 -129h-862q2 13 2 23q0 54 -27 96t-68 60v140q35 -20 112.5 -33.5t150.5 -13.5q61 2 125.5 14.5t105.5 25.5v-43q-73 -20 -119.5 -79t-48.5 -138 h104q1 48 34.5 79.5t82.5 31.5t82.5 -31.5t34.5 -79.5h110q-2 79 -48.5 138t-120.5 79v91h9q83 -46 216.5 -129.5t158.5 -121.5l16 -48l12 -41q2 -9 2 -16q-12 -2 -32 -4h-32z" />
<glyph unicode="&#xf01a;" d="M1765 1131q-33 89 -92 156.5t-139 104.5q-110 52 -233.5 51.5t-229 -51t-172.5 -138.5q-64 88 -170 137.5t-229 49.5q-60 0 -119 -12.5t-113 -37.5q-80 -38 -139 -105t-92 -159q-37 -104 -32 -215t52 -211q136 -240 440 -533t359 -336q20 -17 44 -17t42 17 q56 43 360.5 336.5t440.5 535.5q47 99 52.5 210t-30.5 217zM1623 760q-100 -183 -345.5 -428.5t-378.5 -360.5q-131 115 -376.5 359.5t-345.5 427.5q-36 77 -39.5 161.5t25.5 164.5q23 63 64 111.5t99 75.5q82 39 174 39q102 -2 184.5 -44t123.5 -114l34 -57q21 -31 56 -31 t59 29l1 5l34 58q43 72 125.5 114t183.5 42q93 0 175 -40q56 -27 98 -75t65 -111q29 -79 24.5 -164t-40.5 -162z" />
<glyph unicode="&#xf01b;" d="M1803 281h-4v1013q-2 100 -69 167.5t-167 68.5h-1328q-99 -1 -166 -68.5t-69 -167.5v-1328q2 -99 69 -166t166 -69h1328q100 2 167 69t69 166v158h4v157zM1641 -34q0 -32 -22 -54.5t-56 -22.5h-1328q-33 0 -55 22.5t-22 54.5v1328q0 34 22 56.5t55 22.5h1328 q34 0 56 -22.5t22 -56.5v-1328zM1260 796q89 1 148.5 61.5t60.5 147.5q-1 88 -60.5 149t-148.5 63q-90 -2 -149 -62t-61 -150q2 -89 61 -148.5t149 -60.5zM1260 1133q54 -2 88.5 -38t34.5 -89.5t-34.5 -88.5t-88.5 -35t-90 35.5t-36 87.5t36 89t90 39zM1351 435 q-41 35 -91 35t-92 -33l-157 -131l-292 291q-38 36 -89 37.5t-92 -32.5l-359 -322q-12 -11 -13 -28t10.5 -30.5t28.5 -14.5t32 10l356 322q14 13 33 12t32 -13l530 -529q13 -13 29 -13t29.5 13t13.5 30t-13 29l-177 178l152 127q16 12 36.5 12t37.5 -12l272 -240 q13 -11 30 -11t29.5 14.5t11.5 31.5t-15 29z" />
<glyph unicode="&#xf01c;" d="M1575 762l-215 -144v317q0 15 -9 24t-23 9h-864q-14 0 -23 -9t-9 -24v-317l-215 144q-11 7 -24.5 5t-20.5 -13.5t-5.5 -25t14.5 -22.5l586 -392q57 -38 129.5 -38t128.5 38l586 392q13 9 14.5 22.5t-5.5 25t-20.5 13.5t-24.5 -5zM987 369q-39 -25 -91 -25t-91 25 l-307 204v328h796v-328zM1729 941l-688 534q-30 23 -67 34.5t-78 11.5t-78 -11.5t-67 -34.5l-690 -534q-27 -23 -44 -58t-17 -71v-880q2 -86 58.5 -142.5t140.5 -58.5h1394q84 2 140.5 58.5t58.5 142.5v880q0 36 -17 71t-46 58zM1659 -68q0 -27 -19.5 -46.5t-46.5 -19.5 h-1394q-27 0 -46.5 19.5t-19.5 46.5v880q0 5 3.5 12t6.5 9l688 536q26 18 65 18t65 -18l688 -534q3 -4 6.5 -11t3.5 -12v-880zM663 735h466q14 0 23 9.5t9 24t-9 23.5t-23 9h-466q-14 0 -23 -9t-9 -23.5t9 -24t23 -9.5zM1129 668h-466q-14 0 -23 -9.5t-9 -24t9 -24.5t23 -10 h466q14 0 23 10t9 24.5t-9 24t-23 9.5z" />
<glyph unicode="&#xf01d;" d="M1593 1523h-498q-61 -2 -111 -29.5t-86 -72.5q-36 45 -87 72.5t-114 29.5h-498q-84 -2 -140.5 -57.5t-58.5 -141.5v-1227q2 -84 58.5 -141.5t140.5 -59.5h466q73 -4 118 -39.5t47 -58.5v0q0 -27 19.5 -47t46.5 -20t46.5 19t19.5 46v2q2 23 48.5 58.5t118.5 39.5h464 q86 2 141.5 59.5t57.5 141.5v1227q-2 86 -58.5 141.5t-140.5 57.5zM864 1201v-1240q-41 30 -91.5 49t-107.5 19h-466q-27 0 -46.5 19.5t-19.5 48.5v1227q0 29 19.5 48t46.5 19h498q63 -6 112 -54.5t53 -82.5zM1659 97q0 -29 -18.5 -48.5t-47.5 -19.5h-464q-57 0 -107.5 -19 t-89.5 -49v1297q3 32 53.5 79.5t109.5 53.5h498q29 0 47.5 -19t18.5 -48v-1227zM1548 1082h-503q-13 0 -22 -8t-9 -21.5t9 -21.5t22 -8h503q13 0 22 8t9 21.5t-9 21.5t-22 8zM1548 848h-503q-13 0 -22 -8.5t-9 -21.5t9 -21.5t22 -8.5h503q13 0 22 8.5t9 21.5t-9 21.5 t-22 8.5z" />
<glyph unicode="&#xf01e;" d="M1321 1523h-843q-82 -2 -137.5 -58t-57.5 -141v-1394q2 -84 57.5 -140.5t137.5 -58.5h843q82 2 137.5 58.5t57.5 140.5v1394q-2 85 -57.5 141t-137.5 58zM414 1192h971v-997h-971v997zM478 1391h843q27 0 45.5 -20t18.5 -47v-66h-971v66q0 27 19 47t45 20zM1321 -136 h-843q-26 0 -45 19.5t-19 46.5v199h971v-199q0 -27 -18.5 -46.5t-45.5 -19.5zM964 30h-129q-14 0 -23 -9.5t-9 -24t9 -24.5t23 -10h129q14 0 23 10t9 24.5t-9 24t-23 9.5z" />
<glyph unicode="&#xf021;" d="M1572 1529h-18l-180 -180l242 -242l180 180v18q-8 130 -84 177.5t-140 46.5zM1616 1235l-114 114l88 90q30 -2 68.5 -26t47.5 -91zM944 -269h-888q-24 0 -40 16t-16 40v28q0 24 16 40t40 16h888q25 0 41.5 -16t16.5 -40v-28q0 -24 -16.5 -40t-41.5 -16zM1514 1068 l-179 179q-14 15 -31 15t-32 -15l-985 -941q-7 -7 -11 -16l-134 -358q-6 -14 -2.5 -27t12.5 -21q15 -13 31 -13q11 0 19 5l359 180q7 3 12 9l941 940q15 13 15 31t-15 32zM514 133l-249 -126l90 242l792 755q2 -6 7 -11l97 -97l16 -11z" />
<glyph unicode="&#xf022;" d="M1258 -136h-1125v1125h297q43 2 71 30t29 71v297h728v-66h133v66q-2 57 -39 94t-94 39h-728q-43 0 -86.5 -19t-74.5 -48l-303 -304q-28 -29 -47 -73t-19 -87v-1125q2 -58 38.5 -94.5t94.5 -38.5h1125q57 2 94 38.5t39 94.5v828h-133v-828zM464 1360v-270q0 -15 -10 -25 t-24 -10h-271zM1448 1278q-11 9 -23.5 9.5t-23.5 -8.5l-729 -697q-5 -5 -7 -10l-101 -266q-5 -19 9 -37q11 -7 24 -7q5 0 14 3l265 133q4 3 9 5l696 695q9 11 9 23.5t-9 23.5zM842 453l-186 -91l68 179l699 667l86 -86zM1624 1487h-15l-132 -132l179 -179l132 132v13 q-5 96 -60.5 132t-103.5 34zM1656 1269l-86 86l66 64q22 -2 50.5 -19t35.5 -65z" />
<glyph unicode="&#xf023;" d="M1335 1247q-14 15 -31 15t-32 -15l-985 -941q-7 -7 -11 -16l-134 -358q-6 -14 -2.5 -27t12.5 -21q15 -13 31 -13q11 0 19 5l359 180q7 3 12 9l941 940q13 13 13 31t-13 32zM514 133l-249 -126l90 242l948 903l116 -116zM1572 1529h-18l-180 -180l242 -242l180 180v18 q-8 130 -84 177.5t-140 46.5zM1616 1235l-114 114l88 90q30 -2 68.5 -26t47.5 -91zM944 -269h-888q-24 0 -40 16t-16 40v28q0 24 16 40t40 16h888q25 0 41.5 -16t16.5 -40v-28q0 -24 -16.5 -40t-41.5 -16z" />
<glyph unicode="&#xf024;" d="M1462 1520h-729q-41 0 -85 -19t-75 -48l-304 -303q-29 -30 -48 -74t-19 -87v-1125q2 -58 40 -94.5t93 -38.5h1127q56 2 92.5 38.5t38.5 94.5v1523q-2 57 -38.5 94t-92.5 39zM665 1360v-270q0 -15 -8 -25t-23 -10h-270zM1462 672v-808h-1125v1127h297q42 2 68.5 29 t28.5 70v297h731v-715z" />
<glyph unicode="&#xf025;" d="M1667 1064h-551q67 26 130.5 61.5t110.5 80.5q39 41 49.5 94t-11.5 106.5t-66 85t-100 31.5q-34 2 -83 -19.5t-103 -84t-88 -126.5t-52 -119q-30 82 -100 168q-45 52 -85.5 69t-68.5 15q-45 0 -82 -26t-54.5 -69.5t-9.5 -87.5t41 -76.5t74 -57.5t86 -45h-571 q-58 -1 -94.5 -39t-38.5 -95v-265q0 -29 19.5 -47.5t46.5 -18.5h34v-733q2 -58 39 -95.5t94 -39.5h1365q58 2 95.5 39.5t39.5 95.5v731q27 0 46.5 19.5t19.5 48.5v265q-2 57 -38.5 95t-93.5 39zM1667 731h-733v199h733v-199zM1091 1374q70 81 138 81q33 0 60.5 -19.5 t42 -54.5t9 -68.5t-30.5 -58.5q-75 -69 -184.5 -114t-182.5 -65q12 56 47 137.5t101 161.5zM573 1305q11 25 31 40t45 15q52 0 104 -63q48 -57 75 -118t38 -102q-60 16 -139.5 50t-135.5 84q-19 20 -23.5 44t5.5 50zM866 930v-199h-733v199h733zM233 597h633v-733h-633v733z M1598 -136h-664v733h664v-733z" />
<glyph unicode="&#xf026;" d="M1383 -136h-1127v1127h298q43 2 70.5 29t29.5 70v297h729v-496h133v496q-2 57 -39.5 94t-94.5 39h-728q-43 0 -87 -19t-74 -48l-303 -303q-31 -30 -49.5 -74t-18.5 -87v-1125q2 -58 39.5 -94.5t94.5 -38.5h1126q57 2 94.5 38.5t39.5 94.5v364h-133v-364zM588 1360v-270 q0 -15 -10 -24t-24 -9h-271zM1495 559l241 242q9 11 9 23.5t-9.5 22.5t-22 10t-23.5 -9l-242 -242l-242 242q-9 9 -22.5 9t-23.5 -10t-10 -22.5t9 -23.5l242 -242l-242 -242q-9 -11 -9 -23.5t11 -22t23.5 -9.5t21.5 9l242 242l242 -242q11 -9 23.5 -9t22 9.5t9.5 22t-9 23.5 zM1075 672q0 14 -10.5 25t-25.5 11h-559q-14 0 -25 -11t-11 -25v0q0 -14 11 -24t25 -10h559q15 0 25.5 10t10.5 24v0zM1075 348q0 14 -10.5 24t-25.5 10h-559q-14 0 -25 -10t-11 -24v0q0 -15 11 -25.5t25 -10.5h559q15 0 25.5 10.5t10.5 25.5v0z" />
<glyph unicode="&#xf027;" d="M1588 1355h-448v16q-2 63 -50.5 105t-121.5 44h-140q-74 -2 -122 -44t-50 -105v-16h-448q-88 -2 -147 -58.5t-61 -140.5v-167q0 -27 19.5 -46.5t50.5 -19.5h79l109 -1000q13 -81 74.5 -135.5t147.5 -56.5h835q86 2 148 56.5t73 135.5l111 1000h79q28 0 49 19.5t21 46.5 v167q-2 84 -61 140.5t-147 58.5zM726 1371q2 34 30.5 57.5t71.5 24.5h140q43 -1 71.5 -24.5t30.5 -57.5v-16h-344v16zM1658 1055h-70h-1208q-14 0 -24 -8.5t-10 -23t10 -24.5t24 -10h1134l-114 -1054q-4 -28 -28 -48.5t-57 -22.5h-835q-32 2 -56 22.5t-28 48.5l-116 1061 q-4 27 -23.5 43t-46.5 16h-72v101q0 27 20.5 45.5t49.5 18.5h1380q28 0 49 -18.5t21 -45.5v-101zM588 -38q14 0 24 10t10 24v828q0 15 -10 24t-24.5 9t-25 -9t-10.5 -24v-828q0 -14 10.5 -24t25.5 -10zM898 -38q14 0 24 10t10 24v828q0 15 -10 24t-24.5 9t-25 -9t-10.5 -24 v-828q2 -14 11.5 -24t24.5 -10zM1208 -38q14 0 25 10t11 24v828q0 15 -11 24t-25.5 9t-24 -9t-9.5 -24v-828q0 -14 9.5 -24t24.5 -10z" />
<glyph unicode="&#xf028;" d="M1706 1439q-79 86 -201.5 82.5t-250.5 -134.5l-779 -844q-106 -127 -86 -215t52 -117q46 -52 115 -53q55 -2 116 32t120 99l346 376q4 2 24.5 25t23.5 47q0 19 -11.5 31.5t-36.5 30.5q-31 20 -51.5 7.5t-27.5 -23.5l-362 -392q-47 -49 -82.5 -69.5t-55.5 -20.5 q-14 0 -21 9q-13 11 -16.5 41.5t48.5 89.5l779 842q79 83 150 91t112 -37q47 -47 52 -123t-68 -160l-1013 -1095q-37 -41 -85.5 -62t-100.5 -21t-100.5 21t-85 62t-56.5 92t-20 108.5t20 109.5t56 93l605 654q2 0 16.5 17t15.5 37.5t-11 34t-39 29.5q-35 22 -57.5 3 t-22.5 -22l-601 -653q-57 -59 -86.5 -137t-29.5 -165t29.5 -164.5t86 -138.5t128 -93.5t152.5 -32.5t152.5 32.5t128.5 93.5l1011 1095q113 129 107.5 262.5t-89.5 224.5z" />
<glyph unicode="&#xf029;" d="M1797 68q-7 63 -75 109l-380 264q-40 27 -86 27q-36 0 -68.5 -16.5t-53.5 -46.5l-99 -140q-7 -12 -10 -25q-31 0 -100 34t-173 136q-136 140 -186 220.5t-50 116.5q9 4 16 11l136 104q48 39 56.5 98.5t-27.5 111.5l-273 376q-48 66 -109 73.5t-122 -44.5 q-36 -33 -79.5 -87.5t-69.5 -99.5q-26 -50 -23 -102q-11 -38 -16 -128.5t22 -220.5q77 -368 408 -692q265 -251 485.5 -336t371.5 -80q66 0 114.5 9t78.5 22q47 0 91.5 26.5t97.5 72.5t84 83q50 63 39 124zM163 1224q18 34 54.5 79.5t63.5 70.5l18 13q5 -2 16 -18l272 -376 q9 -15 0 -24l-130 -98q-2 -2 -5.5 -2t-3.5 -2q-38 33 -150 161t-134 157l-8 8v0q-4 15 7 31zM1292 -133q-108 -7 -308.5 65.5t-455.5 311.5q-277 288 -342 518.5t-43 341.5q59 -72 141.5 -166t107.5 -115q-32 -90 31.5 -213.5t233.5 -294.5q201 -191 317.5 -204.5 t141.5 11.5q47 -50 138 -141.5t115 -109.5q-33 -4 -77 -4zM1652 29q-23 -29 -66 -66.5t-78 -57.5q-10 -9 -28 -9v0q-50 27 -174 140t-151 141l-3 4v16l91 129q4 6 10 6.5t12 -2.5l380 -264q18 -12 18.5 -16.5t-11.5 -20.5z" />
<glyph unicode="&#xf02a;" d="M1797 68q-7 63 -75 109l-380 264q-40 27 -86 27q-36 0 -68.5 -16.5t-53.5 -46.5l-99 -140q-7 -12 -10 -25q-31 0 -100 34t-173 136q-136 140 -186 220.5t-50 116.5q9 4 16 11l136 104q48 39 56.5 98.5t-27.5 111.5l-273 376q-48 66 -109 73.5t-122 -44.5 q-36 -33 -79.5 -87.5t-69.5 -99.5q-26 -50 -23 -102q-11 -38 -16 -128.5t22 -220.5q77 -368 408 -692q265 -251 485.5 -336t371.5 -80q66 0 114.5 9t78.5 22q47 0 91.5 26.5t97.5 72.5t84 83q50 63 39 124zM163 1224q18 34 54.5 79.5t63.5 70.5l18 13q5 -2 16 -18l272 -376 q9 -15 0 -24l-130 -98q-2 -2 -5.5 -2t-3.5 -2q-38 33 -150 161t-134 157l-8 8v0q-4 15 7 31zM1292 -133q-108 -7 -308.5 65.5t-455.5 311.5q-277 288 -342 518.5t-43 341.5q59 -72 141.5 -166t107.5 -115q-32 -90 31.5 -213.5t233.5 -294.5q201 -191 317.5 -204.5 t141.5 11.5q47 -50 138 -141.5t115 -109.5q-33 -4 -77 -4zM1652 29q-23 -29 -66 -66.5t-78 -57.5q-10 -9 -28 -9v0q-50 27 -174 140t-151 141l-3 4v16l91 129q4 6 10 6.5t12 -2.5l380 -264q18 -12 18.5 -16.5t-11.5 -20.5zM863 1133q197 -61 339 -203.5t204 -341.5 q4 -11 13 -17.5t18 -6.5h11q14 6 19.5 17.5t1.5 25.5q-66 216 -219.5 370t-366.5 220q-14 5 -26 -1t-15.5 -20.5t2 -26t19.5 -16.5zM910 1383q296 -73 497.5 -288t258.5 -518q2 -13 11 -20t21 -7h6q14 4 22 14.5t6 25.5q-62 322 -276.5 551.5t-529.5 308.5q-14 2 -26 -4.5 t-14.5 -21t4 -26t20.5 -15.5z" />
<glyph unicode="&#xf02b;" d="M1759 1353q-34 25 -72.5 19.5t-65.5 -35.5l-950 -1221l-505 352q-36 23 -74.5 16t-63.5 -40v0q-24 -35 -16.5 -73.5t39.5 -64.5l579 -405q23 -17 51.5 -19t54.5 10q12 8 25 20l14 13q64 84 502 648l500 644q25 32 19.5 71.5t-37.5 64.5z" />
<glyph unicode="&#xf02c;" d="M1016 629l676 674q27 28 27 65t-28 64.5t-64.5 27.5t-65.5 -26l-678 -674l-675 674q-29 26 -65.5 26t-64.5 -27.5t-28 -64.5t27 -65l677 -674l-677 -676q-27 -28 -27 -65t28 -64.5t64.5 -27.5t65.5 27l675 675l678 -675q29 -27 64.5 -27t64.5 27.5t29 64.5t-27 65z" />
<glyph unicode="&#xf02d;" d="M1344 1075q-16 15 -36.5 15t-36.5 -15l-377 -376l-374 376q-16 15 -37 15t-36 -15.5t-15 -36t14 -36.5l377 -375l-377 -376q-14 -16 -14 -36.5t15 -36t36 -15.5t37 14l374 377l377 -375q16 -16 36.5 -16t35.5 16t15 36t-14 36l-376 376l376 375q14 16 14 36.5t-14 36.5z M894 1520q-380 -9 -632.5 -262t-261.5 -633q9 -379 262.5 -632t633.5 -262q380 9 632.5 262t261.5 632q-9 380 -262.5 633t-633.5 262zM894 -136q-322 9 -537 224t-224 537q9 323 224 539t537 225q323 -9 539 -224t225 -540q-9 -324 -224 -538t-540 -223z" />
<glyph unicode="&#xf02e;" d="M894 1520q-380 -9 -632.5 -262t-261.5 -633q9 -379 262.5 -632t633.5 -262q380 9 632.5 262t261.5 632q-9 380 -262.5 633t-633.5 262zM894 -136q-322 9 -537 224t-224 537q9 323 224 539t537 225q323 -9 539 -224t225 -540q-9 -324 -224 -538t-540 -223zM1398 1052 q-20 14 -42.5 12.5t-38.5 -21.5l-557 -717l-299 206q-20 13 -42.5 9.5t-37 -24.5t-10.5 -43t23 -37l341 -238q14 -11 31 -12t31 7q8 5 15 12l7 7l590 758q14 20 11 43.5t-22 37.5z" />
<glyph unicode="&#xf02f;" d="M1726 1437q-41 45 -97.5 66.5t-124.5 14.5l-466 -45q-52 -5 -103 -28.5t-84 -53.5l-788 -787q-25 -27 -41 -60t-19 -70t9.5 -72t37.5 -62l563 -562q48 -47 117 -47q39 0 75 15.5t64 43.5l789 787q32 34 55.5 81.5t28.5 92.5l47 482q7 59 -10 111t-53 93zM774 -115 q-19 -19 -44 -19q-9 0 -20 7l-565 564q-10 11 -7.5 31.5t20.5 38.5l107 108l619 -619zM1656 1247l-48 -484q-2 -19 -15.5 -46t-29.5 -45l-631 -629l-620 618l634 635q15 12 44.5 25.5t59.5 17.5l468 46h16q58 -2 92.5 -39.5t29.5 -98.5zM1373 1271q-70 -2 -117.5 -49.5 t-47.5 -119.5t47.5 -119.5t117.5 -48.5q72 1 119.5 49.5t47.5 118.5t-47.5 118.5t-119.5 50.5zM1373 1002q-43 2 -71 29.5t-28 70.5t28 71.5t72 28.5t71.5 -28.5t27.5 -71.5t-27.5 -70.5t-72.5 -29.5z" />
<glyph unicode="&#xf030;" d="M1593 1518h-1394q-84 -2 -140.5 -58.5t-58.5 -140.5v-1059q2 -84 58.5 -139.5t140.5 -57.5h398v-77l-76 -95q-21 -25 -25.5 -54t8 -54t36.5 -38.5t57 -13.5h598q33 0 58 13.5t37.5 38.5t7 54t-25.5 54l-77 95v77h398q84 2 140.5 57.5t58.5 139.5v1059q-2 84 -58.5 140.5 t-140.5 58.5zM199 1385h1394q27 0 46.5 -19.5t19.5 -46.5v-826h-1526v826q0 27 19.5 46.5t46.5 19.5zM1124 -136h-456l61 75v124h334v-124zM1593 194h-1394q-27 0 -46.5 19.5t-19.5 46.5v166h1526v-166q0 -27 -19.5 -46.5t-46.5 -19.5z" />
<glyph unicode="&#xf031;" d="M1440 109l-300 201q-34 23 -75 23q-32 0 -60.5 -14t-48.5 -39l-77 -108q-6 -7 -9 -18q-9 -3 -25 -3q-24 -2 -73 19.5t-124 94.5q-112 113 -138 171.5t-13 84.5q5 2 9 8l106 78q43 35 51 86.5t-24 98.5l-215 289q-43 55 -97 61.5t-108 -38.5q-30 -25 -65 -68t-55 -79 q-21 -41 -21 -83q-58 -310 76.5 -534.5t227.5 -300.5q203 -186 378.5 -249.5t299.5 -58.5q66 0 114.5 9t73.5 20q41 2 77 23.5t79 57t68 66.5q43 54 35 107.5t-67 94.5zM1364 -9q-16 -20 -50 -47.5t-59 -43.5q-5 -4 -12 -4q-20 2 -38 -7q-9 -5 -46 -13.5t-99 -8.5 q-104 -3 -254.5 52.5t-328.5 218.5q-233 238 -264 431.5t1 281.5q5 15 2 27q0 2 3 13q15 27 42.5 60t47.5 51l2 2q0 -2 3 -4l212 -287l-101 -75q-28 -9 -43 -38q-46 -96 -6.5 -196.5t175.5 -233.5q156 -156 294 -156q50 2 81.5 16.5t47.5 28.5t19 38l72 100l298 -201l3 -3z M915 769q-45 -25 -84.5 -62t-41.5 -94v-45q0 -14 10 -24t24 -10h240q15 0 25.5 10t10.5 24t-10.5 24t-25.5 10h-204v11q0 29 24 51t69 47q52 29 98 74t49 122q0 62 -43 98q-23 22 -57 32t-75 6q-65 -9 -96.5 -44t-32.5 -40q-8 -15 -4 -27.5t16.5 -19.5t25.5 -3.5t21 16.5 q0 3 19.5 23.5t55.5 28.5q55 1 81 -20q21 -18 19 -48q0 -45 -30.5 -76.5t-83.5 -63.5zM1384 1007q-9 4 -19.5 2t-18.5 -11l-206 -238q-7 -9 -7 -22v-34q0 -14 10 -24t24 -10h172v-102q0 -14 10 -24t24.5 -10t24 10t9.5 24v102h34q15 0 24.5 10t9.5 24.5t-9.5 24t-24.5 9.5 h-34v237q0 23 -23 32zM1339 738h-127l127 145v-145zM1807 194l-102 -35q73 108 111 231.5t38 252.5q-9 373 -260 620.5t-627 256.5q-172 0 -328 -62t-282 -180q-10 -11 -10 -24.5t9.5 -23.5t23 -10.5t24.5 9.5q116 108 260.5 165.5t303.5 57.5q346 -9 577.5 -237t239.5 -572 q0 -125 -39 -244t-113 -222l-21 126q-2 14 -13 22t-26 5.5t-22 -13.5t-6 -25l34 -202q4 -17 17 -24q7 -5 17 -5q6 0 11 2l206 68q13 5 19 16.5t1.5 25t-17 20t-26.5 1.5z" />
<glyph unicode="&#xf032;" d="M898 1523q-378 -9 -630.5 -227.5t-267.5 -548.5q-2 -195 74.5 -344.5t241.5 -269.5q1 -43 -32 -111.5t-124 -161.5l-9 -7q-15 -16 -18.5 -36.5t5.5 -40.5t24.5 -29.5t34.5 -9.5h6q209 28 374 127.5t190 124.5l15 -2q35 -7 65.5 -11.5t50.5 -4.5v0q380 9 633.5 228 t262.5 548q-9 330 -262.5 548.5t-633.5 227.5zM896 106q-12 0 -43 5l-68 13q-38 5 -65.5 -8.5t-33 -19t-92.5 -64.5t-214 -113q79 129 66 249q0 9 -3 17l-9 16q-7 12 -27 32q-5 2 -7 7q-140 99 -204.5 220.5t-62.5 284.5q11 273 226.5 454t538.5 188q324 -7 539 -187 t224 -453q-9 -272 -224 -453t-541 -188zM516 862q-55 -2 -92 -40.5t-37 -96t37 -96t93.5 -38.5t93 38.5t36.5 96t-36.5 96t-94.5 40.5zM516 658q-27 0 -46.5 19.5t-19.5 48t19.5 48.5t47.5 20t47 -20t19 -48.5t-19 -48t-48 -19.5zM880 862q-55 -2 -92 -40.5t-37 -96t37 -96 t93 -38.5t93 38.5t37 96t-37 96t-94 40.5zM880 658q-27 0 -45.5 19.5t-18.5 48t18.5 48.5t46.5 20t46.5 -20t18.5 -48.5t-18.5 -48t-47.5 -19.5zM1246 862q-58 -2 -94.5 -40.5t-36.5 -96t36.5 -96t93 -38.5t93.5 38.5t37 96t-37 96t-92 40.5zM1246 658q-29 0 -48 19.5 t-19 48t19 48.5t47 20t47.5 -20t19.5 -48.5t-19.5 -48t-46.5 -19.5z" />
<glyph unicode="&#xf033;" d="M1509 1523h-1226q-120 -2 -199.5 -58t-83.5 -141v-1394q4 -84 83.5 -140.5t199.5 -58.5h1226q120 2 199.5 58.5t83.5 140.5v1394q-4 85 -83.5 141t-199.5 58zM188 1192h1416v-997h-1416v997zM283 1391h1226q39 0 66 -20t29 -47v-66h-1416v66q2 27 29 47t66 20zM1509 -136 h-1226q-39 0 -66 19.5t-29 46.5v199h1416v-199q-2 -27 -29 -46.5t-66 -19.5zM991 30h-190q-20 0 -33.5 -9.5t-13.5 -24t13.5 -24.5t33.5 -10h190q20 0 33.5 10t13.5 24.5t-13.5 24t-33.5 9.5z" />
<glyph unicode="&#xf034;" d="M1778 649q0 46 -200 270t-680 255q-439 -29 -653.5 -251t-221.5 -267l-18 -32l17 -33q7 -50 222 -285.5t654 -267.5q482 34 683.5 277.5t196.5 281.5l10 27zM1278 962q46 -91 46 -197q-5 -186 -125 -309t-301 -128q-181 5 -300.5 128t-124.5 307q0 97 38 181 q79 43 175.5 69t211 26t209 -20.5t171.5 -56.5zM898 172q-326 18 -510 183.5t-232 266.5q29 43 95 118t172 151q-16 -61 -16 -128q5 -213 144 -355.5t347 -147.5q208 5 346.5 147.5t144.5 355.5q0 79 -22 151q122 -81 189.5 -164t88.5 -128q-34 -95 -208.5 -263.5 t-538.5 -186.5z" />
<glyph unicode="&#xf035;" d="M914 -7v66q251 4 437.5 65t194.5 184v963q-10 127 -209 191.5t-459 64.5q-253 0 -454.5 -62t-212.5 -191v-955q9 -124 195.5 -189t437.5 -71v-66q-47 -13 -75.5 -47t-30.5 -82q2 -58 41.5 -94.5t99.5 -36.5t99.5 36.5t41.5 94.5q0 48 -29.5 82t-76.5 47zM1407 907 q-56 -41 -190.5 -74.5t-337.5 -33.5t-337.5 32.5t-190.5 75.5v254q93 -48 234 -73t294 -25t298 25t230 73v-254zM351 828q93 -47 234 -72t294 -25t298 25t228 72v-255q-54 -41 -189 -74t-337.5 -33t-338 33t-189.5 74v255zM878 1394q249 -3 385.5 -48t143.5 -75v-31 q-54 -43 -189.5 -75t-338.5 -32t-337.5 32t-190.5 73v34q9 33 144.5 76t382.5 46zM351 319v177q93 -48 234 -72t294 -24t298 24t228 72v-188q0 -27 -130 -68t-381 -48q-5 3 -16 3t-16 -3q-240 7 -372 51t-139 76zM878 -202q-29 0 -49.5 19.5t-20.5 46.5t20.5 46.5t49.5 19.5 t49.5 -19t21.5 -47.5t-19.5 -47t-51.5 -18.5zM668 -102h-632q-14 0 -25 -10t-11 -24.5t11 -23t25 -8.5h632q15 0 24.5 8.5t9.5 23t-9.5 24.5t-24.5 10zM1758 -102h-633q-14 0 -24.5 -10t-10.5 -24.5t10.5 -23t24.5 -8.5h633q14 0 24 8.5t10 23t-10 24.5t-24 10z" />
<glyph unicode="&#xf036;" d="M1228 1529q-173 5 -361 -33.5t-204 -185.5v-554q-52 2 -99 2q-161 4 -340 -28.5t-220 -156.5h-4v-620q9 -114 180 -168t384 -54q207 -2 380.5 47.5t184.5 165.5v160q50 -4 99 -4q207 -1 380 48t184 166v998q-16 145 -204 183.5t-360 33.5zM996 319q-46 -30 -155.5 -54.5 t-276 -24.5t-276 24.5t-155.5 54.5v125q78 -35 192 -53t238.5 -18t239.5 18t193 53v-125zM133 244q78 -36 192 -54t238.5 -18t239.5 18t193 54v-126q-46 -30 -155.5 -54.5t-276 -24.5t-276 24.5t-155.5 54.5v126zM1129 543q50 -4 99 -4q125 0 239 19t192 55v-126 q-46 -30 -155.5 -54t-275.5 -26q-51 0 -99 2v134zM1659 1090q-46 -31 -155.5 -55t-276 -24t-275 24t-155.5 55v127q77 -36 192 -55t239.5 -19t238.5 19t192 55v-127zM797 1014q77 -36 192 -53.5t239.5 -17.5t238.5 17.5t192 53.5v-125q-46 -31 -155.5 -55t-276 -24t-275 24 t-155.5 55v125zM1228 1407q202 -4 311.5 -38t121.5 -57h-2v-20q-46 -30 -155.5 -54.5t-276 -24.5t-276 24.5t-155.5 54.5v20q14 23 122.5 57t309.5 38zM797 814q77 -36 192 -54t239.5 -18t238.5 18t192 54v-126q-46 -30 -155.5 -54.5t-275.5 -26.5q-60 0 -117 4 q-39 63 -124.5 94.5t-189.5 41.5v67zM564 636q199 -3 307.5 -35.5t124.5 -57.5v-23q-46 -31 -155.5 -55t-276 -24t-276 24t-155.5 55v21q16 23 124.5 57.5t306.5 37.5zM564 -134q-197 3 -306 35.5t-125 57.5v84q78 -36 192 -54.5t239.5 -18.5t239.5 18.5t192 54.5v-93 q-19 -25 -128.5 -54t-303.5 -30zM1228 235q-51 0 -99 3v104q48 -3 99 -3q125 0 239 18.5t192 54.5v-93q-19 -25 -128.5 -53.5t-302.5 -30.5z" />
<glyph unicode="&#xf037;" d="M892 1516q-379 -9 -631 -260.5t-261 -631.5q9 -380 261 -632t631 -261q380 9 632 261t261 632q-9 380 -261 631.5t-632 260.5zM892 -136q-322 9 -536 223t-223 537q9 322 223 536t536 223q323 -9 537 -223t223 -536q-9 -323 -223 -537t-537 -223zM925 787v498q0 14 -9 23 t-23.5 9t-23.5 -9t-9 -23v-498q-48 -11 -83 -46t-46 -83h-301q-14 0 -23 -10t-9 -24.5t9 -23.5t23 -9h301q13 -57 56.5 -93.5t104.5 -38.5q70 2 116.5 48.5t48.5 116.5q-2 61 -37.5 105.5t-94.5 57.5zM892 525q-41 2 -68.5 29.5t-27.5 69t27.5 69t69.5 27.5t69 -26.5 t27 -69.5t-27 -70t-70 -29z" />
<glyph unicode="&#xf038;" d="M1591 1521h-1161q-84 -1 -139.5 -57.5t-57.5 -141.5v-66h-34q-84 -2 -140.5 -58t-58.5 -141v-1127q2 -84 58.5 -140.5t140.5 -58.5h1127q84 2 140.5 58.5t58.5 140.5v133h82q77 2 129 58t54 141v1060q-2 85 -58 141.5t-141 57.5zM1392 -70q0 -27 -19.5 -46.5t-46.5 -19.5 h-1127q-27 0 -46.5 19.5t-19.5 46.5v1127q0 27 19.5 47t46.5 20h1127q27 0 46.5 -20t19.5 -47v-1127zM1658 262q0 -27 -14.5 -47t-36.5 -20h-82v862q-2 85 -58.5 141t-140.5 58h-962v66q0 27 19.5 47t46.5 20h1161q27 0 46 -20t19 -47v-1060h2zM1027 625q70 2 117.5 49.5 t47.5 117.5t-47.5 116.5t-117.5 46.5t-116.5 -46.5t-46.5 -116.5t46.5 -117.5t116.5 -49.5zM1027 891q43 -2 70.5 -29t27.5 -70t-27.5 -70.5t-69.5 -27.5t-70 27.5t-28 70.5t28 70t69 29zM1098 342q-30 27 -70.5 27t-72.5 -25l-124 -104l-231 230q-30 30 -69.5 31t-71.5 -26 l-282 -255q-10 -10 -11 -22.5t9 -23.5t22.5 -12t22.5 8l284 255q10 9 24.5 9t25.5 -11l417 -418q9 -9 22.5 -9t24.5 9q20 25 0 49l-140 140l120 100q13 9 30 9t27 -11l216 -188q10 -7 21 -7q16 0 25 10.5t8 23t-11 23.5z" />
<glyph unicode="&#xf039;" d="M894 1520q-380 -9 -632.5 -262t-261.5 -633q9 -379 261.5 -632t632.5 -262q380 9 632 262t261 632q-9 380 -261 633t-632 262zM894 -136q-322 9 -537 224t-224 537q9 323 224 537t537 223q323 -9 537 -223t223 -537q-9 -322 -223 -537t-537 -224zM1201 1081l-27 7h-2 l-120 28q-14 4 -27 -4t-18 -24q-2 -4 -2 -9v0q-1 -32 -32.5 -53.5t-78 -21.5t-79 21.5t-34.5 53.5v9q-3 16 -16.5 24t-29.5 4l-120 -28h-2l-27 -7q-30 3 -102 -83t-95 -382q0 -16 10.5 -27.5t26.5 -9.5h110v-394q2 -33 23.5 -54.5t53.5 -21.5h561q32 0 53.5 21.5t21.5 54.5 v394h111q16 0 27 10.5t11 26.5q-22 296 -94.5 383t-102.5 82zM1249 649v114q0 17 -10.5 27.5t-27 10.5t-28 -10.5t-11.5 -27.5v-577h-559v577q0 17 -11.5 27.5t-28 10.5t-27 -10.5t-10.5 -27.5v-114h-70q23 238 76 301.5t58 54.5l34 11l81 20q20 -47 67.5 -75.5t112 -28.5 t112 28.5t65.5 75.5l82 -20l27 -7l5 -4q6 9 58.5 -54.5t76.5 -301.5h-72z" />
<glyph unicode="&#xf03a;" d="M683 523h220v-222q0 -18 12.5 -30.5t31.5 -12.5t31.5 12.5t12.5 30.5v222h222q18 0 30.5 12.5t12.5 30.5t-12.5 31.5t-30.5 13.5h-222v220q0 20 -12.5 32.5t-31.5 12.5t-31.5 -12.5t-12.5 -32.5v-220h-220q-20 0 -32.5 -12.5t-12.5 -32t12.5 -31.5t32.5 -12zM1478 1520 h-729q-41 0 -85 -18t-74 -47l-305 -305q-31 -30 -49.5 -74t-18.5 -85v-1125q2 -58 40.5 -95.5t95.5 -39.5h1125q56 2 92 39.5t37 95.5v1523q-1 55 -37 92t-92 39zM679 1362v-271q0 -14 -7 -25t-22 -11h-270zM1477 674v-810h-1128v1127h301q44 2 69.5 29.5t25.5 70.5v296h732 v-713z" />
<glyph unicode="&#xf03b;" d="M1762 30l-334 334q-71 70 -111.5 107.5t-58.5 49.5q41 74 63.5 156.5t22.5 171.5q-7 285 -197 473.5t-475 195.5q-285 -7 -475 -195.5t-197 -473.5q7 -283 197 -472t475 -196q95 0 181 24t159 69q-14 0 36 -53t117 -119l335 -331q39 -38 95.5 -38t96.5 38l71 70 q40 43 39 95.5t-40 93.5zM134 849q6 228 158 379.5t380 156.5q229 -5 380.5 -156.5t157.5 -379.5q-6 -227 -157.5 -377.5t-380.5 -156.5q-228 6 -380 157.5t-158 376.5zM1595 -120l-7 -7l-7 -7l-328 331l75 72l337 -325z" />
<glyph unicode="&#xf03c;" d="M1668 733h-1539q-56 -2 -91.5 -38t-35.5 -91.5t35.5 -90.5t91.5 -36h1541q54 1 90 37t36 90t-36 90.5t-92 38.5zM900 1036q104 3 173 72t70 173q-1 104 -70 173t-173 73q-104 -2 -174 -72t-72 -174q2 -104 72 -173.5t174 -71.5zM900 220q-104 -1 -174 -70t-72 -173 q2 -104 72 -173t174 -73q104 2 173 72t70 174q-1 104 -70 173t-173 70z" />
<glyph unicode="&#xf03d;" d="M129 498h640v-640q2 -53 36.5 -89t90.5 -36t91.5 36t37.5 89v640h640q54 2 89.5 38t35.5 91.5t-35.5 90.5t-89.5 36h-642v640q-2 56 -37.5 91.5t-90.5 35.5t-90.5 -35.5t-37.5 -91.5v-640h-638q-56 -1 -91.5 -37t-35.5 -90t35.5 -90.5t91.5 -38.5z" />
<glyph unicode="&#xf03e;" d="M530 900q2 -6 2 -11v11h77l258 -430v1v-1l58 -92l338 513h335l63 -6q47 -3 99 -19q-84 290 -316.5 471t-547.5 186q-305 -5 -533.5 -176t-319.5 -447h487zM1582 495q-98 61 -162.5 48t-102.5 -72l-84 -129l-328 -516l-523 941h-371q-11 -66 -11 -140q9 -380 262.5 -633.5 t633.5 -262.5q263 4 471 134t323 348q5 49 -13 136.5t-95 145.5z" />
<glyph unicode="&#xf040;" d="M1091 176q-34 -47 -88.5 -69.5t-128.5 -22.5q-87 0 -163.5 31.5t-115.5 79t-49 99.5t-10 154v297q0 144 20 210q-24 2 -231 -61t-325 -206q-2 -29 -2 -61q9 -380 262.5 -633.5t633.5 -262.5q102 0 197 22v423zM894 1523q-256 -3 -462 -128.5t-324 -337.5q50 22 150 42.5 t267 27.5q177 7 273 4.5t98 -4.5h-2h32q153 2 254 -45.5t132 -112.5q27 -53 30 -145h-245q-27 77 -68.5 122t-91.5 47q-80 -4 -135 -113t-57 -273q2 -164 57 -272.5t135 -112.5q59 2 106 62t70 162h-84v133h315v-726q202 118 322.5 320.5t123.5 453.5q-9 380 -262.5 633.5 t-633.5 262.5z" />
<glyph unicode="&#xf041;" d="M629 1310q63 -63 78 -110.5t13 -49.5v-431h253v322q4 32 44 54.5t103 21.5t103 -22.5t44 -53.5v-806q-2 -7 2 -27l2 -29q1 -82 73.5 -121.5t184.5 -39.5q12 0 25 2q113 120 174.5 275t63.5 332q-9 380 -262.5 633.5t-633.5 262.5q-118 0 -228.5 -29.5t-206.5 -83.5 q46 -19 92.5 -46t75.5 -54zM1068 -104q-77 82 -88 169t-7 100v326h-242v-326h-206v842l-2 5q-12 76 -84.5 125t-176.5 51q-36 0 -70 -7q-92 -115 -142 -255.5t-50 -298.5q9 -380 262.5 -633.5t633.5 -262.5q179 2 335 65q-46 21 -91 47t-72 53z" />
<glyph unicode="&#xf042;" d="M900 1523q-463 -5 -681.5 -94t-216.5 -207v-1181q16 -156 286 -236.5t609.5 -80.5t610 73.5t286.5 229.5v1195q-14 156 -279.5 228.5t-614.5 72.5zM1645 771q-75 -63 -270.5 -106t-474.5 -45q-283 2 -479.5 46.5t-269.5 107.5v326q116 -73 319.5 -110.5t428.5 -37.5 t427.5 36.5t318.5 108.5v-326zM151 692q122 -68 324.5 -103t423.5 -35t422 34t324 100v-317q-75 -61 -270.5 -105t-474.5 -46q-283 2 -479.5 48t-269.5 108v316zM900 1391q364 -6 553.5 -63t191.5 -106v-34q-55 -66 -252.5 -117t-492.5 -53q-303 3 -502 55t-247 122v27 q2 49 193.5 106t555.5 63zM898 -143q-346 5 -545 67.5t-202 116.5v251q122 -68 324.5 -103t423.5 -35t422 34t324 102v-263q-2 -49 -192.5 -107t-554.5 -63z" />
<glyph unicode="&#xf043;" d="M550 1324q66 -107 88.5 -221t20.5 -123l54 -629q27 131 54 280t61 349v0q5 20 33 32.5t68 12.5t69 -12.5t34 -32.5l13 -91q9 -74 23 -210l43 -351q22 333 72 652h536q-108 244 -325.5 392t-499.5 151q-116 0 -224.5 -28.5t-203.5 -80.5q38 -25 84 -90zM1419 862 l-100 -797h-323q-46 211 -78 480q-15 -119 -74 -480h-321l-116 915q2 7 -61 56.5t-219 53.5q-62 -101 -95.5 -218.5t-33.5 -244.5q9 -380 262.5 -633.5t633.5 -262.5q380 9 633.5 262.5t262.5 633.5q0 122 -32 235h-339z" />
<glyph unicode="&#xf044;" d="M894 563q-70 -2 -117.5 -49.5t-48.5 -117.5q0 -41 17.5 -75t48.5 -59v-167q2 -43 29.5 -71t70.5 -28t71 28t30 71v167q32 25 50 59t18 75q-2 70 -49.5 117.5t-119.5 49.5zM944 310l-16 -11v-204q0 -14 -9.5 -24t-24 -10t-23.5 10t-9 24v204l-18 11q-23 14 -36.5 36.5 t-13.5 49.5q2 41 29.5 69t70.5 28t71 -28t30 -69q1 -27 -12.5 -49.5t-38.5 -36.5zM1489 883h-34v165q-7 214 -163 343t-383 132q-228 -3 -384 -132t-163 -343v-165h-34q-86 -1 -144.5 -59.5t-59.5 -144.5v-747q1 -86 59.5 -144.5t144.5 -59.5h1161q86 1 144.5 59.5 t59.5 144.5v747q-1 86 -59.5 144.5t-144.5 59.5zM498 1048q6 158 122.5 254t288.5 99q172 -3 288.5 -99t121.5 -254v-165h-821v165zM1557 -68q0 -29 -19.5 -48.5t-48.5 -19.5h-1161q-29 0 -48.5 19.5t-19.5 48.5v747q0 29 19.5 48.5t48.5 19.5h1161q29 0 48.5 -19.5 t19.5 -48.5v-747z" />
<glyph unicode="&#xf045;" d="M1796 1127q-2 86 -58.5 142.5t-140.5 58.5h-334l-43 75q-21 45 -56 83.5t-100 40.5h-333q-68 -4 -104.5 -46t-56.5 -87l-38 -66h-333q-84 -2 -140.5 -58.5t-58.5 -142.5v-432q0 -45 18 -86t48 -75v-604q2 -84 58.5 -140.5t140.5 -58.5h1265q85 2 141 58.5t58 140.5v604 q31 34 49 75t18 86v432zM629 1364q21 45 43.5 70.5t58.5 25.5h333q34 0 55 -23t42 -66l27 -43h-579zM133 1127q0 29 19.5 47.5t46.5 18.5h1398q27 0 46.5 -18.5t19.5 -47.5v-432q-2 -34 -24.5 -63.5t-54.5 -38.5l-487 -129v32q-2 42 -29 69.5t-70 29.5h-201 q-41 -2 -68.5 -29.5t-29.5 -69.5v-32l-488 127v2q-32 9 -54.5 38.5t-23.5 63.5v432zM1030 496v-166q0 -18 -11.5 -34t-27.5 -22q-93 -23 -186 0q-17 6 -28.5 22t-11.5 34v166q0 15 9 24t23 9h199q15 0 24.5 -9t9.5 -24zM1530 -136h-1265q-27 0 -46.5 19.5t-19.5 46.5v597 l500 -131v-66q2 -41 27 -75.5t62 -44.5q56 -15 110.5 -15t108.5 15q40 10 65 44.5t25 75.5v66l500 131v-597q0 -27 -20 -46.5t-47 -19.5z" />
<glyph unicode="&#xf046;" d="M1586 823q-48 0 -88 -20q-27 54 -77 86t-116.5 32t-117.5 -36q-29 33 -69.5 51.5t-88.5 18.5q-36 0 -72 -12v374q-2 86 -60 141.5t-146 57.5q-88 -2 -146 -57.5t-60 -141.5v-808l-199 174q-66 54 -147 54.5t-140 -51.5q-55 -55 -57 -131.5t50 -142.5l316 -385 q39 -49 95.5 -105t104.5 -94q54 -41 134.5 -68t152.5 -29h661q117 4 195.5 87t82.5 211v595q-2 84 -61 140.5t-147 58.5zM1654 326v-32v-265q-2 -70 -41 -116.5t-97 -48.5h-218v0h-443q-48 2 -105.5 20.5t-93.5 45.5q-43 34 -93 84.5t-86 93.5l-316 387q-19 25 -19 53.5 t16 44.5t43 13.5t50 -22.5l294 -254v-4q0 -27 19 -46.5t48.5 -19.5t49 19.5t19.5 46.5v991q0 29 19 47.5t49.5 18.5t49 -18.5t18.5 -47.5v-760q0 -27 21 -46.5t50.5 -19.5t49 19.5t19.5 46.5v199q0 27 20.5 47t49.5 20t49.5 -20t20.5 -47v-231q0 -27 20.5 -46.5t50 -19.5 t50 19.5t20.5 46.5v197q0 29 20 47.5t50.5 18.5t50 -18.5t19.5 -47.5v-231q0 -27 19 -46.5t48.5 -19.5t49 19.5t19.5 46.5v133q0 26 20 46t49.5 20t50 -20t20.5 -46v-298z" />
<glyph unicode="&#xf047;" d="M1593 1190h-233l-79 106q-30 44 -79.5 83.5t-140.5 41.5h-464q-92 -2 -140 -41.5t-79 -83.5l-79 -106h-100q-84 -2 -140.5 -58.5t-58.5 -140.5v-962q2 -86 58.5 -141.5t140.5 -57.5h1394q84 2 140.5 57.5t58.5 141.5v962q-2 84 -58.5 140.5t-140.5 58.5zM1659 29 q0 -29 -19.5 -48t-46.5 -19h-1394q-27 0 -46.5 19t-19.5 48v962q0 27 19.5 46.5t46.5 19.5h167l118 160q27 37 49.5 54t63.5 17h464q41 0 63.5 -16t49.5 -55l120 -160h299q27 0 46.5 -19.5t19.5 -46.5v-962zM830 1057q-212 -5 -352.5 -145.5t-145.5 -352.5 q5 -211 145.5 -352t352.5 -146q211 5 351.5 146t146.5 352q-6 212 -146.5 352.5t-351.5 145.5zM830 127q-183 6 -305 127.5t-127 304.5q5 183 127 305t305 127q182 -5 304 -127t128 -305q-6 -183 -128 -304.5t-304 -127.5zM1559 957h-133q-14 0 -23 -9t-9 -23.5t9 -24 t23 -9.5h133q14 0 24 9.5t10 24t-10 23.5t-24 9z" />
<glyph unicode="&#xf048;" d="M896 1523q-380 -9 -633.5 -262.5t-262.5 -633.5q9 -380 262.5 -633.5t633.5 -262.5q380 9 633.5 262.5t262.5 633.5q-9 380 -262.5 633.5t-633.5 262.5zM896 -136q-324 9 -539 224t-224 539q9 325 224 540t539 224q324 -9 539 -224t224 -540q-9 -324 -224 -539t-539 -224 zM1104 627q-2 88 -61 147t-147 61q-88 -2 -147 -61t-61 -147q2 -88 61 -147t147 -61q88 2 147 61t61 147zM896 486q-59 1 -99.5 41.5t-40.5 99.5t40.5 99.5t99.5 40.5t99.5 -40.5t40.5 -99.5t-40.5 -99.5t-99.5 -41.5zM710 1193q12 6 18.5 17.5t2 25t-16.5 19t-26 1.5 q-163 -55 -278.5 -180.5t-158.5 -292.5q-2 -14 4.5 -25t20.5 -14q5 -2 7 -2q25 2 32 25q38 151 142 263.5t253 162.5zM1514 500q-14 2 -25.5 -4.5t-15.5 -20.5q-43 -163 -160.5 -277t-282.5 -153q-14 -4 -20 -14.5t-3.5 -24t11.5 -20t20 -6.5h7q184 43 314 169.5t179 309.5 q1 14 -4 25.5t-20 15.5zM792 1057q-5 13 -17 19t-24 1q-120 -39 -203.5 -130.5t-113.5 -215.5q-2 -14 4 -25t21 -14h7q25 2 32 25q25 106 97 184.5t176 112.5q14 6 19.5 17.5t1.5 25.5zM1355 513q3 14 -3 24.5t-20.5 14.5t-25 -2.5t-14.5 -20.5q-30 -113 -110 -192 t-193 -106q-14 -3 -20.5 -15t-3.5 -24.5t12 -19.5t19 -7q6 0 9 2q131 30 223.5 121.5t126.5 224.5z" />
<glyph unicode="&#xf049;" d="M1156 751q-2 98 -68.5 164.5t-164.5 68.5q-99 -2 -166 -68.5t-69 -164.5q2 -99 69 -165t166 -68q98 2 164.5 68t68.5 165zM923 591q-68 2 -113 47t-45 113t45 113t113 45t112 -45t44 -113t-44 -113t-112 -47zM1500 572q-160 -339 -345.5 -568.5t-211.5 -249.5 q-20 -21 -49 -21v0q-28 2 -48 21q-27 20 -210.5 249.5t-341.5 566.5q-65 136 -65 285q8 281 196 468.5t471 194.5q283 -7 472 -194.5t196 -470.5q-1 -151 -64 -281zM896 1382q-226 -6 -376.5 -155.5t-155.5 -373.5q0 -116 54 -228q112 -245 253 -439.5t223 -284.5 q84 90 226.5 284.5t255.5 441.5q52 108 52 226q-5 224 -155.5 373.5t-376.5 155.5z" />
<glyph unicode="&#xf04a;" d="M1193 1396q-25 13 -52.5 10t-54.5 -21l-529 -362q-16 -11 -32 -18t-21 -9h-302q-86 -1 -143 -57.5t-59 -142.5v-337q2 -86 59 -143.5t143 -59.5h302q7 -2 22 -9t31 -18l529 -360q30 -21 64 -23q24 0 43 11q26 14 39 39t13 57v1346q0 32 -13 57.5t-39 39.5zM1111 14 l-478 326q-24 18 -60 35v252q0 15 -9.5 24.5t-24 9.5t-24.5 -9.5t-10 -24.5v-236h-303q-28 0 -47 19.5t-19 48.5v337q0 28 19 47t47 19h303v-32q0 -15 10 -24.5t24.5 -9.5t24 9.5t9.5 24.5v50q18 7 33 16l27 16l478 328v-1226zM1419 862q-12 7 -24.5 2.5t-20 -17t-3 -25 t17.5 -19.5q7 0 43.5 -40.5t42.5 -138.5q-6 -99 -42.5 -139.5t-43.5 -40.5q-13 -5 -17.5 -18.5t2.5 -25.5q11 -17 31 -18q5 0 14 3q11 0 64 54t60 185q-7 130 -60 184t-64 54zM1573 1057q-12 7 -24.5 5.5t-20.5 -13t-6.5 -25t14.5 -22.5q16 -4 96.5 -98t91.5 -280 q-11 -187 -91.5 -281t-96.5 -97q-13 -9 -14.5 -22t7.5 -26t25 -13q10 0 19 5q20 4 112.5 112t104.5 322q-11 213 -104 321.5t-113 111.5z" />
<glyph unicode="&#xf04b;" d="M1668 1512q-34 15 -71.5 11.5t-75.5 -23.5l-715 -416q-21 -12 -42.5 -20.5t-30.5 -9.5h-407q-116 -2 -193 -68.5t-81 -164.5v-387q4 -99 81 -164.5t193 -67.5h407q9 -1 30.5 -9t42.5 -21l715 -416q45 -25 88 -25q32 0 59 13q34 14 53 42.5t19 66.5v1548q0 38 -19 66.5 t-53 44.5zM1557 -77l-648 376q-15 9 -35.5 19t-45.5 19v290q0 16 -12.5 28t-32.5 12t-33 -12t-13 -28v-270h-411q-39 1 -64 22.5t-27 54.5v387q2 32 27 54.5t64 22.5h411v-38q0 -16 12.5 -27.5t32 -11.5t33 11.5t13.5 27.5v58q25 8 45.5 18t35.5 19l648 378v-1410z" />
<glyph unicode="&#xf04c;" d="M902 561q-14 0 -24 -10t-10 -24v-565q-2 -80 -51 -122t-113.5 -42t-114 42t-53.5 122v68q0 15 -8.5 24t-23 9t-24.5 -9t-10 -24v-68q4 -113 74.5 -172t158.5 -59t158.5 59t74.5 172v567q0 14 -10 23t-24 9zM1796 521q-14 312 -233.5 553t-626.5 266v149q0 14 -10 24 t-24 10t-24 -10t-10 -24v-149q-405 -25 -624.5 -266t-235.5 -553q-6 -23 6 -43.5t33 -29.5q27 -11 51 0t35 38q0 7 44 58t150 58q105 -7 149 -57t44 -59q18 -36 58 -42q18 -1 35 7t26 24q1 11 65 65.5t198 61.5q134 -7 198 -61.5t64 -65.5q9 -16 26 -25t35.5 -7.5t34 12.5 t22.5 29q0 11 45 61t148 57q106 -7 150 -57t44 -61q9 -20 26 -30.5t37 -10.5q12 0 23 5q23 9 35 29.5t6 43.5zM1477 735q-98 -2 -163.5 -38t-99.5 -79q-45 43 -122 79t-190 38q-113 -2 -190 -38t-122 -79q-34 43 -98.5 79t-162.5 38q-49 0 -87.5 -10t-70.5 -24 q82 251 286.5 379t444.5 128t444.5 -128t286.5 -379q-63 32 -156 34z" />
<glyph unicode="&#xf04d;" d="M376 1113q6 0 11 2q14 3 19.5 15t2.5 26l-67 217q-27 91 -79 122.5t-87 27.5h-142q-14 0 -24 -10t-10 -24q2 -30 34 -32h143q9 3 44 -13t57 -87l68 -221q7 -21 30 -23zM1770 1045q-14 23 -39 34.5t-55 11.5h-1206q-61 0 -97 -44q-16 -22 -20.5 -49t2.5 -54l132 -469 q4 -16 15 -32q-27 -24 -47 -60.5t-20 -86.5q0 -56 43 -109.5t126 -57.5h971v133h-971q-18 1 -26 15.5t-8 18.5q2 30 19.5 46t30.5 22q9 -2 16 -2h805q50 2 92 30.5t62 73.5l186 473q22 59 -11 106zM1469 514q-3 -7 -12 -13t-16 -6h-805q-5 0 -11.5 5t-8.5 9l-125 450h1154z M604 63q-72 -2 -119.5 -48.5t-47.5 -116.5t47.5 -117.5t119.5 -47.5t118.5 47.5t46.5 117.5t-47.5 116.5t-117.5 48.5zM604 -202q-43 1 -71 29t-28 70t28 70t71 28t70.5 -28t27.5 -70t-27.5 -70t-70.5 -29zM1407 63q-70 -2 -117.5 -48.5t-47.5 -116.5t47.5 -117.5t118 -47.5 t118 47.5t47.5 117.5t-47.5 116.5t-118.5 48.5zM1407 -202q-41 1 -70 29t-29 70t29 70t71 28t69.5 -28t27.5 -70t-27.5 -70t-70.5 -29z" />
<glyph unicode="&#xf04e;" d="M1511 686q-162 341 -349 573t-214 252q-20 19 -50 19v0q-29 0 -49 -19q-26 -22 -211 -253t-344 -570q-66 -138 -66 -288q7 -284 197.5 -473t475.5 -196q285 7 476 196t198 474q-2 153 -64 285zM901 -133q-227 6 -379.5 157.5t-157.5 376.5q0 119 54 230 q112 247 254.5 443.5t227.5 287.5q84 -91 228 -287.5t257 -445.5q52 -108 52 -229q-5 -226 -156.5 -376.5t-379.5 -156.5z" />
<glyph unicode="&#xf050;" d="M894 1520q-380 -9 -632.5 -262t-261.5 -633q9 -379 261.5 -632t632.5 -262q380 9 632.5 262t261.5 632q-9 380 -261.5 633t-632.5 262zM1498 161q-59 38 -170 77q41 163 45 355h283q-6 -122 -47 -231t-111 -201zM133 593h283q5 -192 45 -355q-112 -39 -171 -77 q-70 92 -111 201t-46 231zM289 1086q59 -38 172 -77q-40 -160 -45 -351h-283q5 122 45.5 230t110.5 198zM928 943q199 7 335 46q40 -152 43 -330h-378v284zM928 1009v378q76 -4 149 -21q52 -54 95 -133t73 -179q-129 -38 -317 -45zM862 1387v-378q-190 7 -319 45 q30 100 73 179t95 133q74 17 151 21zM862 943v-284h-380q5 178 43 330q136 -39 337 -46zM482 593h380v-288q-201 -8 -335 -47q-40 154 -45 335zM862 238v-374q-79 5 -149 21q-52 54 -95 133t-73 177q127 36 317 43zM928 -136v374q188 -5 316 -44q-31 -99 -73 -177t-94 -132 q-73 -16 -149 -21zM928 305v288h378q-3 -181 -43 -335q-68 20 -152 32.5t-183 14.5zM1373 659q-4 190 -45 350q113 41 172 79q70 -92 110 -200t46 -229h-283zM1457 1138q-54 -31 -147 -65q-43 147 -115 253q153 -66 262 -188zM593 1326q-70 -106 -115 -253q-93 34 -146 67 q111 118 261 186zM333 109q54 33 145 65q45 -144 115 -247q-149 66 -260 182zM1195 -73q70 103 115 247q91 -34 145 -65q-54 -57 -120 -104.5t-140 -77.5z" />
<glyph unicode="&#xf051;" d="M937 1179l429 -428l-94 -93l-317 317v-864q0 -29 -18.5 -47.5t-46.5 -18.5t-47.5 18.5t-19.5 47.5v864l-316 -317l-93 93l428 428q22 20 48 20t47 -20zM898 1529q381 -9 635.5 -263.5t263.5 -634.5q-9 -380 -263.5 -634.5t-635.5 -265.5q-382 9 -635.5 263.5 t-262.5 636.5q9 381 263.5 635t634.5 263zM898 -134q326 9 541 224t224 541q-9 326 -224 541t-541 224q-325 -9 -540.5 -225t-224.5 -540q9 -325 224.5 -540.5t540.5 -224.5z" />
<glyph unicode="&#xf052;" d="M937 65l429 428l-94 93l-317 -315v862q0 28 -18.5 47t-46.5 19t-47.5 -19t-19.5 -47v-862l-316 315l-93 -93l428 -428q22 -20 48 -20t47 20zM898 1529q381 -9 635.5 -263.5t263.5 -634.5q-9 -380 -263.5 -634.5t-635.5 -265.5q-382 9 -635.5 263.5t-262.5 636.5 q9 381 263.5 635t634.5 263zM898 -134q326 9 541 224t224 541q-9 326 -224 541t-541 224q-325 -9 -540.5 -225t-224.5 -540q9 -325 224.5 -540.5t540.5 -224.5z" />
<glyph unicode="&#xf053;" d="M1466 668l-430 430l-93 -94l317 -316h-864q-27 0 -46.5 -19.5t-19.5 -46.5t18.5 -46.5t47.5 -19.5h864l-317 -318l93 -93l430 430q20 20 20 47t-20 46zM898 1529q-380 -9 -634.5 -263.5t-263.5 -634.5q9 -380 263.5 -634.5t634.5 -265.5q381 9 635.5 263.5t263.5 636.5 q-9 381 -263.5 635t-635.5 263zM898 -134q-325 9 -540.5 224t-224.5 541q9 326 224.5 541t540.5 224q324 -9 540 -225t225 -540q-9 -325 -224 -540.5t-541 -224.5z" />
<glyph unicode="&#xf054;" d="M332 668l428 429l93 -93l-315 -316h863q27 0 47 -19.5t20 -47.5t-20 -46.5t-47 -18.5h-863l315 -318l-93 -93l-428 430q-18 20 -18 47t18 46zM898 1529q381 -9 635.5 -263.5t263.5 -634.5q-9 -380 -263.5 -634.5t-635.5 -265.5q-382 9 -635.5 263.5t-262.5 636.5 q9 381 263.5 635t634.5 263zM898 -134q326 9 541 224t224 541q-9 326 -224 541t-541 224q-325 -9 -540.5 -225t-224.5 -540q9 -325 224.5 -540.5t540.5 -224.5z" />
<glyph unicode="&#xf055;" d="M1251 194h-606v132h446l-609 611q-20 20 -20 47t20 46.5t46 19.5t47 -20l610 -611v448h132v-605q0 -29 -19 -48.5t-47 -19.5zM898 1529q381 -9 635.5 -263.5t263.5 -634.5q-9 -380 -263.5 -634.5t-635.5 -265.5q-382 9 -635.5 263.5t-262.5 636.5q9 381 263.5 635 t634.5 263zM898 -134q326 9 541 224t224 541q-9 326 -224 541t-541 224q-325 -9 -540.5 -225t-224.5 -540q9 -325 224.5 -540.5t540.5 -224.5z" />
<glyph unicode="&#xf056;" d="M529 194h605v132h-448l611 611q20 20 20 46t-19.5 46.5t-46.5 20.5t-47 -20l-611 -611v448h-131v-607q0 -27 19 -46.5t48 -19.5zM898 1529q381 -9 635.5 -263.5t263.5 -634.5q-9 -380 -263.5 -634.5t-635.5 -265.5q-382 9 -635.5 263.5t-262.5 636.5q9 381 263.5 635 t634.5 263zM898 -134q326 9 541 224t224 541q-9 326 -224 541t-541 224q-325 -9 -540.5 -225t-224.5 -540q9 -325 224.5 -540.5t540.5 -224.5z" />
<glyph unicode="&#xf057;" d="M892 1516q-379 -9 -631 -260.5t-261 -631.5q9 -380 261 -632t631 -261q380 9 632 261t261 632q-9 380 -261 631.5t-632 260.5zM1652 624v-4l-150 -63l-138 138l-332 -84l36 -249l-237 -88l-279 247l229 395l287 251l32 188q244 -72 395.5 -269t156.5 -462zM532 1292 l-23 -156l-136 -68l-67 -170l-130 -22q48 136 139.5 243t216.5 173zM174 375h111l113 -110l-27 -193q-134 127 -197 303zM892 -136q-129 0 -245.5 40t-212.5 114l39 271l-159 155h-160q-21 88 -21 180.5t19 178.5l203 32l73 183l145 72l34 238q133 55 285 55q70 0 138 -12 l-28 -169l-276 -241l-264 -454l353 -313l330 121l-36 244l231 57l146 -143l163 68q-38 -292 -247.5 -481t-509.5 -196z" />
<glyph unicode="&#xf058;" d="M1726 289l-140 277l-278 -140q-46 -25 -60.5 -70.5t6.5 -92.5q27 -52 85 -64q-52 -81 -132 -135.5t-180 -76.5v665h73q50 2 84.5 36t34.5 86t-34.5 86t-84.5 36h-62q89 39 142 120t55 181q-4 140 -96 231.5t-232 94.5q-140 -3 -232.5 -94.5t-95.5 -231.5 q2 -100 54.5 -180t142.5 -121h-56q-52 -2 -86 -36t-34 -86t34 -86t86 -36h65v-663q-97 24 -176 79.5t-129 132.5q25 7 45 23t31 39q23 45 7.5 93.5t-59.5 69.5l-280 140l-140 -277q-21 -47 -5 -93.5t59 -70.5q25 -12 54.5 -12t53.5 11q93 -181 269.5 -286t394.5 -107 q108 0 209 28t191 83q174 108 263 278q22 -7 45 -7v0q31 0 54 12q47 26 61 71.5t-7 92.5z" />
<glyph unicode="&#xf059;" d="M1780 706l-848 708q-14 12 -32 12t-32 -12l-850 -708q-16 -15 -17 -34.5t12.5 -36.5t40.5 -30.5t45 -0.5l801 661l801 -674q18 -11 45 7t41 36v0q13 16 11 36.5t-18 35.5zM1683 1322h-294q-19 0 -32 12.5t-13 30.5v0q0 20 13 32.5t32 12.5h294q18 0 30.5 -12.5 t12.5 -32.5v0q0 -18 -12.5 -30.5t-30.5 -12.5zM1622 1281h-170q-45 -2 -75.5 -29.5t-32.5 -70.5v-47l328 -278q22 15 36.5 37t14.5 51v237q0 43 -28 70.5t-73 29.5zM936 1076l-36 31l-39 -31l-744 -616v-550q2 -41 30.5 -69t69.5 -30h1389q39 2 66 30t29 69v528z" />
<glyph unicode="&#xf05a;" d="M1512 937l-688 575q-10 9 -24.5 10t-27.5 -10l-688 -575q-12 -11 -13 -27t9.5 -28.5t27 -14t28.5 8.5l663 554l662 -554q14 -10 30 -9.5t27 13.5v0q11 14 10 30t-16 27zM828 1349l-31 20l-30 -20l-609 -519l7 -228q2 -27 24 -45t57 -18h1125q32 0 53.5 18t21.5 45l-7 213 zM928 1009q-2 -41 -36 -68t-86 -29v0q-52 2 -86.5 29t-36.5 68v86q2 41 36.5 68t86.5 29v0q52 -2 86 -29t36 -68v-86zM1369 249h-1123q-35 0 -57 -22.5t-24 -56.5v-355q2 -34 24 -58t57 -26h406v353h280v-353h437q34 2 55.5 26t21.5 58v355q0 34 -21.5 56.5t-55.5 22.5z M1480 509h-1351l-129 -220h1636zM149 355l54 88h1209l63 -88h-1326z" />
<glyph unicode="&#xf05b;" d="M896 1520q-380 -9 -632.5 -262t-261.5 -633q9 -379 261.5 -632t632.5 -262q380 9 632.5 262t261.5 632q-9 380 -261.5 633t-632.5 262zM896 -136q-323 9 -538 224t-224 537q9 323 224 537t538 223q323 -9 538 -223t224 -537q-9 -322 -224 -537t-538 -224zM1366 831 q-49 0 -86.5 -25.5t-53.5 -68.5h-595q-18 43 -55.5 68.5t-86.5 25.5q-63 -1 -105 -44t-42 -106t42 -106t105 -45q49 0 87.5 27t54.5 70h593q16 -43 54.5 -70t87.5 -27q62 2 105 45t43 106t-43 106t-105 44z" />
<glyph unicode="&#xf05c;" d="M1373 355q-70 0 -128.5 -27t-101.5 -75l-424 283q14 43 14 91q0 58 -20 106l344 263q43 -46 101.5 -72t126.5 -26q132 3 220 91t92 221q-4 132 -92 219t-220 91q-133 -4 -220.5 -91t-91.5 -219q0 -49 14 -90l-349 -269q-43 41 -98.5 64.5t-118.5 23.5q-132 -4 -220 -91.5 t-92 -220.5q4 -132 92 -220t220 -92q68 0 126.5 26t101.5 73l424 -283q-10 -43 -12 -88q3 -133 91 -220.5t221 -91.5q132 4 220 91.5t91 220.5q-3 133 -91 220.5t-220 91.5zM1285 1430q93 -2 155.5 -64.5t64.5 -155.5q-2 -94 -64.5 -156.5t-155.5 -64.5q-93 2 -156 64.5 t-65 156.5q2 93 65 155.5t156 64.5zM421 407q-93 2 -156 64.5t-64 155.5q1 93 64 156t156 65q93 -2 156 -65t65 -156q-2 -93 -65 -155.5t-156 -64.5zM1373 -177q-94 1 -156.5 64t-64.5 156q2 93 64.5 156t156.5 64q93 -1 155.5 -64t64.5 -156q-2 -93 -64.5 -156t-155.5 -64z " />
<glyph unicode="&#xf05d;" d="M1792 541v203l-254 53q-15 51 -35.5 94t-43.5 78l152 228l-143 145l-248 -147q-66 38 -141 56l-67 269h-202l-66 -273q-88 -23 -160 -64l-236 159l-144 -143l149 -249q-38 -70 -57 -147l-296 -59v-203l287 -73q9 -38 20.5 -75.5t32.5 -75.5l-138 -242l144 -143l222 145 q97 -63 183 -86l59 -260h204l59 260q81 22 163 72l235 -131l144 143l-142 221q52 95 70 177zM1421 534l-7 -16q-23 -108 -65 -170l-9 -15l122 -188l-66 -68l-199 113l-12 -9q-85 -52 -160 -68l-18 -4l-50 -220h-93l-52 220l-16 4q-79 16 -176 81l-14 10l-192 -123l-66 66 l109 190l2 25l-4 9q-39 72 -55 142v12l-22 11l-224 57v93l219 43l28 13l4 14q20 74 59 142l7 9l-3 16l-119 202l65 67l188 -126l18 -9l14 9q65 40 149 61l9 4l20 25l50 210h95l52 -212l20 -21l9 -2q69 -18 132 -54l13 -5l10 3l203 117l64 -65l-130 -195l10 -14 q47 -69 72 -169l7 -16l215 -47v-93zM930 930q-131 -4 -218 -90t-90 -216q3 -129 90 -216t218 -91q131 4 217 91t89 216q-3 130 -89 216t-217 90zM930 426q-86 2 -141.5 57.5t-57.5 140.5q2 84 57.5 140.5t141.5 58.5q86 -2 141.5 -58.5t57.5 -140.5q-2 -85 -58.5 -140.5 t-140.5 -57.5z" />
<glyph unicode="&#xf05e;" d="M745 760q5 52 -59.5 106.5t-171.5 77.5q-108 18 -186 -8.5t-89 -75.5q-5 -48 60.5 -94.5t173 -67.5t184.5 -3t88 65zM311 846q9 36 64.5 57.5t132.5 8.5q54 -9 95 -38q-25 -7 -40 -28.5t-15 -49.5q1 -51 41 -74q-49 -5 -110 6q-77 16 -124.5 50t-43.5 68zM1237 919 q-120 -9 -197.5 -53.5t-79.5 -94.5q5 -49 86.5 -76.5t201.5 -21.5t198 42t80 84q-5 50 -86.5 87t-202.5 33zM1248 702q-86 -3 -144 17.5t-62 54.5q0 36 55.5 71t141.5 42q61 4 110 -13q-26 -12 -37.5 -37t-6 -51t21.5 -41.5t38 -20.5q-50 -18 -117 -22zM1094 197h-344v88 q65 2 107 20t43.5 47.5t-47.5 52.5t-124.5 26.5t-126.5 -14t-54 -50.5q0 -28 42 -50.5t108 -27.5v-92h-206q-13 0 -22.5 -10t-9.5 -24v-7q0 -13 9.5 -21t22.5 -8h602q16 4 53 34.5t58 51.5l-18 40q-25 12 -52 -19.5t-41 -36.5zM1793 570v0l4 645l-289 215l-63 38 q-19 9 -72 19.5t-103 -14.5q-20 -16 -22.5 -47.5t-1.5 -34.5l26 -83q-61 20 -166 29t-236 5q-134 -5 -241 -22t-164 -42h-5l-353 154q-6 5 -49.5 19.5t-51.5 -34.5q-1 -55 0 -96v-43l92 -464q-90 -155 -92 -323q0 -308 189 -513.5t560 -212.5q391 7 708 212.5t335 513.5 q0 41 -5 79zM1705 453v-18l-2 6q-50 -255 -327 -419.5t-606 -170.5q-334 7 -503 189t-169 456q2 146 77 278l-72 366q-2 2 -11 45t-10 98q9 48 62.5 33t60.5 -20l235 -138q95 35 200.5 57.5t258.5 29.5q163 4 308 -30t222 -75l-41 89q-5 9 -33 77t-15 88q46 15 113.5 -36.5 t74.5 -60.5l177 -148v-602l2 -51q0 -21 -2 -43z" />
<glyph unicode="&#xf060;" d="M412 894l-190 201q95 11 275 -16t345 -156q206 -181 222 -534l133 7q-20 416 -271 634q-184 147 -381 181t-312 24l181 188l-95 98l-299 -313q-20 -22 -20 -49.5t20 -49.5l299 -313zM161 1159l4 4l2 -11zM1652 1201h-455v0q-18 -2 -29.5 -19t-11.5 -42t11.5 -41.5 t29.5 -19.5h357q48 -2 81 -34.5t35 -82.5v-991q-2 -50 -35 -82t-81 -34h-993q-50 2 -82.5 34t-34.5 82v425q0 18 -17 30.5t-43.5 12.5t-43.5 -12.5t-17 -30.5v-525q1 -59 40.5 -98.5t98.5 -41.5h1190q59 2 98.5 41.5t41.5 98.5v1190q-2 59 -41.5 98.5t-98.5 41.5z" />
<glyph unicode="&#xf061;" d="M1380 894l190 201q-93 11 -274 -16t-346 -156q-205 -181 -222 -534l-133 7q20 416 271 634q184 147 381 181t312 24l-179 188l93 98l299 -313q20 -22 20 -49.5t-20 -49.5l-299 -313zM1631 1159l-4 4l-2 -11zM140 1201h455v0q18 -2 30.5 -19t12.5 -42t-12.5 -41.5 t-30.5 -19.5h-357q-48 -2 -81 -34.5t-35 -82.5v-991q2 -50 35 -83t81 -35h993q50 2 82.5 35t34.5 82v426q0 18 17 30.5t43.5 12.5t43.5 -12.5t17 -30.5v-525q-1 -59 -40.5 -98.5t-98.5 -41.5h-1190q-59 2 -98.5 41.5t-41.5 98.5v1190q2 59 41.5 98.5t98.5 41.5z" />
<glyph unicode="&#xf062;" d="M572 1102l-120 97l383 303q29 21 62 20t60 -20l383 -303l-120 -97l-238 188v-984q-2 -28 -26 -48t-61 -20t-61 20t-24 48v986zM1652 957h-312v-2q-14 -3 -22 -20t-8 -40.5t8 -39.5t22 -20v-2h183q50 -2 83.5 -35t34.5 -83v-742q-1 -50 -34.5 -84t-83.5 -36h-1254 q-50 2 -83.5 36t-34.5 84v742q1 50 34.5 83t83.5 35h183q14 4 24.5 21t10.5 40.5t-10.5 41t-24.5 19.5v2h-312q-59 -2 -98.5 -41.5t-41.5 -98.5v-946q2 -59 41.5 -98.5t98.5 -41.5h1512q59 2 98.5 41.5t41.5 98.5v946q-2 59 -41.5 98.5t-98.5 41.5z" />
<glyph unicode="&#xf063;" d="M572 658l-120 -95l383 -305q29 -20 62 -20t58 20l385 305l-121 95l-237 -188v983q-2 29 -26 48.5t-60 19.5t-60 -19.5t-26 -48.5v-983zM1652 957h-312v-2q-14 -3 -22 -20t-8 -40.5t8 -39.5t22 -20v-2h183q50 -2 83.5 -35t34.5 -83v-742q-1 -50 -34.5 -84t-83.5 -36h-1254 q-50 2 -83.5 36t-34.5 84v742q1 50 34.5 83t83.5 35h183q14 4 24.5 21t10.5 40.5t-10.5 41t-24.5 19.5v2h-312q-59 -2 -98.5 -41.5t-41.5 -98.5v-946q2 -59 41.5 -98.5t98.5 -41.5h1512q59 2 98.5 41.5t41.5 98.5v946q-2 59 -41.5 98.5t-98.5 41.5z" />
<glyph unicode="&#xf064;" d="M136 500h1529q54 2 89.5 37.5t35.5 89.5t-35.5 90t-89.5 37h-1529q-54 -1 -89.5 -37t-35.5 -90t35.5 -89.5t89.5 -37.5z" />
<glyph unicode="&#xf065;" d="M1758 -122l-776 1615q-18 18 -40 26t-46 4q-50 7 -88 -30l-776 -1613q-34 -50 -33 -86t33 -63h1726q32 27 33 63t-33 84zM1536 -133h-640h-641q-24 22 -24.5 48t24.5 62l577 1247q14 18 30 51t34 35q18 -2 34 -35t31 -51l575 -1247q27 -36 25 -62t-25 -48zM898 824 q-57 -1 -95 -29t-39 -48l82 -512h97l88 512q-2 20 -39 48t-94 29zM898 156q-48 -2 -80.5 -34t-32.5 -80.5t32.5 -81t80.5 -32.5t78.5 32.5t30.5 81t-30.5 80.5t-78.5 34z" />
<glyph unicode="&#xf066;" d="M672 1084q-281 -7 -470 -173t-200 -415q-2 -148 55.5 -261t179.5 -203q2 -34 -23.5 -85t-93.5 -121l-7 -7q-11 -11 -13.5 -27t4.5 -30q13 -31 45 -31h4q155 22 279 97t143 95l9 -2q58 -11 88 -12v0q285 7 474 172.5t196 414.5q-7 249 -196 415t-474 173zM672 13 q-11 0 -32 3l-38 7l-14 2q-29 4 -48.5 -6t-24 -14.5t-70 -49.5t-160.5 -84q61 97 50 188q0 7 -3 13l-6 12q-5 9 -21 25l-6 4q-103 75 -151.5 167.5t-46.5 215.5q9 206 170 343.5t401 142.5q242 -5 404 -142.5t168 -343.5q-6 -206 -168 -342t-404 -141zM1771 1446l-4 2 q-124 32 -239.5 14t-134.5 -27l-8 6q-37 27 -61 36v0q-215 84 -407.5 18.5t-274.5 -250.5q-16 -37 -25 -77q12 6 164.5 13t295.5 -57q90 -47 140 -88t120 -151q65 -105 75.5 -190.5t6.5 -90.5q76 36 133 92.5t90 133.5q46 111 39 212t-70 207q9 25 43 56.5t108 61.5l7 4 q25 12 25 39t-23 36zM1529 1260q0 -6 -1 -9.5t0 -11.5t8 -26q0 -2 4 -5q55 -90 62 -173t-34 -175q-27 -63 -75 -111q-5 45 -27.5 107t-71.5 126q-86 111 -190 178.5t-205 83.5t-164.5 17t-99.5 -7q79 129 234 170.5t323 -24.5q7 -4 24 -15l35 -21q20 -11 38 -10t22.5 2.5 t67 15t147.5 13.5q-76 -54 -97 -125zM1122 452q-2 -52 -36 -86t-86 -34t-87 34t-35 86t35 86.5t87 34.5t86 -34.5t36 -86.5zM801 452q-2 -52 -36 -86t-86 -34t-86 34t-34 86t34 86.5t86 34.5t86 -34.5t36 -86.5zM482 452q-2 -52 -36.5 -86t-86.5 -34t-86 34t-34 86t34 86.5 t86 34.5t86.5 -34.5t36.5 -86.5z" />
<glyph unicode="&#xf067;" d="M1600 627l183 176q9 11 9 23.5t-10 22t-24 9.5t-25 -9l-181 -175l-181 175q-11 9 -24.5 9t-24 -9.5t-10.5 -22t10 -23.5l181 -176l-181 -175q-10 -11 -10 -23.5t9.5 -23.5t24 -11t25.5 11l181 176l181 -176q11 -11 24 -11t24 11t11 23.5t-11 23.5zM1193 1396 q-53 27 -109 -11l-528 -362q-17 -11 -31 -18l-21 -9h-302q-86 -1 -143 -57.5t-59 -142.5v-337q2 -86 59 -143.5t143 -59.5h300q7 -2 22 -8t32 -17l528 -362q34 -21 66 -21q22 0 43 10q51 29 52 95v1348q-1 66 -52 95zM1111 14l-478 328q-22 15 -61 33v252q0 15 -9 24.5 t-23.5 9.5t-24.5 -9.5t-10 -24.5v-235h-303q-28 0 -48 19t-20 48v337q0 28 20 47t48 19h303v-32q0 -15 9 -24.5t23.5 -9.5t24.5 9.5t10 24.5v50q37 18 61 32l478 328v-1226z" />
<glyph unicode="&#xf068;" d="M1181 1523q-258 -7 -429.5 -178t-178.5 -431q0 -54 9 -107.5t25 -100.5l-587 -588q-20 -19 -20 -46v-273q0 -27 19.5 -46.5t46.5 -19.5h272q29 0 49 21l109 121q16 19 18 41l2 37l34 4q21 4 38 16l86 79q23 20 23 48v31h32q23 0 40 12l73 54h38q28 0 48 22l99 105 q69 -18 154 -18q260 8 431 179t178 429q-7 260 -178 431t-431 178zM851 330h-32q-20 0 -38 -13l-73 -54h-77q-29 0 -48 -19.5t-19 -46.5v-66l-48 -45l-70 -5q-25 -4 -42 -21t-19 -42l-2 -72l-75 -80h-167l663 663q25 -27 61 -54t76 -49zM1181 439q-86 0 -154 22q-6 1 -11 1 q-56 25 -106 63t-72 66q-9 13 -23 13q-20 9 -36 -7l-647 -647v93l603 602q14 16 16.5 36t-6.5 39q-19 40 -29 91t-10 103q5 202 139.5 336.5t335.5 140.5q202 -6 336.5 -140.5t139.5 -336.5q-5 -201 -139.5 -335.5t-336.5 -139.5zM1265 1206q-74 -2 -123 -50.5t-49 -122.5 t49 -123.5t123.5 -49.5t124 49.5t49.5 123.5t-49.5 122.5t-124.5 50.5zM1265 925q-45 1 -75.5 31.5t-30.5 75.5t30.5 75.5t76.5 30.5t76 -30.5t30 -75.5t-30 -75.5t-77 -31.5z" />
<glyph unicode="&#xf069;" d="M1770 706l-781 781q-41 40 -94 40t-94 -38l-781 -783q-20 -20 -20 -46.5t19.5 -46.5t45.5 -20t48 20l52 52v-801q2 -58 39.5 -94.5t94.5 -38.5h387v778q2 34 24.5 57.5t54.5 23.5h262q34 0 56.5 -23.5t22.5 -57.5v-778h385q57 2 94 38.5t39 94.5v801l53 -52 q20 -20 47 -20t46.5 20t19.5 46.5t-20 46.5z" />
<glyph unicode="&#xf06a;" d="M894 1520q-380 -9 -632.5 -262t-261.5 -633q9 -379 261.5 -632t632.5 -262q380 9 631.5 262t260.5 632q-9 380 -260.5 633t-631.5 262zM894 -136q-325 9 -539 224t-223 537q9 323 223 537t539 223q322 -9 536.5 -223t223.5 -537q-9 -322 -223.5 -537t-536.5 -224z M517 563h751q27 0 45 18t18 44.5t-18 44.5t-45 18h-751q-26 0 -44 -18t-18 -44.5t18 -44.5t44 -18z" />
<glyph unicode="&#xf06b;" d="M894 1520q-380 -9 -632.5 -262t-261.5 -633q9 -379 261.5 -632t632.5 -262q380 9 631.5 262t260.5 632q-9 380 -260.5 633t-631.5 262zM894 -136q-325 9 -539 224t-223 537q9 323 223 537t539 223q322 -9 536.5 -223t223.5 -537q-9 -322 -223.5 -537t-536.5 -224z M517 563h314v-312q0 -27 18 -45t45 -18t45 18t18 45v312h311q27 0 45 18t18 44.5t-18 44.5t-45 18h-311v312q0 27 -18 45t-45 18t-45 -18t-18 -45v-312h-314q-26 0 -44 -18t-18 -44.5t18 -44.5t44 -18z" />
<glyph unicode="&#xf06c;" d="M1765 1131q-33 89 -92 156.5t-139 104.5q-110 52 -233.5 51.5t-229 -51t-172.5 -138.5q-64 88 -170 137.5t-229 49.5q-60 0 -119 -12.5t-113 -37.5q-80 -38 -139 -105t-92 -159q-37 -104 -32 -215t52 -211q136 -240 440 -533t359 -336q20 -17 44 -17t42 17 q56 43 360.5 336.5t440.5 535.5q47 99 52.5 210t-30.5 217z" />
<glyph unicode="&#xf06d;" d="M1794 837q-4 14 -23.5 34.5t-66.5 28.5l-482 41q-10 2 -21 11.5t-14 18.5l-199 470q-20 43 -47 55.5t-41.5 12.5t-40.5 -12.5t-45 -55.5l-199 -473q-6 -9 -16.5 -17t-21.5 -10l-233 -20l-249 -23q-46 -6 -66 -26.5t-24.5 -34.5t-1.5 -43t37 -61l362 -333q7 -8 11.5 -21 t2.5 -24l-118 -500q-7 -34 -1 -55.5t17 -34.5q21 -25 55 -29.5t70 17.5l439 265q4 4 22 4t23 -4l437 -265q33 -18 59 -18q43 0 67 30q11 13 17 34.5t-1 55.5l-117 500q-1 11 2.5 24t10.5 21l362 333q34 32 36.5 61t-2.5 43z" />
<glyph unicode="&#xf06e;" d="M1412 1091q-34 151 -155 256.5t-271 111.5q-124 -4 -224.5 -89t-150.5 -200q-19 6 -45 6h-44q-83 -2 -155.5 -40.5t-122.5 -99.5q-72 -101 -81 -182.5t-5 -93.5q-81 -41 -119.5 -127t-38.5 -190q4 -146 91.5 -258.5t222.5 -119.5h158v139h-158q-108 18 -151 84.5 t-43 107.5q6 183 89 238.5t96 50.5q-2 0 -14.5 31t-14.5 89q15 120 63 174.5t159 74.5q18 3 50.5 4t52.5 -3l69 -17l33 69q39 90 114.5 142t168.5 54q113 -2 197 -74.5t109 -189.5l15 -70l66 -5q140 -14 218 -123.5t79 -261.5q-1 -140 -67.5 -239.5t-186.5 -128.5v-139 q163 39 268 185t108 329q-2 194 -104 339t-276 166zM1271 323q-6 73 -44.5 131.5t-97.5 90.5q-72 43 -161 36q-118 -11 -191 -97t-67 -204q9 -78 50 -140q-9 -7 -25 -27l-161 -188q-15 -16 -12 -40.5t19 -38.5l32 -27q18 -14 39.5 -13.5t37.5 18.5l127 149q25 29 40 47 l19 27q63 -29 135 -24q16 0 30 4q108 20 171.5 102t58.5 194zM1006 93q-88 -5 -152.5 49.5t-73.5 142.5q-6 90 49.5 153.5t143.5 72.5q88 5 152.5 -49.5t73.5 -144.5q5 -88 -49.5 -152.5t-143.5 -71.5z" />
<glyph unicode="&#xf070;" d="M1412 1091q-34 151 -155 256.5t-271 111.5q-124 -4 -224.5 -89t-150.5 -200q-19 6 -45 6h-44q-83 -2 -155.5 -40.5t-122.5 -99.5q-72 -101 -81 -182.5t-5 -93.5q-81 -41 -119.5 -127t-38.5 -190q4 -146 91.5 -258.5t222.5 -119.5h158v139h-158q-108 18 -151 84.5 t-43 107.5q6 183 89 238.5t96 50.5q-2 0 -14.5 31t-14.5 89q15 120 63 174.5t159 74.5q18 3 50.5 4t52.5 -3l69 -17l33 69q39 90 114.5 142t168.5 54q113 -2 197 -74.5t109 -189.5l15 -70l66 -5q140 -14 218 -123.5t79 -261.5q-1 -140 -67.5 -239.5t-186.5 -128.5v-139 q163 39 268 185t108 329q-2 194 -104 339t-276 166zM966 557q9 -9 20.5 -9.5t22.5 6.5l99 75v-529q0 -12 14 -23.5t39 -13.5q24 2 38 13.5t14 23.5v529l99 -75q9 -7 20.5 -6.5t21.5 9.5t19 24.5t-23 51.5l-178 147q-3 3 -12 3t-13 -3l-176 -147q-32 -36 -24 -51.5t19 -24.5z M1000 18q-9 9 -20.5 10t-20.5 -8l-99 -76v531q0 11 -14 22.5t-39 15.5q-24 -4 -38 -15.5t-14 -22.5v-531l-101 76q-9 9 -20.5 8t-21.5 -10t-19 -25t24 -50l177 -149l13 -5q9 3 12 5l178 149q32 34 23 50t-20 25z" />
<glyph unicode="&#xf071;" d="M1412 1091q-34 151 -155 256.5t-271 111.5q-124 -4 -224.5 -89t-150.5 -200q-19 6 -45 6h-44q-83 -2 -155.5 -40.5t-122.5 -99.5q-72 -101 -81 -182.5t-5 -93.5q-81 -41 -119.5 -127t-38.5 -190q4 -146 91.5 -258.5t222.5 -119.5h158v139h-158q-108 18 -151 84.5 t-43 107.5q6 183 89 238.5t96 50.5q-2 0 -14.5 31t-14.5 89q15 120 63 174.5t159 74.5q18 3 50.5 4t52.5 -3l69 -17l33 69q39 90 114.5 142t168.5 54q113 -2 197 -74.5t109 -189.5l15 -70l66 -5q140 -14 218 -123.5t79 -261.5q-1 -140 -67.5 -239.5t-186.5 -128.5v-139 q163 39 268 185t108 329q-2 194 -104 339t-276 166zM1290 720l-209 22h-9h-2v0v0l-2 -2q-9 0 -14 -9h-2v0q-7 -7 -9 -21v0v0v-1v-1v-4v0v-3v0l41 -206q4 -15 14.5 -23t25.5 -6v0q14 4 22 15.5t6 25.5l-17 93q55 -57 73 -141q16 -110 -44 -196t-169 -107q-110 -16 -196.5 44 t-108.5 169q-7 49 2 95.5t34 87.5q5 5 11 16q7 20 -1 36t-24 23q-29 9 -49 -11v0v0q-5 -5 -9 -14q-36 -54 -49 -117.5t-1 -131.5q31 -145 144.5 -225.5t260.5 -57.5q145 29 226 143.5t59 261.5q-9 55 -34 102t-61 82l84 -7q15 -2 25.5 7t12.5 24v0q2 14 -7 25t-24 12z" />
<glyph unicode="&#xf072;" d="M1412 1091q-34 151 -155 256.5t-271 111.5q-124 -4 -224.5 -89t-150.5 -200q-19 6 -45 6h-44q-83 -2 -155.5 -40.5t-122.5 -99.5q-72 -101 -81 -182.5t-5 -93.5q-81 -41 -119.5 -127t-38.5 -190q4 -146 91.5 -258.5t222.5 -119.5h158v139h-158q-108 18 -151 84.5 t-43 107.5q6 183 89 238.5t96 50.5q-2 0 -14.5 31t-14.5 89q15 120 63 174.5t159 74.5q18 3 50.5 4t52.5 -3l69 -17l33 69q39 90 114.5 142t168.5 54q113 -2 197 -74.5t109 -189.5l15 -70l66 -5q140 -14 218 -123.5t79 -261.5q-1 -140 -67.5 -239.5t-186.5 -128.5v-139 q163 39 268 185t108 329q-2 194 -104 339t-276 166zM767 290q9 -9 20.5 -9.5t20.5 8.5l101 75v-531q0 -10 14 -22t38 -15q25 3 39 15t14 22v531l99 -75q9 -9 20.5 -8.5t21.5 9.5t19 25.5t-23 50.5l-178 147q-3 5 -12 7q-9 -2 -13 -7l-177 -147q-32 -34 -23.5 -50.5 t19.5 -25.5z" />
<glyph unicode="&#xf073;" d="M896 1523q-380 -9 -633.5 -262.5t-262.5 -633.5q9 -380 262.5 -633.5t633.5 -262.5q380 9 633.5 262.5t262.5 633.5q-9 380 -262.5 633.5t-633.5 262.5zM482 744q-52 1 -86 35.5t-34 86.5t34 86.5t86 34.5t86 -34.5t34 -86.5t-34 -86.5t-86 -35.5zM896 97 q-108 2 -187.5 63.5t-109.5 160.5h51q44 -56 107.5 -89t138.5 -33t139.5 33t107.5 89h52q-30 -99 -110.5 -160.5t-188.5 -63.5zM1292 744q-52 1 -87 35.5t-35 86.5t35 86.5t87 34.5t86 -34.5t34 -86.5t-34 -86.5t-86 -35.5z" />
<glyph unicode="&#xf074;" d="M896 1523q-380 -9 -633.5 -262.5t-262.5 -633.5q9 -380 262.5 -633.5t633.5 -262.5q380 9 633.5 262.5t262.5 633.5q-9 380 -262.5 633.5t-633.5 262.5zM511 729q-52 2 -87 36t-35 86t35 86t87 34t86 -34t34 -86t-34 -86t-86 -36zM1143 161q-43 56 -107.5 88t-139.5 32 t-138.5 -32t-107.5 -88h-51q30 97 109.5 159t187.5 62t187.5 -62t109.5 -159h-50zM1322 729q-51 2 -86 36t-35 86t35 86t86.5 34t86 -34t34.5 -86t-34.5 -86t-86.5 -36z" />
<glyph unicode="&#xf075;" d="M896 1523q-380 -9 -633.5 -262.5t-262.5 -633.5q9 -380 262.5 -633.5t633.5 -262.5q380 9 633.5 262.5t262.5 633.5q-9 380 -262.5 633.5t-633.5 262.5zM896 -88q-303 7 -505.5 209.5t-209.5 505.5q7 303 209.5 505.5t505.5 209.5q303 -7 505.5 -208.5t209.5 -506.5 q-7 -304 -208.5 -506t-506.5 -209zM1143 383q-43 -55 -107.5 -88t-139.5 -33t-138.5 33t-107.5 88h-51q30 -98 109.5 -159t187.5 -61t187.5 61t109.5 159h-50zM672 797q-25 33 -61 51.5t-79 18.5t-79.5 -18.5t-61.5 -51.5h-29q18 56 63.5 91t106.5 35t107 -35t63 -91h-30z M1428 797q-25 33 -61 51.5t-79 18.5t-79.5 -18.5t-61.5 -51.5h-29q18 56 64 91t106.5 35t106.5 -35t64 -91h-31z" />
<glyph unicode="&#xf076;" d="M896 1523q-380 -9 -633.5 -262.5t-262.5 -633.5q9 -380 262.5 -633.5t633.5 -262.5q380 9 633.5 262.5t262.5 633.5q-9 380 -262.5 633.5t-633.5 262.5zM896 -88q-303 7 -505.5 209.5t-209.5 505.5q7 303 209.5 505.5t505.5 209.5q303 -7 505.5 -208.5t209.5 -506.5 q-7 -304 -208.5 -506t-506.5 -209zM1143 161q-43 56 -107.5 88t-139.5 32t-138.5 -32t-107.5 -88h-51q30 97 109.5 159t187.5 62t187.5 -62t109.5 -159h-50zM672 821q-25 -33 -61 -51.5t-79 -18.5t-79.5 18.5t-61.5 51.5h-29q18 -56 63.5 -91t106.5 -35t107 35t63 91h-30z M1428 821q-25 -33 -61 -51.5t-79 -18.5t-79.5 18.5t-61.5 51.5h-29q18 -56 64 -91t106.5 -35t106.5 35t64 91h-31z" />
<glyph unicode="&#xf077;" d="M896 1523q-380 -9 -633.5 -262.5t-262.5 -633.5q9 -380 262.5 -633.5t633.5 -262.5q380 9 633.5 262.5t262.5 633.5q-9 380 -262.5 633.5t-633.5 262.5zM896 -88q-303 7 -505.5 209.5t-209.5 505.5q7 303 209.5 505.5t505.5 209.5q303 -7 505.5 -208.5t209.5 -506.5 q-7 -304 -208.5 -506t-506.5 -209zM1236 964q-51 0 -86 -30.5t-35 -82.5t35 -86t86.5 -34t86 34t34.5 86t-34.5 82.5t-86.5 30.5zM573 964q-52 0 -86.5 -30.5t-34.5 -82.5t34.5 -86t86.5 -34t86.5 34t34.5 86t-34.5 82.5t-86.5 30.5zM1143 161q-43 56 -107.5 88t-139.5 32 t-138.5 -32t-107.5 -88h-51q30 97 109.5 159t187.5 62t187.5 -62t109.5 -159h-50z" />
<glyph unicode="&#xf078;" d="M896 1523q-380 -9 -633.5 -262.5t-262.5 -633.5q9 -380 262.5 -633.5t633.5 -262.5q380 9 633.5 262.5t262.5 633.5q-9 380 -262.5 633.5t-633.5 262.5zM896 -88q-303 7 -505.5 209.5t-209.5 505.5q7 303 209.5 505.5t505.5 209.5q303 -7 505.5 -208.5t209.5 -506.5 q-7 -304 -208.5 -506t-506.5 -209zM1236 964q-51 0 -86 -30.5t-35 -82.5t35 -86t86.5 -34t86 34t34.5 86t-34.5 82.5t-86.5 30.5zM573 964q-52 0 -86.5 -30.5t-34.5 -82.5t34.5 -86t86.5 -34t86.5 34t34.5 86t-34.5 82.5t-86.5 30.5zM1143 383q-43 -55 -107.5 -88 t-139.5 -33t-138.5 33t-107.5 88h-51q30 -98 109.5 -159t187.5 -61t187.5 61t109.5 159h-50z" />
<glyph unicode="&#xf079;" d="M376 1113q6 0 11 2q14 3 19.5 15t2.5 26l-67 217q-27 91 -79 122.5t-87 27.5h-142q-14 0 -24 -10t-10 -24q2 -30 34 -32h143q9 3 44 -13t57 -87l68 -221q7 -21 30 -23zM604 63q-72 -2 -119.5 -48.5t-47.5 -116.5t47.5 -117.5t118.5 -47.5t118.5 47.5t47.5 117.5 t-47.5 116.5t-117.5 48.5zM1407 63q-70 -2 -117.5 -48.5t-47.5 -116.5t47.5 -117.5t118 -47.5t118 47.5t47.5 117.5t-47.5 116.5t-118.5 48.5zM1770 1045q-14 23 -39 34.5t-55 11.5h-1206q-61 0 -97 -44q-18 -22 -22.5 -49t4.5 -54l132 -469q4 -16 15 -32q-27 -24 -47 -60.5 t-20 -86.5q0 -56 43 -109.5t126 -57.5h971v133h-971q-18 1 -26 15.5t-8 18.5q2 30 19.5 46t30.5 22q9 -2 16 -2h805q50 2 92 30.5t62 73.5l186 473q22 59 -11 106zM1385 948q-21 -29 -173.5 -224t-173.5 -224l-6 -5q-5 -4 -9 -6q-9 -5 -18.5 -4t-18.5 6l-201 142 q-11 9 -12.5 22t6.5 25t21.5 13.5t23.5 -5.5l178 -122l329 423q9 11 22.5 13t25.5 -6.5t13.5 -21.5t-7.5 -26z" />
<glyph unicode="&#xf07a;" d="M376 1113q6 0 11 2q14 3 19.5 15t2.5 26l-67 217q-27 91 -79 122.5t-87 27.5h-142q-14 0 -24 -10t-10 -24q2 -30 34 -32h143q9 3 44 -13t57 -87l68 -221q7 -21 30 -23zM1770 1045q-14 23 -39 34.5t-55 11.5h-1206q-61 0 -97 -44q-18 -22 -22.5 -49t4.5 -54l132 -469 q4 -16 15 -32q-27 -24 -47 -60.5t-20 -86.5q0 -56 43 -109.5t126 -57.5h971v133h-971q-18 1 -26 15.5t-8 18.5q2 30 19.5 46t30.5 22q9 -2 16 -2h805q50 2 92 30.5t62 73.5l186 473q22 59 -11 106zM604 63q-72 -2 -119.5 -48.5t-47.5 -116.5t47.5 -117.5t118.5 -47.5 t118.5 47.5t47.5 117.5t-47.5 116.5t-117.5 48.5zM1407 63q-70 -2 -117.5 -48.5t-47.5 -116.5t47.5 -117.5t118 -47.5t118 47.5t47.5 117.5t-47.5 116.5t-118.5 48.5z" />
<glyph unicode="&#xf07b;" d="M376 1113q6 0 11 2q14 3 19.5 15t2.5 26l-67 217q-27 91 -79 122.5t-87 27.5h-142q-14 0 -24 -10t-10 -24q2 -30 34 -32h143q9 3 44 -13t57 -87l68 -221q7 -21 30 -23zM604 63q-72 -2 -119.5 -48.5t-47.5 -116.5t47.5 -117.5t118.5 -47.5t118.5 47.5t47.5 117.5 t-47.5 116.5t-117.5 48.5zM604 -202q-43 1 -71 29t-28 70t28 70t70 28t70.5 -28t28.5 -70t-27.5 -70t-70.5 -29zM1407 63q-70 -2 -117.5 -48.5t-47.5 -116.5t47.5 -117.5t118 -47.5t118 47.5t47.5 117.5t-47.5 116.5t-118.5 48.5zM1407 -202q-41 1 -70 29t-29 70t29 70 t71 28t69.5 -28t27.5 -70t-27.5 -70t-70.5 -29zM1769 1045q-15 23 -40 34.5t-55 11.5h-208q-16 0 -27 -18.5t-11 -47.5t11 -47.5t27 -18.5h177l-175 -445q-4 -7 -13 -13t-16 -6h-805q-5 0 -11.5 5t-7.5 9l-126 450h176v3q12 6 20.5 24t8.5 39.5t-8.5 40t-20.5 24.5v1h-197 q-61 0 -97 -44q-16 -22 -20.5 -49t2.5 -54l133 -469q3 -16 12 -32q-27 -24 -45.5 -60.5t-18.5 -86.5q0 -56 43 -109.5t123 -57.5h973v133h-973q-18 1 -25 15.5t-7 18.5q2 30 20 46t30 22q9 -2 16 -2h805q50 2 92 30.5t62 73.5l185 473q23 59 -9 106zM812 946h213v-213 q0 -18 12.5 -30.5t30.5 -12.5t30.5 12.5t12.5 30.5v213h213q20 0 31.5 12.5t11.5 30.5t-12.5 30.5t-30.5 12.5h-213v215q0 18 -12.5 29.5t-30.5 11.5t-30.5 -11.5t-12.5 -29.5v-215h-213q-18 0 -30.5 -12.5t-12.5 -30.5t11.5 -30.5t31.5 -12.5z" />
<glyph unicode="&#xf07c;" d="M376 1113q6 0 11 2q14 3 19.5 15t2.5 26l-67 217q-27 91 -79 122.5t-87 27.5h-142q-14 0 -24 -10t-10 -24q2 -30 34 -32h143q9 3 44 -13t57 -87l68 -221q7 -21 30 -23zM604 63q-72 -2 -119.5 -48.5t-47.5 -116.5t47.5 -117.5t118.5 -47.5t118.5 47.5t47.5 117.5 t-47.5 116.5t-117.5 48.5zM604 -202q-43 1 -71 29t-28 70t28 70t70 28t70.5 -28t28.5 -70t-27.5 -70t-70.5 -29zM1407 63q-70 -2 -117.5 -48.5t-47.5 -116.5t47.5 -117.5t118 -47.5t118 47.5t47.5 117.5t-47.5 116.5t-118.5 48.5zM1407 -202q-41 1 -70 29t-29 70t29 70 t71 28t69.5 -28t27.5 -70t-27.5 -70t-70.5 -29zM787 846q14 -9 111 -77l111 -79q21 -14 41 -4q5 2 11 8l5 5q24 32 194 249l192 247q8 13 6.5 28t-14 25t-28 8t-25.5 -14l-366 -470l-194 135q-14 9 -28.5 7t-24 -15.5t-7 -27.5t15.5 -25zM1769 1045q-15 23 -40 34.5 t-55 11.5h-208q-16 0 -27 -18.5t-11 -47.5t11 -47.5t27 -18.5h177l-175 -445q-4 -7 -13 -13t-16 -6h-805q-5 0 -11.5 5t-7.5 9l-126 450h176v3q12 6 20.5 24t8.5 39.5t-8.5 40t-20.5 24.5v1h-197q-61 0 -97 -44q-16 -22 -20.5 -49t2.5 -54l133 -469q3 -16 12 -32 q-27 -24 -45.5 -60.5t-18.5 -86.5q0 -56 43 -109.5t123 -57.5h973v133h-973q-18 1 -25 15.5t-7 18.5q2 30 20 46t30 22q9 -2 16 -2h805q50 2 92 30.5t62 73.5l185 473q23 59 -9 106z" />
<glyph unicode="&#xf07d;" d="M896 1523q-380 -9 -633.5 -262.5t-262.5 -633.5q9 -380 262.5 -633.5t633.5 -262.5q380 9 633.5 262.5t262.5 633.5q-9 380 -262.5 633.5t-633.5 262.5zM896 -88q-303 7 -505.5 209.5t-209.5 505.5q7 303 209.5 505.5t505.5 209.5q303 -7 505.5 -208.5t209.5 -506.5 q-7 -304 -208.5 -506t-506.5 -209z" />
<glyph unicode="&#xf07e;" d="M1624 1523h-1456q-71 -2 -118.5 -49.5t-49.5 -118.5v-1455q2 -72 49.5 -119.5t118.5 -49.5h1456q71 2 118.5 49.5t49.5 119.5v1455q-2 71 -49.5 118.5t-118.5 49.5zM1611 79q-2 -70 -49.5 -117.5t-117.5 -49.5h-1096q-70 2 -117.5 49.5t-49.5 117.5v1097q2 69 49.5 116.5 t117.5 49.5h1096q70 -2 117.5 -49.5t49.5 -116.5v-1097zM1279 1165h-766q-65 -2 -109 -46t-46 -108v-767q2 -65 46 -109t109 -45h766q65 1 109 45t46 109v767q-2 64 -46 108t-109 46z" />
<glyph unicode="&#xf080;" d="M896 1523q-380 -9 -633.5 -262.5t-262.5 -633.5q9 -380 262.5 -633.5t633.5 -262.5q380 9 633.5 262.5t262.5 633.5q-9 380 -262.5 633.5t-633.5 262.5zM896 -88q-303 7 -505.5 209.5t-209.5 505.5q7 303 209.5 505.5t505.5 209.5q303 -7 505.5 -208.5t209.5 -506.5 q-7 -304 -208.5 -506t-506.5 -209zM896 1163q-229 -5 -380.5 -155.5t-157.5 -380.5q6 -229 157.5 -380.5t380.5 -156.5q229 5 380.5 156.5t157.5 380.5q-6 230 -157.5 380.5t-380.5 155.5z" />
<glyph unicode="&#xf081;" d="M1624 1452h-1456q-71 -2 -118.5 -45t-49.5 -108v-1313q2 -65 49.5 -108t118.5 -45h1456q71 2 118.5 45t49.5 108v1313q-2 65 -49.5 108t-118.5 45zM1611 147q-2 -63 -49.5 -106t-117.5 -45h-1096q-70 2 -117.5 45t-49.5 106v989q2 65 49.5 108t117.5 44h1096 q70 -1 117.5 -44t49.5 -108v-989z" />
<glyph unicode="&#xf082;" d="M430 597q-29 19 -62 13t-52 -34t-14.5 -60t33.5 -54l240 -166q210 -147 242 -172q22 -15 45 -16.5t45 8.5q11 6 21 17l11 10l839 1079q21 29 16.5 61t-32 53.5t-61 17t-54.5 -29.5l-794 -1021zM1702 539q-37 0 -62 -21.5t-27 -53.5h-2v-419q-2 -65 -49.5 -107t-117.5 -44 h-1096q-70 2 -117.5 44t-49.5 107v989q2 64 49.5 107.5t117.5 44.5h464q36 2 60 25.5t24 55.5t-24 55.5t-60 25.5h-644q-71 -2 -118.5 -44t-49.5 -107v-1313q2 -65 49.5 -108t118.5 -45h1456q71 2 118.5 45t49.5 108v580q-4 32 -29 53.5t-61 21.5z" />
<glyph unicode="&#xf083;" d="M1624 1523h-1456q-71 -2 -118.5 -49.5t-49.5 -118.5v-1455q2 -72 49.5 -119.5t118.5 -49.5h1456q71 2 118.5 49.5t49.5 119.5v1455q-2 71 -49.5 118.5t-118.5 49.5zM1611 79q-2 -70 -49.5 -117.5t-117.5 -49.5h-1096q-70 2 -117.5 49.5t-49.5 117.5v1097q2 69 49.5 116.5 t117.5 49.5h1096q70 -2 117.5 -49.5t49.5 -116.5v-1097z" />
<glyph unicode="&#xf084;" d="M1400 901h-70v147q-6 214 -162 343t-383 132q-127 0 -235.5 -44t-185.5 -122l-7 -8v0q-15 -19 -15 -41q0 -29 19 -48.5t48 -19.5q19 0 33.5 10t23.5 24q57 59 139.5 93t179.5 34q172 -3 287.5 -99t120.5 -254v-147h-992q-86 -5 -142.5 -62.5t-58.5 -143.5v-760 q2 -87 61 -146.5t147 -60.5h1181q88 1 147 60.5t61 146.5v760q-2 85 -57.5 143t-139.5 63zM887 271v-171q-2 -43 -30.5 -71.5t-72.5 -28.5t-71.5 28.5t-29.5 71.5v171q-33 25 -50.5 60t-17.5 76q1 71 48.5 118.5t120.5 47.5t121 -47.5t50 -118.5q0 -41 -18.5 -76t-49.5 -60z " />
<glyph unicode="&#xf085;" d="M1366 883h-35v165q-7 214 -163 343t-383 132q-228 -3 -383.5 -132t-163.5 -343v-165h-34q-86 -1 -144 -59.5t-60 -144.5v-747q2 -86 60 -144.5t144 -59.5h1162q86 1 144 59.5t60 144.5v747q-2 86 -60 144.5t-144 59.5zM871 262v-167q-2 -43 -29.5 -71t-70.5 -28t-71 28 t-30 71v167q-30 25 -48 59t-18 75q2 70 49.5 117.5t118 47.5t118 -47.5t49.5 -117.5q0 -41 -18 -75t-50 -59zM1195 883h-820v165q5 158 121.5 254t288.5 99q172 -3 288.5 -99t121.5 -254v-165z" />
<glyph unicode="&#xf086;" d="M1765 -27l-14 49q-50 111 -223 220t-245 141q2 0 -30 -19l-110 -74l-249 -132l-349 215q-50 -16 -249 -122t-258 -240l-34 -115q-4 -9 -4 -20q0 -145 202 -145h1382q52 -3 123.5 18.5t79.5 121.5q0 25 -4.5 44.5t-17.5 57.5zM892 383q208 6 348 161t145 400 q-5 248 -142 411t-343 168q-206 -5 -343.5 -169t-142.5 -410q5 -243 138.5 -399t339.5 -162z" />
<glyph unicode="&#xf087;" d="M1179 1523q-258 -7 -429 -178t-178 -431q0 -54 9 -107.5t25 -100.5l-588 -588q-16 -19 -18 -46v-273q0 -27 19 -45.5t46 -18.5h272q29 0 48 21l110 120q16 16 18 42l1 35l34 4q22 4 38 16l86 79q22 20 22 48v31h34q23 0 39 12l73 54h38q31 0 48 22l99 105q73 -18 154 -18 q260 8 431 179t178 429q-7 260 -178 431t-431 178zM1263 858q-73 2 -122.5 51.5t-50.5 122.5q0 38 14 68v0v0q21 49 63.5 77.5t95.5 28.5q49 0 86 -23v0v0q33 -18 55 -47.5t30 -67.5v0v0q5 -18 3 -36q0 -73 -49 -122.5t-125 -51.5z" />
<glyph unicode="&#xf088;" d="M145 690l-82 -81q-25 -27 -41.5 -60t-19.5 -69q-2 -39 10.5 -74t37.5 -60l566 -568q49 -47 117 -47q39 0 76 15.5t65 43.5l90 92zM1735 1450q-42 45 -99 66.5t-124 13.5l-469 -46q-52 -6 -104 -28t-84 -55l-611 -613l820 -808l603 602q32 34 55 82.5t29 93.5l48 486 q11 120 -64 206zM1382 943q-74 1 -121.5 48.5t-47.5 120.5t47.5 120t120 47t120 -47t47.5 -120t-47.5 -120.5t-118.5 -48.5z" />
<glyph unicode="&#xf089;" d="M1378 883h-1003v165q5 158 121.5 254t288.5 99q97 0 178.5 -34t140.5 -93q9 -14 23.5 -24t33.5 -10q27 0 47 19.5t20 48.5q0 22 -15 41v0l-9 8q-77 78 -185.5 122t-233.5 44q-228 -3 -383.5 -132t-163.5 -343v-165h-34q-86 -1 -144 -59.5t-60 -144.5v-747 q2 -86 60 -144.5t144 -59.5h1162q86 1 144 59.5t60 144.5v747q-2 84 -56 140.5t-136 63.5zM871 262v-167q-2 -43 -29.5 -71t-70.5 -28t-71 28t-30 71v167q-30 25 -48 59t-18 75q2 70 49.5 117.5t118 47.5t118 -47.5t49.5 -117.5q0 -41 -18 -75t-50 -59z" />
<glyph unicode="&#xf08a;" d="M0 828l324 -278l45 -503l287 233l256 -192l876 1145zM511 439l-59 -131l-11 271l994 455z" />
<glyph unicode="&#xf08b;" d="M0 828l324 -278l45 -503l287 233l256 -192l876 1145zM323 656l-144 132l1265 303zM516 443l-5 -4l-58 -131l-12 271l994 455zM880 220l-255 189l956 663l-99 -135z" />
<glyph unicode="&#xf08c;" d="M894 1520q-380 -9 -632.5 -262t-261.5 -633q9 -379 261.5 -632t632.5 -262q380 9 632 262t261 632q-9 380 -261 633t-632 262zM771 152q-20 -19 -60 -21q-32 0 -52.5 15t-20.5 37v0l-7 876q2 22 22.5 37t50.5 15q36 0 58 -18l3 2l283 -231q248 -203 283 -239 q-35 -43 -280 -244.5t-280 -228.5z" />
<glyph unicode="&#xf08d;" d="M894 1520q-380 -9 -632.5 -262t-261.5 -633q9 -379 261.5 -632t632.5 -262q380 9 632 262t261 632q-9 380 -261 633t-632 262zM894 -136q-322 9 -537 224t-224 537q9 323 224 537t537 223q323 -9 537 -223t223 -537q-9 -322 -223 -537t-537 -224zM765 1095l-3 -2 q-22 18 -58 18q-30 0 -50.5 -15t-22.5 -37l7 -876v0q0 -22 20.5 -37t52.5 -15q40 2 60 21q35 27 280 228.5t280 244.5q-35 36 -283 239z" />
<glyph unicode="&#xf08e;" d="M1518 -42q-7 31 -18 86.5t-13 91.5h6v3q2 2 -3.5 23.5t-52.5 41.5q-5 0 -42 36.5t-51 106.5q4 7 12 74.5t-35 119.5q7 0 47.5 -20t40.5 -52q-9 -31 -16.5 -51.5t5.5 -45.5q23 -32 103 -88.5t90 -63.5q-3 3 -38 61.5t-50 115.5l70 -59q-10 11 -24.5 46.5t-27.5 68.5 q42 -33 51 -84q3 1 6 33.5t-37 62.5q5 0 48.5 -35t51.5 -99q-1 -11 15 -78t79 -73q-6 -1 -30 11.5t-33 67.5q0 -19 23.5 -48t98.5 -2q-7 -5 -50 13t-49 123q4 2 30 -8.5t33 -43.5q4 2 3 28t-44 56q2 4 -11 44.5t-52 81.5q4 0 36 2.5t48 18.5q-3 -1 -50 -5t-86 14 q2 8 -52.5 53.5t-192.5 43.5q-2 0 -27 -7t-65 -30q4 7 -51 58t-218 65q-14 -2 -133 42t-173 162l12 -3q13 -5 24 -16q-7 9 -23.5 27.5t-41.5 33.5q-16 7 -43 20.5t-19 16.5q14 2 21 0l9 -1l21.5 -3t68.5 -10q39 -2 72 4.5t46 16.5q0 -1 -22.5 -2t-60.5 15l24 2l116 45 l-104 3q-14 0 -25 2l-9 2v0q-39 7 -59 18l-1 1.5t-4 1.5l-11 7v0l-32 24q-18 12 -27 25q55 -18 120.5 -17t92.5 1q2 2 -116 39q1 -3 -47 17.5t-48 27.5q48 -13 97.5 -15.5t58.5 4.5l-146 36q-9 5 -30.5 13.5t-31.5 16.5q64 -14 100 0l47 17q0 -2 -47.5 3.5t-142.5 26.5 q-72 20 -120.5 34t-69.5 2q-2 2 -28 6.5t-44 -4.5l4 25q3 21 -2 43l-27 -32q-25 -31 -47 -49q-5 0 -43.5 -16t-52.5 -56q-6 -5 -47 -72t-50 -121q16 32 44.5 82.5t48.5 64.5q25 16 29.5 35t2.5 20l74 15l45 34l-70 -70l-20 -2q-22 -29 -35 -38.5t-24 -22.5q-29 -36 -50 -71 q3 -4 3 -12t-11 -19q-7 -5 -17 -12q-6 -17 -13 -29q0 -4 15 -21t44 -11q0 -4 16 -5t38 42q2 2 19 10t26 1q1 -4 22 -7.5t42 25.5q4 3 30 -36t20 -158q-3 -5 -32.5 -59t-33.5 -84q-5 2 -53.5 3t-70.5 -32q-1 0 -10 -12.5t-11 -33.5q-18 -7 -31.5 -24t-13.5 -44l-18 -145 q-2 -2 -4.5 -19t19.5 -17l8 -25q8 -26 20 -54q-9 0 -9 -11q0 -50 4.5 -152t4.5 -156v-54l-2 -54q0 -77 11 -109q23 -63 100 -84q49 -15 138 -15q199 0 248 76q27 43 27 154v86q0 52 4.5 155t4.5 153q0 11 -15 11q-25 0 -78 -2t-78 -2q-12 0 -12 -14q0 -65 3.5 -193t3.5 -192 q0 -88 -91 -88q-61 0 -81 32q-16 25 -16 95q0 57 4.5 174.5t4.5 174.5q0 11 -13 11q-27 0 -80 2h-13l50 61l-27 4l-62 -51l19 59q-10 8 -12 35q-2 7 -5.5 69.5t17.5 93.5l18 -9q4 -16 19 -34t48 -17q3 -3 46 -25.5t79 -15.5q2 -2 11 5.5t-6 48.5l-16 11l-34 48v-5l25 -84 l-53 59q-2 0 -17.5 4.5t-20 15t-11.5 24.5v0q2 -1 24.5 -4.5t45.5 -0.5l9 5l41 -57l9 -7q11 -5 25 -7q33 -27 84 -50q0 -9 99 -73.5t296 -79.5q5 2 35.5 -20.5t28.5 -101.5q-5 -1 2 -34.5t93 -76.5h-3q25 -14 68 -34.5t70 -18.5q9 0 37.5 -35t-18.5 -112l-16 -45 q-14 -43 -43 -102l-30 -61l75 -2l2 2l59 -2v2h-59l66 30l-11 15q0 3 -1 7l-88 -33l70 63q3 25 30 111t72 149q3 2 10.5 23.5t-26.5 42.5l-9 2q-9 0 -47 29.5t7 97.5q2 -3 45 -46t115 -83h21q16 -9 52 -57t41 -136v-36h-1l-24 -75l115 75l-21 34l-40 -20z" />
<glyph unicode="&#xf090;" d="M575 713q-61 -9 -127 11t-124 70q-93 84 -111 192.5t49 190.5q71 77 180.5 75.5t206.5 -82.5q57 -50 86.5 -112t29.5 -124l170 -146q36 128 -9.5 264t-167.5 244q-163 134 -346 137.5t-301 -127.5q-111 -138 -81.5 -317t187.5 -321q123 -105 265.5 -130t262.5 30z M1573 593q-123 106 -265.5 131t-262.5 -30l170 -147q61 9 127.5 -11t123.5 -68q95 -85 113 -193t-49 -191q-71 -77 -180.5 -75t-207.5 82q-58 51 -87.5 112.5t-29.5 124.5l-168 145q-38 -127 8.5 -264t168.5 -245q163 -134 346 -137t301 128q111 138 80.5 317.5 t-188.5 320.5zM1265 258q-9 -9 -22.5 -8t-25.5 12l-758 652q-13 11 -15.5 24.5t4.5 22.5l54 62q9 9 22.5 8t25.5 -10l758 -654q13 -10 15.5 -22.5t-4.5 -23.5z" />
<glyph unicode="&#xf091;" d="M548 824l81 -268l116 130l-277 837h-135l-333 -1005h159l95 308h294v-2zM394 1290h13l107 -355h-227zM849 -73l-324 286q-21 18 -44.5 20t-36.5 -11l-86 -97q-12 -16 -6.5 -37.5t24.5 -40.5l325 -287q21 -20 44.5 -21.5t35.5 12.5l86 97q13 16 7.5 37.5t-25.5 41.5z M1374 681l-145 129q-61 52 -127 54.5t-109 -43.5l-6 -6q-5 -1 -7 -5l-389 -439q-18 -22 -9 -53t40 -60l278 -245q30 -27 63 -31.5t51 14.5l171 192q7 6 12 13l217 245q41 50 30.5 115.5t-70.5 119.5z" />
<glyph unicode="&#xf092;" d="M315 805q-86 84 -100 188t50 183q72 77 181.5 75t205.5 -83q58 -48 87.5 -110t29.5 -126l149 -127h25q28 123 -18.5 255t-162.5 236q-163 134 -346 136.5t-301 -127.5q-86 -103 -88 -237t75 -263h213zM1486 452q84 -85 98 -188t-50 -180q-72 -79 -181 -77t-208 83 q-57 50 -86.5 111.5t-29.5 124.5l-147 126h-27q-29 -124 17.5 -254t165.5 -234q163 -134 344.5 -137.5t301.5 126.5q86 103 87 237t-74 262h-211zM462 914l129 -111h215l-252 217q-13 10 -26.5 11t-22.5 -8l-53 -62q-8 -11 -5 -23.5t15 -23.5zM1312 367l-99 85h-217 l224 -192q13 -11 26.5 -11t22.5 9l53 61q8 11 5 24.5t-15 23.5zM1792 611q-2 -18 -22 -20h-1748q-20 2 -22 20v65q2 18 22 19h1748q20 -1 22 -19v-65z" />
<glyph unicode="&#xf093;" d="M1120 1405q0 -25 -16 -41t-40 -16h-1008q-24 0 -40 16t-16 41v63q0 23 16 39t40 16h1008q24 0 40 -16t16 -39v-63zM1796 926q0 26 -16.5 42t-39.5 16h-1681q-23 0 -39 -16t-16 -42v-62q0 -24 16 -40t39 -16h1681q23 0 39.5 16t16.5 40v62zM1124 387q0 23 -16.5 39.5 t-39.5 16.5h-1009q-23 0 -39 -16.5t-16 -39.5v-63q0 -23 16 -40t39 -17h1009q23 0 39.5 17t16.5 40v63zM1796 -154q0 25 -16.5 41t-39.5 16h-1681q-23 0 -39 -16t-16 -41v-63q0 -23 16 -39t39 -16h1681q23 0 39.5 16t16.5 39v63z" />
<glyph unicode="&#xf094;" d="M1792 1405q0 -25 -16 -41t-40 -16h-1008q-24 0 -40 16t-16 41v63q0 23 16 39t40 16h1008q24 0 40 -16t16 -39v-63zM1792 926q0 26 -16 42t-40 16h-1680q-24 0 -40 -16t-16 -42v-62q0 -24 16 -40t40 -16h1680q24 0 40 16t16 40v62zM1792 387q0 23 -16 39.5t-40 16.5h-1008 q-24 0 -40 -16.5t-16 -39.5v-63q0 -23 16 -40t40 -17h1008q24 0 40 17t16 40v63zM1792 -154q0 25 -16 41t-40 16h-1680q-24 0 -40 -16t-16 -41v-63q0 -23 16 -39t40 -16h1680q24 0 40 16t16 39v63z" />
<glyph unicode="&#xf095;" d="M1627 1176q0 9 6.5 14t15.5 5h102q18 -2 19 -19v-1146q-1 -19 -19 -21h-102q-9 0 -15.5 6.5t-6.5 14.5v1146zM22 1176q1 17 19 19h102q20 -2 22 -19v-1146q-2 -19 -22 -21h-102q-18 2 -19 21v1146zM0 1468q0 23 16 39t40 16h62q25 0 41.5 -16t16.5 -39v-1681 q0 -24 -16.5 -40t-41.5 -16h-62q-24 0 -40 16t-16 40v1681zM1616 1468q0 23 16.5 39t41.5 16h62q24 0 40 -16t16 -39v-1681q0 -24 -16 -40t-40 -16h-62q-25 0 -41.5 16t-16.5 40v1681zM1457 312q0 -23 -17 -39.5t-40 -16.5h-1008q-23 0 -39 16.5t-16 39.5v63q0 25 16 41 t39 16h1008q23 0 40 -16t17 -41v-63zM1457 -213q0 -24 -17 -40t-40 -16h-1008q-23 0 -39 16t-16 40v62q0 26 16 42t39 16h1008q23 0 40 -16t17 -42v-62zM771 1263h-61h-119v260l-281 -364l281 -331v260h180q23 0 39 16t16 39v63q0 25 -15 41t-40 16zM1480 1159l-279 362 v-258h-180q-23 0 -39 -16t-16 -41v-63q0 -23 16 -39t39 -16h180v-258z" />
<glyph unicode="&#xf096;" d="M1457 1405q0 -25 -17 -41t-40 -16h-1008q-23 0 -39 16t-16 41v63q0 23 16 39t39 16h1008q23 0 40 -16t17 -39v-63zM1792 926q0 26 -16 42t-40 16h-1680q-24 0 -40 -16t-16 -42v-62q0 -24 16 -40t40 -16h1680q24 0 40 16t16 40v62zM1457 387q0 23 -17 39.5t-40 16.5h-1008 q-23 0 -39 -16.5t-16 -39.5v-63q0 -23 16 -40t39 -17h1008q23 0 40 17t17 40v63zM1792 -154q0 25 -16 41t-40 16h-1680q-24 0 -40 -16t-16 -41v-63q0 -23 16 -39t40 -16h1680q24 0 40 16t16 39v63z" />
<glyph unicode="&#xf097;" d="M717 744h-142l-84 238h-260l-84 -238h-142l296 779h120zM462 1068l-95 274h-12l-95 -274h202zM713 -269h-713v86l539 601h-498v86h653v-86l-540 -601h559v-86zM1118 -269l-75 99l-258 288h278v1405h113v-1405h277l-258 -288z" />
<glyph unicode="&#xf098;" d="M1550 1208h-206v-208h-106v208h-208v100h208v208h106v-208h206v-100zM1426 -269h-284l-167 473h-523l-167 -473h-285l595 1545h238zM916 375l-190 544h-24l-191 -544h405z" />
<glyph unicode="&#xf099;" d="M1238 1312h-208v100h208v-100zM1238 1412h312v-100h-312v100zM1426 -269h-284l-167 473h-523l-167 -473h-285l595 1545h238zM916 375l-190 544h-24l-191 -544h405z" />
<glyph unicode="&#xf09a;" d="M1426 -265h-284l-167 473h-523l-167 -473h-285l593 1546h238zM916 378l-192 545h-23l-190 -545h405zM2023 -254h-134q-11 10 -16.5 30t-5.5 48q-39 -44 -95.5 -66.5t-115.5 -22.5q-92 0 -152 45.5t-60.5 129t55 133.5t173.5 66q77 11 136 29t59 45q0 34 -25 67t-109 33 q-66 0 -97.5 -26t-42.5 -69h-122q11 90 81 142.5t181 52.5q125 0 186 -55.5t61 -157.5v-306q0 -34 11 -62t32 -56zM1867 -47v112l-64 -20q-33 -9 -104 -20q-83 -11 -108 -38.5t-25 -67.5q0 -34 25 -59t75.5 -25t108.5 28.5t92 89.5z" />
<glyph unicode="&#xf09b;" d="M717 -269h-142l-84 240h-260l-84 -240h-142l296 782h120zM462 57l-95 275h-12l-95 -275h202zM713 753h-713v84l539 600h-498v86h653v-86l-540 -600h559v-84zM1118 -269l-75 99l-258 288h278v1405h113v-1405h277l-258 -288z" />
<glyph unicode="&#xf09c;" d="M778 1383l-214 -1519h310v-140h-874v140h326l213 1519h-313v140h874v-140h-322z" />
<glyph unicode="&#xf09d;" d="M1357 1523v-231v-588q-6 -166 -136 -277.5t-325 -114.5q-195 3 -325 114.5t-136 277.5v819h-216v-833q7 -246 197.5 -409t479.5 -168q289 5 480.5 168t198.5 409v833h-218zM1792 -220q0 -26 -20.5 -43t-49.5 -17h-1652q-29 0 -49.5 17t-20.5 43v86q0 25 20.5 41t49.5 16 h1652q29 0 49.5 -16t20.5 -41v-86z" />
<glyph unicode="&#xf09e;" d="M1260 265q0 -301 -189 -414.5t-483 -113.5h-588v1770h611q296 0 443 -134.5t147 -321.5t-101.5 -274t-205.5 -119q140 -31 253 -129.5t113 -263.5zM930 1052q0 134 -88.5 197t-217.5 61h-353v-548h340q129 0 224 68t95 222zM977 265q0 165 -124 232t-276 67h-306v-630 h270q212 0 324 71.5t112 259.5z" />
<glyph unicode="&#xf100;" d="M782 1301l2 -4q30 -30 30 -72t-30 -73l-531 -530l525 -527q31 -30 31 -72.5t-31 -72.5l-2 -4q-30 -28 -72 -28t-73 28l-597 597q-23 23 -28.5 53.5t7.5 59.5q5 27 27 48l595 597q32 30 73 30t74 -30z" />
<glyph unicode="&#xf101;" d="M32 -54l-2 4q-30 30 -30 72.5t30 72.5l531 530l-525 527q-31 31 -31 73t31 72l2 4q30 30 72 30t73 -30l597 -597q23 -23 28.5 -53.5t-3.5 -58.5t-31 -49l-595 -597q-32 -28 -73 -28t-74 28z" />
<glyph unicode="&#xf102;" d="M29 996l3 2q31 31 73 31t72 -31l531 -530l527 527q30 30 72 30t73 -30l3 -4q31 -30 31 -72.5t-31 -72.5l-596 -597q-24 -23 -54.5 -28.5t-58.5 7.5q-27 5 -49 26l-596 595q-29 33 -29 74t29 73z" />
<glyph unicode="&#xf103;" d="M1383 251l-3 -2q-31 -30 -73 -30t-72 30l-531 531l-527 -526q-30 -30 -72 -30t-73 30l-3 2q-29 31 -29 73t29 72l596 597q24 23 54.5 28.5t58 -3.5t49.5 -30l596 -595q31 -32 31 -73.5t-31 -73.5z" />
</font>
</defs>
</svg>
